<svg xmlns="http://www.w3.org/2000/svg" width="265" height="192" fill="none"><g clip-path="url(#a)"><path fill="#fff" d="M73.718 106.845c4.297-4.635 7.227-10.186 9.993-15.551a23.426 23.426 0 0 0-5.392-6.075 46.842 46.842 0 0 1-13.649 10.4c-.588.286-.537 1.31-.19 1.713.27.309 7.112 7.593 9.238 9.513ZM53.69 107.541c-4.61-4.325-7.922-9.659-11.058-14.819a23.411 23.411 0 0 1 4.955-6.434 46.891 46.891 0 0 0 14.343 9.427c.607.243.628 1.27.31 1.695-.247.328-6.563 8.069-8.55 10.131Z"/><path fill="#FDE9D7" d="M89.48 46.727a4.507 4.507 0 0 1 3.207-1.314 4.195 4.195 0 0 1 2.184.436c.676.34 1.246.855 1.65 1.492 1.362 2.15 1.468 6.21.712 8.752-.536 1.801-1.42 4.559-3.737 6.602a4.97 4.97 0 0 1-3.781 1.25l-.37-.048a28.905 28.905 0 0 1-1.175 3.608c-.747 2.295-4.56 9.595-9.852 14.048v3.666a46.846 46.846 0 0 1-13.648 10.4l-2.74.096a46.892 46.892 0 0 1-14.343-9.427V83.95a27.707 27.707 0 0 1-7.267-5.918 34.07 34.07 0 0 1-6.978-11.944 4.895 4.895 0 0 1-4.18-.87c-2.47-1.855-3.57-4.535-4.247-6.288-.955-2.477-1.17-6.53.018-8.78a4.172 4.172 0 0 1 1.526-1.615 4.196 4.196 0 0 1 2.144-.607 4.524 4.524 0 0 1 3.298 1.059S26.355 19.316 60.91 19.316c33.955 0 28.571 27.41 28.571 27.41Z"/><path fill="#AAA" d="M237.666 83.085c3.917-1.579 9.048-4.881 10.967-6.777a16.408 16.408 0 0 0 4.736-9.051c.916-5.208-.381-10.19-1.78-15.158-1.447-5.125-2.221-10.194-3.089-15.446-.783-4.742-1.744-9.753-3.869-14.068-2.783-5.656-7.409-9.726-13.586-11.084l-5.515-1.559c-7.411-4.708-20.5-3.1-28.174 1.844-7.716 4.97-11.92 12.55-15.17 20.526-4.004 9.831-7.802 22.555-7.155 33.2.294 4.837 2.875 8.557 6.534 11.755 3.549 3.103 6.939 4.176 12.068 4.749l44.033 1.069Z"/><path fill="#FDE9D7" d="M189.02 54.37a31.53 31.53 0 0 1 1.929-4.169c1.604-2.872 4.139-5.441 6.922-7.947 4.757.13 10.139-.22 10.139-.22 7.709-1.432 12.093-5.236 17.533-10.3 7.327 3.89 11.63 11.305 13.53 16.908l2.328 4.708a4.28 4.28 0 0 1 3.14-.959 3.97 3.97 0 0 1 2.021.602 3.946 3.946 0 0 1 1.424 1.55c1.095 2.148.838 5.984-.099 8.316-.663 1.65-1.741 4.174-4.105 5.899a4.705 4.705 0 0 1-3.676.848l-.245-.055a28.033 28.033 0 0 1-1.522 3.474c-.908 2.054-5.063 8.38-10.34 12.106.017 1.313-.017 1.88.112 3.638.022.861.168 1.716.435 2.536a6.189 6.189 0 0 0 1.868 2.708c1.898 1.523 3.849 2.25 6.252 3.15l2.195.86a58.256 58.256 0 0 1-24.897 6.138c-8.373.033-19.355-2.842-25.24-6.118l2.245-.88c2.403-.9 4.355-1.627 6.253-3.15a6.197 6.197 0 0 0 1.868-2.708c.266-.82.413-1.675.434-2.537.121-1.642.099-2.245.109-3.392a24.014 24.014 0 0 1-6.801-6.183 33.79 33.79 0 0 1-.587-.773 32.37 32.37 0 0 1-5.765-13.544 47.03 47.03 0 0 1 2.54-10.507Z"/><path fill="#211715" d="M198.113 85.748a42.089 42.089 0 0 1-.064 2.356c.009.953-.134 1.9-.423 2.809-.698 1.753-2.284 2.715-3.927 3.516-2.059 1-4.29 1.729-6.424 2.564a1.56 1.56 0 0 0-1.063 1.865c.11.386.368.712.718.91.35.198.765.25 1.153.146 2.558-1.002 5.259-1.856 7.685-3.141a13.18 13.18 0 0 0 2.835-1.95 8.013 8.013 0 0 0 1.882-2.929c.752-1.877.659-4.15.67-6.149.01-1.95-3.035-1.953-3.045 0l.003.003ZM226.485 85.748c.011 1.998-.082 4.272.671 6.149a7.996 7.996 0 0 0 1.882 2.928 13.188 13.188 0 0 0 2.834 1.95c2.426 1.285 5.127 2.14 7.685 3.142.389.104.804.051 1.155-.147a1.53 1.53 0 0 0 .718-.911 1.546 1.546 0 0 0-.156-1.145 1.557 1.557 0 0 0-.907-.72c-2.134-.836-4.365-1.565-6.424-2.565-1.637-.796-3.236-1.764-3.927-3.516a9.133 9.133 0 0 1-.424-2.809 45.161 45.161 0 0 1-.063-2.356c-.01-1.95-3.055-1.954-3.045 0h.001Z"/><path fill="#FED8A5" d="M263.475 123.72c.036 9.562-.594 20.667-2.849 30.736-1.633 7.289-4.346 14.972-9.868 20.316-5.233 5.064-14.267 5.543-20.325 3.083a17.82 17.82 0 0 1-3.924-2.156 14.98 14.98 0 0 1-6.044 1.669c-3.342.05-6.685.107-10.034.139.163 1.25.308 2.457.427 3.58-8.31 2.351-17.881 3.778-26.937 4.517-7.602.622-15.478.383-20.906-5.94-5.011-5.838-5.582-14.077-5.657-21.417-.072-7.021.303-14.054.824-21.053.579-7.828 3.786-20.599 8.146-27.138 4.603-6.903 12.031-9.195 19.831-11.727l1.523-.434c.342-.097.578-.126.678-.063 5.786 3.362 17.055 6.362 25.608 6.329a57.843 57.843 0 0 0 25.954-6.703c6.548 2.084 11.542 4.388 15.641 8.403 3.576 3.908 7.389 8.979 7.912 17.859Z"/><path fill="#FDE9D7" d="M217.897 161.296c-.302-.918-.597-1.855-.885-2.812a29.981 29.981 0 0 1-8.363 1.452l-1.051.032c.645 3.241 1.986 11 2.836 17.537 3.348-.032 6.691-.089 10.034-.139a15.028 15.028 0 0 0 6.046-1.667 19.692 19.692 0 0 1-6.351-8.36c-.799-1.842-1.555-3.883-2.266-6.043Z"/><path fill="#211715" d="M74.826 84.173v3.082c.004.402.163.786.444 1.074a1.524 1.524 0 0 0 2.6-1.074v-3.082a1.557 1.557 0 0 0-.443-1.073 1.525 1.525 0 0 0-2.601 1.073ZM226.301 8.633c-6.232-3.896-14.63-3.613-21.479-1.722a29.901 29.901 0 0 0-9.921 4.737 35.957 35.957 0 0 0-8.254 8.71 59.763 59.763 0 0 0-5.554 10.652 118.996 118.996 0 0 0-4.284 11.954 85.14 85.14 0 0 0-2.872 13.108c-.534 4.029-.966 8.49.036 12.479 1.071 4.263 4.039 7.879 7.448 10.558 3.597 2.828 7.73 3.911 12.213 4.421a1.536 1.536 0 0 0 1.074-.446c.285-.284.446-.668.449-1.07a1.55 1.55 0 0 0-.456-1.061 1.564 1.564 0 0 0-1.067-.454c-3.443-.393-6.759-1.2-9.623-3.218a18.696 18.696 0 0 1-6.526-7.758c-1.437-3.507-1.113-7.615-.753-11.305a73.434 73.434 0 0 1 2.364-12.176 115.588 115.588 0 0 1 3.901-11.673 70.269 70.269 0 0 1 4.669-9.927c3.566-6.091 8.699-11.345 15.454-13.805a32.49 32.49 0 0 1 11.435-1.986c3.544.038 7.171.703 10.209 2.602 1.665 1.04 3.194-1.58 1.537-2.618v-.002ZM230.643 12.962a18.059 18.059 0 0 1 11.11 7.666c3.195 4.787 4.305 10.577 5.234 16.153.521 3.13 1.009 6.264 1.63 9.376.621 3.112 1.496 6.143 2.284 9.213 1.43 5.562 2.14 11.688-.951 16.845a17.036 17.036 0 0 1-5.222 5.248 40.703 40.703 0 0 1-7.466 4.16 1.572 1.572 0 0 0-.903.723 1.56 1.56 0 0 0-.161 1.142 1.53 1.53 0 0 0 1.873 1.058 43.887 43.887 0 0 0 7.414-3.944 23.316 23.316 0 0 0 5.547-4.68c4.142-5.126 4.757-11.6 3.588-17.897-.602-3.24-1.65-6.37-2.398-9.576-.779-3.334-1.35-6.711-1.903-10.088-1.01-6.142-1.972-12.511-5.138-17.988a21.322 21.322 0 0 0-5.774-6.602 21.43 21.43 0 0 0-7.955-3.729c-1.908-.431-2.723 2.49-.809 2.923v-.003Z"/><path fill="#211715" d="M209.445 28.241c-3.147 5.472-8.613 9.241-13.195 13.433a34.513 34.513 0 0 0-6.199 7.054 34.672 34.672 0 0 0-3.968 9.99 63.555 63.555 0 0 0-1.664 12.726c-.076 1.95 2.969 1.947 3.045 0 .275-7.074 1.345-14.633 5.002-20.833a29.669 29.669 0 0 1 5.597-6.48c2.361-2.188 4.861-4.223 7.231-6.402a34.392 34.392 0 0 0 6.777-7.957c.976-1.696-1.654-3.225-2.629-1.53h.003ZM225.805 29.414c-2.652 2.475-5.278 5.04-8.288 7.089a26.036 26.036 0 0 1-9.912 4.07c-.387.11-.715.368-.914.717a1.526 1.526 0 0 0-.15 1.148c.115.383.374.707.723.905.349.197.762.252 1.151.154a28.219 28.219 0 0 0 10.638-4.377c3.229-2.197 6.06-4.908 8.906-7.562 1.432-1.337-.724-3.478-2.154-2.144Z"/><path fill="#211715" d="M225.221 33.287c5.969 3.384 10.192 9.36 12.384 15.759.629 1.836 3.572 1.048 2.937-.806-2.446-7.137-7.116-13.79-13.784-17.57-1.706-.968-3.242 1.65-1.537 2.617ZM209.326 75.554l.278-.127c.223-.103-.108.056-.153.063.07-.02.138-.048.203-.08a7.6 7.6 0 0 1 .892-.273c.195-.047.392-.08.589-.12.292-.056-.182.014.019-.005.11-.01.218-.024.326-.033a12.342 12.342 0 0 1 1.694-.021c.268.014.535.041.803.068-.299-.03.151.024.173.028.111.019.222.04.333.063a8.061 8.061 0 0 1 1.322.388c.11.042.062.021-.142-.063.049-.008.161.074.203.094.132.063.262.134.388.21.098.058.19.122.285.185.294.194-.31-.264-.006 0a1.528 1.528 0 0 0 2.155.002 1.512 1.512 0 0 0 .002-2.146c-1.477-1.278-3.435-1.727-5.345-1.853a11.275 11.275 0 0 0-5.553 1 1.522 1.522 0 0 0-.546 2.073 1.57 1.57 0 0 0 2.083.544l-.003.003ZM212.149 61.436a28.758 28.758 0 0 0-.69 2.463c-.091.324-.133.66-.127.995a2.07 2.07 0 0 0 .956 1.682c.419.258.896.41 1.387.442.304.007.608-.02.905-.082l-.404.054a3.05 3.05 0 0 1 .131-.014c.402-.01.786-.167 1.078-.443a1.51 1.51 0 0 0 0-2.143 1.502 1.502 0 0 0-1.078-.442c-.214.017-.428.053-.641.083l.405-.054a1.665 1.665 0 0 1-.441.007l.405.054a1.51 1.51 0 0 1-.293-.082l.364.152a1.673 1.673 0 0 1-.317-.174l.308.237a.388.388 0 0 1-.063-.063l.238.306a.584.584 0 0 1-.063-.11l.153.361a.788.788 0 0 1-.034-.126l.054.403a1.334 1.334 0 0 1 .004-.334l-.054.403c.088-.483.205-.96.351-1.428.127-.447.259-.894.401-1.337a1.53 1.53 0 0 0-1.062-1.868 1.563 1.563 0 0 0-1.15.155 1.55 1.55 0 0 0-.723.903ZM199.438 53.697c-.541 1.432-.453 4.806 2.306 5.26 3.671.203 4.115-3.844 2.997-5.827-.913-1.623-3.844-2.455-5.303.567ZM228.826 55.487c.361 1.486-.138 4.825-2.933 4.941-3.668-.245-3.616-4.315-2.262-6.148 1.108-1.5 4.122-1.969 5.195 1.207ZM221.369 72.343c.093.1.18.202.264.31l-.239-.307c.26.344.476.719.643 1.116l-.153-.362c.122.293.228.592.317.897.111.378.36.7.697.906a1.53 1.53 0 0 0 1.698-.106 1.517 1.517 0 0 0 .539-1.606 9.994 9.994 0 0 0-.617-1.574 6.118 6.118 0 0 0-.999-1.418 1.527 1.527 0 0 0-2.153 0 1.523 1.523 0 0 0-.444 1.074c.011.4.169.782.444 1.073l.003-.003ZM222.302 89.297c3.938-.66 7.381-3.225 10.167-5.945a39.991 39.991 0 0 0 6.41-8.103 32.463 32.463 0 0 0 2.45-5.294l-1.873 1.06c5.058 1.128 8.259-3.616 9.868-7.676a13.73 13.73 0 0 0 .839-6.355c-.198-1.859-.755-3.712-2.288-4.902a6.132 6.132 0 0 0-7.549.198 1.523 1.523 0 0 0 0 2.143 1.561 1.561 0 0 0 2.153 0 2.981 2.981 0 0 1 2.653-.392c.476.11.903.374 1.212.752.119.14.127.148.026.024.049.069.095.14.139.212.838 1.492.798 3.466.538 5.112a13.14 13.14 0 0 1-1.948 4.982c-1.02 1.629-2.715 3.45-4.832 2.978a1.566 1.566 0 0 0-1.873 1.059 30.35 30.35 0 0 1-4.165 7.578 31.452 31.452 0 0 1-7.404 7.377 13.575 13.575 0 0 1-5.332 2.267c-.388.11-.716.367-.915.716a1.522 1.522 0 0 0-.148 1.149c.115.382.374.706.723.903.349.197.761.253 1.15.155l-.001.002ZM185.014 65.284a34.006 34.006 0 0 0 4.372 11.6c2.25 3.698 5.244 7.166 8.948 9.48a19.33 19.33 0 0 0 6.238 2.503c1.912.403 2.728-2.519.81-2.923-4.751-1-8.48-3.975-11.407-7.74a31.364 31.364 0 0 1-6.026-13.726 1.534 1.534 0 0 0-1.873-1.058 1.553 1.553 0 0 0-1.064 1.864h.002ZM228.5 49.926c.426.591.904 1.144 1.428 1.651.308.287.633.554.973.801.301.215.63.387.978.513.196.063.406.072.607.027a1.13 1.13 0 0 0 .566-.18 1.517 1.517 0 0 0 .546-2.073l-.238-.307a1.512 1.512 0 0 0-.672-.39l-.045-.018.364.152a3.159 3.159 0 0 1-.648-.401l.308.237a9.44 9.44 0 0 1-1.641-1.675l.238.307a6.731 6.731 0 0 1-.132-.175 1.7 1.7 0 0 0-.91-.694 1.565 1.565 0 0 0-1.173.152 1.536 1.536 0 0 0-.698.907 1.477 1.477 0 0 0 .154 1.168l-.005-.002ZM189.642 95.569c-6.204 2.16-12.894 3.703-18.382 7.46a23.13 23.13 0 0 0-6.702 6.969 43.556 43.556 0 0 0-3.781 8.299 74.775 74.775 0 0 0-4.076 18.343 200.464 200.464 0 0 0-.803 24.518c.247 6.832 1.354 13.968 5.879 19.389 4.433 5.309 11.197 6.898 17.857 6.8 3.681-.11 7.355-.408 11.005-.895 4.041-.478 8.071-1.081 12.064-1.87 1.97-.389 3.93-.827 5.879-1.315.93-.139 1.836-.407 2.691-.796a2.311 2.311 0 0 0 .988-2.457c-.381-3.32-.861-6.631-1.377-9.931a330.896 330.896 0 0 0-1.459-8.626 18.066 18.066 0 0 0-.556-2.704c-.584-1.654-2.194-1.415-3.569-1.263a781.958 781.958 0 0 1-19.271 1.868c-2.057.178-4.115.348-6.173.51-.4.01-.782.173-1.065.455a1.549 1.549 0 0 0-.457 1.061c.003.401.164.785.449 1.068.285.284.67.445 1.073.448a884.27 884.27 0 0 0 25.155-2.352l.959-.106.482-.053.222-.026c.192-.012.141-.028-.153-.047l-.546-.544c.247.322.317 1.42.411 1.934.182.971.358 1.944.527 2.919.442 2.526.857 5.057 1.243 7.592.389 2.556.753 5.116 1.049 7.683.002.148.019.295.05.439l.024.216.39-.712a7.182 7.182 0 0 0-1.079.288 115.36 115.36 0 0 1-7.124 1.608 150.597 150.597 0 0 1-18.972 2.453c-5.027.324-10.403.203-14.824-2.507-4.664-2.862-6.997-7.997-7.988-13.176-1.112-5.815-.895-11.925-.72-17.811.104-3.459.288-6.916.519-10.369.172-2.565.356-5.116.771-7.652a76.674 76.674 0 0 1 4.027-15.104c1.724-4.484 4.068-8.729 8.05-11.599 4.237-3.054 9.312-4.587 14.226-6.183 1.303-.422 2.604-.85 3.898-1.3.383-.116.706-.373.904-.72.198-.346.254-.754.158-1.14a1.53 1.53 0 0 0-.719-.912 1.542 1.542 0 0 0-1.154-.147v-.003Z"/><path fill="#211715" d="M175.15 131.628c1.185 9.879 2.386 19.756 3.523 29.641.011.398.175.777.458 1.059.283.282.664.445 1.064.457a1.533 1.533 0 0 0 1.523-1.516c-1.137-9.885-2.338-19.762-3.523-29.641a1.557 1.557 0 0 0-.459-1.058 1.573 1.573 0 0 0-1.063-.458 1.537 1.537 0 0 0-1.074.447 1.52 1.52 0 0 0-.449 1.069ZM238.119 96.704a55.114 55.114 0 0 1-20.177 5.76c-6.703.586-13.412-.431-19.842-2.317a40.996 40.996 0 0 1-8.972-3.62c-1.699-.98-3.235 1.641-1.537 2.617a42.634 42.634 0 0 0 8.404 3.531 66.267 66.267 0 0 0 10.268 2.375c3.484.55 7.018.728 10.541.532a58.902 58.902 0 0 0 11.584-1.958 57.35 57.35 0 0 0 11.268-4.303c1.741-.896.203-3.514-1.537-2.618v.001ZM210.468 179.022c2.981-.029 5.958-.077 8.938-.123a18.115 18.115 0 0 0 7.231-1.587 1.526 1.526 0 0 0 .547-2.074 1.564 1.564 0 0 0-2.084-.544 15.264 15.264 0 0 1-3.371 1.032c-.971.129-1.951.18-2.93.151-2.777.044-5.555.087-8.332.114-1.959.019-1.963 3.05 0 3.031h.001ZM208.646 161.454a32.102 32.102 0 0 0 8.674-1.477c.389-.107.72-.364.919-.713a1.51 1.51 0 0 0-.572-2.067 1.527 1.527 0 0 0-1.157-.144 30.45 30.45 0 0 1-5.006 1.147c.277-.04-.209.025-.213.025a31.153 31.153 0 0 1-2.642.198c-.404 0-.791.159-1.077.444a1.512 1.512 0 0 0 1.077 2.587h-.003Z"/><path fill="#211715" d="M264.997 123.72a28.898 28.898 0 0 0-6.2-16.41 27.443 27.443 0 0 0-5.559-5.358 36.449 36.449 0 0 0-7.467-3.999 95.665 95.665 0 0 0-10.49-3.458c-1.889-.534-2.694 2.39-.81 2.923 5.54 1.566 11.222 3.218 16.092 6.375a25.264 25.264 0 0 1 8.102 8.6 25.142 25.142 0 0 1 3.288 11.327c.008.399.171.779.455 1.062a1.56 1.56 0 0 0 1.067.453 1.527 1.527 0 0 0 1.522-1.515Z"/><path fill="#FDE9D7" d="M234.54 99.851a32.82 32.82 0 0 0 2.093-3.392 23.96 23.96 0 0 0 .899-1.895c1.896-6.12 3.054-16.574 3.323-22.03a5.375 5.375 0 0 0-.306-2.7 2.975 2.975 0 0 0-2.613-1.585c-1.953.189-2.538 1.447-2.762 2.625-.088.462-.19 1.166-.253 1.729l-.042-.05a3.113 3.113 0 0 0-2.6-1.29c-1.478.135-2.434 1.25-2.788 2.995-.533 2.683-1.625 7.175-2.571 10.687.054-1.214.086-2.347.123-3.712a4.477 4.477 0 0 0-.335-1.788 1.762 1.762 0 0 0-1.197-1.066 2.274 2.274 0 0 0-2.284 1.126 8.224 8.224 0 0 0-.66 2.638 34.009 34.009 0 0 1-1.856 7.54c-1.827 4.298-7.11 9.79-7.77 13.286-.368 1.952-.047 3.537.214 5.261.265 1.745.818 3.631.903 5.823.283 4.245.436 6.795.622 10.827 5.887-1.116 12.394-2.372 17.972-3.354-1.548-3.398-3.31-7.769-3.045-10.241a14.635 14.635 0 0 1 3.013-8.748c.698-.965 1.333-1.838 1.92-2.686Z"/><path fill="#211715" d="M228.599 84.567c.796-3.017 1.553-6.049 2.197-9.102.093-.566.23-1.125.408-1.67a3.66 3.66 0 0 1 .199-.368c.032-.054.212-.294.088-.145.098-.118.207-.225.326-.322-.19.151.158-.08.191-.096-.246.127.526-.12.274-.09.221-.04.449-.013.654.08.149.072.286.166.407.279.164.153.318.316.461.488a1.536 1.536 0 0 0 2.152 0 1.544 1.544 0 0 0 0-2.144 4.485 4.485 0 0 0-1.967-1.435 4.507 4.507 0 0 0-2.431-.198 4.758 4.758 0 0 0-2.171 1.261 4.72 4.72 0 0 0-1.22 2.188c-.479 1.58-.715 3.257-1.096 4.863a229.794 229.794 0 0 1-1.408 5.607c-.499 1.889 2.438 2.695 2.936.806v-.002Z"/><path fill="#211715" d="M239.002 94.962a74.186 74.186 0 0 0 2.347-11.827c.576-3.764.93-7.56 1.06-11.365.034-2.178-.958-4.056-3.083-4.825a4.324 4.324 0 0 0-2.985.133 4.302 4.302 0 0 0-2.18 2.034 8.38 8.38 0 0 0-.642 2.553c-.052.379-.136 1.092-.163 1.314-.017.132-.097.656-.14.947-.259 1.726-.524 3.45-.797 5.172-.605 3.834-1.176 7.695-2.029 11.482-.431 1.9 2.505 2.712 2.935.807.677-2.994 1.154-6.037 1.646-9.065.512-3.15 1.085-6.31 1.444-9.482.057-.685.17-1.365.34-2.032a1.155 1.155 0 0 1 .892-.978c1.459-.442 1.743 1.189 1.713 2.17-.105 3.41-.492 6.83-.931 10.21a72.607 72.607 0 0 1-2.361 11.945c-.571 1.87 2.365 2.67 2.936.805l-.002.002ZM216.203 124.878c-.245-5.336-.367-10.714-1.384-15.966-.421-2.172-.903-4.695-.037-6.744a30.978 30.978 0 0 1 3.262-5.264 38.36 38.36 0 0 0 3.984-6.459 1.567 1.567 0 0 0-.546-2.074 1.54 1.54 0 0 0-2.084.544c-1.797 4.134-5.152 7.365-7.101 11.412-1.167 2.428-1.131 4.873-.732 7.493.195 1.28.463 2.542.694 3.816a36.29 36.29 0 0 1 .398 4.175c.194 3.021.361 6.043.501 9.067.089 1.943 3.134 1.953 3.045 0Z"/><path fill="#211715" d="M233.972 120.756a39.5 39.5 0 0 1-2.563-6.878 12.125 12.125 0 0 1 .254-6.101c.621-2.235 1.974-4.042 3.307-5.904a35.14 35.14 0 0 0 3.884-6.552 1.562 1.562 0 0 0-.546-2.074 1.54 1.54 0 0 0-2.083.544 37.37 37.37 0 0 1-4.217 7.015c-1.476 2.051-2.791 4.121-3.395 6.605a15.292 15.292 0 0 0-.137 7.273 43.708 43.708 0 0 0 2.871 7.605 1.54 1.54 0 0 0 2.083.544 1.547 1.547 0 0 0 .546-2.074l-.004-.003ZM222.184 90.082a34.572 34.572 0 0 0 1.672-6.292c.112-.982.273-1.957.484-2.922.03-.117.064-.233.102-.348.069-.181.08-.219.032-.112.044-.095.094-.186.151-.274-.084.101-.064.085.059-.05l.063-.056c.087-.058.178-.11.272-.155-.307.135.387-.138.152-.032-.105.014-.079.018.079.01-.19-.029-.185-.02.01.03-.132-.05-.12-.033.038.051-.117-.08-.11-.058.021.063-.04-.148.03.113.051.183.037.127.131.487.134.513.061.867.049 1.739-.038 2.604-.06 1.853-.161 3.706-.301 5.558.004.401.165.785.45 1.068.285.284.67.444 1.073.448a1.547 1.547 0 0 0 1.522-1.516c.127-1.687.225-3.377.285-5.068.063-1.754.335-3.716-.571-5.314a3.327 3.327 0 0 0-3.73-1.508c-.466.125-.899.35-1.268.659-1.621 1.234-1.676 3.316-1.967 5.159a34.673 34.673 0 0 1-1.706 6.498 1.526 1.526 0 0 0 1.063 1.865 1.55 1.55 0 0 0 1.873-1.058l-.005-.004Z"/><path fill="#AAA" d="M36.505 31.858a13.042 13.042 0 0 0-1.67 2.532c-1.817 3.541.008 12.55-2.464 15.098a4.377 4.377 0 0 0-3.77-1.56 5.417 5.417 0 0 0-1.396.279c-1.224-3.905-2.122-8.159-2.113-11.582.033-11.466 3.472-18.494 9.36-23.545.224-.193.43-.406.615-.638 5.006-6.283 13.976-11.053 23.705-10.95 7.747.08 13.994 1.786 19.444 5.295l1.847 1.19 2.777 2.306c5.772 4.793 11.112 12.41 12.058 23.917a36.37 36.37 0 0 1-.927 11.348 5.626 5.626 0 0 0-1.284-.135 4.522 4.522 0 0 0-3.207 1.314l-.743-.135c-.25-5.024-3.414-16.673-10.34-18.807a76.868 76.868 0 0 0-11.06-2.408c-4.325-.415-8.306.415-12.58 1.194-2.806.513-5.724.96-9.55 1.373-3.552.296-6.274 1.326-8.336 3.506-.124.132-.246.267-.366.408Z"/><path fill="#211715" d="M32.978 47.915a6.46 6.46 0 0 0-7.1-.781 6.132 6.132 0 0 0-1.99 1.823 6.101 6.101 0 0 0-1.011 2.498 15.983 15.983 0 0 0 2.873 12.402c1.84 2.502 4.44 4.339 7.684 3.774a1.522 1.522 0 0 0 1.063-1.864 1.552 1.552 0 0 0-.723-.904 1.563 1.563 0 0 0-1.15-.155c-2.22.387-4.02-1.855-5.002-3.532a13.757 13.757 0 0 1-1.892-5.314c-.207-1.757-.216-3.863.777-5.378.06-.085.045-.07-.043.044.06-.074.123-.145.19-.214.051-.05.391-.354.296-.283.323-.233.69-.398 1.078-.487a3.199 3.199 0 0 1 2.8.514 1.57 1.57 0 0 0 2.152 0 1.524 1.524 0 0 0 0-2.143h-.002ZM90.556 47.798a3.209 3.209 0 0 1 2.298-.869 3.22 3.22 0 0 1 2.24 1.005c-.22-.255.074.112.112.172.14.216.261.444.363.68.158.406.28.824.367 1.25.215 1.044.291 2.111.226 3.174a13.69 13.69 0 0 1-1.445 5.328c-.97 1.963-2.554 4.121-5.002 3.89a1.537 1.537 0 0 0-1.074.448 1.524 1.524 0 0 0-.449 1.069c.009.399.172.78.455 1.062.284.283.666.445 1.068.453 5.067.478 7.929-5.052 9.04-9.152.578-2.244.634-4.59.163-6.858-.37-1.832-1.217-3.624-2.842-4.655a6.397 6.397 0 0 0-7.673.86c-1.405 1.364.749 3.507 2.153 2.143Z"/><path fill="#211715" d="M88.337 61.37a27.548 27.548 0 0 1-.897 3.654c-.152.488-.311.973-.49 1.453l-.116.306c-.113.295.175-.452-.055.14-.063.156-.117.312-.177.468l-.11.286c-.022.06-.048.118-.072.178-.074.19.12-.273.034-.08-.134.306-.272.61-.417.91a36.35 36.35 0 0 1-1.04 1.997 35.679 35.679 0 0 1-7.342 9.444 14.303 14.303 0 0 1-5.591 3.212c-1.888.514-1.087 3.44.81 2.924 4.382-1.192 7.92-4.515 10.668-7.98a40.226 40.226 0 0 0 5.796-9.576c.058-.143.117-.286.17-.43.024-.063.142-.424.064-.211-.107.305.086-.207.14-.34a22.699 22.699 0 0 0 .458-1.265c.478-1.397.845-2.83 1.1-4.284a1.557 1.557 0 0 0-.16-1.143 1.569 1.569 0 0 0-.904-.722 1.542 1.542 0 0 0-1.154.148 1.53 1.53 0 0 0-.719.911h.004ZM31.21 64.315a35.916 35.916 0 0 0 5.534 11.707c2.787 3.841 6.376 7.421 10.675 9.552a21.213 21.213 0 0 0 7.226 2.072 1.536 1.536 0 0 0 1.073-.447c.285-.283.446-.667.449-1.069-.009-.399-.172-.78-.456-1.062a1.56 1.56 0 0 0-1.066-.453c-8.394-.903-14.953-8.195-18.4-15.387a33.24 33.24 0 0 1-2.097-5.72c-.507-1.881-3.445-1.083-2.936.807h-.002ZM78.984 5.479A36.372 36.372 0 0 0 61.85.099a34.087 34.087 0 0 0-18.13 3.494 31.499 31.499 0 0 0-7.134 4.985c-.993.926-1.84 1.95-2.735 2.963-.761.863-1.72 1.568-2.516 2.409a27.412 27.412 0 0 0-6.707 12.734 43.719 43.719 0 0 0-1.056 10.065c.125 3.859.801 7.68 2.008 11.348.562 1.865 3.501 1.07 2.936-.806a40.511 40.511 0 0 1-1.865-9.404c-.142-2.842.035-5.69.529-8.492.767-4.421 2.42-8.748 5.31-12.186a25.914 25.914 0 0 1 2.195-2.304c.888-.821 1.65-1.678 2.462-2.573a27.233 27.233 0 0 1 5.979-4.93 29.823 29.823 0 0 1 16.218-4.385c6.419.135 12.663 1.605 18.105 5.08 1.654 1.056 3.182-1.567 1.536-2.618ZM95.541 45.467c.654-2.942.987-5.946.994-8.959a39.842 39.842 0 0 0-1.135-8.765 35.137 35.137 0 0 0-6.5-13.41 34.218 34.218 0 0 0-4.984-5.122 1.569 1.569 0 0 0-2.153 0 1.525 1.525 0 0 0 0 2.145c7.184 6 11.205 14.652 11.686 23.946a36.96 36.96 0 0 1-.843 9.359c-.098.387-.042.797.156 1.144.198.347.523.605.907.72.389.103.803.05 1.153-.148s.609-.525.72-.91ZM90.26 46.592a31.173 31.173 0 0 0-1.77-8.47c-1.118-3.22-2.675-6.442-5.092-8.901a11.298 11.298 0 0 0-4.596-2.897c-1.87-.599-2.671 2.327-.81 2.923a8.802 8.802 0 0 1 3.92 2.847 19.9 19.9 0 0 1 2.883 4.863 32.02 32.02 0 0 1 1.737 5.32c.19.801.356 1.608.485 2.421.079.495.059.331.118.884.035.337.062.673.08 1.008.105 1.94 3.15 1.952 3.045 0v.002Z"/><path fill="#211715" d="M73.04 25.746c-.57-1.804-1.196-3.663-2.464-5.111a8.788 8.788 0 0 0-1.934-1.543 12.096 12.096 0 0 0-2.442-1.237 1.537 1.537 0 0 0-1.154.146c-.351.198-.609.526-.718.912-.098.387-.041.797.156 1.144.198.347.523.605.907.72.068.024.134.055.203.077-.437-.134-.177-.075-.064-.023.167.078.332.16.495.247a16.203 16.203 0 0 1 1.747 1.082c.208.15.08.077-.043-.038.243.207.475.426.695.657.039.044.216.28.056.059a6.481 6.481 0 0 1 .319.484c.183.305.348.622.494.947l.058.131c.051.119.051.119 0 0s-.051-.119 0 0l.057.142c.078.198.153.397.225.597.168.466.322.937.472 1.409a1.516 1.516 0 0 0 1.28 1.102 1.529 1.529 0 0 0 1.512-.756 1.512 1.512 0 0 0 .144-1.152v.004ZM65.411 25.124a17.656 17.656 0 0 0-7.168-5.166 17.438 17.438 0 0 0-3.564-.966 15.355 15.355 0 0 0-4.123-.352c-.4.01-.781.173-1.065.455a1.555 1.555 0 0 0-.457 1.06c.003.401.164.785.449 1.069.285.284.67.444 1.073.447a12.115 12.115 0 0 1 3.41.262 25.32 25.32 0 0 1 1.796.4c.253.067.511.138.76.217.133.041.263.086.394.127.045.014.376.135.148.048-.254-.096.313.138.304.135a28.286 28.286 0 0 1 1.337.632c.572.288 1.125.61 1.656.967a14.33 14.33 0 0 1 2.893 2.805 1.536 1.536 0 0 0 2.153 0 1.547 1.547 0 0 0 0-2.143l.004.003ZM45.207 26.428c-2.245.13-4.44.71-6.456 1.701a12.298 12.298 0 0 0-4.622 4.421c-2.129 3.411-1.67 7.575-1.862 11.421a16.912 16.912 0 0 1-.299 2.748c-.08.423-.203.837-.366 1.237.113-.26-.103.166-.145.24a2.202 2.202 0 0 1-.139.211c.149-.205.015-.031-.077.064-1.371 1.395.78 3.54 2.154 2.143 1.2-1.223 1.54-2.949 1.746-4.583.238-1.882.223-3.786.28-5.68a16.292 16.292 0 0 1 .61-4.912c.03-.09.064-.182.101-.27-.01.025-.088.2-.012.049.113-.224.23-.444.355-.662.262-.471.558-.923.884-1.354a9.032 9.032 0 0 1 1.78-1.75 12.014 12.014 0 0 1 6.07-1.995c.401-.01.783-.173 1.066-.455.283-.282.447-.662.457-1.06a1.525 1.525 0 0 0-.45-1.069 1.538 1.538 0 0 0-1.072-.448l-.003.003Z"/><path fill="#868480" d="M27.451 190.35c-.445.039-.885.076-1.32.11-3.877.301-13.164-.53-17.38-4.86a23.358 23.358 0 0 1-6.265-12.585 98.695 98.695 0 0 1-.737-20.563c.705-13.642 1.433-22.218 5.283-36.009 2.247-5.517 4.822-9.365 9.093-12.297 4.428-3.042 9.148-5.162 16.56-7.67 2.942-.996 6.31-2.053 10.254-3.254 3.045 5.004 6.291 10.133 10.754 14.319 1.986-2.062 8.302-9.804 8.548-10.131.318-.425.298-1.453-.309-1.695l2.74-.095c-.588.285-.537 1.31-.19 1.712.269.31 7.112 7.593 9.237 9.513 4.2-4.531 7.097-9.937 9.805-15.189 7.74 1.66 15.895 3.364 22.824 7.38a26.363 26.363 0 0 1 6.769 5.199 34.777 34.777 0 0 1 4.885 7.026c4.087 7.685 5.191 16.316 6.167 24.861.93 8.418 1.178 16.898.741 25.356-.317 6.594-1.127 10.774-3.982 15.859-2.328 4.147-9.163 8.057-15.153 8.709-9.392 1.021-16.962.596-25.797.133-6.496-.34-13.322-.828-19.491-1.673a221.213 221.213 0 0 1-33.036 5.844Z"/><path fill="#FDE9D7" d="M75.64 168.966c-1.423-5.498-3.097-11.676-4.22-15.363 4.428-2.027 6.618-2.617 10.886-3.844 3.502-1.007 7.242-2.059 12.068-2.06 3.21 0 6.643 1.383 9.024 2.218l.721.252c-.611 6.481-1.295 12.796-1.913 17.305l-.705.632s-2.676 2.395-4.657 2.779c-2.925.568-17.324 1.574-19.982.23l-.769-.389-.454-1.76ZM18.984 144.314a5.32 5.32 0 0 1-.237-.471 2.42 2.42 0 0 1 .38-2.566 3.117 3.117 0 0 1 2.778-.912s.354.037.78.084a5.31 5.31 0 0 1-.786-1.17 2.959 2.959 0 0 1 .45-3.284 3.578 3.578 0 0 1 2.898-.876 6.182 6.182 0 0 1 3.269 1.526c4.748 4.186 13.49 12.673 17.907 17.108 0 0 .852.814 1.757 1.655-9.54 1.65-19.27 3.34-23.814 4.177l-.453-.563c-1.409-1.751-2.592-3.354-4.11-5.296a6.739 6.739 0 0 1-1.225-1.962 2.816 2.816 0 0 1 .409-2.463c.972-1.078 2.246-.884 3.972-.577a222.67 222.67 0 0 0-2.114-2.143 10.953 10.953 0 0 1-1.861-2.267Z"/><path fill="#211715" d="M100.424 167.034c-1.038.924-2.394 2.029-3.899 2.37-.22.05-.444.08-.666.116l-.187.026c-.203.031.318-.039.102-.013l-.504.063c-.736.086-1.475.157-2.212.221-3.858.369-7.734.51-11.609.423a31.063 31.063 0 0 1-2.622-.178c-.295-.034-.011 0 .041.007-.113-.018-.226-.034-.338-.055a7.864 7.864 0 0 1-.457-.091c-.132-.031-.262-.072-.393-.106-.052-.013-.102-.042-.153-.052-.254-.046.332.153.102.042a1.568 1.568 0 0 0-2.084.543 1.525 1.525 0 0 0 .546 2.074c1.378.548 2.85.821 4.334.804 2.011.113 4.032.082 6.044.015a70.908 70.908 0 0 0 10.643-.87c2.042-.385 3.945-1.842 5.464-3.194 1.463-1.303-.698-3.441-2.153-2.144l.001-.001ZM73.246 154.436a57.147 57.147 0 0 1 6.864-2.463c2.445-.72 4.897-1.464 7.39-2.003a26.415 26.415 0 0 1 8.085-.692c2.558.257 5.005 1.255 7.408 2.102.39.107.806.055 1.157-.143a1.518 1.518 0 0 0 .572-2.068 1.523 1.523 0 0 0-.919-.713c-2.648-.932-5.269-1.902-8.082-2.196a28.899 28.899 0 0 0-8.783.734c-2.58.541-5.111 1.312-7.637 2.055a63.493 63.493 0 0 0-7.592 2.77 1.522 1.522 0 0 0-.546 2.075 1.566 1.566 0 0 0 2.083.543v-.001ZM47.496 152.677a534.494 534.494 0 0 0-14.442-13.958c-2.347-2.181-4.972-5.311-8.492-5.136-2.094.105-4 1.346-4.4 3.499-.411 2.214.877 3.964 2.393 5.42 3.204 3.079 6.363 6.206 9.562 9.292 1.408 1.358 3.564-.784 2.153-2.144-2.527-2.438-5.031-4.898-7.54-7.354-.635-.621-1.283-1.231-1.926-1.845a6.4 6.4 0 0 1-1.55-1.838c-.63-1.412.75-2.183 1.99-1.982 1.346.219 2.332 1.197 3.299 2.068a212.72 212.72 0 0 1 3.075 2.83 470.59 470.59 0 0 1 6.95 6.625 613.586 613.586 0 0 1 6.776 6.667c1.382 1.389 3.536-.758 2.154-2.144h-.002Z"/><path fill="#211715" d="M21.903 138.848a4.41 4.41 0 0 0-4.491 2.305c-.936 2.003.043 3.886 1.356 5.431 1.242 1.464 2.694 2.784 4.04 4.156 1.369 1.396 2.755 2.778 4.214 4.079 1.459 1.302 3.616-.837 2.153-2.144-2.347-2.098-4.5-4.397-6.716-6.631-.521-.526-1.06-1.039-1.538-1.605a3.355 3.355 0 0 1-.857-1.459c-.141-1.005 1.027-1.209 1.84-1.104.403-.002.79-.162 1.074-.446.285-.284.446-.668.448-1.07a1.55 1.55 0 0 0-.456-1.061 1.561 1.561 0 0 0-1.066-.454l-.001.003Z"/><path fill="#211715" d="M21.958 147.041c-1.476-.189-3 .036-4.05 1.184a4.178 4.178 0 0 0-.705 4.188c.58 1.472 1.755 2.677 2.71 3.922.965 1.258 1.928 2.518 2.921 3.755a1.535 1.535 0 0 0 2.153 0 1.55 1.55 0 0 0 0-2.144 138.51 138.51 0 0 1-2.109-2.703c-.784-1.023-1.671-2.091-2.362-3.072a5.407 5.407 0 0 1-.416-.665c0 .004-.073-.216-.092-.268-.095-.262-.01.119-.018-.058-.006-.118-.005-.234-.007-.353-.005-.278-.03.063.005-.097.024-.116.056-.228.088-.344-.053.194-.027.044.038-.068.114-.196-.264.278.053-.063.18-.189-.027.005.086-.08.092-.07.267-.148.06-.063.105-.043.217-.063.324-.096.155-.048-.21-.008.077-.015.123 0 .245-.009.368-.007.293.009.586.035.876.076.403-.002.79-.162 1.074-.446a1.52 1.52 0 0 0 .448-1.07 1.55 1.55 0 0 0-.457-1.061 1.561 1.561 0 0 0-1.065-.454v.002ZM104.255 128.645c-.611 12.08-1.73 24.184-3.226 36.186-.278 2.233-.539 4.339-.996 6.709a1.56 1.56 0 0 0 1.063 1.864 1.534 1.534 0 0 0 1.873-1.058c.948-4.909 1.421-9.929 1.947-14.895a659.36 659.36 0 0 0 1.776-19.555c.234-3.081.45-6.164.606-9.251.099-1.95-2.947-1.944-3.045 0h.002Z"/><path fill="#211715" d="M42.8 91.68c-8.538 2.598-17.497 5.06-25.192 9.705a26.338 26.338 0 0 0-9.348 9.072 29.258 29.258 0 0 0-3.19 7.38 142.31 142.31 0 0 0-2.02 8.509 133.785 133.785 0 0 0-2.162 15.631c-.432 5.23-.761 10.484-.861 15.731C-.08 163.258.096 169 1.2 174.455a24.74 24.74 0 0 0 2.6 6.993 20.355 20.355 0 0 0 4.862 6.108c3.484 2.768 8.092 3.823 12.437 4.284 4.04.429 8.06-.086 12.07-.59a229.197 229.197 0 0 0 31.851-6.368 197.416 197.416 0 0 0 7.564-2.232c1.152-.367 2.3-.748 3.443-1.142 1.318-.454 2.828-.802 3.335-2.273.323-.937.017-1.871-.203-2.794a287.3 287.3 0 0 0-.601-2.467 493.718 493.718 0 0 0-1.528-6.008c-1.072-4.13-2.171-8.254-3.352-12.354-.232-.803-.466-1.605-.71-2.405-.304-.998-.567-2.034-1.507-2.637-1.328-.854-3.263-.168-4.72.087a7858.203 7858.203 0 0 1-21.593 3.738c-6.768 1.172-13.538 2.331-20.295 3.56-.842.154-1.684.308-2.524.471a1.542 1.542 0 0 0-.914.716 1.526 1.526 0 0 0-.15 1.149 1.554 1.554 0 0 0 1.873 1.058c5.376-1.046 10.784-1.94 16.176-2.878 7.458-1.298 14.918-2.589 22.379-3.874l4.594-.797a26.065 26.065 0 0 0 3.552-.622c.21-.069.109.02.096-.016.068.19-.26-.16-.209-.161-.078 0-.01-.137 0 .041.072.357.18.706.323 1.04.236.777.465 1.556.689 2.337.539 1.871 1.061 3.748 1.568 5.629a635.567 635.567 0 0 1 3.159 12.116c.207.831.41 1.663.613 2.495.08.336.161.673.24 1.01l.11.461c.037.162.126.455.057.114-.036-.177.227-.14-.161-.046-.261.064-.522.184-.775.273a160.435 160.435 0 0 1-5.199 1.703 225.942 225.942 0 0 1-30.512 7.073c-4.598.748-9.243 1.408-13.892 1.706a29.098 29.098 0 0 1-10.74-1.39 13.655 13.655 0 0 1-4.906-2.589 19.765 19.765 0 0 1-4.337-5.951c-2.273-4.579-2.59-9.897-2.815-14.917-.152-4.958-.053-9.922.298-14.87.286-5.074.638-10.155 1.353-15.189a131.011 131.011 0 0 1 3.29-15.7 23.93 23.93 0 0 1 7.142-11.607 37.068 37.068 0 0 1 8.837-5.326c3.789-1.671 7.673-3.12 11.632-4.341a445.454 445.454 0 0 1 7.909-2.47c1.868-.569 1.072-3.496-.81-2.923Z"/><path fill="#211715" d="M83.664 93.233c5.433 1.164 10.898 2.341 16.096 4.34 4.873 1.876 9.612 4.551 13.008 8.569 7.323 8.664 8.875 20.342 10.016 31.209.625 6.061.889 12.154.791 18.246-.073 5.146-.078 10.505-1.575 15.478a23.611 23.611 0 0 1-2.68 5.986 14.673 14.673 0 0 1-4.721 4.252 23.376 23.376 0 0 1-6.832 2.852c-2.688.531-5.42.818-8.16.855-5.576.214-11.158.145-16.727-.205-5.916-.303-11.832-.639-17.723-1.263-1.421-.151-2.84-.316-4.256-.51a1.58 1.58 0 0 0-1.873 1.06c-.104.387-.051.8.148 1.149.199.349.528.606.915.715 6.2.843 12.439 1.319 18.683 1.663 5.792.32 11.593.651 17.396.541 5.745-.11 11.633-.302 16.954-2.659a23.99 23.99 0 0 0 6.375-4.083 16.962 16.962 0 0 0 3.962-5.703c2.165-4.716 2.775-9.731 3.004-14.866.295-6.345.216-12.701-.238-19.037a142.214 142.214 0 0 0-2.33-18.027c-1.163-5.684-3.074-11.269-6.265-16.158a29.581 29.581 0 0 0-5.519-6.483 35.721 35.721 0 0 0-6.962-4.491c-5.18-2.617-10.816-4.157-16.457-5.432-1.404-.316-2.812-.62-4.22-.922-1.911-.41-2.728 2.512-.81 2.924Z"/><path fill="#211715" d="M74.794 107.917a58.33 58.33 0 0 0 8.14-11.877c.542-1 1.07-2.009 1.594-3.019.309-.594.773-1.235.678-1.929a4.218 4.218 0 0 0-.905-1.653 24.257 24.257 0 0 0-4.907-5.292 1.559 1.559 0 0 0-2.153 0 47.428 47.428 0 0 1-7.02 6.33c-1.27.93-2.59 1.79-3.954 2.58-1.183.681-3.044 1.18-3.453 2.641-.479 1.713.647 2.78 1.694 3.89a451.964 451.964 0 0 0 3.976 4.173c1.36 1.408 2.708 2.842 4.157 4.156 1.45 1.313 3.605-.825 2.153-2.144-2.537-2.305-4.86-4.868-7.213-7.354-.473-.5-.945-1.001-1.416-1.504-.136-.144-.27-.292-.407-.436-.137-.144-.317-.257-.043-.025.067.056.014.092.032.15-.11-.339.036-.169 0-.1-.348.728-.431.4-.075.309.165-.064.324-.144.474-.238.64-.328 1.271-.674 1.892-1.038a44.298 44.298 0 0 0 3.718-2.442 51.178 51.178 0 0 0 7.635-6.804h-2.153a22.708 22.708 0 0 1 5.156 5.768v-1.53c-2.769 5.368-5.634 10.764-9.755 15.244-1.32 1.437.828 3.586 2.155 2.144Z"/><path fill="#211715" d="M54.767 106.47c-4.434-4.192-7.675-9.34-10.82-14.513v1.53a22.636 22.636 0 0 1 4.717-6.126H46.51a51.838 51.838 0 0 0 7.127 5.667 46.564 46.564 0 0 0 3.853 2.29 41.02 41.02 0 0 0 1.713.855c.324.152.65.3.98.442l.49.209.363.153c.296.154.325.139.087-.045.083.146-.206-.244-.197-.235.009.008-.012-.237-.005-.024.005.14.156-.234.2-.283-.105.117-.199.247-.298.37a491.093 491.093 0 0 1-4.652 5.63c-1.16 1.378-2.311 2.779-3.558 4.079-1.351 1.412.798 3.559 2.153 2.144 2.523-2.637 4.796-5.538 7.105-8.357.811-.99 2.009-2.08 2.085-3.421a2.68 2.68 0 0 0-.577-1.859c-.515-.62-1.313-.82-2.03-1.142a41.843 41.843 0 0 1-4.146-2.156 47.303 47.303 0 0 1-8.543-6.463 1.56 1.56 0 0 0-2.153 0 24.286 24.286 0 0 0-4.546 5.604c-.33.463-.6.968-.8 1.5-.22.795.33 1.458.717 2.093.592.972 1.193 1.938 1.802 2.9a58.499 58.499 0 0 0 8.93 11.301c1.424 1.344 3.581-.797 2.156-2.143ZM261.953 123.72c.032 10.516-.603 21.169-3.048 31.429-1.092 4.576-2.579 9.105-5.005 13.164-2.174 3.635-5.062 6.938-9.162 8.383-7.634 2.692-16.85.429-21.354-6.512-2.001-3.083-3.18-6.655-4.295-10.135-1.297-4.046-2.366-8.163-3.324-12.301a250.781 250.781 0 0 1-3.907-20.853c-.013-.091-.022-.184-.038-.274-.092-.517.164.04-.031.316l-.547.544a6.709 6.709 0 0 1 1.801-.404l2.291-.47 4.581-.942c3.039-.624 6.08-1.241 9.123-1.85 1.48-.295 2.961-.586 4.445-.873a10.16 10.16 0 0 0 1.038-.199l.127-.025c.419-.054.191-.191-.684-.412.037.185.092.366.162.541l.635 2.109c.833 2.749 1.68 5.495 2.516 8.242a655.111 655.111 0 0 1 2.947 9.978c.534 1.874 3.473 1.078 2.935-.805-1.913-6.716-4.008-13.377-6.018-20.065-.254-.84-.427-1.791-1.227-2.297-.869-.549-1.788-.273-2.724-.093-1.702.327-3.404.661-5.104 1.001a1427.88 1427.88 0 0 0-10.666 2.167l-5.191 1.068c-.849.079-1.678.3-2.454.652a2.239 2.239 0 0 0-.925 2.408c.21 1.53.444 3.057.697 4.581.8 4.911 1.735 9.797 2.804 14.66a146.82 146.82 0 0 0 4.587 16.759c1.788 5.119 3.972 10.121 8.415 13.508 4.774 3.637 11.105 4.725 16.952 3.733a18.443 18.443 0 0 0 7.88-3.234 25.104 25.104 0 0 0 6.28-7.263c3.489-5.779 5.246-12.475 6.428-19.056a142.757 142.757 0 0 0 2.059-22.001c.039-1.727.055-3.452.048-5.176-.006-1.95-3.051-1.954-3.045 0l-.002-.003ZM44.812 43.266a5.674 5.674 0 0 1-.595.513l.308-.237a12.127 12.127 0 0 1-2.584 1.56l.363-.153c-.12.051-.244.093-.371.126-.388.11-.716.367-.915.716a1.524 1.524 0 0 0-.148 1.149c.114.383.373.707.722.905.349.197.761.253 1.15.154a5.45 5.45 0 0 0 1.137-.466c.353-.177.698-.376 1.03-.583.348-.216.688-.443 1.015-.688a8.54 8.54 0 0 0 1.041-.852 1.57 1.57 0 0 0 .444-1.074 1.537 1.537 0 0 0-.444-1.073 1.534 1.534 0 0 0-2.157 0l.004.003ZM59.025 72.245c.197-.126.395-.248.598-.36a8.03 8.03 0 0 1 .403-.21c.07-.033.14-.062.209-.096.307-.146-.333.12.007 0a11.5 11.5 0 0 1 1.205-.374c.258-.063.519-.114.781-.158.035-.005.405-.058.274-.041-.06.007.31-.03.394-.038a12.48 12.48 0 0 1 1.738-.038c.141.008.284.018.425.031.043.004.41.056.19.02-.22-.036.121.023.164.031a7.04 7.04 0 0 1 .832.206c.088.028.173.06.26.089.308.102-.037.052-.054-.029.198.13.406.243.623.338a1.54 1.54 0 0 0 2.083-.544 1.545 1.545 0 0 0-.546-2.074c-1.636-1.069-3.824-1.226-5.715-1.062a11.806 11.806 0 0 0-5.41 1.693 1.51 1.51 0 0 0-.546 2.074 1.529 1.529 0 0 0 2.083.544l.002-.002ZM51.12 67.986a6.217 6.217 0 0 0-.546 1.695c-.09.576-.131 1.159-.121 1.742.005.4.164.784.444 1.073a1.524 1.524 0 0 0 2.6-1.073 8.218 8.218 0 0 1 .057-1.269l-.053.403c.058-.434.172-.858.339-1.263l-.154.362c.02-.046.042-.092.064-.138a1.13 1.13 0 0 0 .18-.564c.046-.2.036-.409-.027-.604a1.514 1.514 0 0 0-.715-.916 1.529 1.529 0 0 0-1.157-.143 1.495 1.495 0 0 0-.91.695h-.002ZM61.868 57.577c.143.47.275.944.4 1.419.146.497.261 1.004.345 1.515l-.054-.403c.012.102.014.204.005.306l.055-.403a.9.9 0 0 1-.046.182l.153-.362a.686.686 0 0 1-.069.116l.238-.307a.426.426 0 0 1-.063.063l.308-.238a1.8 1.8 0 0 1-.282.156l.364-.153c-.118.05-.241.086-.367.105l.404-.054c-.129.014-.26.013-.389-.004l.405.055c-.243-.034-.485-.077-.73-.1a1.512 1.512 0 0 0-1.078 2.586c.297.266.678.422 1.078.441a.32.32 0 0 1 .069.008l-.405-.055c.3.06.605.097.911.108a3.082 3.082 0 0 0 1.393-.379 2.021 2.021 0 0 0 1.037-1.318 3.3 3.3 0 0 0-.05-1.437 30.996 30.996 0 0 0-.693-2.653 1.59 1.59 0 0 0-.698-.906 1.528 1.528 0 0 0-1.697.106 1.516 1.516 0 0 0-.54 1.606h-.004ZM46.549 50.11c-.42 1.56.02 5.097 2.966 5.293 3.879-.164 3.928-4.462 2.549-6.432-1.13-1.613-4.298-2.185-5.515 1.139ZM77.616 48.984c.533 1.525.353 5.085-2.572 5.495-3.88.117-4.243-4.166-3.011-6.23 1.009-1.692 4.128-2.492 5.583.735Z"/></g><defs><clipPath id="a"><path fill="#fff" d="M0 0h265v192H0z"/></clipPath></defs></svg>