<svg xmlns="http://www.w3.org/2000/svg" width="303" height="232" fill="none"><g clip-path="url(#a)"><path fill="#FED8A5" d="M190.953 139.542c.608 1.216 7.323 12.006 11.845 14.908.341-.455.938-1.27 1.687-2.292 3.168 3.497 6.337 7.002 9.498 10.507h.581c3.137-3.474 6.282-6.946 9.428-10.428.722.985 1.297 1.77 1.63 2.214 4.329-2.779 10.67-12.788 11.735-14.702.377.126.623.203.623.203a350.402 350.402 0 0 1 17.74 5.309c3.827 1.254 7.78 2.723 11.363 4.564a38.456 38.456 0 0 1 12.161 9.843c9.468 11.598 11.32 27.431 12.669 42.388.734 8.144-5.651 15.164-13.811 15.164l-111.966-.001c-4.639 6.109-11.084 11.182-18.61 12.615-7.527 1.433-16.104-1.433-20.052-8.012-3.941-6.565-2.643-14.935-.653-22.332a150.602 150.602 0 0 1 17.34-40.07s4.243-8.649 11.634-4.97c4.604 2.293 13.083-8.982 20.34-11.328 5.929-1.851 14.818-3.58 14.818-3.58Z"/><path fill="#FDE9D7" d="M191.92 55.692c5.425-2.806 12.99-4.651 23.507-4.651 43.865 0 34.348 32.1 34.348 32.1 1.142-1.1 2.681-1.513 3.998-1.467 2.865.1 4.084 1.654 4.609 2.565 1.565 2.721 1.5 7.737.449 10.84-.745 2.197-1.964 5.558-4.904 7.968-1.211.993-2.994 1.648-4.699 1.359l-.45-.076c-.542 1.791-1.209 3.546-1.617 4.398-1.186 3.225-7.699 14.475-15.964 18.988-.003.56-.003 1.031-.003 1.031-.686.556-14.687 11.618-15.748 12.372h-2.466c-1.062-.754-15.061-11.815-15.748-12.372l-.002-1.312c-3.327-1.843-6.365-4.54-9.274-8.028-4.235-5.08-6.647-10.551-7.978-15.082-1.817.467-3.782-.209-5.085-1.278-2.94-2.41-4.159-5.771-4.903-7.968-1.051-3.103-1.118-8.118.449-10.84.525-.911 1.744-2.464 4.609-2.565 1.316-.047 2.855.366 3.997 1.466 0 0-4.323-18.552 12.879-27.448h-.004Z"/><path fill="#FD8B27" d="M215.446 141.116c2.173 2.454 6.16 7.868 8.548 11.12l-.015.007c-3.129 3.474-6.275 6.949-9.413 10.422h-.581c-3.161-3.504-6.33-7.009-9.498-10.506 2.388-3.259 6.337-8.604 8.487-11.043h2.472Z"/><path fill="#FD8B27" d="M197.229 128.748c-1.616 1.811-3.609 4.466-5.19 6.3-.93 1.081-1.615 3.064-1.086 4.495.608 1.215 7.323 12.005 11.845 14.908 1.429-1.908 7.348-10.14 10.179-13.331-1.062-.754-15.061-11.815-15.748-12.372ZM231.192 128.748c1.616 1.811 3.609 4.466 5.189 6.3.931 1.081 1.616 3.064 1.086 4.495-.607 1.215-7.322 12.005-11.845 14.908-1.428-1.908-7.347-10.14-10.178-13.331 1.062-.754 15.061-11.815 15.748-12.372Z"/><path fill="#211715" d="M195.936 127.451c-1.021 1.154-1.981 2.36-2.945 3.561-.941 1.174-2.036 2.3-2.867 3.556-1.289 1.948-1.601 4.477-.404 6.514 2.039 3.471 4.401 6.804 6.95 9.914 1.527 1.863 3.181 3.705 5.206 5.037.893.587 1.936.101 2.503-.658 3.247-4.345 6.302-8.887 9.892-12.96.834-.945.624-2.166-.37-2.879-.32-.23-.63-.476-.942-.717.44.34-.035-.028-.121-.095l-.45-.349-1.031-.806a2016.932 2016.932 0 0 1-5.186-4.075c-2.552-2.01-5.121-4.002-7.648-6.044-.768-.62-1.836-.752-2.586 0-.642.643-.774 1.968 0 2.592 4.454 3.6 8.982 7.114 13.497 10.638.869.678 1.726 1.379 2.621 2.021l-.37-2.878c-3.795 4.306-7.031 9.108-10.464 13.702l2.503-.658c-1.696-1.114-3.388-3.118-4.796-4.87-1.589-1.977-3.045-4.067-4.432-6.19a71.815 71.815 0 0 1-1.43-2.264c-.141-.234-.297-.469-.417-.714-.056-.115-.066-.287-.014-.048a2.161 2.161 0 0 1-.007-.761c.214-1.49 1.5-2.608 2.396-3.722 1.152-1.43 2.285-2.877 3.501-4.254 1.556-1.76-1.022-4.363-2.587-2.592l-.002-.001Z"/><path fill="#211715" d="M229.899 130.043c1.217 1.377 2.348 2.824 3.501 4.255.888 1.102 2.138 2.195 2.383 3.658.046.273.065.554.007.824.051-.239.042-.066-.015.048-.12.246-.277.48-.417.714a73.705 73.705 0 0 1-1.429 2.265c-1.364 2.086-2.793 4.141-4.351 6.087a41.67 41.67 0 0 1-2.568 2.953c-.781.806-1.519 1.5-2.31 2.02l2.503.658c-3.433-4.595-6.668-9.395-10.464-13.702l-.37 2.878c4.783-3.433 9.317-7.274 13.935-10.926.728-.577 1.461-1.149 2.184-1.732.77-.621.646-1.944 0-2.592-.761-.762-1.816-.623-2.587 0-2.527 2.042-5.096 4.034-7.648 6.044-1.727 1.361-3.454 2.72-5.186 4.075l-1.031.805-.45.35c-.085.067-.561.434-.121.095-.312.241-.622.487-.942.717-.994.713-1.204 1.934-.37 2.879 3.59 4.073 6.645 8.615 9.892 12.96.568.76 1.601 1.251 2.503.658 3.695-2.429 6.437-6.413 8.927-9.986a84.957 84.957 0 0 0 2.975-4.541c.247-.409.505-.816.691-1.258.62-1.47.328-3.188-.286-4.606-.67-1.549-1.931-2.773-2.978-4.075-1.114-1.386-2.213-2.785-3.39-4.116-1.564-1.77-4.144.831-2.587 2.592l-.001-.001Z"/><path fill="#211715" d="M222.685 150.946c-3.133 3.477-6.276 6.947-9.413 10.42l1.294-.536h-.579l1.294.536-9.542-10.549c-1.585-1.752-4.166.847-2.587 2.592l5.416 5.987 2.708 2.994c.841.93 1.551 2.078 2.917 2.105 1.299.026 1.909-.803 2.714-1.695l2.748-3.039c1.874-2.073 3.748-4.146 5.619-6.223 1.574-1.747-1.005-4.348-2.587-2.592h-.002Z"/><path fill="#B3B3B3" d="M196.383 57.809c-5.995.266-10.149 2.307-13.034 7.455-2.401 4.283-.6 15.492-3.756 18.518-1.152-1.584-3.003-2.162-4.548-2.108-.835.029-1.53.182-2.108.406-1.349-4.921-1.678-9.787-1.718-14.02-.294-10.445 3.629-20.978 8.544-25.799 2.276-3.301 5.789-6.571 7.583-7.913 8.028-6 16.845-8.863 26.906-8.863 10.062 0 20.259 2.483 27.684 11.655 10.055 7.77 14.736 13.65 15.464 30.92.202 4.81-.356 8.74-1.672 13.964a6.545 6.545 0 0 0-1.955-.35c-1.754-.062-3.902.692-4.971 2.804.596-4.864-2.504-22-11.701-25.257 0 0-6.751-3.865-19.081-3.942-13.17-.081-21.636 2.53-21.636 2.53h-.001Z"/><path fill="#211715" d="M250.7 82.94c-.067-4.707-1.2-9.572-2.969-13.917-1.978-4.858-5.006-9.681-10.145-11.568-.928-.341-2.003.381-2.25 1.28-.28 1.023.347 1.913 1.278 2.255 3.907 1.436 6.409 5.897 7.87 9.72 1.515 3.962 2.499 8.134 2.558 12.23.033 2.357 3.692 2.363 3.658 0ZM230.573 56.383c-.616-2.259-1.307-4.567-2.809-6.407-.634-.777-1.46-1.383-2.276-1.954-.929-.65-1.894-1.21-2.946-1.634-.891-.357-2.048.39-2.25 1.28-.241 1.06.324 1.872 1.278 2.255-.606-.243.032.024.185.104.207.106.41.22.611.339.419.246.826.509 1.224.785.201.14.397.285.593.43.188.137-.307-.25-.059-.045.08.066.161.13.24.198.291.25.519.604.814.834-.143-.11-.229-.312-.044-.052a8.041 8.041 0 0 1 .468.75c.097.177.188.357.275.54.049.103.095.208.143.313.16.351-.129-.34-.001.002a36.554 36.554 0 0 1 1.027 3.236c.252.925 1.311 1.585 2.25 1.28.945-.306 1.548-1.263 1.278-2.254h-.001ZM221.51 55.653c-1.226-1.641-2.541-3.123-4.171-4.368-1.364-1.042-2.881-1.883-4.436-2.602-1.444-.668-2.995-1.1-4.542-1.448-1.629-.368-3.359-.705-5.037-.614-.987.053-1.829.804-1.829 1.833 0 .951.838 1.886 1.829 1.833 1.466-.08 2.643.163 4.064.483.757.17 1.508.367 2.251.593.307.093.612.192.915.3.134.047.266.1.4.146.484.168-.306-.15.102.04 2.954 1.385 5.33 3.025 7.294 5.655.591.791 1.581 1.197 2.503.657.778-.455 1.252-1.71.656-2.508h.001ZM196.383 55.976c-2.779.138-5.514.62-8.032 1.849-2.426 1.184-4.392 3.115-5.873 5.353-2.678 4.043-2.292 9.209-2.704 13.849-.103 1.15-.232 2.256-.518 3.382-.067.267-.142.532-.229.791-.092.272-.165.435-.169.444-.102.209-.214.411-.343.605-.116.176.022-.014.043-.04-.1.122-.211.232-.325.34-1.713 1.626.877 4.216 2.587 2.593 1.4-1.33 1.952-3.336 2.254-5.184.385-2.36.489-4.75.651-7.134.139-2.049.249-4.112.938-6.06.092-.262-.013-.03.144-.34.109-.216.231-.426.354-.635.332-.559.687-1.114 1.091-1.624.678-.854 1.482-1.653 2.384-2.268 2.297-1.568 5.012-2.12 7.749-2.255 2.343-.117 2.357-3.784 0-3.666h-.002Z"/><path fill="#211715" d="M242.19 34.625c-5.007-5.526-11.731-8.959-19.036-10.23-7.25-1.262-14.929-1.001-22.019 1.019-6.907 1.968-13.485 5.645-18.577 10.74-1.444 1.446-2.729 3-3.974 4.617-.926 1.201-1.984 2.275-2.842 3.542-2.029 3.002-3.466 6.438-4.498 9.901a45.006 45.006 0 0 0-1.864 13.473c.073 4.833.455 9.648 1.649 14.347.582 2.284 4.11 1.316 3.528-.975-.982-3.866-1.397-7.81-1.49-11.793-.089-3.83.134-7.586.985-11.33.759-3.343 1.887-6.618 3.54-9.625.701-1.275 1.483-2.526 2.426-3.636 1.053-1.24 2.037-2.531 3.104-3.761 4.43-5.106 10.019-8.874 16.457-11.158 6.49-2.303 13.473-2.883 20.298-2.15 7.574.812 14.567 3.918 19.725 9.61 1.586 1.752 4.167-.847 2.587-2.591h.001ZM257.611 82.035c.877-3.59 1.537-7.244 1.642-10.948.1-3.549-.209-7.134-.7-10.646-.723-5.164-2.231-10.285-5.217-14.612-1.574-2.28-3.452-4.313-5.497-6.174-1.74-1.583-4.335 1.002-2.587 2.592 3.207 2.918 5.915 6.187 7.546 10.253 2.138 5.328 2.752 11.31 2.811 17.007.041 3.93-.595 7.746-1.525 11.553-.559 2.291 2.968 3.268 3.529.975h-.002Z"/><path fill="#fff" d="M126.447 115.922c9.233-12.192 14.453-28.11 12.863-46.989-3.99-47.354-35.916-70.08-74.663-66.802-38.748 3.278-66.42 31.046-62.43 78.4 3.65 43.306 40.015 65.236 74.287 62.336 14.686-1.242 28.984-7.046 40.247-16.678 4.144 1.906 14.242 6.094 18.986 7.777-2.759-5.887-6.283-12.596-9.291-18.045l.001.001Z"/><path fill="#211715" d="M209.675 115.049c.259-.138.52-.268.786-.393.072-.034.312-.187.059-.028-.244.154.009-.001.086-.028.192-.069.383-.138.579-.198a12.339 12.339 0 0 1 1.611-.363c-.275.045.006-.001.133-.014a15.3 15.3 0 0 1 1.629-.088 16.066 16.066 0 0 1 1.572.063c.013.001.61.076.245.022.538.079 1.073.196 1.592.359.056.017.638.256.657.235-.025.027-.373-.184-.127-.049.09.049.187.09.278.138a6.4 6.4 0 0 1 .395.226c.15.095.605.444.047.009.779.608 1.828.76 2.587 0 .632-.634.784-1.981 0-2.592-2.003-1.564-4.521-2.062-7.023-2.078-2.451-.016-4.786.466-6.954 1.613-.873.462-1.14 1.679-.656 2.508.517.886 1.627 1.121 2.503.657l.001.001ZM213.841 97.463c.302 1.157.593 2.33.766 3.515l-.065-.488c.021.163.03.323.013.485l.066-.487a1.385 1.385 0 0 1-.053.218l.184-.438a.9.9 0 0 1-.076.14l.286-.371a.768.768 0 0 1-.115.113l.37-.286a2.307 2.307 0 0 1-.278.147l.438-.185c-.153.064-.305.11-.469.137l.487-.066a1.885 1.885 0 0 1-.439 0l.486.066c-.165-.024-.328-.064-.494-.086a1.374 1.374 0 0 0-.729-.033c-.244.011-.47.084-.68.218-.379.222-.742.658-.841 1.096-.106.469-.084.995.185 1.412.238.37.636.781 1.093.842.38.052.749.149 1.135.165.594.026 1.146-.156 1.677-.4a2.43 2.43 0 0 0 1.343-1.601c.148-.599.084-1.122-.017-1.722a38.684 38.684 0 0 0-.743-3.365c-.242-.927-1.318-1.582-2.25-1.28-.953.308-1.537 1.26-1.278 2.254h-.002ZM195.254 87.503c-.585 1.907-.204 6.294 3.402 6.667 4.765-.028 5.019-5.332 3.415-7.826-1.314-2.042-5.176-2.891-6.817 1.159ZM233.563 87.503c.585 1.907.204 6.294-3.402 6.667-4.766-.029-5.019-5.332-3.415-7.826 1.313-2.041 5.175-2.89 6.817 1.159ZM180.335 81.844c-2.348-2.11-5.702-2.572-8.566-1.244-2.081.964-3.312 2.98-3.875 5.138-1.333 5.1-.034 10.968 2.833 15.331 1.955 2.975 5.064 5.676 8.863 5.172.979-.13 1.829-.75 1.829-1.833 0-.89-.843-1.964-1.829-1.833-2.966.393-5.013-2.011-6.325-4.387-1.112-2.015-1.946-4.34-2.142-6.642-.188-2.19-.189-4.954 1.17-6.814.071-.099.063-.088-.025.034.08-.096.164-.188.252-.277.014-.012.33-.302.266-.252.428-.331.92-.52 1.445-.633 1.239-.265 2.56-.027 3.517.833 1.749 1.572 4.345-1.014 2.587-2.593ZM251.069 84.437c.954-.859 2.279-1.103 3.517-.834.522.115 1.018.303 1.445.633-.027-.022.641.683.446.43 1.416 1.844 1.405 4.683 1.217 6.88-.193 2.256-1 4.527-2.074 6.512-1.308 2.421-3.374 4.916-6.393 4.515-.981-.13-1.83.936-1.83 1.833 0 1.098.846 1.702 1.83 1.833 6.172.818 9.902-5.951 11.447-10.922.837-2.692.934-5.664.487-8.433-.37-2.288-1.343-4.463-3.283-5.814-2.846-1.983-6.889-1.48-9.396.774-1.756 1.579.838 4.165 2.587 2.593Z"/><path fill="#211715" d="M247.679 101.242c-.527 2.563-1.491 5.038-2.412 7.328.005-.013.133-.285-.025.05-.067.141-.13.286-.198.427-.167.351-.341.698-.522 1.043a44.598 44.598 0 0 1-1.426 2.509c-2.542 4.175-5.636 8.124-9.423 11.237-2.08 1.71-4.462 3.099-7.098 3.711-2.292.532-1.322 4.069.973 3.535 5.387-1.251 9.866-5.19 13.382-9.291 2.911-3.396 5.633-7.22 7.473-11.321.114-.255.223-.513.33-.772.028-.068.218-.526.12-.297-.117.271.054-.114.079-.172.109-.243.21-.491.312-.737.13-.314.254-.63.374-.947.653-1.733 1.218-3.513 1.591-5.328.474-2.303-3.052-3.288-3.528-.975h-.002ZM177.508 102.091c1.194 5.271 3.338 10.383 6.346 14.874 3.202 4.779 7.391 9.255 12.462 12.06a24.755 24.755 0 0 0 8.334 2.838c.976.145 1.967-.244 2.25-1.281.237-.864-.294-2.109-1.278-2.254-6.463-.961-11.594-4.677-15.799-9.539-4.364-5.046-7.316-11.177-8.787-17.673-.521-2.3-4.049-1.327-3.528.975ZM238.162 79.602c-.514-.161-1.02-.345-1.517-.554l.437.185c-1.176-.499-2.29-1.13-3.323-1.882-.362-.263-.997-.3-1.41-.185-.424.118-.884.446-1.093.842-.225.426-.337.941-.185 1.413.155.479.436.8.841 1.095 1.594 1.161 3.398 2.034 5.278 2.62.914.285 2.036-.337 2.251-1.28.226-.996-.3-1.95-1.279-2.254ZM265.255 202.853c.104-8.807.211-17.615.392-26.421.048-2.36-3.611-2.359-3.659 0-.18 8.806-.289 17.614-.392 26.421-.027 2.359 3.632 2.361 3.659 0Z"/><path fill="#fff" d="M301.123 94.78c-.558-4.38-3.86-6.87-7.526-7.307-4.135-.493-8.325 1.63-11.512 4.084a25.721 25.721 0 0 0-3.484 3.258c-.254.284-.354.395-.595.69-.395.48-.496.958.036 1.236.779.406 1.441.75 2.224 1.148 3.356 1.705 7.027 3.57 10.776 4.358 4.357.917 10.813-1.729 10.081-7.467ZM286.696 71.307c-2.255-1.969-5.05-1.738-7.105-.303-2.317 1.62-3.486 4.59-3.997 7.274a17.455 17.455 0 0 0-.299 3.227c0 .259-.002.36.008.618.017.421.181.71.575.61.578-.146 1.068-.271 1.644-.424 2.469-.652 5.17-1.365 7.425-2.66 2.622-1.505 4.703-5.764 1.75-8.342h-.001Z"/><path fill="#211715" d="M302.888 94.293c-.623-4.335-3.986-7.748-8.283-8.512-5.233-.93-10.273 1.614-14.245 4.822a25.886 25.886 0 0 0-2.806 2.644c-.871.948-1.942 2.029-1.641 3.44.297 1.394 1.646 1.872 2.783 2.455a161.17 161.17 0 0 0 3.643 1.826c4.142 1.993 8.779 4.081 13.449 2.918 4.198-1.045 7.659-4.546 7.164-9.105-.107-.984-.764-1.833-1.829-1.833-.907 0-1.937.842-1.83 1.833.19 1.745-.283 3.182-1.666 4.268-1.209.95-2.899 1.473-4.391 1.535-2.213.094-4.577-.814-6.719-1.716-1.364-.574-2.693-1.232-4.015-1.896-1.227-.616-2.637-1.164-3.753-1.969l.656.658.034.05v.975c.057-.275.614-.753.825-.981.458-.494.935-.97 1.429-1.428a22.615 22.615 0 0 1 2.985-2.326c2-1.306 4.273-2.424 6.678-2.668 1.898-.193 3.864.165 5.43 1.301 1.557 1.128 2.303 2.821 2.571 4.684.141.98 1.384 1.519 2.25 1.28 1.051-.289 1.42-1.271 1.278-2.255h.003ZM287.99 70.01c-1.404-1.188-3.057-1.95-4.921-1.964-1.633-.013-3.305.552-4.61 1.528-2.597 1.94-4.005 5.007-4.613 8.135-.188.964-.311 1.95-.359 2.93-.042.854-.108 1.795.23 2.595a2.21 2.21 0 0 0 1.421 1.273c.587.161 1.177.007 1.747-.139.826-.21 1.65-.426 2.472-.651 1.733-.474 3.434-1.023 5.075-1.757 1.334-.598 2.593-1.362 3.533-2.503 1.121-1.362 1.868-2.944 1.993-4.72.124-1.777-.655-3.54-1.968-4.727-.733-.663-1.863-.724-2.586 0-.673.674-.736 1.927 0 2.593.167.152.324.31.476.479-.204-.227.024.035.088.138.081.13.149.263.217.398-.199-.393.038.149.064.25.028.11.082.542.038.079.013.143.023.285.025.43.001.167-.029.337-.025.503-.014.138-.009.096.016-.129a5.628 5.628 0 0 1-.175.71c-.017.054-.218.558-.117.338.102-.224-.143.274-.167.319a6.586 6.586 0 0 1-.227.388c-.093.148-.201.286-.295.433l.057-.077a5.58 5.58 0 0 1-.193.225c-.207.231-.487.421-.677.66-.102.086-.072.064.092-.064a5.899 5.899 0 0 1-.576.38c-.405.238-.828.448-1.253.644-.041.02-.515.227-.309.14a27.81 27.81 0 0 1-1.926.698c-.839.272-1.688.51-2.54.739-.459.123-.919.245-1.378.365l-.604.156-.409.104c-.29.073-.284.072.019-.006l.923.25c.376.25.571.573.585.966-.003-.08-.006-.159-.006-.239a13.149 13.149 0 0 1 0-.595c.006-.433.026-.865.064-1.297.059-.7.186-1.417.386-2.223.182-.733.407-1.464.702-2.16-.133.314.15-.308.178-.365a10.097 10.097 0 0 1 .999-1.635c-.108.145-.095.133.039-.033.117-.126.227-.258.347-.382a7.729 7.729 0 0 1 .633-.582c-.121.092-.13.1-.027.025a7.77 7.77 0 0 1 .948-.568c.459-.236-.302.084.185-.078a7.68 7.68 0 0 1 .563-.172c.08-.02.659-.123.256-.072.166-.021.335-.03.503-.034.17-.005.338.008.507.011.218.022.225.02.021-.005.085.014.17.031.254.05.2.044.392.108.588.164.342.1-.119-.096.227.094.164.09.33.175.489.274.109.068.215.14.319.215-.109-.088-.076-.06.098.086.754.638 1.847.741 2.587 0 .653-.655.758-1.951 0-2.593l-.003.005ZM128.026 116.848c10.469-13.891 14.606-31.345 13.057-48.557-1.304-14.494-5.392-29.026-13.837-41.027A63.088 63.088 0 0 0 97.861 4.498C85.506-.168 71.946-.931 58.96.96c-12.653 1.842-24.861 6.667-34.85 14.743C14.118 23.778 7.022 35.017 3.35 47.33 1.284 54.262.264 61.507.05 68.73c-.241 8.07.397 16.266 2.318 24.119 3.383 13.834 10.971 26.495 21.915 35.638 10.248 8.562 22.885 13.967 36.09 15.763 16.068 2.185 32.656-.973 46.751-9.051 3.874-2.22 7.521-4.819 10.922-7.713l-2.217.287c6.344 2.91 12.85 5.62 19.425 7.962 1.644.586 2.684-1.377 2.065-2.693-2.878-6.124-6.025-12.121-9.291-18.045-1.139-2.065-4.3-.218-3.159 1.851 3.266 5.924 6.413 11.921 9.291 18.045l2.066-2.693c-6.278-2.237-12.492-4.814-18.551-7.592-.804-.37-1.543-.287-2.216.286-12.656 10.765-29.203 16.571-45.775 16.392-12.603-.136-25.142-3.674-35.849-10.364-11.093-6.933-19.917-17.29-24.845-29.444-2.812-6.934-4.431-14.297-5.006-21.75-.57-7.401-.437-14.912.785-22.244 2.06-12.361 7.154-24.191 15.737-33.416C28.682 15.28 39.41 9.375 50.95 6.322c12.102-3.202 25.224-3.68 37.446-.854 11.549 2.672 22.179 8.465 30.349 17.118 9.101 9.64 14.522 22.098 17.131 34.997 3.251 16.07 2.524 33.057-5.02 47.861a64.602 64.602 0 0 1-5.989 9.554c-.596.791-.126 2.05.656 2.508.937.549 1.906.134 2.503-.658ZM142.582 158.495a154.298 154.298 0 0 0-11.486 22.624c-3.1 7.579-5.933 15.568-7.346 23.657-1.299 7.44-.878 15.678 4.763 21.32 4.852 4.852 12.114 6.646 18.772 5.63 8.396-1.282 15.403-7.013 20.43-13.581.602-.787.121-2.053-.656-2.508-.943-.553-1.9-.131-2.503.657-4.004 5.231-9.469 9.714-15.921 11.411-5.67 1.492-12.306.447-16.794-3.509-5.225-4.606-5.697-11.805-4.593-18.274 1.288-7.539 3.872-14.982 6.671-22.077 3.223-8.169 7.212-16.031 11.821-23.501 1.241-2.012-1.922-3.855-3.159-1.851l.001.002Z"/><path fill="#FDE9D7" d="M157.641 114.296c.306-.209.617-.411.931-.607 3.305-2.061 7.039-3.46 11-4.553.868-.239 2.281-.49 3.138-.212 1.418.461 2.454 1.319 2.846 2.696.393 1.377.183 2.864-.268 4.223l-.288.696c.677-.124 1.396-.174 1.92-.024 1.433.412 2.499 1.233 2.938 2.595.441 1.362.283 2.856-.121 4.229l-.453 1.54c.162.009.314.034.452.074 1.39.399 2.425 1.197 2.852 2.518.606 1.872.048 4-.707 5.689 1.264.356 1.754 1.562 1.872 2.275.396 2.381-.66 3.618-2.484 4.803-2.496 1.622-4.395 2.548-7.021 3.786.087 1.605.589 3.145.952 4.708.339 1.456.556 2.986.201 4.437-.425 1.738-1.826 3.349-3.736 3.284.291 1.553.624 3.135.491 4.716-.123 1.459-.694 2.943-1.838 3.855-.445.355-.961.611-1.494.813-1.756.664-3.752.726-5.509.068-.691-.26-1.338-.624-1.971-1.005a37.507 37.507 0 0 1-8.314-6.812c-.578-.632-1.166-1.36-1.183-2.219-.014-.707.365-1.354.732-1.959l4.032-6.644c-1.926-5.861-3.853-11.721-5.778-17.582-.818-2.488-.577-7.976 1.312-10.333a25.008 25.008 0 0 1 5.499-5.057l-.003.002Z"/><path fill="#211715" d="M190.584 158.257c.532.499.919 1.097 1.004 1.841.027.242.051.587-.042.813-.044.108-.228.284-.233.347.439-.308.765-.131.982.528-.232.672-.555.867-.969.584-.097-.256-.099-.235-.008.064.038.192.059.386.064.583.077.986.003 1.997-.131 2.975-.044.318-.061.715-.199 1.008.118-.25-.093-.054-.1-.019a.142.142 0 0 1 .144-.033c.638.086.519.631-.356 1.637.021.155.089.303.116.456.111.627.078 1.349-.021 1.977a6.2 6.2 0 0 1-.374 1.358c-.073.18-.157.355-.251.525-.209.318-.187.328.064.028h.973c.258.065.342.157.248.274l-.25.925c-.164.377-.874-.05-1.013.183-.031.052.054.155.045.207-.089.554-.009 1.03-.175 1.597-.294 1.005-.859 1.96-1.508 2.777-.614.774-.754 1.836 0 2.592.638.639 1.969.779 2.587 0 1.631-2.054 3.035-4.563 2.714-7.283-.15-1.28-.729-2.553-1.92-3.174-1.304-.68-3.029-.221-3.799 1.043-.77 1.263-.162 2.816.841 3.739 1.281 1.18 3.094.75 4.047-.584 1.418-1.983 1.931-5.123 1.237-7.471-.367-1.24-1.262-2.391-2.571-2.692a2.832 2.832 0 0 0-3.437 2.218c-.588 2.916 2.804 4.074 4.858 2.643.981-.683 1.421-1.649 1.607-2.799.264-1.628.405-3.267.201-4.908-.16-1.285-.685-2.422-1.886-3.031-1.363-.692-3.142-.343-3.983.982-.847 1.333-.444 3.184.856 4.054 1.347.902 3.063.617 4.145-.567 2.09-2.286 1.155-6.045-.918-7.991-1.718-1.612-4.31.976-2.587 2.592l-.002.002Z"/><path fill="#fff" d="M156.956 106.781c.398.938 2.482 5.192 3.133 5.942l.398-.122c2.808-1.482 5.869-2.577 9.085-3.464.809-.223 2.085-.451 2.95-.256l.971-.3 1.855-1.399c2.161-2.008 2.981-3.244 3.155-4.396.314-2.071.064-2.88-.841-4.826-.886-1.905-2.524-4.475-3.548-6.223-.449-.768-.908-1.546-1.518-2.162-.77-.776-1.739-1.247-2.715-1.584-3.768-1.298-7.985-.656-10.971 1.921-2.986 2.578-4.581 7.099-3.803 11.41.342 1.898 1.099 3.69 1.849 5.459ZM194.859 155.744c-3.237.76-7.066.151-10.018-1.829-1.599-1.073-2.912-2.332-4.231-3.728-.699-.741-3.161-4.516-3.586-6.115l-.328-1.228a44.172 44.172 0 0 0 4.571-2.606c1.824-1.185 2.881-2.421 2.484-4.803a2.902 2.902 0 0 0-.082-.358c1.37-.697 2.263-1.149 2.263-1.149l1.829-.929c2.701-1.184 4.131-1.192 5.254-.892 2.02.539 2.62 1.04 4.078 2.613 1.354 1.46 3.114 3.944 4.303 5.583.523.72 1.052 1.452 1.371 2.259.403 1.018.447 2.096.365 3.126-.319 3.981-2.591 7.597-6.143 9.31-.667.322-1.383.57-2.131.746h.001Z"/><path fill="#211715" d="M157.649 112.106c-2.702 1.708-5.365 3.856-7.218 6.496-1.504 2.142-1.885 5.133-1.873 7.686.014 3.074 1.153 5.847 2.101 8.729l3.629 11.043c.734 2.231 4.268 1.276 3.529-.975l-3.312-10.075-1.655-5.038c-.325-.988-.556-1.867-.61-2.881-.109-2.04.024-4.468 1.103-6.263 1.377-2.291 3.936-4.155 6.153-5.558 1.987-1.255.152-4.428-1.847-3.164Z"/><path fill="#211715" d="M177.051 116.33c.727-2.289.876-5.026-.656-7.029-1.339-1.751-3.494-2.524-5.643-2.249-2.243.289-4.471 1.102-6.578 1.903-2.263.86-4.463 1.879-6.525 3.151-2.002 1.235-.167 4.407 1.846 3.165 3.186-1.965 6.672-3.282 10.266-4.285 1.232-.343 2.472-.632 3.477.243 1.052.915.707 2.8.286 4.126-.715 2.254 2.815 3.218 3.528.975h-.001Z"/><path fill="#211715" d="M181.501 123.828c.667-2.385.726-5.184-.965-7.169-1.533-1.798-3.822-2.29-6.059-1.88-2.19.401-4.363 1.353-6.405 2.213-2.288.964-4.516 2.062-6.588 3.44-.822.548-1.175 1.619-.656 2.508.478.818 1.677 1.208 2.503.658 3.188-2.122 6.741-3.63 10.372-4.809 1.332-.432 2.613-.886 3.761-.03 1.205.898.866 2.821.51 4.095-.636 2.275 2.893 3.247 3.528.974h-.001Z"/><path fill="#211715" d="M184.235 132.064c.655-2.337.692-5.031-.932-6.987-1.406-1.695-3.594-2.241-5.691-1.905-2.002.321-4.015 1.132-5.892 1.88-2.036.813-3.983 1.778-5.809 2.996-.821.547-1.175 1.618-.656 2.508.478.817 1.677 1.208 2.503.657 2.873-1.915 6.014-3.117 9.293-4.137 1.315-.409 2.337-.616 3.282.169.139.116.264.267.378.475.064.118.212.506.263.804.146.862-.036 1.738-.268 2.566-.637 2.274 2.892 3.246 3.529.975v-.001ZM172.44 144.352c.121 1.211.37 2.384.67 3.561.27 1.062.569 2.166.626 3.151.028.49.025 1.045-.052 1.399a7.369 7.369 0 0 1-.199.716 11.99 11.99 0 0 1-.017.044 3.415 3.415 0 0 1-.12.233 4.037 4.037 0 0 1-.324.514c.204-.268-.237.223-.283.271-.163.139-.172.15-.027.033a3.267 3.267 0 0 1-.286.18c-.192.094-.2.105-.023.03-.107.04-.216.074-.326.103-.95.273-1.542 1.293-1.278 2.255.26.95 1.297 1.554 2.25 1.28 2.67-.765 4.117-3.302 4.334-5.944.114-1.386-.153-2.808-.474-4.152-.148-.618-.315-1.232-.464-1.85-.146-.603-.301-1.341-.349-1.825-.095-.951-.773-1.88-1.829-1.833-.91.041-1.931.812-1.829 1.833v.001Z"/><path fill="#211715" d="M153.094 149.53c-.872 1.436-1.908 2.867-2.606 4.396-.891 1.956-.298 3.665 1.03 5.217 2.405 2.811 5.454 5.22 8.594 7.152 1.635 1.007 3.321 1.753 5.254 1.886 1.889.129 4.003-.326 5.599-1.372 3.564-2.338 3.221-6.819 2.53-10.485-.184-.973-1.354-1.527-2.25-1.28-1.018.28-1.462 1.279-1.278 2.254.418 2.223 1.051 5.58-1.536 6.728-2.713 1.204-5.102.021-7.383-1.475a35.3 35.3 0 0 1-6.236-5.233c-.301-.316-.973-.854-1.092-1.316-.131-.507.381-1.075.633-1.491.632-1.044 1.267-2.088 1.9-3.131 1.227-2.021-1.935-3.865-3.159-1.85ZM176.361 145.042c2.119-1.018 4.235-2.104 6.171-3.45 1.781-1.238 3.09-2.874 3.132-5.135.038-2.119-.965-4.209-3.033-4.976-1.504-.559-3.449-.279-4.965.08-2.362.56-4.589 1.716-6.662 2.952-.848.505-1.157 1.649-.656 2.508.497.851 1.651 1.165 2.503.657a33.895 33.895 0 0 1 2.768-1.5c.193-.091.387-.181.582-.267l.243-.107c-.283.12-.015.008.037-.012.372-.14.742-.283 1.121-.405.659-.211 1.323-.35 2.002-.477.205-.038-.178.031-.18.024l.241-.026a9.46 9.46 0 0 1 1.257-.037c.144.005.291.008.433.026-.416-.05.332.128.082.031-.22-.085.412.327.024-.015.131.115.383.444.163.115.081.121.153.246.227.373.217.372-.043-.23.018.042.025.114.062.234.094.345.011.038.045.237.018.07-.031-.193.019.279.019.276.009.18-.028.381-.005.557.025.193.014-.072.024-.117-.02.094-.035.187-.057.281-.018.074-.178.54-.081.303.089-.222.004-.012-.02.028-.057.095-.112.195-.168.291-.215.374.133-.101-.082.121-.115.119-.224.242-.343.357-.126.119-.259.226-.389.34.291-.255-.242.169-.327.226-1.911 1.292-3.962 2.361-6.037 3.357-.891.428-1.126 1.703-.656 2.508.533.913 1.609 1.088 2.503.658l-.001-.002ZM161.383 111.427c.396.485-.08-.157-.16-.289-.173-.286-.336-.58-.496-.873a62.995 62.995 0 0 1-1.104-2.128c-.681-1.362-1.313-2.735-1.848-4.162-1.459-3.897-1.487-8.4 1.375-11.712 2.62-3.034 7.121-3.93 10.773-2.301 1.973.88 2.851 3.103 3.905 4.861 1.034 1.724 2.266 3.54 2.823 5.491.88 3.083-1.846 4.996-4.082 6.684-.788.594-1.196 1.583-.656 2.507.454.779 1.709 1.257 2.503.658 2.961-2.234 5.953-4.651 6.043-8.661.055-2.48-1.308-4.808-2.503-6.888-.64-1.113-1.313-2.204-1.969-3.307-.688-1.155-1.35-2.366-2.362-3.276-3.939-3.544-10.881-3.205-14.998-.209-4.245 3.089-6.16 8.54-5.339 13.664.418 2.606 1.536 5.121 2.677 7.485.824 1.708 1.625 3.569 2.83 5.048.626.767 1.938.651 2.587 0 .757-.758.628-1.823.001-2.592Z"/><path fill="#211715" d="M175.26 144.56c.542 1.853 1.684 3.602 2.756 5.189 1.198 1.774 2.705 3.298 4.382 4.624 4.197 3.32 9.929 4.628 14.973 2.45 4.608-1.988 7.572-6.841 7.625-11.826.033-3.1-1.752-5.282-3.495-7.651-1.393-1.894-2.816-3.943-4.668-5.421a8.276 8.276 0 0 0-6.338-1.696c-1.971.299-3.731 1.225-5.485 2.116-2.1 1.067-.251 4.231 1.847 3.165 1.097-.557 2.15-1.122 3.338-1.468.695-.203 1.188-.302 1.907-.255.335.022-.403-.088.114.014.107.021.21.048.315.073.452.112.913.245 1.332.451 1.44.714 2.613 2.403 3.595 3.685.63.824 1.237 1.665 1.846 2.506.651.9 1.455 1.815 1.824 2.875.61 1.755.035 4.11-.77 5.716-.847 1.692-2.092 3.106-3.754 4.03-3.471 1.933-7.982 1.194-11.135-1.009-1.025-.715-1.943-1.579-2.82-2.467-.335-.338-.674-.674-.975-1.044.208.255-.275-.394-.371-.533-.939-1.367-2.106-3.109-2.513-4.499-.661-2.259-4.194-1.298-3.528.974l-.002.001Z"/><path fill="#868480" d="M96.51 101.683c5.054 1.804 10.874-1.304 12.497-6.353 1.329-4.138-.323-9.5-1.554-13.668-2.122-7.182-2.974-14.477-3.074-21.955.141-4.317-.16-9.435-.313-11.578-.531-7.43-3.869-15.725-8.672-20.336-1.913-1.836-2.575-2.77-4.434-3.86l-2.152-1.262-2.137-.869c-3.972-1.613-8.11-2.684-13.987-2.684-9.636 0-18.213 4.974-22.019 8.625-6.314 6.057-10.318 17.12-9.813 32.376 0 10.34-.845 17.796-2.03 22.036-.806 2.9-1.494 7.732-1.524 10.68-.034 4.28 4.734 10.225 12.21 8.982"/><path fill="#FDE9D7" d="M103.371 59.837c-.367-.637-1.218-1.722-3.218-1.791a3.976 3.976 0 0 0-1.99.45c-5.145-4.15-10.161-11.258-13.09-18.29-5.642 4.717-8.707 6.702-18.901 11.555-6.283 2.99-13.204 4.882-18.542 6.56a4.056 4.056 0 0 0-1.613-.275c-2 .071-2.852 1.155-3.218 1.792-1.093 1.9-1.048 5.402-.313 7.569.52 1.535 1.37 3.882 3.424 5.565.89.729 2.22 1.197 3.465.907.943 3.055 2.591 6.668 5.397 10.034 2.322 2.784 4.97 5.018 7.839 6.397-.03 1.268.015 1.676-.098 3.204a1.235 1.235 0 0 0-.004.055c2.865 2.266 9.17 7.238 9.764 7.659h1.746c.623-.442 7.54-5.899 10.164-7.976-.091-1.433-.051-1.829-.071-3.304 5.981-2.897 10.756-11.119 11.603-13.421.164-.5.65-1.509 1.038-2.645l.227.038c1.19.201 2.435-.256 3.281-.95 2.053-1.682 2.904-4.03 3.424-5.564.734-2.166.779-5.669-.314-7.569Z"/><path fill="#211715" d="M68.353 79.773c1.556.823 3.229 1.177 4.989 1.166 1.844-.012 3.648-.4 5.118-1.548.69-.538.606-1.8 0-2.357-.732-.672-1.616-.574-2.352 0 .572-.446-.04.003-.222.099-.142.074-.524.191-.008.02-.137.046-.27.104-.407.148-.174.056-.35.103-.528.145-.173.04-.46.033-.612.116.153-.083.265-.032.004-.006-.112.01-.224.02-.336.028a12.34 12.34 0 0 1-1.868-.03 7.177 7.177 0 0 1-.048-.004c-.126.038-.416-.073-.545-.102a7.414 7.414 0 0 1-.52-.134c-.148-.045-.294-.099-.44-.15-.38-.13.34.165-.004.002a13.066 13.066 0 0 1-.541-.27c-.77-.407-1.844-.222-2.276.597-.405.77-.224 1.846.598 2.28h-.002ZM72.304 68.247c.207.796.408 1.604.527 2.418l-.06-.443a1.5 1.5 0 0 1 .01.334l.059-.443a.78.78 0 0 1-.037.15l.168-.398a.602.602 0 0 1-.053.096l.26-.337a.5.5 0 0 1-.079.077l.337-.26c-.06.039-.125.07-.191.101l.397-.168c-.105.044-.21.076-.321.094l.442-.06a1.31 1.31 0 0 1-.303 0l.443.06c-.114-.016-.227-.043-.34-.06a1.268 1.268 0 0 0-.664-.03 1.24 1.24 0 0 0-.619.198c-.345.203-.674.599-.764.996-.097.427-.076.906.168 1.284.216.336.578.71.994.766.297.04.585.115.888.128.484.02.927-.13 1.357-.33.54-.252.966-.762 1.11-1.345.123-.497.072-.9-.012-1.4-.131-.779-.31-1.55-.51-2.314a1.717 1.717 0 0 0-.764-.996c-.357-.209-.883-.297-1.282-.168-.402.13-.79.38-.993.766-.21.4-.285.84-.168 1.284ZM59.956 61.287c-.404 1.312-.14 4.33 2.34 4.587 3.279-.02 3.454-3.668 2.35-5.385-.904-1.404-3.561-1.988-4.69.798ZM86.213 61.287c.403 1.312.14 4.33-2.34 4.587-3.279-.02-3.453-3.669-2.35-5.385.904-1.404 3.56-1.988 4.69.798ZM57.742 101.244c2.1-.87 4.357-1.965 5.492-4.052 1.013-1.864 1.013-4.033 1.028-6.105.007-.871-.77-1.706-1.663-1.666-.906.04-1.656.732-1.663 1.666a35.783 35.783 0 0 1-.064 2.11c-.017.25-.035.502-.057.753-.005.043-.045.446-.019.222.025-.22-.039.224-.039.222-.043.22-.099.437-.174.649-.055.155-.114.263-.013.048-.047.1-.094.202-.145.302a5.27 5.27 0 0 1-.299.513c-.027.04-.255.32-.103.15.156-.176-.127.13-.129.132a4.062 4.062 0 0 1-.191.19c.005-.005-.302.26-.157.142.15-.125-.16.117-.19.138a11.88 11.88 0 0 1-1.464.889c-.21.109-.423.21-.636.309-.087.04-.174.078-.26.116-.437.196.311-.126-.137.059-.8.331-1.462 1.12-1.162 2.049.25.773 1.184 1.521 2.045 1.164ZM82.454 91.087c0 1.935.017 3.941.833 5.727.879 1.924 2.727 3.114 4.587 3.963.79.361 1.827.252 2.276-.598.385-.732.248-1.894-.598-2.28-.792-.362-1.559-.774-2.265-1.288-.099-.073-.25-.206-.074-.054-.082-.071-.164-.14-.243-.215-.127-.12-.306-.265-.388-.42.095.181.11.148.002-.016-.047-.07-.09-.141-.133-.213-.109-.182-.195-.373-.293-.561-.107-.207.09.266.017.041-.037-.115-.084-.227-.118-.343-.063-.216-.1-.436-.143-.657-.038-.199.02.249-.005-.075-.008-.099-.019-.196-.026-.293a30.384 30.384 0 0 1-.103-2.718c0-.871-.765-1.706-1.663-1.666-.898.04-1.663.732-1.663 1.666Z"/><path fill="#211715" d="M95.646 71.405c-.186 1.338-.679 2.58-1.194 3.818-.142.34-.276.683-.407 1.029-.088.233.164-.335-.046.098-.056.115-.108.232-.164.346-.773 1.59-1.726 3.101-2.747 4.541-2.363 3.33-5.586 6.947-9.715 7.919-2.083.49-1.202 3.704.884 3.214 4.86-1.144 8.606-5.191 11.436-9.082 1.115-1.531 2.147-3.147 2.983-4.85.93-1.895 1.886-4.06 2.177-6.148.124-.89-.216-1.79-1.162-2.05-.778-.214-1.92.268-2.045 1.165ZM47.198 72.194a31.254 31.254 0 0 0 6.735 13.293c3.285 3.812 7.671 7.05 12.748 7.828.886.135 1.788-.225 2.045-1.165.216-.788-.268-1.913-1.161-2.05-8.994-1.374-15.219-10.476-17.16-18.791-.487-2.088-3.695-1.204-3.207.885Z"/><path fill="#211715" d="M49.983 57.89a5.864 5.864 0 0 0-6.388-.956c-1.544.707-2.49 2.167-2.924 3.769-1.004 3.693-.062 8.01 2.051 11.16 1.44 2.148 3.711 4.082 6.469 3.723.89-.115 1.663-.683 1.663-1.666 0-.81-.766-1.783-1.663-1.666-1.975.256-3.276-1.38-4.133-2.963-.702-1.296-1.264-2.822-1.394-4.35-.13-1.528-.085-3.304.749-4.545-.266.396.431-.386.221-.228a1.87 1.87 0 0 1 .843-.385c.755-.17 1.565-.063 2.155.465.67.599 1.69.661 2.351 0 .609-.61.673-1.755 0-2.357ZM98.537 60.248c.555-.497 1.323-.627 2.042-.49.403.077.618.157.956.41-.213-.16.483.62.222.229.833 1.245.88 3.012.749 4.545-.132 1.533-.695 3.055-1.395 4.35-.856 1.583-2.157 3.219-4.132 2.962-.892-.116-1.663.85-1.663 1.667 0 .996.768 1.55 1.663 1.666 4.494.584 7.248-4.288 8.371-7.926 1.004-3.256.974-8.33-2.207-10.419-2.155-1.414-5.086-1.024-6.957.65-.67.598-.61 1.745 0 2.356.666.667 1.68.6 2.351 0ZM57.742 101.243c2.1-.87 4.357-1.964 5.492-4.052 1.013-1.864 1.013-4.033 1.028-6.105.007-.871-.77-1.706-1.663-1.666-.906.04-1.656.733-1.663 1.666a35.783 35.783 0 0 1-.064 2.11c-.017.251-.035.503-.057.753-.005.043-.045.446-.019.222.025-.22-.039.224-.039.222a4.6 4.6 0 0 1-.174.649c-.055.156-.114.263-.013.048-.047.1-.094.203-.145.302-.09.176-.19.348-.299.513-.027.04-.255.32-.103.15.156-.176-.127.13-.129.132a4.113 4.113 0 0 1-.191.19c.005-.005-.302.26-.157.142.15-.125-.16.117-.19.138a11.862 11.862 0 0 1-1.464.89c-.21.108-.423.21-.636.308-.087.04-.174.078-.26.116-.437.196.311-.126-.137.059-.8.331-1.462 1.12-1.162 2.049.25.773 1.184 1.521 2.045 1.164ZM82.454 91.087c0 1.934.017 3.94.833 5.726.879 1.924 2.727 3.114 4.587 3.963.79.361 1.827.252 2.276-.598.385-.732.248-1.894-.598-2.28-.792-.362-1.559-.774-2.265-1.288-.099-.073-.25-.206-.074-.054-.082-.071-.164-.14-.243-.215-.127-.12-.306-.265-.388-.42.095.181.11.148.002-.016-.047-.07-.09-.14-.133-.213-.109-.182-.195-.373-.293-.561-.107-.207.09.266.017.042-.037-.115-.084-.228-.118-.344-.063-.215-.1-.436-.143-.657-.038-.198.02.249-.005-.075-.008-.098-.019-.196-.026-.293a30.348 30.348 0 0 1-.103-2.718c0-.871-.765-1.706-1.663-1.666-.898.04-1.663.733-1.663 1.666Z"/><path fill="#211715" d="M39.19 60.12c-.007 7.083-.078 14.528-1.924 21.421-.944 3.526-1.534 7.263-1.622 10.915-.07 2.91 1.273 5.68 3.32 7.703 2.95 2.913 6.966 3.881 10.986 3.265.889-.136 1.38-1.255 1.162-2.05-.262-.951-1.154-1.3-2.046-1.164-2.91.446-5.861-.451-7.92-2.58-1.79-1.852-2.278-3.848-2.125-6.266.203-3.22.809-6.35 1.592-9.472.683-2.722 1.041-5.532 1.318-8.32.444-4.469.58-8.964.585-13.453.003-2.144-3.323-2.148-3.326 0ZM102.716 59.706c.114 7.562 1.001 15.128 3.133 22.398 1.542 5.261 3.994 12.329-1.031 16.49-2.208 1.828-5.162 2.399-7.867 1.482-2.032-.688-2.904 2.53-.883 3.214 5.972 2.023 12.777-1.668 14.588-7.67 1.043-3.454.34-7.258-.539-10.666-.972-3.768-2.15-7.442-2.836-11.282-.825-4.61-1.167-9.287-1.239-13.966-.032-2.143-3.359-2.149-3.326 0Z"/><path fill="#211715" d="M90.121 25.372c1.276.768 2.264 1.786 3.313 2.83 1.075 1.072 2.147 2.117 3.04 3.353 1.92 2.66 3.352 5.654 4.355 8.773 1.984 6.173 2.078 12.948 1.886 19.379-.064 2.145 3.262 2.143 3.326 0 .326-10.943-.635-22.59-7.884-31.373-1.78-2.156-3.951-4.392-6.357-5.839-1.84-1.107-3.514 1.773-1.679 2.877ZM87.114 20.196c-10.236-4.122-21.683-3.494-31.35 1.865-3.625 2.01-6.768 4.587-9.232 7.931-2.534 3.44-4.249 7.48-5.389 11.583-1.67 6.01-2.143 12.33-1.951 18.545.065 2.14 3.391 2.15 3.326 0-.283-9.21.825-19.153 5.933-27.062 4.48-6.939 12.938-11.167 20.989-12.089 5.722-.655 11.473.3 16.791 2.44.834.337 1.827-.365 2.046-1.163.261-.95-.326-1.713-1.163-2.05Z"/><path fill="#211715" d="M83.897 39.027c-4.058 3.387-8.347 6.194-13.057 8.596-3.518 1.795-7.074 3.525-10.776 4.91-3.602 1.35-7.286 2.462-10.963 3.589-2.041.625-1.17 3.843.884 3.213 6.11-1.872 12.162-3.803 17.938-6.572 4.332-2.076 8.68-4.205 12.633-6.956 1.973-1.373 3.848-2.883 5.693-4.424 1.646-1.374-.718-3.721-2.352-2.356Z"/><path fill="#211715" d="M96.51 54.732c-4.155-4.274-7.525-9.471-9.834-14.97-.348-.829-1.099-1.424-2.045-1.163-.78.214-1.513 1.214-1.162 2.05 2.541 6.05 6.108 11.727 10.69 16.44 1.495 1.538 3.847-.82 2.352-2.357ZM89.24 100.776c1.682.755 3.327 1.583 4.993 2.368 1.803.849 3.704 1.51 5.547 2.267 3.377 1.386 6.721 2.877 9.868 4.737 1.848 1.092 3.524-1.788 1.679-2.878-3.182-1.881-6.566-3.375-9.975-4.789-1.805-.749-3.663-1.403-5.44-2.216-1.675-.766-3.312-1.613-4.993-2.368-.819-.367-1.787-.237-2.275.598-.415.712-.227 1.911.597 2.28v.001ZM50.737 119.961c-.491-.934-.98-1.868-1.465-2.806-.24-.463-.479-.926-.716-1.39l-.355-.692c-.096.386-.04.427.168.127.35-.146.794-.836 1.065-1.113.36-.367.726-.73 1.094-1.091a148.49 148.49 0 0 1 2.223-2.123c.779-.733.57-2.098-.337-2.617-1.46-.835-3.01-1.597-4.402-2.542l.597.599-.142-.219.227.84c-.018.407.268-.328.361-.471.147-.226.3-.45.466-.663a17.97 17.97 0 0 1 1.315-1.471c.996-1.023 2.072-1.966 3.18-2.864.555-.449 1.122-.881 1.698-1.301.06-.044.72-.453.728-.52a.69.69 0 0 1-.314-.035c-.209-.29-.264-.299-.167-.027-.066.335.232.997.311 1.333a371.501 371.501 0 0 0 .925 3.839 379.309 379.309 0 0 0 5.775 20.793c.63 2.043 3.842 1.172 3.208-.885a377.518 377.518 0 0 1-6.746-24.823c-.205-.877-.322-1.827-.944-2.524-1.111-1.248-2.794-1.218-4.087-.293-2.488 1.783-4.971 3.737-6.954 6.086-.929 1.1-2.569 2.91-1.938 4.469.39.964 1.421 1.383 2.266 1.866l2.959 1.692-.337-2.617c-.981.923-1.957 1.849-2.909 2.803-.879.881-2.106 1.854-2.483 3.083-.381 1.238.312 2.335.855 3.391.661 1.287 1.33 2.569 2.004 3.849.999 1.898 3.87.216 2.872-1.683Z"/><path fill="#211715" d="M98.996 120.553c.601-1.149 1.205-2.298 1.789-3.455.53-1.053.873-2.124.264-3.238-.556-1.017-1.57-1.864-2.386-2.677a132.049 132.049 0 0 0-2.772-2.666l-.337 2.617 2.437-1.393c.746-.427 1.687-.793 2.301-1.409 1.228-1.229.345-2.833-.488-3.992-1.81-2.515-4.222-4.531-6.67-6.398-1.163-.885-2.36-1.952-3.93-1.518-1.794.497-2.068 2.226-2.438 3.795a365.8 365.8 0 0 1-2.78 11.011 383.763 383.763 0 0 1-3.531 12.308c-.627 2.056 2.582 2.935 3.207.886a379.379 379.379 0 0 0 6.175-22.746l.27-1.146c.059-.254.119-.508.177-.763.16-.395.155-.486-.017-.271a.283.283 0 0 1-.275.146c-.233-.031-.202.025.094.166.206.206.504.363.737.534.535.396 1.061.804 1.577 1.224 1.103.899 2.173 1.846 3.162 2.872.418.435.835.882 1.206 1.358.165.212.319.436.465.662.093.144.38.878.362.472l.227-.841-.142.219.597-.598c-1.392.945-2.942 1.706-4.402 2.541-.908.519-1.116 1.885-.337 2.617 1.355 1.275 2.703 2.558 3.986 3.907.133.139.265.279.395.419.208.301.264.259.168-.126-.052.37-.443.865-.616 1.201-.447.868-.897 1.732-1.348 2.596-.992 1.899 1.878 3.585 2.872 1.683v.003Z"/><path fill="#fff" d="M85.167 92.47c1.144 1.282 2.554 3.162 3.674 4.46.658.765 1.143 2.17.769 3.183-.43.86-5.185 8.499-8.386 10.555-1.012-1.351-5.202-7.179-7.206-9.438.752-.534 10.663-8.365 11.149-8.759v-.001ZM61.122 92.47c-1.144 1.282-2.554 3.162-3.674 4.46-.658.765-1.143 2.17-.769 3.183.43.86 5.185 8.499 8.386 10.555 1.012-1.351 5.202-7.179 7.206-9.438-.752-.534-10.663-8.365-11.149-8.759v-.001Z"/><path fill="#211715" d="M83.991 93.648c.838.95 1.622 1.947 2.416 2.934.576.716 1.466 1.474 1.636 2.422.018.096.048.525.073.365.02-.135-.005.005-.031.066-.073.177-.202.35-.3.513-.325.538-.664 1.069-1.008 1.594-.945 1.446-1.934 2.873-3.014 4.221-.987 1.234-2.277 2.737-3.379 3.465l2.275.598c-2.449-3.278-4.76-6.7-7.466-9.775l-.337 2.617c3.94-2.833 7.712-5.972 11.486-9.02.7-.564.587-1.767 0-2.356-.692-.693-1.65-.566-2.352 0-1.784 1.442-3.597 2.849-5.4 4.268a1358.28 1358.28 0 0 1-4.347 3.413c-.117.09-.815.631-.4.311-.22.17-.44.344-.666.506-.903.65-1.093 1.757-.336 2.617 2.52 2.862 4.666 6.049 6.946 9.101.516.69 1.457 1.139 2.275.599 1.684-1.113 3.027-2.68 4.266-4.254a64.977 64.977 0 0 0 3.607-5.069c.955-1.487 1.77-2.785 1.315-4.664-.335-1.38-1.251-2.363-2.12-3.43-.923-1.137-1.819-2.299-2.788-3.398-1.42-1.61-3.766.755-2.352 2.357l.001-.001Z"/><path fill="#211715" d="M59.946 91.29c-.97 1.1-1.865 2.26-2.788 3.397-.873 1.073-1.783 2.044-2.12 3.43-.454 1.878.36 3.179 1.315 4.664a65.184 65.184 0 0 0 3.608 5.07c1.239 1.574 2.581 3.141 4.265 4.253.81.536 1.761.091 2.275-.598 2.28-3.052 4.427-6.238 6.947-9.101.756-.86.567-1.967-.337-2.617-.226-.163-.445-.336-.665-.506.411.317-.291-.227-.4-.312l-.68-.53a1358.28 1358.28 0 0 1-3.668-2.882c-1.802-1.42-3.616-2.828-5.4-4.268-.699-.564-1.669-.683-2.352 0-.582.585-.702 1.789 0 2.356 3.775 3.049 7.547 6.187 11.486 9.02l-.337-2.617c-2.706 3.074-5.017 6.497-7.466 9.775l2.275-.598c-.496-.329-1.023-.817-1.58-1.394a29.292 29.292 0 0 1-1.728-1.982c-1.107-1.375-2.12-2.833-3.085-4.31a52.65 52.65 0 0 1-1.008-1.595c-.095-.157-.207-.316-.284-.482-.023-.05-.071-.102-.085-.156.085.34.09-.203.098-.26.15-.97 1.065-1.74 1.65-2.467.794-.987 1.577-1.984 2.415-2.934 1.413-1.601-.93-3.968-2.351-2.356Z"/><path fill="#fff" d="M27.778 63.086a9.507 9.507 0 0 0-.744 5.651c.253 1.403.813 2.73 1.369 4.038.352.83 2.49 5.173 2.462 4.384 2.115-1.142 4.435-1.97 6.87-2.642.644-.177 1.688-.363 2.322-.156.055.018.11.036.164.056l.416-.31 1.371-1.035c1.6-1.486 2.205-2.4 2.334-3.252.232-1.532.048-2.13-.622-3.57-.655-1.41-1.867-3.31-2.625-4.603-.332-.569-.672-1.144-1.123-1.6-.57-.573-1.287-.922-2.008-1.17-2.788-.961-5.907-.486-8.116 1.42-.86.743-1.565 1.704-2.07 2.789ZM56.44 108.996c-2.394.561-5.227.111-7.41-1.354-1.182-.793-2.154-1.724-3.13-2.757-.517-.548-2.337-3.34-2.653-4.523l-.242-.908a32.7 32.7 0 0 0 3.381-1.928c1.35-.876 2.131-1.791 1.838-3.552a2.262 2.262 0 0 0-.06-.265l1.674-.85 1.353-.688c1.998-.875 3.055-.881 3.887-.659 1.494.4 1.937.77 3.017 1.933 1 1.08 2.303 2.918 3.183 4.13.386.533.778 1.075 1.014 1.672.298.752.33 1.551.27 2.313-.236 2.944-1.917 5.619-4.545 6.886a7.647 7.647 0 0 1-1.576.552v-.002Z"/><path fill="#FDE9D7" d="M28.782 78.422c.268-.185.54-.364.817-.536 2.443-1.525 5.207-2.56 8.136-3.368.643-.177 1.687-.363 2.322-.156 1.048.34 1.815.975 2.105 1.994.29 1.018.136 2.119-.199 3.124l-.11.498c.47-.079.957-.104 1.317 0 1.06.304 1.849.912 2.174 1.92.326 1.008.21 2.113-.09 3.129l-.318 1.137c.113.01.22.028.318.057 1.028.294 1.793.884 2.11 1.863.315.978.202 2.05-.088 3.036l-.31 1.21c.841.306 1.175 1.141 1.258 1.644.293 1.762-.488 2.677-1.838 3.553-1.846 1.2-3.25 1.885-5.193 2.801.064 1.187.436 2.327.705 3.482.25 1.077.41 2.208.147 3.282-.314 1.286-1.349 2.478-2.763 2.429.216 1.149.461 2.32.363 3.49-.09 1.079-.514 2.177-1.36 2.851-.329.262-.71.452-1.105.602-1.298.491-2.774.537-4.075.05-.511-.192-.99-.461-1.458-.744a27.715 27.715 0 0 1-6.15-5.038c-.428-.468-.863-1.007-.875-1.641-.01-.524.27-1.003.541-1.45l2.983-4.915-4.275-13.005c-.605-1.84-.426-5.9.97-7.643a18.447 18.447 0 0 1 3.941-3.654v-.002Z"/><path fill="#211715" d="M28.76 76.447c-2.045 1.299-4.114 2.935-5.485 4.963-1.091 1.615-1.39 3.807-1.395 5.714-.006 2.251.789 4.257 1.482 6.367l2.768 8.422c.667 2.028 3.88 1.159 3.207-.885l-2.382-7.248c-.613-1.866-1.597-3.873-1.725-5.852-.094-1.443-.018-3.141.676-4.445.92-1.73 2.92-3.136 4.532-4.16 1.802-1.145.136-4.03-1.68-2.878l.002.002Z"/><path fill="#211715" d="M43.567 79.922c.568-1.79.652-3.912-.54-5.47-1.045-1.365-2.733-2-4.417-1.785-1.684.215-3.361.815-4.95 1.418-1.698.645-3.352 1.407-4.9 2.362-1.819 1.122-.15 4.007 1.68 2.878 2.335-1.44 4.884-2.403 7.52-3.139.59-.165.886-.22 1.42-.249.461-.025-.05-.046.16.01.069.02.367.13.179.048.104.046.206.102.304.16.006.003.34.245.238.155-.122-.109.16.175.183.204-.143-.178.02.05.06.132.11.23-.048-.317.056.153.033.145.084.291.099.44.058.596-.116 1.226-.297 1.797-.272.857.32 1.818 1.161 2.05.898.246 1.773-.304 2.046-1.165l-.002.001Z"/><path fill="#211715" d="M46.858 85.467c.524-1.874.538-4.054-.794-5.605-1.215-1.414-3.02-1.794-4.783-1.471-1.62.296-3.228 1.001-4.738 1.637-1.718.723-3.393 1.541-4.948 2.576-.747.498-1.068 1.472-.597 2.28.434.744 1.524 1.098 2.275.598 2.337-1.555 4.937-2.661 7.598-3.525.276-.09.55-.18.833-.25a6.17 6.17 0 0 1 .46-.102c.025-.004.293-.03.135-.019.151-.011.31-.02.46-.007.129.006.118.008-.032.004l.184.056c.17.096.26.093.504.264.02.014.223.245.233.261.022.038.152.34.091.174.05.137.091.292.113.437.094.61-.039 1.22-.202 1.806-.578 2.069 2.63 2.951 3.207.885l.001.001Z"/><path fill="#211715" d="M48.88 91.56c.517-1.84.513-3.939-.768-5.47-1.12-1.34-2.852-1.757-4.512-1.49-1.48.24-2.969.838-4.358 1.392-1.531.612-2.996 1.33-4.37 2.248-.748.498-1.07 1.47-.598 2.28.434.742 1.524 1.098 2.275.597 2.203-1.469 4.286-2.246 6.8-3.03.605-.188.933-.255 1.377-.267.23-.007-.274-.12.085.005.035.013.433.15.266.081-.15-.062.23.123.227.122.037.021.353.256.204.129-.146-.123.161.18.157.174-.156-.173-.025-.017.043.09.085.134-.028-.18.052.102l.105.376c.103.589-.021 1.163-.192 1.774-.58 2.068 2.627 2.951 3.207.886v.002ZM39.548 100.568c.092.924.277 1.818.506 2.717.109.429.221.857.313 1.291.045.218.089.437.12.657-.045-.31.015.237.02.301.01.192.014.385.008.578-.005.11-.011.219-.022.328.026-.171.02-.156-.014.046-.045.179-.093.352-.147.529-.095.312.134-.242-.07.13a4.039 4.039 0 0 1-.24.381c.242-.343-.1.072-.16.137-.14.12-.127.112.041-.024a2.216 2.216 0 0 1-.212.133c-.165.084-.146.08.058-.009-.08.03-.16.055-.241.076-.836.24-1.44 1.187-1.162 2.05.275.852 1.15 1.42 2.046 1.164 2.115-.607 3.262-2.603 3.433-4.696.086-1.052-.118-2.135-.362-3.154-.11-.457-.233-.911-.343-1.369a17.978 17.978 0 0 1-.162-.728c-.027-.135-.048-.272-.073-.408-.054-.293.04.387-.012-.131-.086-.865-.704-1.71-1.663-1.667-.828.038-1.755.738-1.663 1.667v.001Z"/><path fill="#211715" d="M42.914 101.347c1.568-.754 3.133-1.557 4.564-2.552 1.41-.98 2.438-2.278 2.47-4.067.031-1.71-.808-3.371-2.47-3.98-1.167-.426-2.665-.218-3.838.06-1.772.42-3.448 1.287-5.003 2.215-.747.446-1.086 1.52-.597 2.28.485.754 1.475 1.074 2.275.598a25.036 25.036 0 0 1 2.048-1.11c.143-.068.286-.134.431-.198.058-.026.119-.06.18-.079-.337.104-.128.053-.047.023.275-.104.549-.21.829-.3.488-.156.979-.256 1.48-.353.18-.035-.236.029-.215.03.056 0 .12-.014.178-.02a7.13 7.13 0 0 1 .93-.028c.022 0 .316.004.32.02.009.03-.32-.086-.133-.01.07.028.308.04.074.006-.176-.027-.074-.045 0 .008.202.147-.08-.057-.081-.084 0 .008.1.098.11.1.228.09-.009.113-.039-.08.013.08.124.203.168.278.188.311-.07-.275-.017-.043.019.084.046.172.07.256.012.045.05.204.008.01-.052-.232.007.134.008.163.007.135-.015.279-.004.412.017.178.002-.155.028-.17-.008.005-.035.178-.041.208-.018.072-.162.443-.045.188.113-.246-.08.122-.123.199-.185.333.178-.171-.013.026-.084.089-.165.18-.254.265-.042.04-.22.248-.288.251.092-.005.252-.18.065-.052-.081.056-.161.116-.243.171-1.414.955-2.93 1.747-4.466 2.484-.786.378-1.056 1.567-.597 2.28.52.809 1.435 1.002 2.275.598l.003-.003ZM31.897 75.993c.33.41.003-.032-.071-.155-.124-.203-.24-.413-.355-.622-.29-.531-.566-1.071-.836-1.613-.506-1.013-.977-2.035-1.369-3.1-1.03-2.796-1.013-6.044 1.092-8.373 1.863-2.061 5.046-2.671 7.57-1.486 1.316.618 1.914 2.153 2.628 3.34.76 1.265 1.658 2.589 2.096 4.011.664 2.158-1.262 3.471-2.855 4.673-.716.54-1.087 1.439-.597 2.28.413.707 1.553 1.142 2.275.598 2.262-1.707 4.514-3.545 4.621-6.6.067-1.934-.98-3.745-1.915-5.368-.908-1.577-1.8-3.56-3.144-4.81-2.907-2.708-8.055-2.606-11.247-.5-3.467 2.29-5.027 6.587-4.407 10.623.3 1.944 1.135 3.822 1.982 5.586.635 1.321 1.255 2.726 2.18 3.872.564.701 1.763.59 2.351 0 .691-.692.567-1.654.001-2.356Z"/><path fill="#211715" d="M41.644 100.804c.891 2.98 3.185 5.706 5.59 7.576 3.135 2.437 7.456 3.3 11.174 1.701 3.548-1.525 5.895-5.326 5.84-9.183-.03-2.233-1.27-3.817-2.529-5.534-1.063-1.45-2.143-3.022-3.547-4.167-1.37-1.117-3.187-1.643-4.935-1.388-1.524.223-2.882.921-4.24 1.61-1.91.97-.227 3.846 1.68 2.878.775-.394 1.517-.794 2.356-1.042.512-.15.9-.238 1.411-.187-.292-.028.267.072.334.09.297.082.585.167.857.31 1.002.529 1.8 1.708 2.474 2.586.46.6.9 1.212 1.343 1.824.461.637 1.035 1.284 1.31 2.026.46 1.232.03 2.911-.531 4.047-.597 1.209-1.496 2.208-2.68 2.862-2.486 1.374-5.715.798-7.951-.793-.71-.505-1.348-1.11-1.96-1.727-.241-.243-.486-.485-.705-.748.206.248-.188-.271-.245-.354a25.312 25.312 0 0 1-1.136-1.808c-.29-.51-.578-1.043-.704-1.462-.613-2.05-3.824-1.176-3.207.886v-.003ZM237.494 141.719a359.326 359.326 0 0 1 17.587 5.259c5.875 1.924 11.744 4.181 16.701 7.969 9.169 7.007 13.672 17.803 15.907 28.828 1.276 6.291 1.894 12.687 2.465 19.073.088.986.777 1.833 1.829 1.833.921 0 1.918-.841 1.829-1.833-1.056-11.805-2.26-23.92-7.261-34.816-2.486-5.416-6.018-10.387-10.517-14.307-4.951-4.315-10.8-7.066-16.941-9.249-6.768-2.405-13.699-4.411-20.627-6.293-2.275-.618-3.246 2.918-.973 3.535l.001.001Z"/></g><defs><clipPath id="a"><path fill="#fff" d="M0 0h303v232H0z"/></clipPath></defs></svg>