<svg xmlns="http://www.w3.org/2000/svg" width="257" height="224" fill="none"><g clip-path="url(#a)"><path fill="#fff" d="M150.818 80.275a40.153 40.153 0 0 0 6.399-7.974l1.055 2.199a59.021 59.021 0 0 0 4.664 7.978.869.869 0 0 1-.033.074c-.613 1.255-3.489 4.819-6.287 8.826-2.655 3.06-6.289 7.656-8.351 9.364a67.965 67.965 0 0 1-3.487-2.26 35.743 35.743 0 0 1-15.289-.096c-.233.201-.464.401-.694.602l-4.796 4.92-8.756-3.907V85.876a24.974 24.974 0 0 0 16.748 2.836 34.779 34.779 0 0 0 3.398-.707 46.117 46.117 0 0 0 9.197-3.84l6.232-3.89Z"/><path fill="#FDE9D7" d="M161.872 48.945a4.999 4.999 0 0 1 3.534-1.032 4.52 4.52 0 0 1 2.265.627 4.493 4.493 0 0 1 1.638 1.677c1.252 2.307.988 6.426-.055 8.936a12.991 12.991 0 0 1-4.523 6.1 9.608 9.608 0 0 1-4.575 1.397l-.324.698c-.516 1.283-1.778 3.552-1.778 3.552a41.355 41.355 0 0 1-7.241 9.376l-6.23 3.89a46.095 46.095 0 0 1-9.198 3.84c-1.12.291-2.254.527-3.397.706-7.321 1.15-13.558-.356-19.637-4.65-5.793-4.095-8.669-10.981-10.068-18.717-.806-4.461-1.574-9.317-2.558-14.155 0 0-8.456-29.514 31.472-29.84 35.191-.287 30.675 27.595 30.675 27.595Z"/><path fill="#B3B3B3" d="M146.629 36.037a8.303 8.303 0 0 1 4.212 1.91 9.818 9.818 0 0 1 2.382 3.48 56.192 56.192 0 0 1 1.796 7.876l6.853-.358a4.999 4.999 0 0 1 3.534-1.032 4.518 4.518 0 0 1 2.265.627 4.484 4.484 0 0 1 1.638 1.677l.55 1.014c1.597-4.03 1.628-10.797 1.582-14.08a46.533 46.533 0 0 0-2.222-11.458c-2.022-5.985-4.235-9.313-9.279-14.046-10.949-9.79-22.054-10.604-29.398-9.645-11.253 1.47-19.072 4.823-25.346 13.703-4.639 5.087-6.368 11.007-7.012 17.55a56.891 56.891 0 0 0 1.988 19.519l.314-2.376c-1.211-10.503 2.518-17.046 9.752-20.432 0 0 6.412-3.244 16.047-2.919 6.541.22 11.066.502 11.066.502 3.835 1.042 7.216 4.896 8.973 8.46"/><path fill="#2D68A4" d="m122.975 104.683 5.818-5.694c.229-.2.46-.4.694-.602a35.756 35.756 0 0 0 15.287.096 69.03 69.03 0 0 0 3.489 2.26c2.061-1.709 5.695-6.302 8.351-9.365 2.798-4.006 5.67-7.57 6.287-8.826l.241-.494.251.057c5.074 1.16 13.513 3.218 18.409 4.979 5.726 2.06 10.534 4.623 14.736 9.006 3.776 3.94 7.806 12.041 10.322 20.783 4.991 17.342 6.32 23.367 7.956 32.344.737 3.826 1.957 11.875 1.852 14.684-.081 2.171-.648 7.347-1.36 9.436-1.228 3.603-2.566 7.406-7.548 11.114-7.153 5.322-18.72 9.767-24.83 11.763a51.377 51.377 0 0 0-2.57-7.853c-2.136-5.134-5.077-9.994-8.242-12.778-3.196 2.688-7.668 1.945-11.66 1.311a119.446 119.446 0 0 0-6.614-.86 18.579 18.579 0 0 0-3.497-.117 13.509 13.509 0 0 0-7.536 3.527c-2.552 2.231-4.492 5.07-6.534 7.753a18252.16 18252.16 0 0 0-9.588-30.308 6.447 6.447 0 0 0-2.331-3.243 6.495 6.495 0 0 0-3.802-1.256c-7.126-.047-19.201-.094-32.648-.154-1.998-2.492-1.797-5.936-1.605-11.085a275.723 275.723 0 0 1 4.632-33.129 35.6 35.6 0 0 1 3.07-8.185 17.532 17.532 0 0 1 5.317-5.085 43.355 43.355 0 0 1 5.832-2.99l17.821 12.911Z"/><path fill="#211715" d="M152.067 81.519a41.115 41.115 0 0 0 9.474-13.703 1.763 1.763 0 0 0-.171-1.33 1.776 1.776 0 0 0-1.06-.83 1.819 1.819 0 0 0-1.334.181 1.802 1.802 0 0 0-.84 1.047c-.169.414.097-.212-.022.049l-.167.366c-.121.255-.245.508-.373.76-.239.475-.486.945-.736 1.413a39.911 39.911 0 0 1-1.527 2.558 38.913 38.913 0 0 1-5.738 7.008c-1.632 1.582.868 4.067 2.499 2.487l-.005-.006ZM101.855 17.055c-3.664 5.141-5.205 11.452-5.545 17.676a56.416 56.416 0 0 0 2.164 18.513c.628 2.17 4.04 1.245 3.408-.935a53.594 53.594 0 0 1-2.051-17.322c.275-5.723 1.713-11.439 5.076-16.157a1.771 1.771 0 0 0-.634-2.406 1.813 1.813 0 0 0-2.418.631ZM171.492 51.887c1.279-3.151 1.533-6.742 1.671-10.103.17-3.035.026-6.08-.428-9.087-1.111-6.723-3.401-13.31-7.897-18.546A41.234 41.234 0 0 0 145.25 1.335C139.216-.39 133.101-.293 126.971.777c-7.7 1.348-14.861 4.397-20.225 10.2-1.537 1.664.958 4.157 2.5 2.487 4.317-4.67 9.834-7.378 16.005-8.766 5.529-1.246 11.221-1.733 16.803-.532a37.075 37.075 0 0 1 18.608 10.65 27.85 27.85 0 0 1 5.28 7.368 41.617 41.617 0 0 1 3.72 18.589c-.09 3.4-.284 6.988-1.578 10.178a1.765 1.765 0 0 0 1.235 2.164c.451.112.929.048 1.334-.181a1.8 1.8 0 0 0 .839-1.047Z"/><path fill="#211715" d="M143.696 82.647c-7.64 4.14-16.711 6.436-25.063 2.946a22.003 22.003 0 0 1-9.45-7.122 30.477 30.477 0 0 1-4.663-11.018c-1.283-5.518-1.965-11.178-3.088-16.73a1.757 1.757 0 0 0-.831-1.063 1.775 1.775 0 0 0-2.41.661 1.751 1.751 0 0 0-.167 1.336c1.076 5.32 1.777 10.72 2.928 16.023a34.144 34.144 0 0 0 4.951 12.245c5.244 7.557 14.82 11.6 23.925 10.81a40.108 40.108 0 0 0 15.652-5.05c1.998-1.083.216-4.121-1.784-3.038ZM162.763 50.463a3.66 3.66 0 0 1 3.3-.667c.233.059.458.143.672.25-.014-.007.471.294.301.165.178.142.343.3.492.474.199.22-.061-.175.143.22.997 1.91.868 4.362.337 6.41a12.011 12.011 0 0 1-3.314 5.724c-1.599 1.486-4.151 2.366-6.289 1.563a1.788 1.788 0 0 0-1.339.172 1.77 1.77 0 0 0-.834 1.057c-.115.45-.05.925.18 1.328.23.404.608.703 1.054.835 2.461.924 5.523.28 7.761-.971a12.916 12.916 0 0 0 5.016-5.74 15.924 15.924 0 0 0 1.669-7.351c-.056-2.154-.554-4.587-2.239-6.092a7.098 7.098 0 0 0-8.694-.414 1.814 1.814 0 0 0-.634 2.406 1.786 1.786 0 0 0 2.418.63ZM139.351 53.126c.589 1.544.507 5.19-2.473 5.69-3.967.23-4.462-4.138-3.26-6.285.983-1.755 4.151-2.663 5.733.595Z"/><path fill="#211715" d="M115.452 53.973c.548 1.5.489 5.035-2.243 5.507-3.639.204-4.114-4.036-3.019-6.111.891-1.7 3.793-2.565 5.262.604ZM121.747 60.82a33.763 33.763 0 0 0-1.438 3.15l.178-.42a3.828 3.828 0 0 0-.428 1.601c.001.405.105.803.304 1.157a3.287 3.287 0 0 0 2.001 1.364c.351.06.686.067 1.036.094.468 0 .918-.185 1.251-.513a1.752 1.752 0 0 0 0-2.487 1.973 1.973 0 0 0-1.251-.513c-.173-.013-.346-.006-.516-.024l.47.062a1.61 1.61 0 0 1-.413-.111l.422.177a2.123 2.123 0 0 1-.351-.213l.357.275a1.216 1.216 0 0 1-.201-.19l.276.356a.498.498 0 0 1-.05-.097l.177.42a.557.557 0 0 1-.029-.106l.064.467a1.054 1.054 0 0 1-.005-.231l-.063.467c.03-.186.083-.367.158-.54l-.179.42c.119-.279.232-.56.349-.838l-.178.42c.34-.802.717-1.591 1.113-2.369.229-.413.292-.897.178-1.355a1.8 1.8 0 0 0-.81-1.051 1.79 1.79 0 0 0-1.362-.178c-.444.122-.823.411-1.056.806h-.004ZM123.469 76.308c.128-.076.263-.143.402-.2 0 0-.368.142-.096.043.074-.027.147-.057.228-.083a8.79 8.79 0 0 1 1.044-.286c.174-.036.349-.069.524-.097.049-.008.348-.038.099-.016-.248.022.055 0 .103-.007a10.724 10.724 0 0 1 2.218.007c.26.025-.018.035-.086-.013.08.026.164.041.248.043a6.442 6.442 0 0 1 .928.243c.112.038.221.08.334.122.033.013.326.125.135.05-.192-.076.109.048.142.062a13.188 13.188 0 0 1 .935.47 1.771 1.771 0 0 0 2.643-1.278 1.739 1.739 0 0 0-.343-1.302 1.754 1.754 0 0 0-.516-.456 11.302 11.302 0 0 0-5.483-1.519 11.045 11.045 0 0 0-5.244 1.18 1.775 1.775 0 0 0-.634 2.406 1.814 1.814 0 0 0 2.419.63ZM143.624 46.216a4.685 4.685 0 0 1-.526-.04l.47.062a4.724 4.724 0 0 1-1.116-.304l.423.178a4.745 4.745 0 0 1-1.045-.607l.358.276a4.59 4.59 0 0 1-.68-.656 1.78 1.78 0 0 0-2.501.002c-.332.33-.518.777-.518 1.243l.064.468c.081.293.238.56.454.776.31.348.658.66 1.038.93.265.204.55.378.851.522.85.415 1.779.643 2.725.67a1.82 1.82 0 0 0 1.252-.514c.331-.33.518-.777.518-1.243 0-.467-.187-.914-.518-1.244a1.872 1.872 0 0 0-1.252-.513l.003-.006ZM109.352 28.45a18.33 18.33 0 0 0-8.676 8.178c-2.13 4.259-2.47 9.105-1.951 13.772.013.462.204.902.532 1.229.329.327.771.516 1.235.53.468-.004.916-.19 1.246-.519.331-.33.518-.775.521-1.24-.446-4.01-.348-8.364 1.468-11.997a15.155 15.155 0 0 1 7.41-6.916 1.771 1.771 0 0 0 .634-2.406 1.809 1.809 0 0 0-2.419-.631Z"/><path fill="#FDE9D7" d="M128.615 105.495a4.886 4.886 0 0 0-1.24-.763l.718-1.805a3.707 3.707 0 0 0-.805-3.462 3.875 3.875 0 0 0-2.686-1.084l.777-1.617a4.226 4.226 0 0 0 0-2.912 3.763 3.763 0 0 0-.931-1.284 4.673 4.673 0 0 0-2.424-.309 40.52 40.52 0 0 0-9.953 2.114c.345-.837.74-1.653 1.183-2.442.612-1.038 1.725-1.599 2.752-2.168 1.952-1.085 3.951-2.262 5.818-3.487a2.429 2.429 0 0 0 1.144-1.56 2.405 2.405 0 0 0-.368-1.896 2.6 2.6 0 0 0-1.834-1.336c-1.721-.415-3.923.257-5.891 1.038-1.944.771-4.825 1.817-6.392 3.275-1.874 1.74-2.611 4.072-3.473 6.35-.478 1.255-1.489 4.82-1.904 6.107l-.51 2.998a6.098 6.098 0 0 0 .11 2.551c1.256 4.824 2.505 9.651 3.749 14.481a51.394 51.394 0 0 1 1.293 6.038l.037 2.021c4.424.449 10.41 1.093 15.039 1.705.13-.713.229-1.265.241-1.379.133-1.083.251-2.901.295-3.985.056-1.402.051-3.644.039-5.816l.281.331a2.749 2.749 0 0 0 1.469 1.716 2.764 2.764 0 0 0 2.264.047 3.854 3.854 0 0 0 1.841-2.439c.269-1.068.418-2.162.442-3.262.079-1.866.068-3.174.074-5.163a3.359 3.359 0 0 0-1.155-2.603Z"/><path fill="#211715" d="M132.729 25.06a14.117 14.117 0 0 0-2.551-3.264 14.459 14.459 0 0 0-3.707-2.458 1.913 1.913 0 0 0-1.362-.177 1.764 1.764 0 0 0-1.283 1.468 1.752 1.752 0 0 0 .861 1.746c.919.421 1.791.94 2.598 1.548l-.358-.275a11.302 11.302 0 0 1 1.972 1.967l-.276-.356c.385.502.737 1.029 1.053 1.576a1.774 1.774 0 0 0 2.418.631 1.759 1.759 0 0 0 .635-2.405ZM124.491 25.72c-3.594-2.54-8.17-3.132-12.473-3.025-.469 0-.918.186-1.25.515a1.756 1.756 0 0 0 1.25 3.002c3.881-.096 7.528.311 10.689 2.545a1.79 1.79 0 0 0 2.418-.631 1.788 1.788 0 0 0-.634-2.406ZM156.724 48.835a62.401 62.401 0 0 0-1.05-5.208 16.233 16.233 0 0 0-1.453-4.192 9.998 9.998 0 0 0-2.972-3.362 10.059 10.059 0 0 0-4.15-1.733 1.83 1.83 0 0 0-1.332.185 1.814 1.814 0 0 0-.842 1.044c-.121.45-.06.93.171 1.334.231.405.613.703 1.064.83a7.011 7.011 0 0 1 3.352 1.403l.148.108c-.086-.068-.089-.073-.009-.005.101.085.198.172.294.265.097.093.199.21.295.318.024.028.255.315.126.147.365.483.689.995.968 1.532.048.09.089.183.138.27.211.376-.073-.3.02.033.087.317.199.63.295.945.208.716.398 1.438.573 2.162.387 1.606.703 3.225.963 4.858.127.448.427.828.834 1.058.406.23.888.291 1.34.17a1.81 1.81 0 0 0 1.053-.835c.23-.403.295-.879.182-1.328l-.008.001Z"/><path fill="#211715" d="M147.857 35.123c-2.008-4.038-5.542-8.01-10.03-9.269a1.774 1.774 0 0 0-2.174 1.229 1.756 1.756 0 0 0 1.235 2.163c.251.074.5.147.744.24.05.018.402.157.156.056-.245-.1.104.05.153.074.448.21.881.45 1.298.716.232.147.459.304.681.466.039.029.346.27.155.115-.192-.155.112.093.147.123.419.345.819.711 1.201 1.095.368.371.72.757 1.057 1.158.073.09.151.182.227.274.034.043.322.425.073.09.155.208.31.415.46.627.587.833 1.109 1.709 1.563 2.62.238.401.626.693 1.078.81.453.119.934.054 1.34-.178a1.796 1.796 0 0 0 .634-2.406l.002-.003ZM137.158 73.886c.089.08.171.169.244.264l-.276-.356c.237.316.434.66.584 1.026l-.179-.42c.126.29.215.593.265.904a1.696 1.696 0 0 0 1.473 1.26c.234.052.477.041.705-.031a1.79 1.79 0 0 0 1.057-.806l.178-.421a1.766 1.766 0 0 0 0-.935 3.394 3.394 0 0 0-.167-.65 8.688 8.688 0 0 0-.442-1.026 4.633 4.633 0 0 0-.334-.556 4.152 4.152 0 0 0-.605-.733 1.824 1.824 0 0 0-2.499 0 1.77 1.77 0 0 0-.383 1.92c.088.214.218.408.383.572l-.004-.011Z"/><path fill="#fff" d="M143.27 221.927a4.144 4.144 0 0 0 2.163-2.068 4.114 4.114 0 0 0 .198-2.979c-2.195-6.984-5.552-17.64-8.949-28.402l46.244 7.706 4.005 6.637c-5.463 2.498-34.273 15.235-43.171 18.93"/><path fill="#FDE9D7" d="M138.66 184.048c-.805 1.046-1.584 2.114-2.377 3.158 2.673 8.469 5.349 16.958 7.482 23.733 1.75-1.764 3.501-3.527 5.254-5.288l2.034-2.047c1.997-2.008 3.314-3.49 4.998-5.258-1.383 2.837-2.146 4.062-4.008 8.111-.341.744-.205 2.565.737 3.292 1.438 1.099 3.302-.135 3.755-.606 3.187-3.305 5.506-6.645 8.593-9.097a34.057 34.057 0 0 0 12.376-3.767c.491-.266 1.977-1.576 2.438-1.89a16.44 16.44 0 0 1 2.146-1.246c-2.074-6.713-5.83-13.906-9.969-17.55-3.197 2.689-7.669 1.946-11.662 1.312a119.41 119.41 0 0 0-6.613-.86 18.67 18.67 0 0 0-3.497-.118 13.528 13.528 0 0 0-7.537 3.527 31.73 31.73 0 0 0-4.15 4.594Z"/><path fill="#211715" d="M212.174 181.664c4.853 0 9.706-.006 14.559-.018l22.845-.029c1.905 0 3.81-.002 5.715-.006 2.274 0 2.278-3.517 0-3.517-4.978 0-9.956.006-14.934.018l-22.741.028c-1.816 0-3.631.002-5.444.006-2.274 0-2.278 3.518 0 3.518ZM1.707 181.669c8.112 0 16.223-.034 24.334-.051 1.307 0 2.613-.002 3.92-.007 2.274 0 2.278-3.517 0-3.517-8.211 0-16.421.033-24.634.051-1.207 0-2.414.002-3.62.007-2.274 0-2.278 3.517 0 3.517ZM174.499 170.229c3.627-1.532 7.114-3.315 10.658-5.023a1.764 1.764 0 0 0 .634-2.407 1.823 1.823 0 0 0-2.419-.631c-3.543 1.708-7.029 3.493-10.657 5.023a1.756 1.756 0 0 0-.634 2.407c.246.391.634.675 1.083.792.45.117.927.059 1.335-.161ZM170.551 174.582c-2.511 1.595-5.627 1.239-8.434.813-3.472-.528-7.022-1.217-10.543-1.267-7.178-.098-11.89 5.597-15.792 10.821a1.77 1.77 0 0 0 .634 2.407 1.814 1.814 0 0 0 2.419-.631c1.841-2.467 3.752-5.079 6.298-6.879a12.228 12.228 0 0 1 3.911-1.91 12.934 12.934 0 0 1 4.629-.147c3.279.324 6.512.937 9.783 1.311 3.04.348 6.228.207 8.879-1.477 1.914-1.215.14-4.26-1.784-3.037v-.004ZM143.262 187.387l-5.405 5.331a1.754 1.754 0 0 0-.003 2.488 1.773 1.773 0 0 0 2.5.004l5.405-5.332a1.755 1.755 0 0 0-.01-2.477 1.773 1.773 0 0 0-2.489-.01l.002-.004ZM143.762 202.689c2.724-3.169 5.711-6.117 8.689-9.048a1.745 1.745 0 0 0 .518-1.243 1.764 1.764 0 0 0-.517-1.244 1.772 1.772 0 0 0-1.25-.515 1.77 1.77 0 0 0-1.25.515c-2.981 2.931-5.965 5.879-8.689 9.048a1.753 1.753 0 0 0 .01 2.477 1.77 1.77 0 0 0 2.489.01ZM147.71 209.466c2.008-2.02 4.04-4.018 6.01-6.074 1.74-1.815 3.427-3.681 5.199-5.467a1.752 1.752 0 0 0-.01-2.477 1.775 1.775 0 0 0-2.489-.01c-1.773 1.786-3.461 3.652-5.199 5.467-1.97 2.056-4.003 4.054-6.01 6.073a1.755 1.755 0 0 0 .01 2.477 1.776 1.776 0 0 0 2.489.011ZM165.321 201.785a38.772 38.772 0 0 0 10.49-2.74 16.286 16.286 0 0 0 3.933-2.252c.243-.195.483-.393.723-.59.119-.097.237-.193.357-.288.227-.181-.198.139-.029.023.704-.477 1.44-.906 2.202-1.284a1.755 1.755 0 0 0-.448-3.211 1.771 1.771 0 0 0-1.336.175 18.307 18.307 0 0 0-3.401 2.226c-.336.294-.687.57-1.052.827-.691.414-1.412.777-2.157 1.085a32.82 32.82 0 0 1-9.282 2.511 1.817 1.817 0 0 0-1.768 1.759c.003.466.19.911.521 1.24.331.33.779.516 1.247.519Z"/><path fill="#211715" d="M170.229 176.304c2.847 2.114 4.92 5.503 6.57 8.622a50.02 50.02 0 0 1 4.418 11.724c.527 2.198 3.936 1.269 3.408-.935a53.697 53.697 0 0 0-4.914-12.823c-1.945-3.622-4.362-7.146-7.7-9.625a1.78 1.78 0 0 0-1.339-.178 1.777 1.777 0 0 0-1.08.809 1.795 1.795 0 0 0 .634 2.406h.003ZM153.993 198.528c-.722 1.436-1.473 2.858-2.18 4.299a29.72 29.72 0 0 0-1.496 3.212 5.071 5.071 0 0 0-.024 2.858c.141.566.404 1.095.772 1.55a4.035 4.035 0 0 0 3.044 1.498 4.068 4.068 0 0 0 1.707-.331c2.123-.84 3.523-2.879 4.968-4.55a44.965 44.965 0 0 1 5.542-5.727 1.768 1.768 0 0 0 0-2.487 1.815 1.815 0 0 0-2.499 0c-3.257 2.638-5.633 6.123-8.565 9.079-.046.046-.295.239-.1.096.212-.153-.23.135-.279.163-.084.046-.421.197-.162.097-.104.04-.525.16-.43.143a.432.432 0 0 1-.448-.08c.171.1-.099-.167.059.073a2.511 2.511 0 0 1-.155-.272c.083.162.033.113 0-.028-.037-.159-.085-.313-.113-.475.058.334.012-.125.006-.237 0-.074.015-.147.008-.22.004.039-.087.293-.019.13.024-.055.023-.125.042-.181.089-.258-.08.156.055-.13.392-.828.777-1.659 1.179-2.482.693-1.415 1.43-2.809 2.14-4.217a1.797 1.797 0 0 0-.634-2.407 1.797 1.797 0 0 0-2.419.631l.001-.005ZM144.227 223.447c5.766-2.396 11.482-4.91 17.201-7.416 6.603-2.89 13.197-5.8 19.783-8.729 2.209-.981 4.413-1.959 6.608-2.962a1.765 1.765 0 0 0 .634-2.407 1.817 1.817 0 0 0-2.417-.631c-11.524 5.266-23.157 10.313-34.784 15.348-1.557.674-3.116 1.346-4.676 2.014-.652.279-1.305.557-1.958.833-.147.062-1.001.421-.56.237l-.77.321a1.828 1.828 0 0 0-1.048.839 1.812 1.812 0 0 0-.187 1.325c.127.448.427.828.834 1.058.407.23.888.291 1.34.17Z"/><path fill="#B3B3B3" d="M27.652 151.785c22.671.375 74.427.492 92.907.615 1.369.008 2.7.448 3.802 1.256a6.447 6.447 0 0 1 2.331 3.243 26994.443 26994.443 0 0 1 18.939 59.981 4.11 4.11 0 0 1-.621 3.685 4.155 4.155 0 0 1-3.356 1.677c-20.026-.073-73.979-.264-94.722-.681a4.158 4.158 0 0 1-2.41-.828 4.124 4.124 0 0 1-1.466-2.076c-4.09-13.164-14.594-46.335-19.434-61.488a4.115 4.115 0 0 1 .627-3.721 4.165 4.165 0 0 1 3.403-1.663Z"/><path fill="#211715" d="M27.652 153.544c10.589.174 21.18.241 31.77.31 12.37.079 24.742.141 37.113.188a27071.29 27071.29 0 0 1 21.708.105c2.259.014 4.581-.123 6.075 1.921a10.934 10.934 0 0 1 1.291 3.255l1.041 3.282 2.481 7.835a37332.39 37332.39 0 0 1 11.412 36.157c.795 2.523 1.59 5.046 2.383 7.568.571 1.818 2.248 4.972-.239 6.103-.838.381-1.914.215-2.819.212l-2.927-.011-6.754-.024c-5.381-.021-10.763-.044-16.146-.069-12.243-.055-24.487-.129-36.73-.219-9.935-.077-19.87-.151-29.804-.344-1.104-.021-2.155-.284-2.662-1.385a23.314 23.314 0 0 1-.884-2.8 8207.565 8207.565 0 0 0-7.5-23.835c-3.522-11.147-7.057-22.29-10.604-33.429-.31-.972-.883-2.095-.57-3.107a2.41 2.41 0 0 1 .895-1.251c.426-.308.943-.47 1.47-.46 2.273-.029 2.28-3.546 0-3.517a6.017 6.017 0 0 0-4.617 2.185 5.952 5.952 0 0 0-1.24 4.936 34.3 34.3 0 0 0 1.048 3.385L24 164.167a13348.623 13348.623 0 0 1 16.376 51.822c.81 2.599 1.361 5.47 4.095 6.751 2.067.968 4.817.628 7.063.659 5.04.079 10.081.14 15.123.183 12.454.12 24.907.206 37.361.26 11.029.057 22.059.104 33.089.142l2.984.01a9.766 9.766 0 0 0 3.741-.411 5.988 5.988 0 0 0 3.519-3.81c.48-1.574.085-3.044-.389-4.552a31552.19 31552.19 0 0 0-16.656-52.775c-.747-2.356-1.312-4.925-2.368-7.164-1.496-3.172-4.673-4.626-8.049-4.648-4.402-.028-8.805-.051-13.208-.068-12.224-.054-24.447-.111-36.671-.17-11.923-.065-23.847-.135-35.77-.28-2.197-.027-4.394-.058-6.591-.093-2.273-.034-2.273 3.483.003 3.521ZM208.281 69.393c2.329.678 4.962 1.31 7.342.48a6.283 6.283 0 0 0 2.611-1.657 6.245 6.245 0 0 0 1.497-2.698c1.068-4.944-5.358-7.367-9.184-7.95-1.056-.16-2.24-.372-3.24.13a2.622 2.622 0 0 0-1.259 1.281 2.598 2.598 0 0 0-.136 1.787c.635 2.28 3.435 3.164 5.422 3.846 3.756 1.292 8.374 2.058 12.069.156a5.977 5.977 0 0 0 3.183-4.018 7.096 7.096 0 0 0-2.304-6.415c-1.625-1.539-3.703-2.52-5.694-3.496a33.617 33.617 0 0 0-5.808-2.336 21.68 21.68 0 0 0-5.846-.748c-2.113.011-5.425.051-5.523 2.905-.082 2.32 2.185 3.634 3.956 4.586a47.536 47.536 0 0 0 5.67 2.6 44.786 44.786 0 0 0 12.019 2.5 10.661 10.661 0 0 0 6.121-.986 6.384 6.384 0 0 0 2.366-2.122 6.343 6.343 0 0 0 1.045-2.996c.247-4.228-4.224-7.4-7.443-9.26a55.104 55.104 0 0 0-12.204-5.175c-3.146-.899-7.55-1.979-10.571-.137-1.212.737-2.241 2.163-1.841 3.626a4.652 4.652 0 0 0 1.948 2.393c2.082 1.506 4.717 2.353 7.143 3.13a95.723 95.723 0 0 0 10.208 2.59c3.497.73 7.03 1.274 10.585 1.63 3.427.318 7.982-1.703 8.571-5.428.294-1.89-.745-3.57-1.896-4.983a18.538 18.538 0 0 0-4.162-3.682 43.854 43.854 0 0 0-6.154-3.151 51.292 51.292 0 0 0-6.701-2.532 35.359 35.359 0 0 0-6.559-1.24c-.468.004-.916.19-1.246.52a1.77 1.77 0 0 0-.522 1.24c.01.462.199.904.529 1.232.329.328.773.516 1.239.526a35.63 35.63 0 0 1 10.393 2.817c3.093 1.305 6.468 2.725 8.984 4.993a9.272 9.272 0 0 1 2.529 3.126c.026.162.066.321.12.476-.057-.163 0-.02-.04.146-.147.481-.439.905-.837 1.214-1.966 1.676-4.492 1.229-6.835.914a102.025 102.025 0 0 1-16.948-3.693 27.11 27.11 0 0 1-5.723-2.3c-.18-.103-.358-.211-.531-.325-.053-.034-.494-.35-.279-.186.214.165-.185-.16-.246-.22-.061-.059-.368-.429-.182-.175.191.265-.048-.096-.081-.173 0-.007.167.453.1.212-.044-.158.035-.168.026.261.004-.22-.028-.311-.119.46.039-.095.092-.185.156-.266-.171.12.147-.107.147-.11.322-.2.684-.326 1.06-.37a9.25 9.25 0 0 1 1.678-.074c1.491.085 2.968.334 4.403.744a52.643 52.643 0 0 1 9.831 3.812c2.627 1.298 5.559 2.83 7.216 5.328.796 1.198 1.052 2.471-.089 3.57a5.086 5.086 0 0 1-3.451 1.206 35.702 35.702 0 0 1-9.734-1.465 40.018 40.018 0 0 1-8.874-3.786 5.274 5.274 0 0 1-.775-.48c-.02-.016-.465-.497-.466-.498v.03a.964.964 0 0 1-.34.66c.027.02.108-.025.131-.012.239.142 1.308-.085 1.599-.094 1.511-.062 3.024.061 4.505.367 3.142.8 6.146 2.064 8.913 3.747 1.384.785 2.81 1.774 3.301 3.363a2.276 2.276 0 0 1-.868 2.638c-2.295 1.633-5.783.983-8.304.31-.866-.23-1.718-.51-2.551-.837a14.16 14.16 0 0 1-1.119-.49c-.051-.024-.957-.63-.939-.633-.079.019-.112.822-.205.94-.378.475-.564.124-.173.21.327.073.692.057 1.026.11.942.153 1.867.395 2.764.723 1.112.401 3.203 1.155 3.579 2.428.325 1.103-.907 2.096-1.83 2.4-1.67.552-3.605-.091-5.213-.56-2.188-.635-3.122 2.758-.94 3.393v.001Z"/><path fill="#fff" d="M154.855 86.869c.035-.019.039-.02 0 0Z"/><path fill="#211715" d="M130.882 100.484c4.551.78 9.206.723 13.736-.168a1.763 1.763 0 0 0 1.285-1.479 1.757 1.757 0 0 0-.882-1.746 1.772 1.772 0 0 0-1.342-.166 31.64 31.64 0 0 1-6.103.576 34.97 34.97 0 0 1-5.754-.409 1.827 1.827 0 0 0-1.333.184 1.81 1.81 0 0 0-.842 1.045c-.12.45-.058.928.173 1.333.231.404.612.702 1.062.83ZM162.926 83.811c5.337 1.222 10.678 2.508 15.906 4.143 5.263 1.648 10.448 3.918 14.606 7.605 4.093 3.629 6.713 8.516 8.809 13.494 2.525 5.998 4.112 12.368 5.818 18.63 2.076 7.614 3.838 15.271 5.238 23.034.412 2.279.769 4.568 1.072 6.867a41.39 41.39 0 0 1 .53 6.198 31.332 31.332 0 0 1-2.583 12.478c-2.371 5.082-7.051 8.087-11.844 10.677a107.677 107.677 0 0 1-14.775 6.477c-.996.357-1.995.702-2.999 1.034-2.148.71-1.228 4.108.939 3.392a125.858 125.858 0 0 0 14.875-5.965c5.283-2.531 10.999-5.514 14.64-10.221 3.108-4.018 4.36-8.94 4.945-13.884.28-1.993.366-4.008.257-6.017-.195-2.574-.56-5.14-.945-7.694a224.68 224.68 0 0 0-4.954-23.625c-1.606-6.109-3.158-12.307-5.254-18.269-2.012-5.722-4.581-11.54-8.483-16.256-7.579-9.16-20.225-11.998-31.26-14.648-1.199-.288-2.399-.57-3.601-.844-2.214-.507-3.159 2.883-.94 3.391l.003.003Z"/><path fill="#211715" d="m177.099 137.054 5.388 19.628c.599 2.181 4.01 1.255 3.409-.935l-5.389-19.628c-.599-2.181-4.009-1.255-3.408.935ZM161.378 81.664a27.701 27.701 0 0 1-2.578 3.728c-1.363 1.84-2.628 3.796-4.113 5.537-2.457 2.882-4.76 6.114-7.669 8.574l2.142-.276c-4.045-2.469-7.967-5.231-11.744-8.087a1.804 1.804 0 0 0-2.142.276 183.635 183.635 0 0 0-7.726 6.332c-1.716 1.493.793 3.972 2.503 2.487a183.94 183.94 0 0 1 7.726-6.332l-2.141.275c3.776 2.857 7.699 5.618 11.743 8.086a1.82 1.82 0 0 0 2.142-.274c2.977-2.514 5.323-5.83 7.843-8.775 1.562-1.824 2.886-3.878 4.317-5.809a29.413 29.413 0 0 0 2.755-3.964c1.026-2.014-2.023-3.797-3.053-1.775l-.005-.003ZM89.01 150.759a8.94 8.94 0 0 1-1.038-4.397 61.085 61.085 0 0 1 .243-6.992c.413-5.002.978-9.988 1.693-14.96a287.188 287.188 0 0 1 2.25-13.423 34.992 34.992 0 0 1 3.013-9.599c2.136-4.118 6.831-6.318 10.882-8.097a1.767 1.767 0 0 0 .634-2.406 1.82 1.82 0 0 0-2.419-.63c-4.32 1.896-8.551 4.188-11.364 8.088a20.708 20.708 0 0 0-2.364 4.982 32.844 32.844 0 0 0-1.466 5.057 280.93 280.93 0 0 0-4.271 29.562 69.976 69.976 0 0 0-.364 8.416 12.45 12.45 0 0 0 1.52 6.173c1.178 1.934 4.234.169 3.052-1.775l-.001.001ZM102.258 127.59c2.92.269 5.839.568 8.756.879 3.91.413 8.214.887 11.871 1.379 1.665.22 3.336.453 4.984.787l-1.298-1.696c-.209 3.07-.379 6.142-.686 9.205-.43 4.281-1.111 8.528-1.915 12.754-.112.45-.047.925.183 1.327.23.403.606.702 1.051.836.452.12.933.058 1.34-.171.407-.23.706-.609.835-1.057.851-4.458 1.561-8.945 2.021-13.461.32-3.138.495-6.286.709-9.433a1.768 1.768 0 0 0-1.297-1.695c-3.446-.699-6.974-1.066-10.463-1.478a689.484 689.484 0 0 0-11.993-1.294 798.36 798.36 0 0 0-4.094-.397c-.468.004-.916.19-1.246.519a1.77 1.77 0 0 0-.522 1.24c.01.463.199.905.529 1.233.329.327.773.516 1.239.526l-.004-.003Z"/><path fill="#211715" d="M156.747 75.387a56.564 56.564 0 0 0 5.038 8.488 1.817 1.817 0 0 0 2.417.63 1.77 1.77 0 0 0 .634-2.406 56.66 56.66 0 0 1-5.038-8.487 1.784 1.784 0 0 0-2.417-.63 1.792 1.792 0 0 0-.634 2.406ZM104.807 98.751c.648-2.03 1.169-4.103 1.905-6.107a21.858 21.858 0 0 1 1.803-4.099 7.284 7.284 0 0 1 2.901-2.591 34.415 34.415 0 0 1 3.706-1.62 12.87 12.87 0 0 1 4.414-1.186c.783-.009 1.841.286 1.71 1.186-.038.255-.404.508-.737.725a77.03 77.03 0 0 1-2.307 1.433c-1.552.93-3.265 1.703-4.728 2.767-1.505 1.095-2.19 2.605-2.927 4.25a1.803 1.803 0 0 0-.163 1.329c.118.447.403.833.797 1.078a1.786 1.786 0 0 0 2.417-.631c.326-.733.635-1.466 1.027-2.165a3.715 3.715 0 0 1 1.557-1.416c1.758-1.015 3.535-1.987 5.256-3.066 1.62-1.017 3.256-2.096 3.337-4.198a4.695 4.695 0 0 0-.592-2.386c-.406-.73-1-1.338-1.719-1.765-3.254-1.857-7.585.313-10.654 1.612a16.41 16.41 0 0 0-4.397 2.523 11.828 11.828 0 0 0-2.988 4.415c-1.252 2.92-2.062 5.96-3.024 8.978-.691 2.162 2.721 3.087 3.409.935h-.003ZM112.317 102.824a43.32 43.32 0 0 1 9.867-2.491c1.057-.173 2.391-.39 3.334.027a1.799 1.799 0 0 1 .872 2.125c-.731 2.148 2.682 3.071 3.408.935a5.372 5.372 0 0 0-1.259-5.174c-1.332-1.372-3.32-1.722-5.16-1.583a47.239 47.239 0 0 0-5.925.96 32.669 32.669 0 0 0-6.076 1.808 1.813 1.813 0 0 0-1.234 2.163c.127.449.426.829.833 1.059.407.23.889.291 1.341.17l-.001.001Z"/><path fill="#211715" d="M114.744 108.121c2.669-.576 5.342-1.132 8.033-1.6a10.418 10.418 0 0 1 3.211-.359c.418.037.816.191 1.148.445.333.255.585.598.727.99.2 1.153.244 2.327.129 3.491a31.855 31.855 0 0 1-.174 3.719c-.107.811-.295 1.905-.913 2.436a.963.963 0 0 1-.892.17.954.954 0 0 1-.628-.652 1.827 1.827 0 0 0-2.175-1.228 1.78 1.78 0 0 0-1.063.83 1.764 1.764 0 0 0-.171 1.333 4.71 4.71 0 0 0 1.036 1.795 4.746 4.746 0 0 0 1.708 1.181 4.409 4.409 0 0 0 4.146-.527c2.327-1.717 2.533-4.79 2.624-7.44.047-1.362.078-2.732.05-4.094a6.452 6.452 0 0 0-.987-3.533 5.98 5.98 0 0 0-3.397-2.257 10.092 10.092 0 0 0-4.22.122c-3.06.508-6.099 1.132-9.131 1.787a1.776 1.776 0 0 0-1.067.827 1.74 1.74 0 0 0-.167 1.336 1.762 1.762 0 0 0 1.486 1.278c.23.029.463.012.687-.05Z"/><path fill="#211715" d="M124.586 128.228c.472-2.7.669-5.44.589-8.179.01-2.616-.042-5.234-.013-7.85.024-2.264-3.511-2.265-3.535 0-.028 2.545.021 5.091.014 7.637a36.875 36.875 0 0 1-.461 7.457 1.795 1.795 0 0 0 1.235 2.163 1.783 1.783 0 0 0 2.174-1.228h-.003ZM104.753 95.923a8.252 8.252 0 0 0-2.452 2.184 8.193 8.193 0 0 0-1.4 2.964c-.478 2.619.67 5.417 1.318 7.924l2.077 8.038a68.872 68.872 0 0 1 1.743 7.786c.127.448.426.829.833 1.059.407.23.889.29 1.34.169a1.811 1.811 0 0 0 1.051-.836c.23-.403.296-.878.184-1.327-.655-4.756-2.172-9.436-3.372-14.077l-.902-3.493a27.317 27.317 0 0 1-.83-3.371 4.124 4.124 0 0 1 .497-2.318 4.151 4.151 0 0 1 1.693-1.667c1.915-1.207.148-4.25-1.783-3.036l.003.001Z"/><path fill="#211715" d="M106.537 98.959a35.888 35.888 0 0 1 10.868-4.224 24.942 24.942 0 0 1 5.408-.717c.282.058.567.098.854.12-.221.037-.221-.275-.214-.067 0 .083.271.403.294.462a2.43 2.43 0 0 1-.074 1.79 1.766 1.766 0 0 0 1.235 2.164 1.82 1.82 0 0 0 1.334-.182c.405-.228.706-.603.84-1.047.828-2.003.159-4.983-1.744-6.18-1.862-1.17-4.787-.423-6.781-.112a39.341 39.341 0 0 0-13.806 4.956c-1.961 1.144-.184 4.184 1.785 3.037h.001Z"/></g><defs><clipPath id="a"><path fill="#fff" d="M0 0h257v224H0z"/></clipPath></defs></svg>