<svg xmlns="http://www.w3.org/2000/svg" width="1512" height="158" fill="none"><path fill="#FFFAEC" d="M0 0h1512v158H0z"/><path fill="#201E1C" d="M433.029 12.032c-.043.341-.107.875-.192 1.6a294.25 294.25 0 0 0-.256 2.112c-.043.683-.085 1.301-.128 1.856a350.812 350.812 0 0 0-.256 4.096c-.043 1.45-.085 2.965-.128 4.544l-.128 4.672v4.608c0 1.75.021 3.69.064 5.824l.128 6.272c.085 2.048.128 3.925.128 5.632.043 1.707.064 3.03.064 3.968 0 2.645-.299 4.693-.896 6.144-.555 1.45-1.365 2.453-2.432 3.008-1.067.597-2.304.896-3.712.896-1.536 0-3.179-.32-4.928-.96a18.707 18.707 0 0 1-4.928-2.56c-1.493-1.11-2.731-2.39-3.712-3.84-.939-1.493-1.408-3.093-1.408-4.8 0-2.048.768-4.075 2.304-6.08 1.579-2.048 3.648-3.925 6.208-5.632a37.261 37.261 0 0 1 8.384-4.096 44.838 44.838 0 0 1 8.832-2.304c3.029-.512 5.76-.768 8.192-.768 3.285 0 6.251.555 8.896 1.664 2.645 1.067 4.757 2.645 6.336 4.736 1.579 2.09 2.368 4.608 2.368 7.552 0 2.475-.469 4.757-1.408 6.848-.939 2.09-2.453 3.904-4.544 5.44-2.048 1.493-4.779 2.667-8.192 3.52a38.222 38.222 0 0 1-4.352.64c-1.408.17-2.752.299-4.032.384l-2.944-8.256c1.451 0 2.837-.021 4.16-.064a41.632 41.632 0 0 0 3.712-.384c1.749-.341 3.328-.853 4.736-1.536s2.517-1.579 3.328-2.688c.811-1.11 1.216-2.432 1.216-3.968 0-1.45-.405-2.688-1.216-3.712-.768-1.024-1.856-1.813-3.264-2.368-1.408-.555-3.051-.832-4.928-.832-2.688 0-5.419.277-8.192.832a47.846 47.846 0 0 0-7.872 2.304c-1.877.725-3.563 1.579-5.056 2.56-1.493.939-2.667 1.92-3.52 2.944-.853 1.024-1.28 2.005-1.28 2.944 0 .512.149 1.003.448 1.472.341.427.768.81 1.28 1.152a9.053 9.053 0 0 0 1.536.832c.555.17 1.024.256 1.408.256.597 0 1.088-.17 1.472-.512.384-.384.576-1.11.576-2.176 0-1.152-.043-2.795-.128-4.928a589.392 589.392 0 0 0-.192-7.232c-.043-2.645-.064-5.27-.064-7.872v-5.44c.043-1.835.064-3.584.064-5.248v-4.416a94.89 94.89 0 0 0 .064-3.008 38.027 38.027 0 0 0-.256-3.968c-.043-.768-.107-1.323-.192-1.664h8.832Zm18.24 6.912a98.477 98.477 0 0 1 5.44 2.816 141.883 141.883 0 0 1 5.824 3.328c1.877 1.067 3.371 2.027 4.48 2.88l-3.84 6.528c-.811-.683-1.877-1.45-3.2-2.304a83.322 83.322 0 0 0-4.224-2.624 122.005 122.005 0 0 0-4.352-2.496c-1.408-.81-2.624-1.45-3.648-1.92l3.52-6.208Zm-39.232 3.52a95.52 95.52 0 0 0 4.928.448c1.451.043 2.752.064 3.904.064 1.664 0 3.499-.064 5.504-.192 2.005-.17 4.053-.384 6.144-.64 2.091-.299 4.117-.64 6.08-1.024a60.782 60.782 0 0 0 5.44-1.28l.192 7.936c-1.792.427-3.733.81-5.824 1.152-2.091.299-4.203.576-6.336.832-2.091.256-4.096.448-6.016.576a73.58 73.58 0 0 1-4.928.192c-2.133 0-3.883-.021-5.248-.064a44.836 44.836 0 0 1-3.712-.256l-.128-7.744Zm73.024-6.656h43.648v6.336h-43.648v-6.336Zm.704 9.408h37.12v6.208h-37.12v-6.208Zm-7.616 9.408h36.928v6.4h-36.928v-6.4Zm6.144-25.28 8.064 1.728c-1.536 5.163-3.605 9.941-6.208 14.336s-5.461 8.021-8.576 10.88c-.469-.47-1.152-1.003-2.048-1.6a57.697 57.697 0 0 0-2.624-1.856c-.896-.64-1.664-1.13-2.304-1.472 3.157-2.432 5.909-5.59 8.256-9.472a49.67 49.67 0 0 0 5.44-12.544Zm15.808 32 7.488 2.432a55.666 55.666 0 0 1-7.808 11.136 64.46 64.46 0 0 1-9.984 9.024 71.72 71.72 0 0 1-11.328 6.784 31.222 31.222 0 0 0-1.6-1.92 25.825 25.825 0 0 0-2.112-2.24 32.09 32.09 0 0 0-1.92-1.792 60.805 60.805 0 0 0 11.072-5.824c3.499-2.304 6.613-4.95 9.344-7.936 2.773-2.987 5.056-6.208 6.848-9.664Zm12.48-6.72h7.872c0 3.84.043 7.445.128 10.816.085 3.328.277 6.25.576 8.768.341 2.475.811 4.437 1.408 5.888.597 1.408 1.365 2.112 2.304 2.112.512-.043.853-.853 1.024-2.432.171-1.579.277-3.648.32-6.208a44.24 44.24 0 0 0 2.432 2.624 44.453 44.453 0 0 0 2.56 2.176c-.171 2.645-.491 4.821-.96 6.528-.427 1.707-1.109 2.944-2.048 3.712-.939.81-2.219 1.216-3.84 1.216-2.688 0-4.821-.917-6.4-2.752-1.536-1.792-2.688-4.288-3.456-7.488-.768-3.243-1.28-6.997-1.536-11.264-.256-4.267-.384-8.832-.384-13.696Zm-34.304 13.824 5.44-5.056a134.081 134.081 0 0 1 7.296 4.16 139.608 139.608 0 0 1 7.552 4.736 109.723 109.723 0 0 1 6.976 4.992c2.133 1.621 3.925 3.179 5.376 4.672l-6.144 5.824c-1.323-1.45-3.008-3.03-5.056-4.736a90.252 90.252 0 0 0-6.656-5.12 133.134 133.134 0 0 0-7.424-5.056 167.553 167.553 0 0 0-7.36-4.416Zm86.848-1.408h27.264v6.464h-27.264V47.04Zm-3.456 14.528h33.6v6.784h-33.6v-6.784Zm2.688-49.024h23.68v6.592h-23.68v-6.592Zm10.56 27.392h7.552v25.856h-7.552V39.936Zm11.136-27.392h1.408l1.344-.256 4.8 1.792c-1.408 5.333-3.477 9.899-6.208 13.696-2.731 3.797-5.995 6.955-9.792 9.472-3.755 2.517-7.957 4.523-12.608 6.016-.427-.896-1.024-1.963-1.792-3.2-.725-1.237-1.451-2.219-2.176-2.944a37.821 37.821 0 0 0 8.512-3.264 35.272 35.272 0 0 0 7.296-5.056 30.555 30.555 0 0 0 5.632-6.784c1.579-2.517 2.773-5.29 3.584-8.32v-1.152Zm-12.992 6.208a28.652 28.652 0 0 0 5.184 8.064c2.176 2.39 4.757 4.437 7.744 6.144 2.987 1.664 6.357 2.944 10.112 3.84-.469.47-1.003 1.088-1.6 1.856a44.973 44.973 0 0 0-1.728 2.24 16.349 16.349 0 0 0-1.216 2.112c-4.053-1.195-7.68-2.837-10.88-4.928a34.55 34.55 0 0 1-8.192-7.552c-2.304-2.987-4.245-6.336-5.824-10.048l6.4-1.728Zm-37.312-3.072h27.008v6.592h-27.008V15.68Zm-.768 37.248h28.224v6.656h-28.224v-6.656Zm10.752-43.392h6.848V28.48h-6.848V9.536Zm.768 18.88h5.248v17.856h.832V69.76h-6.848V46.272h.768V28.416Zm-4.544 11.456v3.904h14.528v-3.904h-14.528Zm0-8.768v3.84h14.528v-3.84h-14.528Zm-5.504-5.248h25.792v23.232h-25.792V25.856Zm89.344-6.592c1.963.256 4.16.448 6.592.576 2.475.085 4.971.128 7.488.128 2.56-.043 5.013-.128 7.36-.256a229.66 229.66 0 0 0 6.08-.512v8.256c-1.963.17-4.117.32-6.464.448a204.497 204.497 0 0 1-14.528 0 215.877 215.877 0 0 1-6.528-.448v-8.192Zm5.12 27.328a34.261 34.261 0 0 0-.576 2.88c-.128.81-.192 1.643-.192 2.496 0 .683.171 1.323.512 1.92.341.555.853 1.045 1.536 1.472.725.384 1.643.683 2.752.896 1.152.17 2.539.256 4.16.256 2.859 0 5.547-.128 8.064-.384 2.517-.299 5.184-.725 8-1.28l.128 8.64c-2.048.384-4.416.683-7.104.896-2.645.213-5.781.32-9.408.32-5.504 0-9.6-.917-12.288-2.752-2.688-1.877-4.032-4.459-4.032-7.744 0-1.237.085-2.517.256-3.84.213-1.365.491-2.859.832-4.48l7.36.704Zm-14.976-31.616c-.171.427-.363 1.024-.576 1.792-.213.768-.427 1.515-.64 2.24-.171.725-.299 1.28-.384 1.664-.128.896-.341 2.07-.64 3.52a339.58 339.58 0 0 0-.832 4.8c-.256 1.75-.512 3.541-.768 5.376a138.099 138.099 0 0 0-.64 5.312 60.848 60.848 0 0 0-.192 4.48v2.048c.043.768.128 1.472.256 2.112.299-.725.619-1.45.96-2.176l1.024-2.176c.341-.768.64-1.493.896-2.176l3.968 3.136a298.058 298.058 0 0 0-1.856 5.632 538.543 538.543 0 0 0-1.664 5.696c-.469 1.75-.832 3.2-1.088 4.352-.085.47-.171 1.003-.256 1.6a20.744 20.744 0 0 0-.064 1.408v1.216c.043.512.085.981.128 1.408l-7.424.512c-.64-2.219-1.216-5.163-1.728-8.832-.512-3.712-.768-7.744-.768-12.096 0-2.39.107-4.821.32-7.296.213-2.475.469-4.843.768-7.104.299-2.304.576-4.395.832-6.272.299-1.877.555-3.435.768-4.672.085-.896.192-1.899.32-3.008.171-1.152.277-2.24.32-3.264l8.96.768Zm56.478 3.136c2.347.299 4.992.512 7.936.64s6.101.192 9.472.192c2.133 0 4.309-.043 6.528-.128 2.219-.085 4.373-.192 6.464-.32 2.091-.17 3.947-.32 5.568-.448v8.512c-1.493.085-3.307.192-5.44.32-2.091.128-4.288.235-6.592.32-2.261.085-4.416.128-6.464.128-3.328 0-6.421-.064-9.28-.192-2.859-.17-5.589-.341-8.192-.512v-8.512Zm5.376 27.136a50.68 50.68 0 0 0-.768 3.264 16.305 16.305 0 0 0-.32 3.2c0 2.09 1.024 3.797 3.072 5.12 2.091 1.28 5.44 1.92 10.048 1.92 2.901 0 5.696-.107 8.384-.32 2.731-.213 5.291-.49 7.68-.832 2.389-.384 4.523-.832 6.4-1.344l.064 8.96c-1.835.427-3.925.81-6.272 1.152-2.304.341-4.8.597-7.488.768-2.645.213-5.461.32-8.448.32-4.907 0-8.981-.555-12.224-1.664-3.243-1.067-5.696-2.603-7.36-4.608-1.621-2.048-2.432-4.544-2.432-7.488 0-1.835.149-3.52.448-5.056.299-1.579.555-2.965.768-4.16l8.448.768Zm32.256-33.728a28.462 28.462 0 0 1 1.728 2.752 122.64 122.64 0 0 1 1.856 3.2 128.011 128.011 0 0 1 1.536 2.816l-5.184 2.24a99.326 99.326 0 0 0-2.368-4.544c-.896-1.707-1.771-3.179-2.624-4.416l5.056-2.048Zm7.616-2.88a56.3 56.3 0 0 1 1.792 2.816 122.64 122.64 0 0 1 1.856 3.2 33.317 33.317 0 0 1 1.536 2.688l-5.12 2.176a138.83 138.83 0 0 0-2.432-4.48c-.939-1.707-1.856-3.157-2.752-4.352l5.12-2.048Zm39.616 19.584h22.912V35.2h-22.912v-6.976Zm0 15.168h22.912v6.912h-22.912v-6.912Zm0 15.104h22.912v6.976h-22.912v-6.976Zm-3.648-45.44h30.144V68.8h-7.68V20.352h-15.104v48.832h-7.36V13.056Zm-26.88 9.792h24.576v7.232h-24.576v-7.232ZM735.971 9.6h7.36v60.096h-7.36V9.6Zm-.384 18.176 4.544 1.6a109.312 109.312 0 0 1-1.92 8.064 104.733 104.733 0 0 1-2.624 8.064 77.835 77.835 0 0 1-3.2 7.36c-1.152 2.261-2.368 4.203-3.648 5.824-.341-1.067-.875-2.283-1.6-3.648-.725-1.408-1.408-2.581-2.048-3.52 1.152-1.408 2.261-3.05 3.328-4.928a59.329 59.329 0 0 0 2.944-5.952 74.473 74.473 0 0 0 2.496-6.464 60.233 60.233 0 0 0 1.728-6.4Zm7.232 5.632c.469.427 1.152 1.173 2.048 2.24a91.331 91.331 0 0 1 2.816 3.392 266.67 266.67 0 0 1 2.816 3.456 75.112 75.112 0 0 1 1.856 2.176l-4.416 6.208a74.377 74.377 0 0 0-1.792-3.328 79.602 79.602 0 0 0-2.368-3.904 192.045 192.045 0 0 0-2.496-3.776 127.667 127.667 0 0 0-1.984-3.008l3.52-3.456Zm84.864-5.824 4.736-5.056a188.762 188.762 0 0 1 6.016 3.52 124.644 124.644 0 0 1 6.336 4.032c2.048 1.323 3.712 2.517 4.992 3.584l-5.12 5.824c-1.152-1.152-2.709-2.432-4.672-3.84a156.822 156.822 0 0 0-6.208-4.224 303.084 303.084 0 0 0-6.08-3.84Zm4.416 9.216h3.84v9.728c0 .853.128 1.835.384 2.944.256 1.11.683 2.304 1.28 3.584.64 1.237 1.515 2.475 2.624 3.712 1.109 1.195 2.496 2.368 4.16 3.52 1.664 1.11 3.648 2.112 5.952 3.008-.64.896-1.408 1.984-2.304 3.264-.896 1.28-1.6 2.368-2.112 3.264-2.005-.768-3.819-1.75-5.44-2.944-1.579-1.195-2.944-2.453-4.096-3.776-1.152-1.365-2.091-2.688-2.816-3.968-.725-1.323-1.237-2.475-1.536-3.456-.341.981-.917 2.112-1.728 3.392-.768 1.28-1.792 2.603-3.072 3.968-1.28 1.323-2.795 2.56-4.544 3.712-1.707 1.195-3.669 2.219-5.888 3.072a25.156 25.156 0 0 0-1.216-2.112 35.726 35.726 0 0 0-1.536-2.304 27.626 27.626 0 0 0-1.536-1.856c2.475-.853 4.587-1.856 6.336-3.008 1.792-1.152 3.285-2.347 4.48-3.584 1.195-1.28 2.133-2.539 2.816-3.776.725-1.28 1.216-2.496 1.472-3.648.299-1.152.448-2.155.448-3.008V36.8h4.032Zm-3.456-27.2h7.552c-.171 3.84-.512 7.339-1.024 10.496-.469 3.157-1.323 5.995-2.56 8.512-1.195 2.475-2.965 4.65-5.312 6.528-2.304 1.877-5.397 3.499-9.28 4.864-.341-.939-.939-2.005-1.792-3.2-.853-1.237-1.685-2.197-2.496-2.88 3.371-1.024 6.016-2.261 7.936-3.712 1.92-1.493 3.349-3.221 4.288-5.184.981-2.005 1.643-4.267 1.984-6.784.341-2.56.576-5.44.704-8.64Zm-9.408 3.84 6.272 1.216c-.299 2.176-.875 4.352-1.728 6.528-.853 2.176-1.984 3.99-3.392 5.44L814.435 24c1.152-1.152 2.155-2.71 3.008-4.672.853-1.963 1.451-3.925 1.792-5.888Zm-.768 27.776 6.72 1.344a32.502 32.502 0 0 1-2.176 7.296c-.981 2.347-2.261 4.31-3.84 5.888l-6.272-3.2c1.365-1.195 2.517-2.837 3.456-4.928a27.488 27.488 0 0 0 2.112-6.4Zm23.36-28.224 7.36 2.304a249.114 249.114 0 0 1-3.264 5.696c-1.067 1.835-2.048 3.413-2.944 4.736l-5.76-2.176a44.19 44.19 0 0 0 1.728-3.264 59.761 59.761 0 0 0 1.664-3.776c.512-1.28.917-2.453 1.216-3.52Zm.384 27.776 7.552 2.368a1039.9 1039.9 0 0 1-3.52 5.952c-1.152 2.005-2.24 3.69-3.264 5.056l-5.952-2.176a41.855 41.855 0 0 0 1.92-3.456 68.345 68.345 0 0 0 1.792-4.032 51.128 51.128 0 0 0 1.472-3.712Zm-49.408-11.52h19.328v5.824h-19.328v-5.824Zm.256-17.6h18.944v5.76h-18.944v-5.76Zm-.256 26.368h19.328v5.76h-19.328v-5.76Zm-3.008-17.792h24.448v6.08h-24.448v-6.08Zm6.336 26.624h16.128v19.52h-16.128v-6.08h9.536v-7.36h-9.536v-6.08Zm-3.456 0h6.464v22.016h-6.464V46.848Zm106.176-28.992a50.957 50.957 0 0 0-3.008 2.304 56.99 56.99 0 0 0-2.56 2.112c-1.067.81-2.347 1.813-3.84 3.008a2229.018 2229.018 0 0 1-4.608 3.648 576.187 576.187 0 0 0-4.608 3.648 108.928 108.928 0 0 0-3.84 3.2c-1.109.981-1.856 1.792-2.24 2.432-.384.597-.384 1.195 0 1.792.427.597 1.216 1.408 2.368 2.432.939.81 2.133 1.813 3.584 3.008a211.758 211.758 0 0 1 4.8 3.968c1.749 1.408 3.52 2.88 5.312 4.416a142.94 142.94 0 0 1 5.248 4.48 95.526 95.526 0 0 1 4.544 4.096l-7.488 6.848a180.663 180.663 0 0 0-5.568-5.952c-.981-.981-2.261-2.176-3.84-3.584a147.023 147.023 0 0 0-5.056-4.544 524.659 524.659 0 0 0-5.376-4.672 403.472 403.472 0 0 0-4.864-4.224c-2.133-1.792-3.52-3.435-4.16-4.928-.597-1.493-.512-2.965.256-4.416.811-1.493 2.283-3.115 4.416-4.864 1.28-.981 2.731-2.133 4.352-3.456a632.445 632.445 0 0 1 4.992-4.16 983.915 983.915 0 0 0 4.864-4.16 141.451 141.451 0 0 0 3.904-3.584c.939-.939 1.877-1.899 2.816-2.88.939-.981 1.643-1.835 2.112-2.56l7.488 6.592Zm45.44-4.224a81.837 81.837 0 0 0-.832 3.2 84.628 84.628 0 0 0-.576 2.88c-.299 1.45-.683 3.221-1.152 5.312-.427 2.09-.896 4.31-1.408 6.656a222.51 222.51 0 0 1-1.6 6.72 220.734 220.734 0 0 1-2.112 7.296 156.96 156.96 0 0 1-2.56 8 201.087 201.087 0 0 1-2.752 7.744c-.939 2.475-1.856 4.672-2.752 6.592l-8.96-3.008c.981-1.621 1.984-3.605 3.008-5.952a141.67 141.67 0 0 0 3.136-7.488 162.987 162.987 0 0 0 2.816-8 174.192 174.192 0 0 0 2.176-7.36c.384-1.536.768-3.093 1.152-4.672.384-1.579.725-3.115 1.024-4.608.341-1.493.619-2.88.832-4.16.256-1.323.448-2.453.576-3.392.128-1.195.213-2.39.256-3.584.043-1.195.021-2.176-.064-2.944l9.792.768Zm-16.32 9.6c2.603 0 5.312-.128 8.128-.384s5.653-.619 8.512-1.088a187.692 187.692 0 0 0 8.512-1.728v8a90.187 90.187 0 0 1-8.448 1.6c-2.987.427-5.931.768-8.832 1.024a109.74 109.74 0 0 1-12.16.256c-1.237-.085-2.432-.15-3.584-.192l-.192-8c1.664.17 3.093.299 4.288.384 1.195.085 2.453.128 3.776.128Zm20.096 9.792a75.764 75.764 0 0 1 5.952-.448c2.176-.128 4.288-.192 6.336-.192 1.835 0 3.691.043 5.568.128 1.92.085 3.819.235 5.696.448l-.192 7.68a116.548 116.548 0 0 0-5.248-.576 63.582 63.582 0 0 0-5.76-.256c-2.219 0-4.331.064-6.336.192a71.475 71.475 0 0 0-6.016.512v-7.488Zm3.456 16.064a27.32 27.32 0 0 0-.64 2.816c-.171.981-.256 1.813-.256 2.496 0 .725.149 1.387.448 1.984.299.597.768 1.13 1.408 1.6.64.427 1.515.768 2.624 1.024 1.152.213 2.581.32 4.288.32 2.133 0 4.309-.107 6.528-.32a78.507 78.507 0 0 0 6.784-.96l-.32 8.128c-1.792.256-3.776.47-5.952.64-2.176.213-4.544.32-7.104.32-5.376 0-9.493-.896-12.352-2.688-2.816-1.792-4.224-4.288-4.224-7.488 0-1.493.107-2.987.32-4.48.256-1.493.512-2.859.768-4.096l7.68.704Zm13.248-33.6a28.462 28.462 0 0 1 1.728 2.752 122.64 122.64 0 0 1 1.856 3.2 47.69 47.69 0 0 1 1.472 2.816l-5.12 2.24a94.458 94.458 0 0 0-1.472-2.944 119.3 119.3 0 0 0-1.728-3.2c-.597-1.067-1.195-1.984-1.792-2.752l5.056-2.112Zm7.552-2.88c.597.768 1.216 1.707 1.856 2.816a122.64 122.64 0 0 1 1.856 3.2c.64 1.024 1.131 1.92 1.472 2.688l-5.056 2.176a104.156 104.156 0 0 0-2.432-4.544c-.939-1.664-1.856-3.093-2.752-4.288l5.056-2.048Zm39.997 5.952c-.25-.725-.55-1.621-.89-2.688a51.206 51.206 0 0 0-1.15-3.2l8.64-1.024c.34 1.664.72 3.328 1.15 4.992.42 1.621.89 3.221 1.41 4.8a125.22 125.22 0 0 0 1.53 4.352 68.637 68.637 0 0 0 3.46 7.808c1.36 2.517 2.56 4.501 3.58 5.952.56.81 1.11 1.579 1.67 2.304.59.683 1.19 1.344 1.79 1.984l-3.97 5.76c-.9-.17-2.03-.341-3.39-.512a91.602 91.602 0 0 0-4.48-.576c-1.58-.17-3.18-.341-4.8-.512-1.58-.17-3.03-.299-4.35-.384l.64-6.784c1.06.085 2.19.192 3.39.32 1.19.085 2.3.17 3.33.256 1.06.085 1.94.15 2.62.192a78.262 78.262 0 0 1-2.43-4.224 99.306 99.306 0 0 1-2.5-4.928 90.79 90.79 0 0 1-2.24-5.248c-.68-1.792-1.28-3.413-1.79-4.864-.47-1.45-.88-2.71-1.22-3.776Zm-23.293 3.008c3.968.47 7.701.79 11.203.96 3.5.17 6.76.213 9.79.128 3.03-.085 5.8-.277 8.32-.576 1.96-.256 3.86-.533 5.7-.832 1.87-.299 3.71-.661 5.5-1.088 1.83-.427 3.56-.896 5.18-1.408l1.03 8.064a75.47 75.47 0 0 1-4.61 1.088c-1.62.341-3.31.661-5.06.96-1.75.256-3.47.49-5.18.704-4.31.47-9.05.747-14.21.832-5.16.085-11.007-.128-17.535-.64l-.128-8.192Zm12.803 21.824c-.98 1.493-1.75 2.965-2.307 4.416-.555 1.408-.832 2.816-.832 4.224 0 2.688 1.173 4.65 3.519 5.888 2.35 1.195 5.7 1.792 10.05 1.792 3.5 0 6.66-.15 9.47-.448 2.86-.299 5.42-.661 7.68-1.088l-.45 8.064c-1.79.341-4.14.683-7.04 1.024-2.86.341-6.25.512-10.17.512-4.31-.043-8.07-.619-11.27-1.728-3.197-1.067-5.672-2.667-7.421-4.8-1.749-2.176-2.624-4.779-2.624-7.808 0-1.963.277-3.883.832-5.76.597-1.92 1.451-3.968 2.56-6.144l8.003 1.856Zm58.69-25.152c-.18.768-.32 1.643-.45 2.624-.09.981-.17 1.941-.26 2.88-.04.939-.06 1.707-.06 2.304-.05 1.408-.07 2.859-.07 4.352.05 1.493.09 3.03.13 4.608.09 1.536.19 3.072.32 4.608.3 3.072.73 5.781 1.28 8.128.56 2.347 1.28 4.181 2.18 5.504.89 1.28 2.02 1.92 3.39 1.92.72 0 1.43-.405 2.11-1.216.73-.81 1.37-1.856 1.92-3.136.6-1.323 1.11-2.71 1.54-4.16.47-1.45.87-2.816 1.21-4.096l6.4 7.808c-1.4 3.712-2.81 6.677-4.22 8.896-1.37 2.176-2.8 3.755-4.29 4.736a8.945 8.945 0 0 1-4.86 1.408c-2.31 0-4.5-.768-6.59-2.304-2.05-1.536-3.8-4.01-5.25-7.424-1.45-3.456-2.48-8.043-3.07-13.76-.22-1.963-.39-4.032-.52-6.208-.08-2.176-.15-4.245-.19-6.208V24.64c0-.896-.04-1.963-.13-3.2a31.5 31.5 0 0 0-.38-3.328l9.86.128Zm32 1.472c1.19 1.45 2.34 3.221 3.45 5.312 1.11 2.09 2.13 4.33 3.07 6.72.94 2.39 1.77 4.843 2.5 7.36.72 2.475 1.3 4.907 1.73 7.296.47 2.347.77 4.501.89 6.464l-8.44 3.264c-.22-2.603-.6-5.44-1.16-8.512a82.367 82.367 0 0 0-2.24-9.28 62.604 62.604 0 0 0-3.39-8.832c-1.28-2.773-2.79-5.163-4.54-7.168l8.13-2.624Z"/><g clip-path="url(#a)"><path fill="#fff" d="M1206.45 115.549c-1.59-12.974-3.43-28.363-3.53-33.638.9-1.174 1.65-2.136 2.5-3.12.64-.741 1.33-1.496 2.2-2.363.19-.16.43-.25.69-.26.25-.009.5.064.7.209a60.437 60.437 0 0 0 5.45 5.38 78.474 78.474 0 0 0 15.28-9.582c1.07-.875 2.31-.02 2.92 1.11l3.28 7.67.37.856c-6.13 15.888-17.47 37.838-24.75 52.542h-2.86c-.28-2.947-1.21-10.365-2.25-18.804Z"/><path fill="#fff" d="M1211.76 79.262a51.218 51.218 0 0 1-2.75-2.883v-1.164c1.58.31 3.19.46 4.8.452.99 0 1.98-.049 2.96-.147a39.13 39.13 0 0 0 8.27-2.041 32.847 32.847 0 0 0 4.7-2.194v.893a78.474 78.474 0 0 1-15.28 9.583 98.75 98.75 0 0 1-2.7-2.499Z"/><path fill="#fff" d="M1244.32 45.809c.95-.53 2.06-.675 3.12-.404 2.07.505 2.73 1.77 2.98 2.482.75 2.13-.02 5.6-1.24 7.597a11.103 11.103 0 0 1-4.63 4.587c-1.4.589-2.94.769-4.44.52l-.38.648c-.57.963-1.86 2.623-1.86 2.623a35.305 35.305 0 0 1-4.39 4.61l-1.94 1.683a30.715 30.715 0 0 1-6.5 3.327 38.98 38.98 0 0 1-8.27 2.04c-.98.1-1.97.149-2.96.148-6.32.003-11.38-2.111-15.93-6.575-4.35-4.259-5.85-10.502-6-17.271-.08-3.904-.08-8.14-.27-12.387 0 0-3.53-20.527 23.5-20.527 36.29-.005 29.21 26.899 29.21 26.899Z"/><path fill="#2D68A4" d="M1185.28 88.075c2.76-1.64 5.64-3.08 8.6-4.307l8.99-3.977.05 2.12c.17 8.707 5.06 44.963 5.78 52.441h2.86c7.48-15.092 19.22-37.82 25.23-53.789 12.01 5.066 26.21 9.208 32.63 21.014 2.48 4.57 3.55 10.061 3.95 15.577.26 3.423.26 6.856.19 10.086a226.813 226.813 0 0 1-2.4 28.273h-121.45c-2.55-9.668-4.84-18.455-7.22-27.964l21.47-6.665c.17-.114.38-.18.59-.192.21-.012.42.03.61.122s.35.231.47.405c.13.173.2.375.22.585l2.57 7.091c1.07-7.766 1.67-15.748 4.11-23.247 1.92-5.926 5.08-11.599 9.89-15.535.91-.739 1.87-1.42 2.86-2.038Z"/><path fill="#211715" d="M1195.11 87.257a58.24 58.24 0 0 0-4.38 6.072c-.13.21-.19.453-.19.699 0 .246.06.488.19.699 1.46 1.968 2.8 4.024 4.3 5.965v-1.96l-4.19 4.841c-.26.296-.54.582-.77.901-.41.572-.27 1.128-.12 1.752l.51 2.194 2.85 12.224 1.59 6.818c.41 1.735 3.07 1 2.66-.737-1.69-7.26-3.38-14.519-5.08-21.778l-.35 1.348 4.85-5.599c.25-.267.39-.617.39-.98 0-.364-.14-.713-.39-.98.23.289-.13-.187-.2-.28-.17-.23-.34-.461-.5-.692-.38-.526-.75-1.055-1.13-1.585-.67-.952-1.34-1.911-2.04-2.848v1.398a53.67 53.67 0 0 1 3.95-5.51 1.428 1.428 0 0 0 0-1.96 1.382 1.382 0 0 0-1.95 0v-.002ZM1242.13 89.165a25.243 25.243 0 0 1 3.26 8.326l.97-1.704c-2.31.923-4.68 1.697-6.93 2.764-.18.108-.33.256-.45.433-.11.177-.18.377-.21.587-.03.209-.01.422.06.622.07.2.18.382.32.533 1.83 1.905 3.38 4.053 5.21 5.959l-.22-1.679c-5.25 7.473-10.1 15.218-15.27 22.745-.18.318-.23.695-.14 1.049.09.355.32.659.63.847a1.402 1.402 0 0 0 1.89-.497c5.17-7.527 10.02-15.272 15.27-22.745.15-.266.22-.573.18-.877a1.433 1.433 0 0 0-.39-.803c-1.83-1.905-3.38-4.052-5.2-5.958l-.28 2.176c2.03-.963 4.18-1.647 6.26-2.483.35-.108.64-.345.82-.661.18-.317.23-.69.15-1.043a27.739 27.739 0 0 0-3.55-8.989c-.92-1.524-3.3-.133-2.38 1.4v-.002Z"/><path fill="#E8B06E" d="M1209.92 99.436c.19-.866.29-1.747.31-2.632-.04-1.457-.33-4.451-.44-6.13 0 0-.01-.14-.03-.356 1.48-1.343 2.73-2.379 4.23-3.637.37-.306.82-.642 1.27-.485.21.09.39.23.53.408 1.46 1.65 2.75 3.143 4.03 4.81-.06.236-.1.413-.1.413-.6 2.57-1.89 7.376-1.95 8.277-.08 1.142.01 12.427.5 17.873l.12 2.694c-2.46 4.931-4.8 9.587-6.83 13.681h-2.86c-.29-3.079-1.3-11.038-2.39-19.944l.6-2.233c1.04-4.019 2.4-9.376 3.01-12.739Z"/><path fill="#211715" d="M1235.13 81.069c-2.67 6.953-5.76 13.74-8.94 20.47-3.4 7.198-6.94 14.329-10.5 21.449-1.77 3.554-3.55 7.109-5.32 10.665l1.19-.687h-2.85l1.38 1.386c-.61-6.216-1.47-12.412-2.23-18.609-1.01-8.213-2.02-16.427-2.85-24.66-.31-3.046-.65-6.11-.71-9.173-.04-1.78-2.8-1.787-2.76 0 .06 2.62.32 5.24.57 7.847.38 3.884.82 7.763 1.26 11.64.95 8.143 1.97 16.279 2.96 24.415.35 2.844.72 5.688.99 8.54.01.365.16.712.42.97.25.258.6.407.96.415h2.86a1.354 1.354 0 0 0 1.19-.686c3.31-6.679 6.68-13.33 9.97-20.017 3.55-7.201 7.03-14.432 10.29-21.774 1.68-3.782 3.29-7.592 4.78-11.455.09-.354.04-.731-.14-1.05a1.396 1.396 0 0 0-.83-.654 1.41 1.41 0 0 0-1.04.143c-.31.18-.55.475-.65.825Z"/><path fill="#211715" d="M1209.6 92.353c1.04-.983 2.11-1.94 3.21-2.872.49-.423.99-.845 1.49-1.264.25-.186.49-.386.72-.597l.18-.112a2.803 2.803 0 0 1-.49-.046c.08.104.17.203.26.298 1.95 2.15 3.76 4.42 5.43 6.798a1.407 1.407 0 0 0 1.89.497c.31-.188.54-.492.63-.846.09-.355.04-.732-.14-1.05a63.462 63.462 0 0 0-3.23-4.297 79.528 79.528 0 0 0-1.65-1.942 8.528 8.528 0 0 0-1.79-1.847c-1.76-1.07-3.49.954-4.71 1.989a94.157 94.157 0 0 0-3.76 3.333c-1.3 1.22.66 3.175 1.95 1.96l.01-.002Z"/><path fill="#211715" d="M1208.41 90.673c.13 1.895.33 3.785.43 5.683.03 1.196-.1 2.39-.41 3.547-.78 4.003-1.83 7.956-2.85 11.903-.45 1.728 2.21 2.465 2.66.737 1.03-4.004 2.1-8.015 2.89-12.077.31-1.32.47-2.674.47-4.031-.09-1.924-.3-3.841-.43-5.762a1.422 1.422 0 0 0-.42-.97c-.25-.259-.6-.407-.96-.416-.37.003-.72.15-.97.41-.26.258-.41.61-.41.976ZM1218.39 91.459c-.48 2.04-1.02 4.068-1.51 6.108a15.129 15.129 0 0 0-.51 3.345c-.04 3.506.04 7.017.16 10.52.08 2.184.17 4.369.36 6.545.01.364.16.711.42.969.25.258.6.407.96.416.37-.002.72-.149.98-.408.25-.259.4-.61.4-.977-.35-3.926-.42-7.883-.49-11.822-.03-1.592-.05-3.185-.04-4.777 0-.389.03-.78.02-1.168 0-.054.01-.108.01-.162.01.441-.02.125.02-.035.07-.383.15-.766.24-1.148.52-2.231 1.11-4.442 1.64-6.67.41-1.732-2.25-2.473-2.66-.736Z"/><path fill="#211715" d="M1210.56 98.92c2.08.189 4.16.346 6.24.487.36-.002.71-.148.97-.408.26-.259.41-.61.41-.977a1.458 1.458 0 0 0-.41-.97 1.43 1.43 0 0 0-.97-.416c-2.08-.143-4.16-.298-6.24-.488-.36.002-.71.148-.97.408s-.41.61-.41.978c.01.364.16.712.42.97.25.257.6.406.96.415ZM1203.89 82.89c.82-1.056 1.63-2.111 2.5-3.12.41-.48.84-.948 1.27-1.407.24-.254.5-.496.74-.758.23-.263.21-.15-.06-.038.16-.065.27.006-.09-.115-.39-.132-.15-.019 0 .14.09.107.19.212.28.317.2.214.39.426.59.635.41.44.84.87 1.27 1.293 1 .996 2.04 1.955 3.1 2.898a1.431 1.431 0 0 0 1.67.218 84.504 84.504 0 0 0 14.3-8.796c.28-.22.56-.441.84-.665.11-.107.23-.205.36-.295.33-.026.68.52.81.784.12.23.21.484.31.723l1.67 3.9 1.31 3.047c.18.316.48.545.84.638.35.093.73.043 1.04-.14.31-.193.54-.496.63-.85.09-.352.04-.727-.13-1.047l-2.99-6.985c-.69-1.619-2.19-3.266-4.14-2.751-.7.259-1.34.663-1.87 1.188-.6.476-1.21.94-1.83 1.392-1.23.908-2.5 1.774-3.8 2.598a96.32 96.32 0 0 1-8.74 4.87l1.67.216a77.513 77.513 0 0 1-3.51-3.308 42.776 42.776 0 0 1-1.51-1.598c-.22-.306-.5-.561-.82-.749a2.548 2.548 0 0 0-1.05-.337c-1.61-.057-2.6 1.332-3.57 2.421-1.07 1.192-2.06 2.456-3.03 3.724a1.433 1.433 0 0 0 0 1.962 1.382 1.382 0 0 0 1.95 0l-.01-.005Z"/><path fill="#fff" d="M1251.04 113.187c-8.57-2.203-30.81-7.121-38.19-8.789a1.618 1.618 0 0 0-1.93 1.229l-4.23 18.993-.15.534c1.04.553 2.06 1.167 3.03 1.837a56.853 56.853 0 0 1 4.97 3.308c3.24 2.436 5.64 3.724 7.42 7.325.41.848 2.24 2.09 3.51 2.829l1.28-.912c2.6.856 19.15 3.663 20.38 3.476l.12-.762.47-2.891c1.09-5.946 3.61-19.242 4.51-24.316.07-.404-.01-.82-.23-1.165a1.607 1.607 0 0 0-.96-.696Z"/><path fill="#fff" d="M1220.52 155.498a70.137 70.137 0 0 0 5.61-13.882.94.94 0 0 0-.04-.597.976.976 0 0 0-.41-.442c-1.27-.72-3.28-2.057-3.72-2.953-1.78-3.601-4.18-4.889-7.42-7.325a55.387 55.387 0 0 0-4.97-3.308c-1.08-.661-2.97-2.111-4.26-2.222-1.3-.111-2-.075-2.74 1.015-.24.301-.4.66-.46 1.041-.06.381-.02.772.11 1.134a8.652 8.652 0 0 0 1.76 2.321c.76.788 1.68 1.628 2.48 2.476a86.45 86.45 0 0 0-8.75-.436 3.952 3.952 0 0 0-2.21.558c-.54.386-.97.905-1.26 1.507a2.96 2.96 0 0 0-.25 1.209c0 .416.08.828.25 1.21.43.95 1.09 1.783 1.9 2.43-.69 2.096-1.2 3.158-.52 5.288.78 2.408 1.22 5.421 2.78 7.646.43.666 1 1.237 1.66 1.68.63.336 1.3.57 2.01.693 4.09.599 9.67.341 13.54.79 1.17.301 2.31.71 3.41 1.222a.91.91 0 0 0 .66.014.91.91 0 0 0 .5-.435c.12-.212.23-.423.34-.634Z"/><path fill="#211715" d="M1208.11 132.529c-1.05-1.243-2.28-2.304-3.39-3.483-.73-.776-1.91-1.982-.69-2.852.01-.009.25-.085.15-.07.31-.033.61-.03.91.011.52.1 1.01.294 1.46.571 1.17.663 2.29 1.447 3.43 2.161 2.25 1.404 4.39 2.98 6.51 4.566.96.691 1.84 1.48 2.63 2.355.86.977 1.29 2.219 2.12 3.197.91.963 1.96 1.777 3.12 2.414.12.074.5.404.63.372-.31.077-.07-.956-.27-.214l-.15.524c-.21.727-.43 1.449-.67 2.166a71.963 71.963 0 0 1-3.75 8.93c-.11.226-1.01 2.274-1.16 2.254l.23-.173c.19-.014.22-.038.09-.073-.04-.063-.33-.138-.4-.165-.3-.127-.6-.254-.91-.376a11.942 11.942 0 0 0-3.72-.824c-3.03-.225-6.07-.179-9.09-.364-1.42-.086-3.17-.044-4.43-.808-1.29-.777-2-2.472-2.46-3.831-.52-1.532-.87-3.117-1.34-4.664a4.366 4.366 0 0 1-.22-2.119c.18-.828.43-1.642.74-2.433.07-.236.07-.486.01-.724a1.303 1.303 0 0 0-.37-.624c-.74-.583-1.77-1.621-1.75-2.651.02-.458.2-.894.51-1.233.31-.339.73-.56 1.18-.625 1.34-.122 2.7-.115 4.04.023 1.5.058 3.01.156 4.51.289a1.396 1.396 0 0 0 1.38-1.385 1.46 1.46 0 0 0-.41-.972 1.423 1.423 0 0 0-.97-.414 93.493 93.493 0 0 0-5.64-.324c-1.65-.041-3.62-.271-5.08.666a4.765 4.765 0 0 0-2.26 4.345 6.53 6.53 0 0 0 2.54 4.241l-.35-1.348c-.56 1.68-1.09 3.246-.77 5.039.14.83.45 1.636.67 2.449.22.813.43 1.624.67 2.428a13.935 13.935 0 0 0 2.3 4.73c.6.715 1.33 1.303 2.15 1.728.82.424 1.72.678 2.65.745 3.43.437 6.9.356 10.35.522 1.34-.019 2.68.192 3.95.624.62.236 1.23.552 1.86.759a2.311 2.311 0 0 0 2.61-.893c.53-.855 1-1.747 1.39-2.668.44-.895.87-1.797 1.28-2.707a77.29 77.29 0 0 0 2.16-5.288c.29-.808.56-1.623.82-2.445.32-.794.53-1.627.63-2.477.06-1.838-2.12-2.512-3.33-3.442a4.799 4.799 0 0 1-1.03-.992c-.38-.722-.81-1.421-1.27-2.095a16.089 16.089 0 0 0-3.11-3.14 84.31 84.31 0 0 0-7.53-5.33c-1.49-.929-2.94-2.039-4.58-2.698-1.47-.592-3.46-.603-4.66.569a4.377 4.377 0 0 0-1.33 2.798 4.485 4.485 0 0 0 1.17 2.891c1.29 1.639 2.95 2.925 4.29 4.517a1.384 1.384 0 0 0 1.95 0 1.422 1.422 0 0 0 0-1.959v-.001Z"/><path fill="#211715" d="m1208.02 124.987 2.79-12.534 1.35-6.059c.02-.133.05-.264.09-.393.16-.404.45-.219.82-.135 1.28.288 2.55.574 3.83.859 7.35 1.647 14.7 3.291 22.04 4.987 3.3.764 6.6 1.533 9.89 2.347.63.08 1.25.235 1.84.462.21.115.19.104.21.331-.02-.135-.04.192-.06.277l-.09.488c-.29 1.611-.58 3.22-.88 4.829-1.29 6.927-2.7 13.835-3.82 20.789l-.23 1.412 1.33-1.017a9.126 9.126 0 0 1-2.22-.192c-.1-.013-.48-.065-.17-.022l-.52-.073a198.962 198.962 0 0 1-3.47-.527c-3.42-.547-6.84-1.138-10.23-1.823a30.69 30.69 0 0 1-3.4-.79c-1.7-.548-2.42 2.126-.74 2.672 2.48.803 5.17 1.148 7.73 1.608 3.32.598 6.66 1.165 10.01 1.62.98.224 2 .324 3.01.298a1.423 1.423 0 0 0 1.33-1.017c1.09-6.777 2.43-13.509 3.69-20.26.33-1.823.67-3.646 1.01-5.47.33-1.842 1.03-4.002-.77-5.322-.71-.42-1.5-.698-2.32-.819a506.321 506.321 0 0 0-7.21-1.73c-7.75-1.814-15.52-3.554-23.29-5.294l-4.44-.995c-.57-.129-1.15-.265-1.72-.389a3.106 3.106 0 0 0-1.84.043c-.59.2-1.11.576-1.49 1.078-.37.593-.6 1.259-.69 1.951l-.66 2.962-3.29 14.778-.08.336c-.38 1.737 2.28 2.479 2.66.736v-.002Z"/><path fill="#211715" d="M1241.79 84.091c9.02 3.604 19.18 7.469 24.96 15.791 3.06 4.414 4.45 9.688 5.03 14.98.65 5.896.48 11.875.21 17.789-.34 7.47-1.06 14.918-2.14 22.317-.09.353-.03.727.15 1.043.17.317.47.553.81.661a1.392 1.392 0 0 0 1.7-.968 233.36 233.36 0 0 0 2.12-20.776c.35-6.183.59-12.441.05-18.62-.49-5.673-1.66-11.445-4.62-16.378-2.72-4.543-6.74-8.095-11.19-10.868-5.12-3.186-10.77-5.413-16.35-7.643a1.386 1.386 0 0 0-1.69.968 1.414 1.414 0 0 0 .96 1.704ZM1176.94 124.761c.46 9.923.83 19.85 1.13 29.779.05 1.779 2.81 1.79 2.76 0-.3-9.929-.67-19.855-1.13-29.779-.08-1.775-2.84-1.786-2.76 0ZM1173.74 139.53l-6.26-17.285c-.49-1.35-.99-2.829-2.67-2.901-.65.03-1.3.17-1.9.414l-2.31.721-8.69 2.699-9.78 3.035a1.416 1.416 0 0 0-.97 1.705c2.33 9.341 4.77 18.655 7.22 27.964.46 1.723 3.12.992 2.66-.737-2.45-9.309-4.88-18.623-7.22-27.964l-.96 1.701 16.03-4.975 4.07-1.265c.61-.127 1.21-.306 1.79-.535-.02.071-.32-.16-.33-.156 0 .003.1.187.1.2.09.37.27.744.4 1.102l2.88 7.967 3.28 9.048c.11.349.34.644.66.824.31.18.69.231 1.04.143.35-.1.65-.335.83-.654.18-.319.23-.696.13-1.05v-.001Z"/><path fill="#fff" d="M1122.7 102.38a6.219 6.219 0 0 1 2.83-.044c.56.183 1.11.354 1.6.511.03-.243.06-.433.06-.433.03-.32.12-.63.29-.907.16-.276.38-.511.65-.687.98-.745 2.44-.368 3.23-.148 2.81.782 14.23 5.159 18 7.481 1.3.798 3.64.861 5.91-.578.18-1.576.46-3.14.82-4.684.1-.649.36-1.261.76-1.781.4-.519.93-.929 1.53-1.192a2.905 2.905 0 0 1 2.51.27c.71.467 1.11 1.644 1.31 2.477 1.34 5.604 1.84 6.102 2.36 11.517l.05.466-.39 3.68a13.46 13.46 0 0 1-3.92 8.133c-2.19 2.148-5.12 3.9-10.18 3.849-5.26-.924-10.19-3.744-12.93-5.386-2.01-1.203-3.79-2.474-6.69-4.558-1.44-1.035-6.3-4.952-6.7-5.364-.68-.696-1.36-2.014-.89-3.179a9.718 9.718 0 0 1-1.03-.858 3.266 3.266 0 0 1-.76-1.432 3.307 3.307 0 0 1 .01-1.624l.09-.202c-.68-1.155-1.18-1.874-.56-3.532.17-.442.45-.837.8-1.15.35-.313.78-.534 1.24-.645Z"/><path fill="#211715" d="M1156.6 107.918c.19-1.29.37-2.572.64-3.846.26-1.179.67-3.097 2.27-2.936.71.071.94.565 1.15 1.18.3.961.54 1.938.72 2.926.45 1.979.87 3.967 1.21 5.969.29 1.426.46 2.874.51 4.329a20.254 20.254 0 0 1-.3 3.109 12.48 12.48 0 0 1-1.66 4.537 12.437 12.437 0 0 1-3.27 3.55 11.4 11.4 0 0 1-3.78 1.762c-.81.206-1.64.337-2.47.39a9.262 9.262 0 0 1-3.12-.346 39.339 39.339 0 0 1-9.77-4.311 95.856 95.856 0 0 1-13.41-9.727c-.6-.511-1.76-1.79-.96-2.44.72-.585 2.83.652 3.73 1.128a74.653 74.653 0 0 1 10.25 6.617 1.395 1.395 0 0 0 1.89-.497c.17-.319.22-.694.13-1.047a1.418 1.418 0 0 0-.63-.849 75.3 75.3 0 0 0-10.17-6.574c-1.5-.796-3.25-1.781-4.99-1.655a3.45 3.45 0 0 0-1.49.478 3.517 3.517 0 0 0-1.68 2.551c-.08.525-.03 1.06.14 1.564.38 1.359 1.29 2.235 2.32 3.091 1.12.924 2.25 1.835 3.39 2.735a96.31 96.31 0 0 0 8.31 5.938 48.323 48.323 0 0 0 10.52 5.163c1.08.361 2.18.652 3.3.871 1.12.168 2.27.156 3.4-.036 1.86-.216 3.67-.789 5.33-1.686 3.4-1.936 5.91-5.13 7-8.9.34-1.374.56-2.776.65-4.189.12-1.712.01-3.432-.31-5.117-.33-2.172-.78-4.33-1.25-6.473-.44-1.977-.69-4.797-2.48-6.08a4.303 4.303 0 0 0-3.03-.662 4.341 4.341 0 0 0-2.69 1.544c-1.12 1.363-1.42 3.144-1.71 4.842-.13.784-.23 1.573-.34 2.36-.09.354-.04.727.14 1.044.18.316.47.552.82.66.35.096.73.047 1.05-.134.31-.181.55-.48.65-.833h-.01Z"/><path fill="#211715" d="M1123.61 110.63c-.65-.499-1.39-1.184-1.21-2.11.07-.295.24-.559.47-.751.24-.192.53-.302.83-.313 1.07-.144 2.22.395 3.19.784a92.996 92.996 0 0 1 9.21 4.35 39.03 39.03 0 0 1 4.72 2.864 1.377 1.377 0 0 0 1.88-.497c.18-.319.23-.694.13-1.048a1.4 1.4 0 0 0-.62-.848c-3.23-2.378-6.99-4.12-10.62-5.78-1.58-.726-3.19-1.443-4.82-2.046-1.72-.632-3.76-.905-5.35.2-.6.397-1.07.947-1.38 1.591a4.014 4.014 0 0 0-.38 2.075c.16 1.786 1.22 2.89 2.56 3.921.32.183.69.234 1.05.141.35-.093.65-.322.84-.638.17-.319.22-.694.13-1.047a1.413 1.413 0 0 0-.63-.848Z"/><path fill="#211715" d="M1142.58 108.304c-3.8-2.066-7.72-3.885-11.75-5.449-3.08-1.275-7.61-3.583-10.52-.654a4.93 4.93 0 0 0-1.31 3.132c.02 1.057.35 2.086.95 2.951.9 1.534 3.29.142 2.38-1.398-.44-.748-.72-1.223-.43-2.082.09-.295.27-.558.5-.759.24-.2.52-.329.83-.373 1.78-.436 3.74.563 5.4 1.249 4.25 1.759 8.56 3.48 12.55 5.773 1.55.886 2.94-1.507 1.4-2.393v.003Z"/><path fill="#211715" d="M1128.57 102.414c.08-.766 1.27-.679 1.81-.562.56.132 1.12.293 1.67.483 1.53.505 3.04 1.07 4.55 1.647a103.76 103.76 0 0 1 10.57 4.539c.8.488 1.64.918 2.51 1.286 1.56.463 3.24.369 4.75-.267.34-.107.64-.343.82-.66.18-.317.23-.69.14-1.044a1.39 1.39 0 0 0-1.7-.968c-1.15.447-2.5.733-3.63.089-.64-.365-1.28-.724-1.94-1.054-1.86-.929-3.77-1.752-5.69-2.555a107.742 107.742 0 0 0-10.33-3.904 6.897 6.897 0 0 0-3.43-.347c-.77.176-1.46.593-1.97 1.19a3.662 3.662 0 0 0-.89 2.129 1.396 1.396 0 0 0 1.38 1.386c.36-.008.71-.157.97-.415.25-.258.4-.606.41-.971v-.002ZM1140.22 119.587l6.59-6.011c.25-.261.4-.613.4-.98s-.15-.718-.4-.98a1.44 1.44 0 0 0-.98-.393c-.36 0-.71.141-.98.393l-6.58 6.012c-.26.261-.4.613-.4.979 0 .367.14.719.4.98a1.404 1.404 0 0 0 1.95 0Z"/><path fill="#645D5C" d="M1222.7 1.394a32.954 32.954 0 0 0-16.46 4.623c-1.45.845-4.46 2.482-6.79 5.2a26.41 26.41 0 0 0-5.06 6.917 27.54 27.54 0 0 0-2.87 10.514 60.16 60.16 0 0 0 .14 10.82c.21-5.406 4.9-6.057 6.8-8.675 1.04-1.447 1.8-3.207 3.36-4.117a7.331 7.331 0 0 1 4.02-.702c2.14.097 6.1.236 8.96.842a6.28 6.28 0 0 1 4.69-.62c2.57.63 8.19 3.374 8.19 3.374 3.79 2.046 5.5 3.573 7.66 6.973a16.589 16.589 0 0 1 2.38 8.766c2.3 0 6.6.499 6.6.499.95-.53 2.06-.675 3.12-.404 2.07.504 2.73 1.767 2.98 2.48 1.95-3.53 3.63-7.37 4.1-11.5 1.4-12.297-1.14-17.196-7.18-23.711-4.89-7.601-12.51-10.289-20.2-11.078-1.48-.153-2.96-.22-4.44-.201Z"/><path fill="#211715" d="M1215.17 25.48c-2.35-.44-4.73-.703-7.12-.788-2.33-.123-4.92-.439-7.01.844a8.328 8.328 0 0 0-2.47 2.566c-.3.45-.58.915-.88 1.369-.19.333-.42.64-.69.912-1 1.04-2.38 1.76-3.62 2.777a8.583 8.583 0 0 0-2.09 2.533 8.475 8.475 0 0 0-.96 3.145c0 .367.14.718.4.978.26.259.61.406.98.408.36-.01.71-.158.96-.416.26-.258.41-.605.42-.97.39-3.22 3.34-4.204 5.52-6.16 1.33-1.204 1.93-2.974 3.19-4.236 1.44-1.453 3.68-1.104 5.54-1.015 2.38.058 4.75.3 7.09.726.35.088.73.037 1.04-.143.32-.18.55-.476.66-.826.09-.354.04-.73-.14-1.05a1.37 1.37 0 0 0-.83-.654h.01ZM1223.09 28.704c-.16-2.904-2.4-5.464-4.84-6.795-.97-.524-2.01-.91-3.08-1.146a1.382 1.382 0 0 0-1.74 1.506c.02.18.08.355.17.513.09.159.21.298.35.41.14.112.31.194.48.243.56.12 1.1.284 1.64.49a11.443 11.443 0 0 1 .13.053c.11.058.24.11.35.168a8.507 8.507 0 0 1 1.2.714c.09.078.19.148.29.21-.16-.129-.19-.146-.07-.058.04.036.09.073.13.11.31.265.61.553.89.86.07.08.13.159.2.24.07.08.25.383.02.02.09.146.21.28.3.424.2.308.38.63.53.961.16.316-.09-.255-.01-.038.02.058.04.115.07.173.05.147.1.296.14.447.04.14.06.28.09.422.06.311-.03-.336-.01-.119 0 .064.01.127.01.19 0 .368.15.72.41.98a1.376 1.376 0 0 0 1.95 0c.26-.26.4-.612.4-.98v.002ZM1239.1 45.31a18.689 18.689 0 0 0-3.57-10.94 20.598 20.598 0 0 0-7.15-5.995c-1.57-.849-2.96 1.542-1.4 2.392 2.39 1.297 4.55 2.771 6.17 5a16.153 16.153 0 0 1 2.33 4.272c.56 1.7.85 3.479.86 5.27.03 1.781 2.79 1.787 2.76 0ZM1217.95 48.494c-.25-1.401.4-4.474 2.98-4.423 3.37.436 3.08 4.214 1.73 5.839-1.1 1.33-3.9 1.594-4.71-1.416ZM1197.89 46.655c-.22-1.403.4-4.488 2.76-4.458 3.08.41 2.8 4.2 1.55 5.84-1.03 1.343-3.6 1.63-4.31-1.382ZM1207.93 50.82c-.49.692-.98 1.404-1.41 2.14-.2.292-.33.618-.41.96-.07.326-.06.663.04.982.11.322.29.612.54.847.31.308.69.539 1.11.674.16.053.33.07.49.108.36.092.74.042 1.06-.14a1.37 1.37 0 0 0 .68-1.373c-.04-.27-.15-.524-.33-.73a1.388 1.388 0 0 0-.67-.427c-.2-.032-.39-.078-.58-.138l.33.14c-.1-.046-.2-.104-.29-.173l.28.216a2.43 2.43 0 0 1-.26-.263l.22.28c-.03-.027-.04-.056-.06-.088l.14.331a.712.712 0 0 1-.04-.144l.05.369v-.102l-.05.368c.02-.09.04-.178.07-.263l-.14.33c.23-.465.5-.91.81-1.327.26-.397.53-.79.81-1.177.14-.238.2-.512.18-.787a1.312 1.312 0 0 0-.28-.757 1.379 1.379 0 0 0-.65-.47 1.39 1.39 0 0 0-.81-.021 1.54 1.54 0 0 0-.82.635h-.01ZM1245.01 47.004a3.03 3.03 0 0 1 2.41-.173c.33.099.65.254.94.458.1.076.19.161.28.253.07.064.13.134.18.209.07.102.13.208.19.315.03.05.16.356.09.173-.08-.182.05.203.07.263.06.205.11.414.14.626.07.745.04 1.498-.1 2.233-.56 3.06-2.51 6.272-5.44 7.552.25-.11-.13.035-.21.061-.2.064-.41.116-.61.164-.36.084-.73.138-1.1.16a4.32 4.32 0 0 1-2.47-.45c-1.54-.89-2.93 1.502-1.39 2.393 1.87 1.078 4.29 1.045 6.3.404 2.14-.678 3.87-2.296 5.17-4.072a13.345 13.345 0 0 0 2.45-5.69c.31-1.888.35-4.073-.82-5.694a5.92 5.92 0 0 0-3.45-2.159 5.904 5.904 0 0 0-4.02.578c-1.56.855-.16 3.248 1.4 2.393l-.01.003ZM1207.46 63.777a9.869 9.869 0 0 0 6.49 1.046c.75-.195 1.48-.455 2.19-.778.35-.104.65-.34.83-.658.17-.317.23-.692.14-1.046-.11-.352-.34-.65-.66-.831-.31-.181-.69-.23-1.04-.137-.65.29-1.32.537-2 .738-.06.013-.37.032-.4.074.03-.035.28-.029.06-.009-.09.008-.18.017-.27.023a8.496 8.496 0 0 1-1.4-.023l-.22-.025c.11.01.18.03.03.004a8.536 8.536 0 0 1-1.81-.474c-.17-.066-.03.014.05.02a.659.659 0 0 1-.22-.107 4.31 4.31 0 0 1-.37-.21 1.376 1.376 0 0 0-1.89.497c-.19.318-.24.696-.14 1.052.09.355.32.659.63.844Z"/><path fill="#211715" d="M1232.51 71.129c1.33-1.145 2.67-2.267 3.89-3.521a31.833 31.833 0 0 0 4.52-5.673c.09-.157.15-.331.17-.511.03-.18.02-.364-.03-.54a1.463 1.463 0 0 0-.24-.486c-.1-.145-.24-.267-.4-.359a1.338 1.338 0 0 0-.51-.177 1.328 1.328 0 0 0-.53.033 1.41 1.41 0 0 0-.49.236c-.14.11-.26.248-.36.405-.54.861-1.13 1.695-1.76 2.497.36-.485 0-.004-.08.09-.26.323-.53.642-.8.959-.5.577-1.02 1.137-1.55 1.68-1.19 1.212-2.49 2.3-3.78 3.41-.25.262-.39.614-.39.98 0 .367.14.719.39.98.27.253.62.394.98.394s.71-.141.98-.394l-.01-.003ZM1190.23 39.432c.2 4.646.08 9.307.33 13.948.22 4.002.95 8.018 2.72 11.64 3.39 6.92 10.84 11.326 18.36 11.943 4.7.387 9.35-.569 13.77-2.15.34-.106.64-.342.82-.66.18-.316.23-.69.14-1.045a1.394 1.394 0 0 0-1.7-.968 31.984 31.984 0 0 1-11.32 2.137 20.29 20.29 0 0 1-9.84-2.586 19.414 19.414 0 0 1-7.4-7.216c-1.73-3.123-2.47-6.73-2.74-10.265-.36-4.907-.17-9.861-.38-14.778-.07-1.777-2.83-1.787-2.76 0Z"/><path fill="#211715" d="M1247.58 10.602a25.386 25.386 0 0 0-13.48-9.106 38.448 38.448 0 0 0-17.13-.938 36.627 36.627 0 0 0-14.75 6.344 30.008 30.008 0 0 0-5.78 5.581 27.723 27.723 0 0 0-3.97 6.516c-2.69 6.27-2.84 13.258-2.24 19.965.01.364.16.711.42.97.26.257.6.406.96.416.37-.003.72-.15.98-.41.26-.258.4-.61.4-.976-.5-5.575-.57-11.463 1.22-16.83a27.279 27.279 0 0 1 7.93-11.661 30.099 30.099 0 0 1 5.46-3.634 32.205 32.205 0 0 1 7.66-3.078 34.82 34.82 0 0 1 15.94-.139c5.47 1.182 10.57 3.826 14 8.378.19.308.49.532.85.624.35.092.72.047 1.04-.127.31-.188.54-.491.63-.846.09-.355.04-.732-.14-1.05ZM1252.59 46.725a32.765 32.765 0 0 0 2.92-7.898c.51-2.594.76-5.233.76-7.877.05-3.948-.52-7.875-2.25-11.452a26.926 26.926 0 0 0-3.32-5.077 1.388 1.388 0 0 0-.98-.401c-.36 0-.72.144-.97.402-.26.263-.4.614-.4.98 0 .364.14.715.4.979 2 2.398 3.43 5.224 4.18 8.262.39 1.788.59 3.614.58 5.445.04 2.333-.11 4.665-.47 6.97a29.154 29.154 0 0 1-2.83 8.269c-.79 1.59 1.59 2.994 2.38 1.398ZM1170.44 123.99c1.15-9.273 2.41-18.963 7.64-26.942a26.773 26.773 0 0 1 9.43-8.684c2.73-1.536 5.62-2.761 8.48-4.027l6.05-2.674c.31-.187.54-.49.64-.845.09-.355.04-.732-.14-1.05-.2-.31-.5-.535-.85-.628a1.403 1.403 0 0 0-1.04.131c-4.56 2.014-9.25 3.875-13.65 6.216a30.239 30.239 0 0 0-10.44 8.917 39.894 39.894 0 0 0-5.77 12.19c-1.67 5.663-2.39 11.552-3.11 17.396 0 .366.14.718.4.977.26.26.61.406.98.408.36-.009.7-.158.96-.416.26-.257.41-.605.42-.969Z"/></g><path fill="#201E1C" d="M479.211 129.08h2.472v18.96c0 .768-.104 1.336-.312 1.704-.192.368-.536.648-1.032.84-.48.176-1.12.288-1.92.336-.8.064-1.768.096-2.904.096a5.118 5.118 0 0 0-.24-.768 11.477 11.477 0 0 0-.336-.84 5.754 5.754 0 0 0-.36-.768c.576.032 1.128.056 1.656.072h1.416c.416-.016.712-.024.888-.024.24-.016.408-.064.504-.144.112-.096.168-.264.168-.504v-18.96Zm5.784 6.192 2.208-.816a40.43 40.43 0 0 1 1.968 3.624c.64 1.28 1.2 2.536 1.68 3.768.496 1.232.84 2.336 1.032 3.312l-2.472.984c-.176-.96-.488-2.064-.936-3.312a41.21 41.21 0 0 0-1.56-3.84 42.46 42.46 0 0 0-1.92-3.72Zm-12.072-.624 2.568.432a46.776 46.776 0 0 1-.984 3.744 31.035 31.035 0 0 1-1.416 3.768c-.544 1.184-1.168 2.224-1.872 3.12a5.664 5.664 0 0 0-.672-.408 7.594 7.594 0 0 0-.792-.432 15.015 15.015 0 0 0-.72-.36c.688-.832 1.288-1.808 1.8-2.928a26.52 26.52 0 0 0 1.296-3.528c.352-1.216.616-2.352.792-3.408Zm31.824-2.664c-.08-.272-.176-.584-.288-.936-.112-.368-.24-.736-.384-1.104l2.592-.312c.08.528.2 1.096.36 1.704.16.592.336 1.184.528 1.776.192.592.376 1.152.552 1.68a24.988 24.988 0 0 0 1.344 3.024c.544.992 1.048 1.8 1.512 2.424.176.256.36.504.552.744.192.24.392.464.6.672l-1.2 1.728c-.32-.08-.728-.152-1.224-.216a73.319 73.319 0 0 0-3.288-.36 88.346 88.346 0 0 1-1.536-.144l.168-1.992c.432.032.888.072 1.368.12.48.032.936.072 1.368.12.432.032.784.064 1.056.096a39.326 39.326 0 0 1-1.032-1.704 46.235 46.235 0 0 1-1.032-1.992 23.737 23.737 0 0 1-.888-2.112 79.46 79.46 0 0 1-.672-1.824c-.176-.544-.328-1.008-.456-1.392Zm-8.76 1.536c1.408.16 2.752.272 4.032.336 1.28.064 2.488.08 3.624.048a41.702 41.702 0 0 0 3.096-.192c.672-.08 1.36-.176 2.064-.288.704-.128 1.4-.272 2.088-.432.704-.16 1.368-.344 1.992-.552l.288 2.4a43.62 43.62 0 0 1-1.8.432c-.64.128-1.296.248-1.968.36-.672.096-1.312.184-1.92.264-1.552.176-3.28.272-5.184.288a73.567 73.567 0 0 1-6.264-.24l-.048-2.424Zm4.2 7.872a9.328 9.328 0 0 0-.864 1.68 4.74 4.74 0 0 0-.288 1.632c0 1.072.464 1.856 1.392 2.352.944.496 2.28.752 4.008.768a29.026 29.026 0 0 0 6.288-.576l-.12 2.4a39.26 39.26 0 0 1-2.664.36c-1.04.128-2.256.184-3.648.168-1.568 0-2.928-.2-4.08-.6-1.152-.384-2.04-.952-2.664-1.704-.624-.768-.936-1.704-.936-2.808 0-.704.104-1.392.312-2.064.224-.672.52-1.384.888-2.136l2.376.528Zm18.36-7.776c.48.048.984.088 1.512.12a52.4 52.4 0 0 0 1.536.024c.928 0 1.872-.04 2.832-.12a33.71 33.71 0 0 0 2.88-.408c.96-.192 1.872-.424 2.736-.696l.072 2.208c-.736.208-1.576.4-2.52.576a39.61 39.61 0 0 1-2.952.432c-1.024.112-2.04.168-3.048.168-.448 0-.92-.008-1.416-.024l-1.464-.048-.168-2.232Zm8.856-3.792c-.096.4-.224.904-.384 1.512a43.496 43.496 0 0 1-.504 1.92c-.176.672-.36 1.32-.552 1.944a41.062 41.062 0 0 1-1.44 3.672 51.037 51.037 0 0 1-1.872 3.744 26.965 26.965 0 0 1-2.04 3.192l-2.304-1.176a24.949 24.949 0 0 0 1.608-2.184 35.918 35.918 0 0 0 1.488-2.52c.48-.88.912-1.728 1.296-2.544.384-.832.696-1.592.936-2.28.272-.8.52-1.704.744-2.712a15.74 15.74 0 0 0 .384-2.832l2.64.264Zm5.64 7.44a41.819 41.819 0 0 0 0 2.808c.016.368.032.848.048 1.44.032.576.064 1.192.096 1.848.032.656.056 1.28.072 1.872.032.592.048 1.072.048 1.44a3.81 3.81 0 0 1-.456 1.848c-.288.56-.752 1.008-1.392 1.344-.64.336-1.488.504-2.544.504-.928 0-1.776-.136-2.544-.408-.752-.272-1.36-.68-1.824-1.224-.448-.544-.672-1.232-.672-2.064 0-.752.208-1.416.624-1.992.432-.576 1.024-1.024 1.776-1.344.752-.336 1.624-.504 2.616-.504 1.376 0 2.64.2 3.792.6 1.152.384 2.184.872 3.096 1.464.928.576 1.728 1.16 2.4 1.752l-1.272 2.04a35.912 35.912 0 0 0-1.536-1.296 12.384 12.384 0 0 0-1.872-1.272c-.672-.4-1.408-.728-2.208-.984a8.07 8.07 0 0 0-2.52-.384c-.8 0-1.448.16-1.944.48-.48.32-.72.728-.72 1.224 0 .512.208.928.624 1.248.432.32 1.056.48 1.872.48.608 0 1.088-.096 1.44-.288.368-.208.624-.488.768-.84a3.08 3.08 0 0 0 .216-1.176c0-.416-.016-.976-.048-1.68a63.595 63.595 0 0 0-.096-2.28c-.032-.816-.072-1.632-.12-2.448-.032-.832-.056-1.568-.072-2.208h2.352Zm4.512.912a15.65 15.65 0 0 0-1.68-1.176 33.33 33.33 0 0 0-2.064-1.224c-.704-.4-1.328-.72-1.872-.96l1.224-1.848a40.194 40.194 0 0 1 3.096 1.56 25.14 25.14 0 0 1 1.512.912c.464.288.848.536 1.152.744l-1.368 1.992Zm4.944-9.288h2.04v5.304c0 .336.072.552.216.648.144.08.464.12.96.12h3.168c.256 0 .448-.048.576-.144.144-.096.24-.296.288-.6.064-.304.112-.768.144-1.392.224.144.512.296.864.456.368.144.696.248.984.312-.08.848-.216 1.512-.408 1.992-.176.464-.44.792-.792.984-.352.176-.84.264-1.464.264H545.475c-.784 0-1.4-.072-1.848-.216-.432-.16-.728-.432-.888-.816-.16-.384-.24-.912-.24-1.584v-5.328Zm6.96.696 1.464 1.512c-.656.288-1.392.568-2.208.84-.816.256-1.648.496-2.496.72-.848.208-1.672.392-2.472.552a2.968 2.968 0 0 0-.24-.768 4.617 4.617 0 0 0-.36-.744c.752-.192 1.512-.4 2.28-.624a33.321 33.321 0 0 0 2.232-.72 15.57 15.57 0 0 0 1.8-.768Zm-5.952 7.2 1.968.432a19.41 19.41 0 0 1-1.128 3.048c-.464.976-.984 1.808-1.56 2.496a3.559 3.559 0 0 0-.48-.384c-.192-.16-.4-.312-.624-.456a4.656 4.656 0 0 0-.552-.336c.544-.608 1.016-1.336 1.416-2.184.4-.848.72-1.72.96-2.616Zm.336 1.896h7.104v1.824h-8.016l.912-1.824Zm-2.328 4.008h9.984v1.896h-9.984v-1.896Zm4.272-3.288h2.064v3.096c0 .64-.056 1.336-.168 2.088a8.482 8.482 0 0 1-.696 2.256c-.336.752-.848 1.488-1.536 2.208-.688.736-1.6 1.408-2.736 2.016a8.012 8.012 0 0 0-.672-.744 5.032 5.032 0 0 0-.792-.696c1.04-.496 1.864-1.056 2.472-1.68.608-.624 1.056-1.256 1.344-1.896a6.558 6.558 0 0 0 .576-1.896c.096-.624.144-1.184.144-1.68V139.4Zm.216 6.624 1.368-1.296c.4.32.824.688 1.272 1.104.464.4.896.8 1.296 1.2.4.384.728.728.984 1.032l-1.416 1.488c-.24-.32-.56-.68-.96-1.08-.4-.416-.824-.84-1.272-1.272a20.884 20.884 0 0 0-1.272-1.176Zm6.12-16.536h9.36v1.8h-9.36v-1.8Zm8.64 0h.456l.408-.12 1.368.888a15.12 15.12 0 0 1-1.536 1.944c-.592.64-1.224 1.24-1.896 1.8a17.18 17.18 0 0 1-2.016 1.416 6.445 6.445 0 0 0-.6-.72 9.74 9.74 0 0 0-.672-.696 13.127 13.127 0 0 0 1.752-1.2 14.231 14.231 0 0 0 1.608-1.464c.48-.512.856-1 1.128-1.464v-.384Zm-7.656 4.272 1.32-1.368c.72.304 1.472.656 2.256 1.056.8.4 1.56.816 2.28 1.248.72.432 1.312.832 1.776 1.2l-1.416 1.536c-.432-.368-1-.768-1.704-1.2a31.658 31.658 0 0 0-2.232-1.32c-.8-.432-1.56-.816-2.28-1.152Zm-1.368 3.408h10.416v1.896h-10.416v-1.896Zm9.696 0h.288l.336-.072 1.392.36a49.78 49.78 0 0 1-.768 2.352c-.288.8-.576 1.472-.864 2.016l-1.632-.48c.224-.496.448-1.104.672-1.824.24-.72.432-1.4.576-2.04v-.312Zm-5.064.552h2.016v11.832l-2.016-.936V137.72Zm.792 5.064h5.4v1.872h-5.4v-1.872Zm-2.952 1.056c.288 1.072.656 1.944 1.104 2.616.448.656.952 1.16 1.512 1.512.56.352 1.152.592 1.776.72.64.128 1.304.192 1.992.192h2.04c.416-.016.728-.024.936-.024a7.212 7.212 0 0 0-.36.912 9.521 9.521 0 0 0-.24.984h-2.52c-.864 0-1.68-.088-2.448-.264a5.998 5.998 0 0 1-2.112-.96c-.656-.448-1.24-1.088-1.752-1.92-.512-.848-.952-1.928-1.32-3.24l1.392-.528Zm-1.488-3.36 2.04.072c-.096 2.336-.36 4.384-.792 6.144-.416 1.744-1.136 3.216-2.16 4.416a4.155 4.155 0 0 0-.504-.408 22.76 22.76 0 0 0-.648-.48 22.496 22.496 0 0 0-.576-.36 6.785 6.785 0 0 0 1.584-2.424c.368-.944.624-2 .768-3.168a33.89 33.89 0 0 0 .288-3.792Zm19.968-.12h8.16v7.272h-8.16v-1.896h6.024v-3.504h-6.024v-1.872Zm-.984 0h2.088v8.664h-2.088v-8.664Zm-4.176-7.152h6.384v1.584h-6.384v-1.584Zm11.112 0h6.456v1.584h-6.456v-1.584Zm5.496-3.48h2.28v18.432c0 .688-.088 1.216-.264 1.584-.16.368-.464.656-.912.864-.448.192-1.04.304-1.776.336-.736.048-1.64.072-2.712.072a4.47 4.47 0 0 0-.192-.768 10.48 10.48 0 0 0-.288-.84 5.11 5.11 0 0 0-.312-.72c.496.032.984.048 1.464.048h2.112c.224-.016.376-.064.456-.144.096-.096.144-.248.144-.456v-18.408Zm-16.416 0h7.632v8.688h-7.632v-1.776h5.496v-5.136h-5.496v-1.776Zm17.616 0v1.752h-5.88v5.184h5.88v1.752h-8.04v-8.688h8.04Zm-18.888 0h2.232v21.312h-2.232v-21.312Zm34.92 4.032a16.36 16.36 0 0 0-1.056-1.056c-.416-.4-.84-.792-1.272-1.176a14.247 14.247 0 0 0-1.152-.936l1.752-1.248c.272.208.624.496 1.056.864.448.368.896.752 1.344 1.152.448.4.808.752 1.08 1.056l-1.752 1.344Zm-7.152-2.304c.08.144.168.328.264.552.112.208.224.424.336.648.112.208.208.384.288.528.48.896.984 1.904 1.512 3.024a94.38 94.38 0 0 1 1.512 3.264c.304.704.624 1.504.96 2.4.352.896.696 1.824 1.032 2.784.336.944.648 1.856.936 2.736.304.88.56 1.656.768 2.328l-2.616.672a77.942 77.942 0 0 0-1.968-6.648 41.497 41.497 0 0 0-1.272-3.24c-.352-.8-.696-1.576-1.032-2.328a69.435 69.435 0 0 0-.984-2.112 19.525 19.525 0 0 0-.912-1.752c-.16-.256-.36-.568-.6-.936-.24-.368-.464-.68-.672-.936l2.448-.984Zm-4.656 7.032c.4-.096.808-.216 1.224-.36.416-.144.728-.264.936-.36.752-.288 1.56-.624 2.424-1.008.88-.4 1.776-.8 2.688-1.2.928-.416 1.856-.8 2.784-1.152a22.974 22.974 0 0 1 2.736-.84 10.417 10.417 0 0 1 2.52-.336c1.168 0 2.168.208 3 .624.832.416 1.472.984 1.92 1.704.464.72.696 1.528.696 2.424 0 1.008-.224 1.896-.672 2.664-.432.768-1.072 1.376-1.92 1.824-.848.432-1.888.648-3.12.648a9.264 9.264 0 0 1-1.992-.216 15.752 15.752 0 0 1-1.656-.456l.072-2.4c.496.224 1.032.416 1.608.576.592.16 1.176.24 1.752.24.752 0 1.384-.128 1.896-.384s.896-.608 1.152-1.056a2.9 2.9 0 0 0 .408-1.536c0-.448-.12-.856-.36-1.224-.24-.384-.6-.688-1.08-.912-.48-.24-1.072-.36-1.776-.36-.8 0-1.696.144-2.688.432-.992.288-2.032.664-3.12 1.128a56.465 56.465 0 0 0-3.168 1.44c-1.04.512-2.008.992-2.904 1.44-.88.448-1.616.808-2.208 1.08l-1.152-2.424Zm24.408-8.088h20.784v2.304h-20.784V130.4Zm11.688 7.44 1.728-1.464a80.3 80.3 0 0 1 2.16 1.512 56.24 56.24 0 0 1 2.28 1.704 41.426 41.426 0 0 1 2.088 1.704c.656.56 1.2 1.072 1.632 1.536l-1.896 1.752c-.4-.48-.912-1-1.536-1.56a49.325 49.325 0 0 0-2.04-1.776c-.72-.608-1.464-1.2-2.232-1.776a51.412 51.412 0 0 0-2.184-1.632Zm-.672-6.624 2.496.912a32.19 32.19 0 0 1-3.264 4.848 31.614 31.614 0 0 1-4.272 4.392 28.095 28.095 0 0 1-5.088 3.432 5.507 5.507 0 0 0-.456-.648 30.128 30.128 0 0 0-.576-.744 3.587 3.587 0 0 0-.528-.624 23.751 23.751 0 0 0 3.72-2.256 28.982 28.982 0 0 0 3.264-2.808 24.954 24.954 0 0 0 2.712-3.192 21.39 21.39 0 0 0 1.992-3.312Zm-1.872 5.232 2.472-2.448v16.968h-2.472v-14.52Zm23.976-7.728h2.424v4.104h-2.424v-4.104Zm-8.784 2.376h20.232v5.4h-2.4v-3.264h-15.528v3.264h-2.304v-5.4Zm7.872 2.976 2.376.504c-.448.96-.928 1.952-1.44 2.976a190.155 190.155 0 0 1-1.584 3.096 97.27 97.27 0 0 1-1.56 2.952c-.512.928-.976 1.76-1.392 2.496l-2.376-.624a68.15 68.15 0 0 0 1.44-2.496 80.85 80.85 0 0 0 1.584-2.928c.544-1.04 1.072-2.072 1.584-3.096a73.17 73.17 0 0 0 1.368-2.88Zm6.24 5.208 2.52.36c-.496 1.856-1.192 3.44-2.088 4.752a12.661 12.661 0 0 1-3.264 3.264c-1.264.864-2.736 1.56-4.416 2.088-1.68.544-3.552.976-5.616 1.296a3.265 3.265 0 0 0-.336-.672c-.16-.24-.328-.488-.504-.744a4.545 4.545 0 0 0-.48-.648c2.688-.304 5-.8 6.936-1.488 1.936-.704 3.504-1.712 4.704-3.024 1.216-1.312 2.064-3.04 2.544-5.184Zm-14.712-1.464h21.36v2.16h-21.36v-2.16Zm4.056 6.96 1.608-1.608c1.216.336 2.496.744 3.84 1.224a71.77 71.77 0 0 1 4.032 1.512 59.598 59.598 0 0 1 3.744 1.632c1.168.56 2.168 1.104 3 1.632l-1.752 1.848a32.298 32.298 0 0 0-2.856-1.632 53.475 53.475 0 0 0-3.672-1.704 64.097 64.097 0 0 0-4.032-1.608 65.58 65.58 0 0 0-3.912-1.296Zm29.496-14.808c-.08.368-.152.704-.216 1.008-.048.304-.096.6-.144.888-.048.4-.12.928-.216 1.584-.08.64-.176 1.36-.288 2.16-.112.8-.216 1.624-.312 2.472-.096.848-.192 1.68-.288 2.496-.096.8-.168 1.536-.216 2.208a22.918 22.918 0 0 0-.072 1.608c0 1.088.312 1.936.936 2.544.64.608 1.608.912 2.904.912 1.168 0 2.168-.16 3-.48.848-.32 1.496-.768 1.944-1.344.448-.576.672-1.24.672-1.992 0-.816-.216-1.632-.648-2.448-.416-.816-1.048-1.6-1.896-2.352l2.664-.552c.8.944 1.4 1.864 1.8 2.76.4.88.6 1.84.6 2.88 0 1.184-.344 2.224-1.032 3.12-.672.896-1.616 1.592-2.832 2.088-1.216.496-2.656.744-4.32.744-1.168 0-2.216-.184-3.144-.552a4.697 4.697 0 0 1-2.208-1.752c-.528-.8-.792-1.864-.792-3.192 0-.496.04-1.16.12-1.992.08-.832.176-1.744.288-2.736.128-.992.256-2 .384-3.024.144-1.04.264-2.016.36-2.928.112-.928.192-1.72.24-2.376.048-.48.072-.856.072-1.128 0-.272-.016-.528-.048-.768l2.688.144Zm-8.064 3.096c.688.224 1.448.408 2.28.552.832.144 1.68.256 2.544.336a32.93 32.93 0 0 0 2.424.096c.928 0 1.8-.024 2.616-.072a33.404 33.404 0 0 0 2.208-.24l-.072 2.256c-.752.064-1.496.12-2.232.168-.736.048-1.6.072-2.592.072-.736 0-1.536-.04-2.4-.12a34.606 34.606 0 0 1-2.544-.336 45.36 45.36 0 0 1-2.352-.504l.12-2.208Zm-.552 5.976c.816.272 1.656.488 2.52.648.864.16 1.72.272 2.568.336.864.048 1.68.072 2.448.072.784 0 1.592-.024 2.424-.072.848-.048 1.68-.12 2.496-.216l-.072 2.256c-.736.08-1.472.144-2.208.192a52.52 52.52 0 0 1-2.28.048c-1.44 0-2.864-.08-4.272-.24-1.408-.176-2.656-.416-3.744-.72l.12-2.304Zm27.354 11.424a33.2 33.2 0 0 0-1.656-1.872c-.592-.64-1.2-1.256-1.824-1.848a29.599 29.599 0 0 0-1.752-1.584l1.968-1.728a26.036 26.036 0 0 1 1.824 1.632c.64.608 1.264 1.24 1.872 1.896.624.64 1.16 1.232 1.608 1.776l-2.04 1.728Zm31.632-20.664c-.016.224-.04.472-.072.744-.016.256-.032.552-.048.888-.016.272-.032.664-.048 1.176 0 .512-.008 1.08-.024 1.704v3.528c0 .736.016 1.536.048 2.4l.144 2.52c.048.832.088 1.6.12 2.304.048.704.072 1.28.072 1.728 0 .608-.152 1.176-.456 1.704-.304.528-.784.952-1.44 1.272-.656.336-1.512.504-2.568.504-1.808 0-3.184-.328-4.128-.984-.944-.64-1.416-1.56-1.416-2.76 0-.768.224-1.44.672-2.016.464-.576 1.12-1.024 1.968-1.344.864-.336 1.888-.504 3.072-.504 1.28 0 2.48.144 3.6.432 1.136.288 2.168.656 3.096 1.104.944.448 1.776.92 2.496 1.416.72.48 1.328.912 1.824 1.296l-1.392 2.136a25.372 25.372 0 0 0-1.896-1.56 15.893 15.893 0 0 0-2.328-1.44 13.773 13.773 0 0 0-2.712-1.032 11.417 11.417 0 0 0-3-.384c-1.024 0-1.808.176-2.352.528-.528.336-.792.744-.792 1.224 0 .336.104.64.312.912.224.256.552.464.984.624.432.144.992.216 1.68.216.448 0 .848-.056 1.2-.168a1.66 1.66 0 0 0 .864-.576c.208-.288.312-.688.312-1.2 0-.416-.016-.976-.048-1.68s-.064-1.464-.096-2.28c-.016-.832-.04-1.632-.072-2.4a50.086 50.086 0 0 1-.048-1.992v-1.728c.016-.608.024-1.2.024-1.776v-3.024c0-.208-.008-.464-.024-.768a3.677 3.677 0 0 0-.096-.744h2.568Zm-9.504 2.448c.4.064.864.128 1.392.192l1.656.192c.576.048 1.12.088 1.632.12.512.016.96.024 1.344.024 1.584 0 3.176-.056 4.776-.168 1.6-.112 3.216-.304 4.848-.576v2.208c-.864.096-1.824.192-2.88.288-1.056.096-2.16.176-3.312.24a60.576 60.576 0 0 1-3.408.096c-.528 0-1.168-.024-1.92-.072-.736-.048-1.472-.104-2.208-.168a57.387 57.387 0 0 1-1.896-.192l-.024-2.184Zm-.12 5.136c.4.064.864.128 1.392.192a48.76 48.76 0 0 0 1.632.12c.56.032 1.088.064 1.584.096.512.016.952.024 1.32.024 1.296 0 2.512-.024 3.648-.072a94.565 94.565 0 0 0 3.312-.24c1.072-.112 2.112-.232 3.12-.36l-.024 2.232c-.816.112-1.616.208-2.4.288-.784.064-1.576.12-2.376.168-.784.048-1.616.08-2.496.096-.864.016-1.808.024-2.832.024-.496 0-1.096-.008-1.8-.024-.704-.032-1.416-.072-2.136-.12a41.28 41.28 0 0 1-1.92-.168l-.024-2.256Zm34.248-7.248c0 .112-.016.288-.048.528l-.048.72a7.744 7.744 0 0 0-.024.504c-.016.32-.032.744-.048 1.272V136.856c.016.64.024 1.248.024 1.824.016.576.024 1.056.024 1.44l-2.328-.96v-2.712c0-.592-.008-1.184-.024-1.776a49.495 49.495 0 0 0-.072-2.76c-.032-.4-.064-.76-.096-1.08a5.515 5.515 0 0 0-.096-.696h2.736Zm-13.08 3.192c.672 0 1.44-.008 2.304-.024.864-.032 1.768-.056 2.712-.072a174.493 174.493 0 0 1 5.592-.096c.864-.016 1.64-.024 2.328-.024h2.088c.72-.016 1.408-.024 2.064-.024.656 0 1.248.008 1.776.024h1.272l-.024 2.256c-.704-.032-1.648-.064-2.832-.096a165.472 165.472 0 0 0-4.392-.048c-1.072 0-2.168.016-3.288.048-1.12.016-2.24.048-3.36.096-1.12.032-2.208.072-3.264.12-1.04.048-2.016.104-2.928.168l-.048-2.328Zm12.768 7.032c0 1.168-.16 2.144-.48 2.928-.304.784-.752 1.376-1.344 1.776-.576.384-1.272.576-2.088.576-.496 0-.984-.088-1.464-.264a4.643 4.643 0 0 1-1.296-.816 4.086 4.086 0 0 1-.936-1.296c-.224-.528-.336-1.136-.336-1.824 0-.848.2-1.592.6-2.232.416-.64.96-1.144 1.632-1.512a4.708 4.708 0 0 1 2.256-.552c.976 0 1.792.224 2.448.672a3.98 3.98 0 0 1 1.512 1.8c.336.752.504 1.608.504 2.568 0 .8-.12 1.624-.36 2.472-.24.832-.64 1.64-1.2 2.424-.56.784-1.32 1.496-2.28 2.136-.944.64-2.128 1.168-3.552 1.584l-2.016-1.992a16.913 16.913 0 0 0 2.88-.912c.864-.368 1.608-.824 2.232-1.368a5.66 5.66 0 0 0 1.464-1.968c.336-.768.504-1.664.504-2.688 0-.944-.216-1.632-.648-2.064a2.014 2.014 0 0 0-1.536-.672c-.368 0-.72.088-1.056.264a2.14 2.14 0 0 0-.792.768c-.208.336-.312.752-.312 1.248 0 .656.216 1.176.648 1.56.448.384.952.576 1.512.576.464 0 .856-.128 1.176-.384.336-.272.568-.688.696-1.248.128-.576.096-1.312-.096-2.208l1.728.648Zm3.552-10.8c.288.416.592.888.912 1.416.32.528.592 1.008.816 1.44l-1.632.72c-.256-.48-.528-.976-.816-1.488a13.473 13.473 0 0 0-.912-1.416l1.632-.672Zm3.048-.648c.288.416.592.88.912 1.392.32.512.6.992.84 1.44l-1.656.72c-.24-.496-.512-.992-.816-1.488a17.534 17.534 0 0 0-.912-1.392l1.632-.672Zm12.576 5.664c.688.064 1.368.12 2.04.168a48.768 48.768 0 0 0 6.432-.144 39.137 39.137 0 0 0 4.008-.552v2.328c-1.28.208-2.64.36-4.08.456a76.233 76.233 0 0 1-4.272.168c-.704 0-1.392-.016-2.064-.048-.656-.032-1.336-.072-2.04-.12l-.024-2.256Zm8.712-4.2c-.032.24-.064.488-.096.744l-.048.744c-.016.272-.032.632-.048 1.08 0 .448-.008.936-.024 1.464v1.536c0 1.008.016 1.976.048 2.904.048.928.096 1.808.144 2.64.048.832.088 1.616.12 2.352.032.72.048 1.376.048 1.968 0 .544-.072 1.064-.216 1.56a3.433 3.433 0 0 1-.72 1.32c-.336.384-.792.68-1.368.888-.56.224-1.256.336-2.088.336-1.632 0-2.896-.32-3.792-.96-.896-.64-1.344-1.536-1.344-2.688 0-.736.2-1.392.6-1.968.416-.576 1-1.032 1.752-1.368.768-.336 1.688-.504 2.76-.504 1.072 0 2.048.12 2.928.36.88.224 1.696.536 2.448.936.752.384 1.424.808 2.016 1.272.608.464 1.16.912 1.656 1.344l-1.296 2.016a22.062 22.062 0 0 0-2.592-2.16 11.486 11.486 0 0 0-2.592-1.416 7.672 7.672 0 0 0-2.76-.504c-.816 0-1.48.16-1.992.48-.496.32-.744.736-.744 1.248 0 .56.248.984.744 1.272.496.272 1.128.408 1.896.408.592 0 1.056-.096 1.392-.288.336-.192.576-.472.72-.84.144-.368.216-.8.216-1.296 0-.416-.016-.976-.048-1.68-.032-.72-.072-1.504-.12-2.352-.048-.864-.088-1.744-.12-2.64a74.717 74.717 0 0 1-.048-2.616v-4.056c0-.208-.016-.456-.048-.744a5.107 5.107 0 0 0-.096-.792h2.712Zm-11.784.216a6.281 6.281 0 0 0-.168.552l-.192.72a67.828 67.828 0 0 0-.408 2.064c-.096.592-.2 1.248-.312 1.968a374.22 374.22 0 0 0-.288 2.16c-.08.736-.152 1.44-.216 2.112a25.278 25.278 0 0 0-.072 1.776 17.219 17.219 0 0 0 .192 2.568c.112-.336.24-.68.384-1.032.144-.368.288-.728.432-1.08.16-.352.304-.672.432-.96l1.2.936-.672 1.968c-.24.688-.456 1.344-.648 1.968a34.627 34.627 0 0 0-.408 1.56c-.032.16-.064.352-.096.576a7.063 7.063 0 0 0-.024.528c.016.112.024.248.024.408.016.176.032.336.048.48l-2.136.168c-.256-.848-.48-1.92-.672-3.216-.176-1.312-.264-2.784-.264-4.416 0-.896.04-1.824.12-2.784.08-.976.176-1.928.288-2.856.128-.928.248-1.776.36-2.544a97.01 97.01 0 0 1 .288-1.872c.032-.304.064-.632.096-.984.048-.352.08-.688.096-1.008l2.616.24Zm18.6 7.8h22.08v2.496h-22.08v-2.496Zm28.656-2.904h16.896v1.824h-16.896v-1.824Zm.264 6.984h13.512v1.824h-13.512v-1.824Zm3.336-8.856h2.16v5.832h5.208v-5.832h2.232v7.584h-9.6v-7.584Zm9.576 8.856h.456l.408-.096 1.416.744a10.99 10.99 0 0 1-2.544 3.288 15.332 15.332 0 0 1-3.576 2.28 22.278 22.278 0 0 1-4.296 1.488 44.038 44.038 0 0 1-4.8.864 4.697 4.697 0 0 0-.384-.984 7.164 7.164 0 0 0-.552-.912 38.556 38.556 0 0 0 4.416-.672 23.982 23.982 0 0 0 4.008-1.2c1.248-.512 2.336-1.136 3.264-1.872.944-.736 1.672-1.608 2.184-2.616v-.312Zm-8.328 1.488c.736.992 1.736 1.84 3 2.544s2.712 1.272 4.344 1.704c1.648.432 3.416.736 5.304.912a7.83 7.83 0 0 0-.48.6c-.176.24-.336.472-.48.696a7.11 7.11 0 0 0-.36.672c-1.968-.256-3.792-.656-5.472-1.2-1.68-.528-3.184-1.224-4.512-2.088-1.328-.864-2.432-1.904-3.312-3.12l1.968-.72Zm1.032-15.216h2.352v3.432h-2.352v-3.432Zm-7.632 2.28h18.816v2.04h-18.816v-2.04Zm-1.128 0h2.184v6.864c0 .944-.032 1.984-.096 3.12a33.198 33.198 0 0 1-.336 3.48 22.488 22.488 0 0 1-.744 3.456 13.916 13.916 0 0 1-1.272 3.072 4.91 4.91 0 0 0-.552-.456c-.224-.16-.456-.32-.696-.48a3.75 3.75 0 0 0-.624-.312c.496-.864.888-1.8 1.176-2.808a20.02 20.02 0 0 0 .624-3.096c.144-1.072.232-2.12.264-3.144a60.81 60.81 0 0 0 .072-2.832v-6.864Zm31.344-1.344a3.903 3.903 0 0 0-.072.552c-.016.208-.04.432-.072.672a53.12 53.12 0 0 1-.048.624c-.016.416-.04.912-.072 1.488a97.85 97.85 0 0 1-.072 1.848l-.048 1.992v1.896c0 .624.008 1.32.024 2.088l.048 2.28c.016.736.032 1.424.048 2.064.016.624.024 1.12.024 1.488 0 .848-.104 1.512-.312 1.992-.192.48-.464.816-.816 1.008-.336.192-.744.288-1.224.288-.512 0-1.072-.112-1.68-.336a7.457 7.457 0 0 1-1.728-.912 5.363 5.363 0 0 1-1.344-1.344c-.352-.512-.528-1.056-.528-1.632 0-.736.28-1.464.84-2.184.576-.736 1.328-1.408 2.256-2.016a14.593 14.593 0 0 1 2.952-1.488c1.088-.4 2.2-.704 3.336-.912 1.136-.208 2.168-.312 3.096-.312 1.2 0 2.272.2 3.216.6.944.4 1.688.976 2.232 1.728.544.752.816 1.64.816 2.664 0 .944-.192 1.792-.576 2.544-.368.752-.936 1.392-1.704 1.92-.768.528-1.736.936-2.904 1.224-.544.112-1.08.192-1.608.24-.512.048-.992.088-1.44.12l-.864-2.448c.48.016.968.016 1.464 0a7.977 7.977 0 0 0 1.416-.168 7.768 7.768 0 0 0 1.872-.6c.576-.288 1.032-.664 1.368-1.128.352-.48.528-1.056.528-1.728 0-.624-.168-1.144-.504-1.56-.336-.432-.792-.76-1.368-.984-.576-.224-1.232-.336-1.968-.336-1.04 0-2.072.112-3.096.336a18.646 18.646 0 0 0-3.024.888c-.736.288-1.408.632-2.016 1.032-.608.4-1.088.816-1.44 1.248-.352.416-.528.816-.528 1.2 0 .24.08.472.24.696.16.208.352.392.576.552.24.16.488.288.744.384.256.096.488.144.696.144.24 0 .432-.08.576-.24.16-.176.24-.464.24-.864 0-.448-.016-1.08-.048-1.896a841.68 841.68 0 0 1-.048-2.688c-.016-.992-.024-1.944-.024-2.856v-2.136c.016-.752.024-1.472.024-2.16a79.49 79.49 0 0 0 .024-1.824c.016-.528.024-.912.024-1.152 0-.176-.008-.384-.024-.624l-.048-.696a3.99 3.99 0 0 0-.072-.576h2.64Zm7.176 2.64c.592.288 1.248.648 1.968 1.08.736.416 1.432.84 2.088 1.272.672.416 1.208.784 1.608 1.104l-1.176 1.92a8.841 8.841 0 0 0-1.152-.888 35.86 35.86 0 0 0-1.512-.984 33.502 33.502 0 0 0-1.56-.936 17.88 17.88 0 0 0-1.32-.744l1.056-1.824Zm-14.544 1.512c.688.08 1.28.136 1.776.168.496.016.968.024 1.416.024.592 0 1.264-.032 2.016-.096a58.114 58.114 0 0 0 2.28-.24 32.355 32.355 0 0 0 2.28-.36c.752-.16 1.432-.328 2.04-.504l.048 2.352c-.64.144-1.352.28-2.136.408-.768.128-1.552.248-2.352.36-.784.096-1.536.176-2.256.24-.704.048-1.328.072-1.872.072-.72 0-1.328-.008-1.824-.024a88.23 88.23 0 0 1-1.344-.096l-.072-2.304Zm27.264 5.16h11.88v1.608h-11.88v-1.608Zm3 2.856h5.976v1.32h-5.976v-1.32Zm0 2.616h5.976v1.344h-5.976v-1.344Zm5.184-4.68h2.064v10.632h-2.064v-10.632Zm-6.576.024h2.016v8.256h-2.016v-8.256Zm-1.896 7.776c.816-.048 1.744-.096 2.784-.144 1.04-.064 2.152-.128 3.336-.192l3.552-.24v1.656c-1.728.128-3.432.248-5.112.36-1.68.112-3.168.216-4.464.312l-.096-1.752Zm-2.568-14.64h6.432v1.512h-6.432v-1.512Zm11.112 0h6.456v1.512h-6.456v-1.512Zm5.568-3.216h2.256v18.528c0 .608-.072 1.088-.216 1.44-.144.368-.408.648-.792.84-.384.192-.88.312-1.488.36-.608.048-1.36.072-2.256.072a3.568 3.568 0 0 0-.144-.72 9.647 9.647 0 0 0-.24-.84 3.143 3.143 0 0 0-.288-.696c.576.016 1.128.024 1.656.024h1.056c.176-.016.296-.056.36-.12.064-.08.096-.208.096-.384v-18.504Zm-16.464 0h7.632v8.064h-7.632v-1.656h5.496v-4.752h-5.496v-1.656Zm17.616 0v1.656h-5.928v4.8h5.928v1.632h-8.088v-8.088h8.088Zm-18.984 0h2.232v21.312h-2.232v-21.312Zm32.736.456c-.048.24-.104.512-.168.816-.064.304-.12.584-.168.84l-.24 1.2c-.08.464-.168.952-.264 1.464-.096.496-.2.976-.312 1.44a75.028 75.028 0 0 1-1.44 5.16 46.248 46.248 0 0 1-1.056 3.048 41.66 41.66 0 0 1-1.272 3.024 24.532 24.532 0 0 1-1.464 2.736l-2.472-.984c.56-.752 1.08-1.584 1.56-2.496.48-.928.92-1.88 1.32-2.856a52.057 52.057 0 0 0 1.896-5.592c.24-.832.424-1.544.552-2.136.224-1.024.4-2.048.528-3.072a18.38 18.38 0 0 0 .192-2.88l2.808.288Zm8.28 2.424c.368.496.76 1.12 1.176 1.872a41.8 41.8 0 0 1 1.224 2.4 39.26 39.26 0 0 1 1.104 2.448c.336.784.6 1.456.792 2.016l-2.376 1.104c-.16-.64-.392-1.36-.696-2.16a28.683 28.683 0 0 0-1.008-2.472 23.105 23.105 0 0 0-1.2-2.352c-.416-.752-.832-1.384-1.248-1.896l2.232-.96Zm-17.4 2.688a28.859 28.859 0 0 0 2.328 0c.384-.016.856-.04 1.416-.072.56-.048 1.16-.096 1.8-.144.656-.064 1.304-.12 1.944-.168a47.224 47.224 0 0 1 1.8-.144c.544-.032.984-.048 1.32-.048.784 0 1.48.128 2.088.384.608.24 1.088.672 1.44 1.296.368.624.552 1.496.552 2.616 0 .944-.04 1.968-.12 3.072a24.4 24.4 0 0 1-.432 3.144c-.192.992-.464 1.824-.816 2.496-.384.832-.888 1.384-1.512 1.656-.608.288-1.336.432-2.184.432-.448 0-.936-.032-1.464-.096a12.441 12.441 0 0 1-1.392-.24l-.384-2.496c.32.08.664.16 1.032.24.384.08.744.144 1.08.192.336.032.608.048.816.048.432 0 .808-.072 1.128-.216.336-.16.616-.472.84-.936.24-.496.44-1.136.6-1.92.16-.784.28-1.624.36-2.52.08-.896.12-1.76.12-2.592 0-.704-.104-1.224-.312-1.56a1.407 1.407 0 0 0-.84-.672c-.368-.128-.8-.192-1.296-.192-.384 0-.912.032-1.584.096-.656.048-1.36.112-2.112.192s-1.448.16-2.088.24c-.64.064-1.144.12-1.512.168-.304.032-.696.08-1.176.144-.464.064-.864.128-1.2.192l-.24-2.592Zm40.392-4.944c-.016.128-.032.304-.048.528l-.048.696c-.016.24-.024.464-.024.672-.016.496-.024 1-.024 1.512s-.008 1.008-.024 1.488c0 .464-.008.904-.024 1.32-.016.64-.04 1.336-.072 2.088a69.563 69.563 0 0 1-.12 2.112 14.355 14.355 0 0 1-.192 1.608c-.112.576-.32.968-.624 1.176-.304.192-.744.288-1.32.288-.288 0-.656-.016-1.104-.048a303.47 303.47 0 0 1-1.272-.144c-.416-.064-.744-.12-.984-.168l.048-2.088c.4.08.816.152 1.248.216.448.064.8.096 1.056.096.272 0 .472-.04.6-.12.144-.08.224-.248.24-.504.064-.304.104-.704.12-1.2.032-.496.064-1.032.096-1.608.032-.592.048-1.16.048-1.704.016-.448.024-.904.024-1.368v-2.88a4.95 4.95 0 0 0-.048-.648l-.048-.744a3.99 3.99 0 0 0-.072-.576h2.568Zm-9.48.744c-.032.32-.064.656-.096 1.008-.016.352-.024.744-.024 1.176 0 .464-.008 1.08-.024 1.848 0 .752-.008 1.568-.024 2.448v4.848c0 .672.008 1.192.024 1.56.016.624.056 1.144.12 1.56.064.416.224.744.48.984s.656.416 1.2.528c.56.112 1.32.168 2.28.168.832 0 1.696-.024 2.592-.072a53.216 53.216 0 0 0 2.544-.24c.8-.096 1.472-.192 2.016-.288l-.072 2.568c-.528.064-1.184.12-1.968.168-.784.064-1.608.12-2.472.168-.864.048-1.696.072-2.496.072-1.456 0-2.616-.088-3.48-.264-.864-.176-1.512-.464-1.944-.864-.432-.416-.72-.96-.864-1.632-.144-.672-.232-1.504-.264-2.496 0-.352-.008-.824-.024-1.416V133.4c0-.432-.016-.824-.048-1.176a9.324 9.324 0 0 0-.12-1.128h2.664Zm-7.536 5.592c.352 0 .76-.008 1.224-.024.48-.032.976-.072 1.488-.12s1.248-.12 2.208-.216c.96-.096 2.048-.2 3.264-.312 1.232-.112 2.504-.224 3.816-.336 1.328-.128 2.608-.24 3.84-.336 1.232-.096 2.328-.176 3.288-.24.32-.016.664-.032 1.032-.048.368-.032.712-.064 1.032-.096v2.352a3.366 3.366 0 0 0-.576 0h-.792c-.272 0-.512.008-.72.024-.624 0-1.392.032-2.304.096-.912.064-1.888.144-2.928.24-1.04.08-2.104.176-3.192.288-1.088.096-2.136.2-3.144.312-.992.096-1.896.192-2.712.288a59.153 59.153 0 0 0-2.832.336c-.32.032-.64.072-.96.12l-.768.12-.264-2.448Zm40.2-5.208c-.304.224-.632.48-.984.768-.336.272-.624.512-.864.72-.4.336-.888.736-1.464 1.2-.576.464-1.184.952-1.824 1.464-.624.512-1.232 1.008-1.824 1.488-.592.464-1.096.88-1.512 1.248-.448.384-.752.704-.912.96a.674.674 0 0 0 0 .768c.176.24.496.568.96.984.416.336.904.736 1.464 1.2a90.1 90.1 0 0 1 1.824 1.512c.656.528 1.32 1.08 1.992 1.656.672.576 1.32 1.144 1.944 1.704.624.56 1.184 1.088 1.68 1.584l-2.184 1.992a41.116 41.116 0 0 0-1.824-1.944c-.4-.416-.904-.904-1.512-1.464a82.637 82.637 0 0 0-1.968-1.752c-.688-.608-1.376-1.2-2.064-1.776-.688-.592-1.312-1.12-1.872-1.584-.768-.656-1.264-1.24-1.488-1.752-.224-.512-.192-1.024.096-1.536.304-.512.832-1.08 1.584-1.704.464-.384 1.008-.824 1.632-1.32.624-.512 1.264-1.048 1.92-1.608.672-.56 1.304-1.096 1.896-1.608a29.92 29.92 0 0 0 2.4-2.304c.304-.336.528-.632.672-.888l2.232 1.992Zm17.016-1.176c-.08.288-.168.648-.264 1.08-.08.416-.144.744-.192.984a143.972 143.972 0 0 1-.936 4.44 80.264 80.264 0 0 1-.6 2.472 73.8 73.8 0 0 1-.792 2.76c-.288.992-.608 2-.96 3.024a65.735 65.735 0 0 1-1.032 2.88 27.265 27.265 0 0 1-1.008 2.376l-2.64-.888c.368-.608.744-1.344 1.128-2.208.384-.88.76-1.816 1.128-2.808a60.086 60.086 0 0 0 1.008-3c.32-.992.592-1.904.816-2.736.16-.56.312-1.144.456-1.752.144-.624.28-1.224.408-1.8.128-.576.232-1.112.312-1.608.08-.512.144-.928.192-1.248.064-.4.096-.8.096-1.2a9.97 9.97 0 0 0 0-.984l2.88.216Zm-5.664 3.84c.928 0 1.912-.048 2.952-.144a45.2 45.2 0 0 0 3.168-.408 43.715 43.715 0 0 0 3.144-.624v2.352c-.992.224-2.04.416-3.144.576-1.104.16-2.184.288-3.24.384a38.682 38.682 0 0 1-5.76.024l-.048-2.352c.592.064 1.112.112 1.56.144.448.032.904.048 1.368.048Zm7.56 3.456a38.559 38.559 0 0 1 2.16-.144 38.09 38.09 0 0 1 2.328-.072c.704 0 1.408.016 2.112.048.72.016 1.416.064 2.088.144l-.072 2.304a31.625 31.625 0 0 0-1.968-.192 22.796 22.796 0 0 0-2.112-.096c-.784 0-1.552.024-2.304.072-.736.032-1.48.088-2.232.168V137.6Zm.84 5.928c-.08.368-.152.736-.216 1.104a5.52 5.52 0 0 0-.096.984c0 .272.048.536.144.792.112.24.296.456.552.648.272.192.648.344 1.128.456.496.112 1.128.168 1.896.168.784 0 1.584-.04 2.4-.12a37.605 37.605 0 0 0 2.4-.36l-.072 2.424c-.672.08-1.408.152-2.208.216-.784.08-1.632.12-2.544.12-1.952 0-3.448-.312-4.488-.936-1.024-.624-1.536-1.528-1.536-2.712 0-.512.04-1.016.12-1.512.08-.512.168-1.008.264-1.488l2.256.216Zm5.256-12.504c.208.288.432.632.672 1.032.24.384.472.784.696 1.2.224.4.416.752.576 1.056l-1.584.696a9.914 9.914 0 0 0-.552-1.08c-.224-.4-.456-.8-.696-1.2-.224-.4-.448-.752-.672-1.056l1.56-.648Zm2.736-1.032c.208.304.432.656.672 1.056.256.4.504.8.744 1.2.24.4.432.744.576 1.032l-1.56.696a24.344 24.344 0 0 0-.936-1.728 22.167 22.167 0 0 0-1.032-1.608l1.536-.648Zm15.432 1.992c-.08-.272-.176-.584-.288-.936-.112-.368-.24-.736-.384-1.104l2.592-.312c.08.528.2 1.096.36 1.704.16.592.336 1.184.528 1.776.192.592.376 1.152.552 1.68a24.988 24.988 0 0 0 1.344 3.024c.544.992 1.048 1.8 1.512 2.424.176.256.36.504.552.744.192.24.392.464.6.672l-1.2 1.728c-.32-.08-.728-.152-1.224-.216a73.319 73.319 0 0 0-3.288-.36 88.346 88.346 0 0 1-1.536-.144l.168-1.992c.432.032.888.072 1.368.12.48.032.936.072 1.368.12.432.032.784.064 1.056.096a39.326 39.326 0 0 1-1.032-1.704 46.235 46.235 0 0 1-1.032-1.992 23.737 23.737 0 0 1-.888-2.112 79.46 79.46 0 0 1-.672-1.824c-.176-.544-.328-1.008-.456-1.392Zm-8.76 1.536c1.408.16 2.752.272 4.032.336 1.28.064 2.488.08 3.624.048a41.702 41.702 0 0 0 3.096-.192c.672-.08 1.36-.176 2.064-.288.704-.128 1.4-.272 2.088-.432.704-.16 1.368-.344 1.992-.552l.288 2.4a43.62 43.62 0 0 1-1.8.432c-.64.128-1.296.248-1.968.36-.672.096-1.312.184-1.92.264-1.552.176-3.28.272-5.184.288a73.567 73.567 0 0 1-6.264-.24l-.048-2.424Zm4.2 7.872a9.328 9.328 0 0 0-.864 1.68 4.74 4.74 0 0 0-.288 1.632c0 1.072.464 1.856 1.392 2.352.944.496 2.28.752 4.008.768a29.026 29.026 0 0 0 6.288-.576l-.12 2.4a39.26 39.26 0 0 1-2.664.36c-1.04.128-2.256.184-3.648.168-1.568 0-2.928-.2-4.08-.6-1.152-.384-2.04-.952-2.664-1.704-.624-.768-.936-1.704-.936-2.808 0-.704.104-1.392.312-2.064.224-.672.52-1.384.888-2.136l2.376.528Zm21.909-9.312c-.05.224-.09.496-.12.816l-.09.96c-.02.32-.03.592-.03.816v1.656c.02.608.03 1.232.05 1.872.02.624.06 1.248.12 1.872.13 1.264.32 2.368.58 3.312.25.944.58 1.68.98 2.208.4.528.86.792 1.39.792.31 0 .59-.144.87-.432.27-.288.52-.672.76-1.152.24-.48.46-1 .65-1.56.21-.576.39-1.128.53-1.656l1.9 2.232c-.52 1.36-1.03 2.448-1.54 3.264-.5.8-1.01 1.376-1.54 1.728a2.94 2.94 0 0 1-1.68.528c-.8 0-1.56-.272-2.3-.816-.72-.56-1.34-1.472-1.87-2.736-.529-1.264-.905-2.952-1.129-5.064a42.223 42.223 0 0 1-.192-2.28c-.032-.816-.056-1.592-.072-2.328v-1.824c0-.304-.016-.672-.048-1.104a5.641 5.641 0 0 0-.144-1.152l2.925.048Zm12.29.6c.43.56.85 1.216 1.25 1.968.41.736.79 1.536 1.13 2.4.33.864.63 1.744.88 2.64.28.896.5 1.784.68 2.664.17.88.29 1.712.36 2.496l-2.48.96c-.09-1.04-.25-2.128-.48-3.264a29.976 29.976 0 0 0-.86-3.36c-.35-1.12-.77-2.168-1.25-3.144-.46-.992-1-1.848-1.61-2.568l2.38-.792Zm10.63 10.416c.71 0 1.34.176 1.9.528a3.8 3.8 0 0 1 1.34 1.344c.34.56.51 1.192.51 1.896 0 .688-.17 1.32-.51 1.896a3.8 3.8 0 0 1-1.34 1.344c-.56.336-1.19.504-1.9.504-.69 0-1.32-.168-1.89-.504a4.057 4.057 0 0 1-1.37-1.344 3.662 3.662 0 0 1-.51-1.896c0-.704.17-1.336.51-1.896.35-.56.81-1.008 1.37-1.344.57-.352 1.2-.528 1.89-.528Zm0 6.072c.64 0 1.19-.224 1.63-.672.45-.448.68-.992.68-1.632 0-.432-.11-.816-.32-1.152a2.15 2.15 0 0 0-.81-.84 2.283 2.283 0 0 0-1.18-.312c-.41 0-.8.104-1.15.312a2.38 2.38 0 0 0-.84.84c-.21.336-.31.72-.31 1.152 0 .416.1.808.31 1.176.21.352.49.632.84.84.35.192.74.288 1.15.288Z"/><defs><clipPath id="a"><path fill="#fff" d="M1119 0h156v158h-156z"/></clipPath></defs></svg>