<svg xmlns="http://www.w3.org/2000/svg" width="393" height="389" fill="none"><path fill="#FFFAEC" d="M0 0h393v389H0z"/><g clip-path="url(#a)"><path fill="#fff" d="M205.453 323.548c-1.592-12.973-3.43-28.362-3.536-33.638.904-1.174 1.651-2.136 2.5-3.12a43.172 43.172 0 0 1 2.201-2.363 1.156 1.156 0 0 1 1.394-.051 61.345 61.345 0 0 0 5.448 5.381 78.348 78.348 0 0 0 15.277-9.583c1.07-.875 2.314-.019 2.923 1.11l3.284 7.67.366.856c-6.127 15.888-17.467 37.839-24.748 52.542h-2.859c-.283-2.947-1.215-10.365-2.25-18.804Z"/><path fill="#fff" d="M210.765 287.262a49.04 49.04 0 0 1-2.753-2.883v-1.165c1.581.31 3.19.461 4.801.453.988 0 1.976-.049 2.959-.148a39.137 39.137 0 0 0 8.269-2.041 32.613 32.613 0 0 0 4.698-2.193v.892a78.348 78.348 0 0 1-15.277 9.583 89.507 89.507 0 0 1-2.697-2.498Z"/><path fill="#fff" d="M243.315 253.808a4.245 4.245 0 0 1 3.121-.404c2.07.505 2.736 1.77 2.986 2.483.747 2.129-.024 5.599-1.239 7.597a11.168 11.168 0 0 1-4.628 4.587 8.079 8.079 0 0 1-4.447.519l-.382.648c-.568.964-1.859 2.624-1.859 2.624a35.709 35.709 0 0 1-4.383 4.609l-1.945 1.684a30.606 30.606 0 0 1-6.497 3.326 39.174 39.174 0 0 1-8.268 2.041 29.54 29.54 0 0 1-2.96.148c-6.323.003-11.385-2.111-15.938-6.576-4.342-4.258-5.848-10.502-5.994-17.271-.084-3.904-.084-8.14-.268-12.386 0 0-3.535-20.527 23.493-20.527 36.295-.006 29.208 26.898 29.208 26.898Z"/><path fill="#2D68A4" d="M184.284 296.075a66.775 66.775 0 0 1 8.595-4.307l8.995-3.977.044 2.119c.176 8.707 5.067 44.964 5.786 52.442h2.859c7.474-15.092 19.221-37.819 25.225-53.789 12.015 5.066 26.211 9.208 32.627 21.014 2.485 4.57 3.552 10.061 3.96 15.577.253 3.423.254 6.856.182 10.086a226.814 226.814 0 0 1-2.401 28.273H148.711c-2.546-9.668-4.846-18.455-7.218-27.964l21.463-6.665a1.228 1.228 0 0 1 1.204-.07 1.24 1.24 0 0 1 .693.99l2.57 7.091c1.069-7.766 1.67-15.748 4.103-23.247 1.923-5.926 5.085-11.599 9.897-15.535a28.107 28.107 0 0 1 2.861-2.038Z"/><path fill="#211715" d="M194.109 295.257a58.581 58.581 0 0 0-4.379 6.072 1.356 1.356 0 0 0 0 1.398c1.461 1.969 2.804 4.025 4.302 5.966v-1.96l-4.197 4.841c-.256.295-.54.582-.767.9-.409.572-.265 1.128-.119 1.752l.512 2.194 2.853 12.225 1.59 6.818c.402 1.735 3.065 1 2.661-.737-1.692-7.26-3.387-14.519-5.083-21.778l-.355 1.348 4.856-5.6a1.44 1.44 0 0 0 0-1.959c.222.288-.135-.187-.203-.28a252.387 252.387 0 0 1-1.629-2.277c-.675-.953-1.342-1.911-2.038-2.848v1.398a53.02 53.02 0 0 1 3.948-5.511 1.43 1.43 0 0 0 0-1.959 1.383 1.383 0 0 0-1.951 0l-.001-.003ZM241.125 297.163a25.354 25.354 0 0 1 3.268 8.327l.963-1.704c-2.305.923-4.673 1.697-6.922 2.764a1.405 1.405 0 0 0-.604 1.642c.067.2.178.383.325.533 1.823 1.905 3.377 4.053 5.201 5.959l-.216-1.679c-5.249 7.473-10.101 15.218-15.272 22.745a1.404 1.404 0 0 0 .495 1.896 1.402 1.402 0 0 0 1.887-.497c5.174-7.527 10.023-15.272 15.273-22.745a1.405 1.405 0 0 0-.216-1.68c-1.824-1.905-3.378-4.052-5.201-5.958l-.279 2.176c2.031-.963 4.18-1.647 6.266-2.482a1.442 1.442 0 0 0 .964-1.705 27.601 27.601 0 0 0-3.546-8.989c-.916-1.524-3.303-.133-2.383 1.399l-.003-.002Z"/><path fill="#E8B06E" d="M208.923 307.436c.182-.866.286-1.747.311-2.632-.045-1.458-.334-4.451-.444-6.131l-.028-.355c1.48-1.344 2.731-2.379 4.231-3.637.365-.307.821-.642 1.271-.485.206.089.386.229.523.408 1.462 1.65 2.755 3.143 4.032 4.809-.058.236-.098.414-.098.414-.605 2.569-1.888 7.375-1.954 8.277-.081 1.141.008 12.426.505 17.873l.115 2.693c-2.456 4.931-4.798 9.588-6.825 13.682h-2.859c-.297-3.079-1.3-11.038-2.391-19.945l.598-2.232c1.039-4.02 2.404-9.376 3.013-12.739Z"/><path fill="#211715" d="M234.127 289.069c-2.668 6.954-5.762 13.74-8.939 20.471-3.399 7.198-6.937 14.329-10.495 21.449-1.775 3.554-3.548 7.108-5.32 10.664l1.191-.686h-2.859l1.38 1.385c-.601-6.216-1.466-12.412-2.226-18.608-1.009-8.213-2.023-16.427-2.852-24.661-.306-3.045-.642-6.11-.709-9.173-.038-1.78-2.798-1.786-2.759 0 .057 2.621.325 5.241.575 7.847.376 3.885.812 7.764 1.261 11.64.942 8.144 1.966 16.28 2.959 24.416.345 2.844.713 5.687.989 8.539.008.365.156.713.413.971s.603.407.967.415h2.859a1.369 1.369 0 0 0 1.191-.686c3.308-6.68 6.672-13.331 9.966-20.017 3.547-7.201 7.035-14.432 10.29-21.775 1.677-3.781 3.294-7.591 4.776-11.454a1.397 1.397 0 0 0-.963-1.704 1.407 1.407 0 0 0-1.695.967Z"/><path fill="#211715" d="M208.597 300.352a90.128 90.128 0 0 1 3.209-2.872c.498-.423.997-.844 1.498-1.263.25-.187.49-.386.718-.598l.179-.111a2.83 2.83 0 0 1-.494-.047c.082.104.169.204.261.299a69.637 69.637 0 0 1 5.43 6.797 1.412 1.412 0 0 0 1.887.497 1.398 1.398 0 0 0 .495-1.895 61.659 61.659 0 0 0-3.233-4.297 72.385 72.385 0 0 0-1.645-1.942 8.744 8.744 0 0 0-1.791-1.848c-1.758-1.069-3.488.955-4.714 1.989a94.844 94.844 0 0 0-3.754 3.334c-1.3 1.22.654 3.175 1.951 1.959l.003-.002Z"/><path fill="#211715" d="M207.41 298.673c.128 1.895.331 3.785.426 5.683.035 1.196-.1 2.39-.402 3.547-.787 4.003-1.835 7.956-2.855 11.903-.446 1.728 2.215 2.465 2.661.737 1.035-4.004 2.102-8.015 2.889-12.077.315-1.321.472-2.674.469-4.032-.09-1.923-.3-3.84-.43-5.761a1.412 1.412 0 0 0-1.379-1.386 1.39 1.39 0 0 0-1.38 1.386h.001ZM217.391 299.459c-.483 2.04-1.021 4.068-1.507 6.108a15.081 15.081 0 0 0-.517 3.345c-.041 3.506.045 7.017.166 10.52.074 2.184.165 4.369.361 6.545a1.423 1.423 0 0 0 1.379 1.385c.365-.002.715-.149.973-.408a1.4 1.4 0 0 0 .407-.977c-.352-3.926-.428-7.883-.493-11.822a223.75 223.75 0 0 1-.037-4.777c0-.389.024-.78.019-1.168 0-.054.011-.108.011-.162.006.441-.019.125.013-.035.078-.383.159-.766.247-1.148.514-2.232 1.11-4.442 1.638-6.67.41-1.732-2.25-2.473-2.661-.736h.001Z"/><path fill="#211715" d="M209.563 306.919c2.076.19 4.156.347 6.236.488a1.386 1.386 0 0 0 1.379-1.385 1.42 1.42 0 0 0-.413-.971 1.408 1.408 0 0 0-.966-.415c-2.08-.143-4.16-.298-6.236-.488a1.393 1.393 0 0 0-1.38 1.386c.009.364.158.712.414.969.257.258.603.407.966.416ZM202.892 290.89c.814-1.056 1.63-2.111 2.5-3.121.413-.478.837-.947 1.271-1.406.241-.255.501-.496.733-.759.232-.262.214-.15-.052-.037.153-.065.263.006-.094-.115-.388-.132-.145-.019 0 .14.094.107.189.212.284.317a45.345 45.345 0 0 0 1.852 1.928 83.293 83.293 0 0 0 3.104 2.898 1.434 1.434 0 0 0 1.672.217 84.429 84.429 0 0 0 14.294-8.794c.282-.221.562-.442.841-.666a3.38 3.38 0 0 1 .36-.295c.33-.025.682.519.817.784.118.231.207.484.31.723l1.667 3.9 1.304 3.047a1.388 1.388 0 0 0 1.888.497 1.42 1.42 0 0 0 .495-1.895l-2.989-6.986c-.694-1.619-2.185-3.266-4.135-2.751a5.315 5.315 0 0 0-1.879 1.187c-.597.477-1.205.941-1.823 1.393a68.809 68.809 0 0 1-3.799 2.598 96.815 96.815 0 0 1-8.744 4.869l1.672.217a78.934 78.934 0 0 1-3.513-3.308 49.682 49.682 0 0 1-1.512-1.598 2.58 2.58 0 0 0-1.867-1.086c-1.61-.057-2.594 1.332-3.571 2.421-1.07 1.192-2.054 2.456-3.031 3.724a1.433 1.433 0 0 0 0 1.962 1.383 1.383 0 0 0 1.951 0l-.006-.005Z"/><path fill="#fff" d="M250.042 321.186c-8.572-2.203-30.813-7.12-38.19-8.788a1.61 1.61 0 0 0-1.219.214c-.362.23-.619.595-.714 1.015l-4.227 18.992-.152.534a30.63 30.63 0 0 1 3.031 1.838 55.803 55.803 0 0 1 4.969 3.308c3.241 2.436 5.637 3.724 7.416 7.325.419.847 2.242 2.09 3.514 2.829l1.283-.913c2.596.856 19.144 3.663 20.377 3.477l.123-.763.466-2.891c1.092-5.946 3.611-19.241 4.514-24.316a1.625 1.625 0 0 0-1.191-1.861Z"/><path fill="#fff" d="M219.516 363.497a70.462 70.462 0 0 0 5.616-13.882.934.934 0 0 0-.047-.597.915.915 0 0 0-.4-.442c-1.275-.72-3.286-2.057-3.728-2.953-1.78-3.601-4.176-4.889-7.416-7.325a55.933 55.933 0 0 0-4.968-3.308c-1.08-.661-2.969-2.111-4.268-2.222-1.298-.111-1.995-.075-2.732 1.015a2.243 2.243 0 0 0-.351 2.175 8.574 8.574 0 0 0 1.761 2.321c.758.788 1.681 1.628 2.479 2.476a86.451 86.451 0 0 0-8.753-.436 3.94 3.94 0 0 0-2.206.558 3.924 3.924 0 0 0-1.265 1.507 3.044 3.044 0 0 0 0 2.419 6.594 6.594 0 0 0 1.907 2.43c-.693 2.097-1.207 3.158-.521 5.288.776 2.408 1.216 5.421 2.775 7.646.436.666 1 1.237 1.66 1.68a6.71 6.71 0 0 0 2.006.693c4.09.599 9.675.341 13.548.79 1.169.301 2.308.71 3.403 1.222a.922.922 0 0 0 1.167-.421c.113-.212.224-.423.333-.634Z"/><path fill="#211715" d="M207.107 340.529c-1.043-1.243-2.275-2.304-3.388-3.482-.733-.777-1.911-1.983-.69-2.853.014-.009.252-.084.155-.069.303-.034.609-.03.911.011.514.1 1.007.293 1.452.571 1.174.663 2.29 1.447 3.435 2.161 2.25 1.403 4.384 2.979 6.509 4.565a16.939 16.939 0 0 1 2.628 2.356c.858.977 1.295 2.218 2.124 3.197a12.66 12.66 0 0 0 3.115 2.414c.121.074.506.404.632.371-.313.077-.068-.956-.272-.213a49.779 49.779 0 0 1-.822 2.689 71.13 71.13 0 0 1-3.747 8.93c-.112.226-1.011 2.274-1.155 2.255l.23-.173c.183-.014.212-.039.086-.073-.036-.063-.331-.138-.395-.165-.304-.127-.608-.254-.914-.377a11.95 11.95 0 0 0-3.725-.823c-3.024-.226-6.062-.18-9.088-.364-1.42-.087-3.17-.045-4.431-.808-1.283-.778-1.997-2.473-2.459-3.831-.521-1.532-.87-3.118-1.341-4.665a4.461 4.461 0 0 1-.221-2.118c.187-.829.435-1.642.742-2.434a1.345 1.345 0 0 0-.355-1.348c-.747-.583-1.773-1.62-1.753-2.651.024-.458.205-.894.512-1.232.308-.339.724-.56 1.176-.625a20.904 20.904 0 0 1 4.041.023c1.506.058 3.01.156 4.511.289.365-.003.714-.15.972-.409.258-.26.405-.61.407-.977a1.415 1.415 0 0 0-1.379-1.385 91.687 91.687 0 0 0-5.641-.324c-1.648-.042-3.616-.271-5.079.665a4.765 4.765 0 0 0-2.259 4.346 6.546 6.546 0 0 0 2.541 4.24l-.355-1.348c-.56 1.68-1.083 3.247-.769 5.039.144.83.453 1.636.673 2.449.221.813.426 1.625.669 2.428a14.03 14.03 0 0 0 2.303 4.731 6.88 6.88 0 0 0 4.794 2.472c3.431.437 6.904.357 10.352.523a11.801 11.801 0 0 1 3.952.623c.621.237 1.228.552 1.859.76a2.317 2.317 0 0 0 2.614-.894c.527-.855.991-1.746 1.39-2.667.44-.895.865-1.798 1.274-2.707a77.27 77.27 0 0 0 2.158-5.288 59.54 59.54 0 0 0 .826-2.446 9.713 9.713 0 0 0 .632-2.476c.055-1.839-2.127-2.513-3.334-3.442a4.84 4.84 0 0 1-1.028-.993 21.977 21.977 0 0 0-1.269-2.095 16.257 16.257 0 0 0-3.11-3.14 86.112 86.112 0 0 0-7.528-5.33c-1.495-.929-2.944-2.039-4.582-2.698-1.471-.591-3.466-.602-4.661.57a4.336 4.336 0 0 0-1.33 2.798 4.456 4.456 0 0 0 1.172 2.891c1.283 1.639 2.948 2.924 4.284 4.516a1.386 1.386 0 0 0 1.951 0 1.416 1.416 0 0 0 0-1.959l-.002-.001Z"/><path fill="#211715" d="m207.023 332.986 2.79-12.534 1.347-6.058c.019-.133.049-.265.088-.394.161-.404.449-.219.823-.134 1.274.287 2.549.574 3.824.859 7.351 1.647 14.703 3.29 22.043 4.987 3.303.763 6.606 1.532 9.897 2.347.629.08 1.247.235 1.839.461.204.116.182.105.202.332-.012-.136-.039.191-.054.276l-.088.489c-.291 1.61-.586 3.22-.887 4.828-1.284 6.928-2.698 13.835-3.82 20.79l-.23 1.411 1.331-1.017a9.13 9.13 0 0 1-2.218-.191 5.253 5.253 0 0 0-.172-.022l-.522-.073a210.047 210.047 0 0 1-3.469-.528 256.935 256.935 0 0 1-10.229-1.823 30.45 30.45 0 0 1-3.399-.79c-1.695-.548-2.42 2.127-.735 2.673 2.48.803 5.167 1.147 7.723 1.607 3.326.599 6.66 1.165 10.009 1.62.988.224 1.999.324 3.012.298a1.427 1.427 0 0 0 1.33-1.017c1.093-6.777 2.431-13.508 3.688-20.259.339-1.823.676-3.647 1.011-5.471.336-1.841 1.037-4.002-.767-5.322a6.424 6.424 0 0 0-2.316-.818 541.49 541.49 0 0 0-7.212-1.73c-7.753-1.815-15.522-3.554-23.292-5.295l-4.436-.994c-.575-.13-1.15-.266-1.725-.389a3.091 3.091 0 0 0-3.327 1.121 4.927 4.927 0 0 0-.696 1.951l-.66 2.961-3.287 14.779-.075.335c-.387 1.737 2.273 2.479 2.66.737l-.001-.003Z"/><path fill="#211715" d="M240.791 292.091c9.015 3.604 19.183 7.468 24.957 15.791 3.061 4.413 4.452 9.688 5.036 14.979.651 5.896.48 11.875.208 17.789a225.158 225.158 0 0 1-2.142 22.317 1.434 1.434 0 0 0 .963 1.704c.353.095.729.047 1.046-.134.318-.181.552-.48.652-.833a233.404 233.404 0 0 0 2.123-20.776c.345-6.184.586-12.441.05-18.621-.492-5.672-1.662-11.444-4.621-16.378-2.723-4.542-6.74-8.095-11.195-10.867-5.121-3.186-10.767-5.414-16.344-7.644a1.387 1.387 0 0 0-1.698.968 1.419 1.419 0 0 0 .964 1.705h.001ZM175.939 332.761c.457 9.923.835 19.849 1.132 29.779.054 1.779 2.813 1.789 2.76 0-.298-9.93-.676-19.856-1.133-29.779-.082-1.776-2.842-1.786-2.759 0ZM172.744 347.53l-6.266-17.285c-.488-1.35-.987-2.829-2.671-2.901a5.828 5.828 0 0 0-1.897.414l-2.309.722-8.694 2.698-9.781 3.036a1.409 1.409 0 0 0-.824.657c-.179.318-.23.693-.14 1.047 2.331 9.341 4.767 18.655 7.219 27.964.454 1.723 3.117.992 2.661-.736-2.453-9.309-4.886-18.623-7.219-27.965l-.965 1.702 16.03-4.975 4.076-1.265a10.78 10.78 0 0 0 1.782-.536c-.016.072-.32-.159-.325-.156-.005.004.095.188.098.201.093.369.267.743.397 1.102l2.888 7.966 3.276 9.048a1.416 1.416 0 0 0 1.698.968c.351-.101.649-.335.829-.654.18-.319.229-.696.135-1.051l.002-.001Z"/><path fill="#fff" d="M121.698 310.38a6.228 6.228 0 0 1 2.832-.044c.563.183 1.113.354 1.597.511l.064-.433a2.113 2.113 0 0 1 .941-1.594c.974-.745 2.439-.368 3.23-.148 2.809.782 14.226 5.159 17.999 7.481 1.299.798 3.64.861 5.907-.578.185-1.576.459-3.14.821-4.684a3.92 3.92 0 0 1 2.289-2.973 2.91 2.91 0 0 1 2.509.271c.716.466 1.115 1.643 1.314 2.476 1.343 5.604 1.834 6.102 2.361 11.517l.045.466-.386 3.68a13.473 13.473 0 0 1-3.921 8.133c-2.189 2.148-5.124 3.9-10.182 3.849-5.257-.924-10.184-3.744-12.925-5.386-2.008-1.203-3.794-2.474-6.695-4.558-1.443-1.035-6.297-4.952-6.698-5.364-.677-.696-1.356-2.014-.889-3.179a9.83 9.83 0 0 1-1.031-.858 3.283 3.283 0 0 1-.747-3.056c.027-.069.057-.136.089-.202-.678-1.155-1.18-1.874-.557-3.532a2.896 2.896 0 0 1 2.033-1.795Z"/><path fill="#211715" d="M155.602 315.918c.185-1.29.367-2.572.641-3.846.253-1.179.666-3.097 2.272-2.936.702.071.939.565 1.15 1.18.292.961.532 1.938.719 2.926.448 1.979.866 3.967 1.21 5.969.289 1.426.459 2.874.508 4.329a21.31 21.31 0 0 1-.303 3.109 12.415 12.415 0 0 1-1.664 4.537 12.36 12.36 0 0 1-3.268 3.55 11.354 11.354 0 0 1-3.782 1.762c-.808.206-1.634.337-2.466.39a9.259 9.259 0 0 1-3.119-.346 39.375 39.375 0 0 1-9.773-4.311 95.908 95.908 0 0 1-13.403-9.727c-.607-.511-1.766-1.79-.962-2.44.721-.585 2.827.652 3.725 1.128a74.795 74.795 0 0 1 10.252 6.617 1.381 1.381 0 0 0 1.888-.497 1.424 1.424 0 0 0-.495-1.896 75.289 75.289 0 0 0-10.175-6.574c-1.495-.796-3.245-1.781-4.988-1.655a3.497 3.497 0 0 0-2.622 1.56 3.52 3.52 0 0 0-.41 3.033c.383 1.359 1.288 2.235 2.324 3.091 1.119.924 2.25 1.835 3.391 2.735a96.388 96.388 0 0 0 8.305 5.938 48.434 48.434 0 0 0 10.52 5.163c1.08.361 2.182.652 3.299.871 1.128.168 2.275.156 3.4-.036a14.743 14.743 0 0 0 5.332-1.686 15.047 15.047 0 0 0 7.003-8.9c.34-1.374.559-2.776.653-4.189.116-1.712.01-3.432-.316-5.117-.333-2.172-.775-4.33-1.251-6.473-.439-1.977-.683-4.797-2.472-6.08a4.314 4.314 0 0 0-5.724.883c-1.123 1.362-1.426 3.143-1.711 4.841-.131.784-.234 1.573-.345 2.36a1.43 1.43 0 0 0 .964 1.704 1.39 1.39 0 0 0 1.697-.967h-.004Z"/><path fill="#211715" d="M122.608 318.63c-.65-.498-1.385-1.184-1.208-2.109a1.403 1.403 0 0 1 1.304-1.064c1.064-.145 2.211.395 3.184.783a93.366 93.366 0 0 1 9.213 4.35 38.506 38.506 0 0 1 4.714 2.865 1.388 1.388 0 0 0 1.888-.498 1.424 1.424 0 0 0-.495-1.895c-3.224-2.379-6.988-4.12-10.614-5.78-1.588-.727-3.191-1.443-4.829-2.046-1.716-.632-3.755-.905-5.35.199a4.01 4.01 0 0 0-1.759 3.666c.167 1.787 1.219 2.891 2.564 3.921a1.385 1.385 0 0 0 1.887-.497 1.424 1.424 0 0 0-.495-1.895h-.004Z"/><path fill="#211715" d="M141.58 316.304a101.232 101.232 0 0 0-11.746-5.448c-3.08-1.276-7.614-3.583-10.52-.654a4.907 4.907 0 0 0-1.311 3.131 5.249 5.249 0 0 0 .949 2.952c.903 1.534 3.289.141 2.383-1.399-.44-.748-.729-1.222-.436-2.082a1.645 1.645 0 0 1 1.329-1.132c1.778-.436 3.746.563 5.404 1.249 4.251 1.759 8.553 3.48 12.552 5.773 1.544.887 2.936-1.507 1.393-2.392l.003.002Z"/><path fill="#211715" d="M127.571 310.414c.08-.766 1.269-.68 1.809-.562.564.132 1.121.293 1.668.482 1.533.505 3.047 1.071 4.554 1.647a104.372 104.372 0 0 1 10.57 4.539c.803.489 1.64.918 2.504 1.287a7.067 7.067 0 0 0 4.752-.268 1.427 1.427 0 0 0 .963-1.704 1.39 1.39 0 0 0-1.697-.967c-1.149.447-2.507.733-3.638.088a41.057 41.057 0 0 0-1.935-1.054c-1.86-.929-3.772-1.752-5.688-2.555a108.701 108.701 0 0 0-10.337-3.904 6.894 6.894 0 0 0-3.43-.346 3.707 3.707 0 0 0-2.855 3.319c.003.366.149.717.407.977.258.259.608.406.973.408a1.418 1.418 0 0 0 1.38-1.385v-.002ZM139.218 327.587l6.588-6.012a1.4 1.4 0 0 0 0-1.959 1.407 1.407 0 0 0-1.952 0l-6.587 6.011a1.397 1.397 0 0 0 0 1.96 1.408 1.408 0 0 0 1.951 0Z"/><path fill="#645D5C" d="M221.703 209.394a32.927 32.927 0 0 0-16.459 4.624c-1.449.845-4.469 2.482-6.792 5.2a26.369 26.369 0 0 0-5.064 6.917 27.54 27.54 0 0 0-2.869 10.514 60.536 60.536 0 0 0 .142 10.82c.206-5.407 4.9-6.058 6.795-8.675 1.048-1.448 1.801-3.207 3.368-4.118a7.322 7.322 0 0 1 4.017-.702c2.142.097 6.102.237 8.959.842a6.287 6.287 0 0 1 4.693-.62c2.566.631 8.189 3.374 8.189 3.374 3.787 2.046 5.495 3.573 7.653 6.973a16.645 16.645 0 0 1 2.388 8.766c2.299 0 6.593.499 6.593.499a4.241 4.241 0 0 1 3.12-.404c2.07.505 2.735 1.767 2.985 2.48 1.951-3.529 3.63-7.37 4.099-11.5 1.397-12.296-1.142-17.196-7.179-23.711-4.89-7.601-12.512-10.288-20.205-11.077a38.165 38.165 0 0 0-4.433-.202Z"/><path fill="#211715" d="M214.167 233.48a47.87 47.87 0 0 0-7.113-.788c-2.33-.123-4.929-.438-7.018.844a8.327 8.327 0 0 0-2.465 2.566c-.303.45-.584.915-.881 1.369-.189.333-.421.64-.69.912-1 1.039-2.384 1.761-3.616 2.777a8.428 8.428 0 0 0-3.057 5.678 1.39 1.39 0 0 0 1.38 1.386c.363-.009.709-.158.966-.416s.405-.605.414-.97c.397-3.219 3.345-4.204 5.518-6.161 1.336-1.203 1.94-2.973 3.195-4.235 1.445-1.453 3.683-1.103 5.544-1.015 2.378.058 4.747.3 7.087.726a1.414 1.414 0 0 0 1.698-.969 1.406 1.406 0 0 0-.965-1.704h.003ZM222.094 236.703c-.162-2.904-2.399-5.464-4.848-6.795a11.795 11.795 0 0 0-3.079-1.146 1.389 1.389 0 0 0-1.457.483 1.416 1.416 0 0 0-.242.483 1.405 1.405 0 0 0 .13 1.053 1.373 1.373 0 0 0 .833.653c.557.12 1.104.284 1.635.489l.188.075c-.176-.075-.194-.082-.055-.02.115.057.237.109.354.168a9.172 9.172 0 0 1 1.199.713c.09.078.186.148.288.21-.163-.129-.188-.146-.074-.058l.133.11a8.696 8.696 0 0 1 1.092 1.099c.067.081.246.384.022.021.09.146.203.28.297.424.199.308.377.629.534.961.152.316-.091-.255-.014-.038.021.058.045.115.066.173a5.4 5.4 0 0 1 .143.447c.038.14.066.28.094.422.062.311-.029-.336-.014-.118.004.062.011.126.014.189 0 .368.145.72.404.98a1.378 1.378 0 0 0 2.356-.98l.001.002ZM238.102 253.309a18.732 18.732 0 0 0-3.573-10.94 20.57 20.57 0 0 0-7.153-5.995c-1.562-.848-2.956 1.543-1.393 2.393 2.387 1.296 4.548 2.77 6.163 5a16.143 16.143 0 0 1 2.336 4.272c.559 1.7.849 3.479.859 5.269.026 1.782 2.786 1.787 2.759 0l.002.001ZM216.95 256.495c-.248-1.402.403-4.474 2.981-4.423 3.364.436 3.083 4.214 1.734 5.839-1.106 1.33-3.907 1.594-4.715-1.416ZM196.887 254.655c-.216-1.403.402-4.488 2.767-4.458 3.079.411 2.792 4.2 1.543 5.84-1.024 1.343-3.593 1.629-4.31-1.382ZM206.935 258.819a28.322 28.322 0 0 0-1.418 2.141 2.808 2.808 0 0 0-.405.96c-.07.325-.057.663.035.982.112.321.298.612.543.847.312.308.691.539 1.108.673.16.054.329.07.493.109.359.091.74.041 1.064-.14a1.383 1.383 0 0 0 .67-1.374 1.386 1.386 0 0 0-.998-1.156 4.335 4.335 0 0 1-.575-.138l.329.14a1.427 1.427 0 0 1-.287-.174l.279.217a1.93 1.93 0 0 1-.263-.264l.216.28a.398.398 0 0 1-.055-.087l.139.331a.648.648 0 0 1-.037-.144l.05.368a.568.568 0 0 1 0-.101l-.05.368a1.21 1.21 0 0 1 .07-.264l-.139.331c.229-.466.498-.91.805-1.328.263-.396.533-.79.81-1.177a1.391 1.391 0 0 0-.753-2.013 1.373 1.373 0 0 0-.805-.022 1.579 1.579 0 0 0-.825.635h-.001ZM244.015 255.005a3.005 3.005 0 0 1 2.4-.174c.337.099.655.254.941.459.102.076.196.161.283.253.067.063.127.133.181.208.068.102.129.208.189.316.028.049.159.355.087.173-.071-.183.058.202.077.262.061.205.107.415.136.627a7.665 7.665 0 0 1-.099 2.232c-.555 3.06-2.513 6.273-5.443 7.552.253-.11-.126.035-.21.062-.2.063-.402.115-.608.164a6.55 6.55 0 0 1-1.097.16 4.329 4.329 0 0 1-2.472-.45c-1.542-.89-2.932 1.501-1.393 2.393 1.869 1.077 4.292 1.044 6.306.404 2.134-.679 3.866-2.297 5.168-4.073a13.226 13.226 0 0 0 2.448-5.689c.308-1.889.355-4.073-.82-5.695a5.919 5.919 0 0 0-3.445-2.158 5.898 5.898 0 0 0-4.02.578c-1.56.854-.168 3.248 1.393 2.393l-.002.003ZM206.465 271.778a9.856 9.856 0 0 0 6.484 1.046 13.42 13.42 0 0 0 2.193-.778 1.422 1.422 0 0 0 .964-1.705 1.402 1.402 0 0 0-.652-.831 1.388 1.388 0 0 0-1.045-.136c-.649.29-1.316.537-1.997.737-.058.014-.371.033-.399.075.024-.036.278-.029.055-.009-.089.007-.178.016-.267.022a8.726 8.726 0 0 1-1.397-.023c-.075-.007-.151-.018-.226-.024.115.01.185.029.027.003a8.524 8.524 0 0 1-1.804-.474c-.172-.066-.033.014.049.02a.74.74 0 0 1-.223-.107 5.003 5.003 0 0 1-.37-.209 1.377 1.377 0 0 0-1.887.497 1.384 1.384 0 0 0 .495 1.896Z"/><path fill="#211715" d="M231.514 279.129c1.323-1.145 2.667-2.268 3.889-3.521a31.678 31.678 0 0 0 4.514-5.673 1.406 1.406 0 0 0 .144-1.051 1.382 1.382 0 0 0-2.169-.753 1.37 1.37 0 0 0-.357.405 30.336 30.336 0 0 1-1.761 2.497c.361-.485-.003-.004-.08.09-.265.323-.533.642-.805.959a35.65 35.65 0 0 1-1.547 1.68c-1.19 1.212-2.494 2.3-3.778 3.411a1.403 1.403 0 0 0 0 1.959 1.407 1.407 0 0 0 1.952 0l-.002-.003ZM189.232 247.432c.197 4.645.073 9.306.327 13.948.219 4.002.947 8.018 2.719 11.639 3.387 6.921 10.846 11.326 18.359 11.944 4.702.387 9.356-.569 13.77-2.151a1.421 1.421 0 0 0 .964-1.704 1.395 1.395 0 0 0-1.698-.968 32.023 32.023 0 0 1-11.325 2.136 20.31 20.31 0 0 1-9.841-2.585 19.43 19.43 0 0 1-7.399-7.217c-1.73-3.123-2.472-6.73-2.734-10.264-.363-4.907-.172-9.862-.38-14.779-.075-1.776-2.835-1.786-2.76 0l-.002.001Z"/><path fill="#211715" d="M246.583 218.602a25.405 25.405 0 0 0-13.481-9.106 38.464 38.464 0 0 0-17.132-.938 36.612 36.612 0 0 0-14.751 6.344 30.091 30.091 0 0 0-5.782 5.581 27.78 27.78 0 0 0-3.967 6.516c-2.689 6.269-2.839 13.258-2.236 19.965a1.426 1.426 0 0 0 1.38 1.386 1.39 1.39 0 0 0 1.38-1.386c-.501-5.575-.571-11.463 1.214-16.83a27.294 27.294 0 0 1 7.927-11.661 30.445 30.445 0 0 1 5.462-3.634 32.32 32.32 0 0 1 7.658-3.078 34.813 34.813 0 0 1 15.941-.139c5.478 1.182 10.569 3.826 14.004 8.378a1.424 1.424 0 0 0 1.888.497 1.4 1.4 0 0 0 .495-1.896v.001ZM251.593 254.726a33.222 33.222 0 0 0 2.918-7.898c.508-2.594.762-5.233.759-7.877.052-3.948-.521-7.875-2.245-11.452a26.772 26.772 0 0 0-3.329-5.077 1.387 1.387 0 0 0-1.951 0 1.422 1.422 0 0 0 0 1.96 20.59 20.59 0 0 1 4.187 8.262c.392 1.788.587 3.614.581 5.445a41.153 41.153 0 0 1-.468 6.97 29.168 29.168 0 0 1-2.835 8.269c-.794 1.589 1.585 2.994 2.383 1.398ZM169.438 331.989c1.153-9.273 2.414-18.963 7.646-26.942a26.736 26.736 0 0 1 9.423-8.684c2.733-1.536 5.623-2.761 8.486-4.027l6.047-2.674a1.396 1.396 0 0 0 .495-1.895 1.415 1.415 0 0 0-1.888-.497c-4.555 2.014-9.247 3.875-13.646 6.216a30.213 30.213 0 0 0-10.44 8.917 39.764 39.764 0 0 0-5.771 12.19c-1.671 5.663-2.387 11.552-3.114 17.396.002.366.148.718.406.977.258.26.608.406.974.408a1.413 1.413 0 0 0 1.379-1.385h.003Z"/></g><path fill="#000" d="M105.343 128.4h2.06v15.8c0 .64-.087 1.113-.26 1.42-.16.307-.447.54-.86.7-.4.147-.934.24-1.6.28-.667.053-1.474.08-2.42.08-.04-.187-.107-.4-.2-.64a9.81 9.81 0 0 0-.28-.7 4.988 4.988 0 0 0-.3-.64c.48.027.94.047 1.38.06h1.18a23 23 0 0 1 .74-.02c.2-.013.34-.053.42-.12.093-.08.14-.22.14-.42v-15.8Zm4.82 5.16 1.84-.68a33.73 33.73 0 0 1 1.64 3.02c.533 1.067 1 2.113 1.4 3.14.413 1.027.7 1.947.86 2.76l-2.06.82c-.147-.8-.407-1.72-.78-2.76a34.489 34.489 0 0 0-1.3-3.2 35.427 35.427 0 0 0-1.6-3.1Zm-10.06-.52 2.14.36a39.333 39.333 0 0 1-.82 3.12 26.05 26.05 0 0 1-1.18 3.14 12.928 12.928 0 0 1-1.56 2.6 4.668 4.668 0 0 0-.56-.34 6.448 6.448 0 0 0-.66-.36 12.45 12.45 0 0 0-.6-.3 10.94 10.94 0 0 0 1.5-2.44c.426-.947.786-1.927 1.08-2.94a25.15 25.15 0 0 0 .66-2.84Zm26.52-2.22a40.633 40.633 0 0 0-.24-.78c-.094-.307-.2-.613-.32-.92l2.16-.26c.066.44.166.913.3 1.42.133.493.28.987.44 1.48.16.493.313.96.46 1.4.306.84.68 1.68 1.12 2.52.453.827.873 1.5 1.26 2.02.146.213.3.42.46.62.16.2.326.387.5.56l-1 1.44a9.044 9.044 0 0 0-1.02-.18 61.099 61.099 0 0 0-2.74-.3 72.71 72.71 0 0 1-1.28-.12l.14-1.66c.36.027.74.06 1.14.1.4.027.78.06 1.14.1.36.027.653.053.88.08a31.8 31.8 0 0 1-.86-1.42 37.79 37.79 0 0 1-.86-1.66 19.683 19.683 0 0 1-.74-1.76c-.214-.56-.4-1.067-.56-1.52-.147-.453-.274-.84-.38-1.16Zm-7.3 1.28a53.41 53.41 0 0 0 3.36.28c1.066.053 2.073.067 3.02.04a34.98 34.98 0 0 0 2.58-.16c.56-.067 1.133-.147 1.72-.24a37.736 37.736 0 0 0 1.74-.36c.586-.133 1.14-.287 1.66-.46l.24 2c-.454.12-.954.24-1.5.36-.534.107-1.08.207-1.64.3-.56.08-1.094.153-1.6.22a41.53 41.53 0 0 1-4.32.24 61.296 61.296 0 0 1-5.22-.2l-.04-2.02Zm3.5 6.56c-.307.48-.547.947-.72 1.4-.16.44-.24.893-.24 1.36 0 .893.386 1.547 1.16 1.96.786.413 1.9.627 3.34.64a24.336 24.336 0 0 0 2.88-.12 24.518 24.518 0 0 0 2.36-.36l-.1 2c-.6.107-1.34.207-2.22.3-.867.107-1.88.153-3.04.14-1.307 0-2.44-.167-3.4-.5-.96-.32-1.7-.793-2.22-1.42-.52-.64-.78-1.42-.78-2.34 0-.587.086-1.16.26-1.72.186-.56.433-1.153.74-1.78l1.98.44Zm15.3-6.48c.4.04.82.073 1.26.1.453.013.88.02 1.28.02.773 0 1.56-.033 2.36-.1.813-.08 1.613-.193 2.4-.34.8-.16 1.56-.353 2.28-.58l.06 1.84c-.614.173-1.314.333-2.1.48-.787.147-1.607.267-2.46.36-.854.093-1.7.14-2.54.14-.374 0-.767-.007-1.18-.02l-1.22-.04-.14-1.86Zm7.38-3.16c-.08.333-.187.753-.32 1.26-.12.507-.26 1.04-.42 1.6-.147.56-.3 1.1-.46 1.62-.32.96-.72 1.98-1.2 3.06-.48 1.067-1 2.107-1.56 3.12a22.54 22.54 0 0 1-1.7 2.66l-1.92-.98c.453-.547.9-1.153 1.34-1.82.44-.68.853-1.38 1.24-2.1.4-.733.76-1.44 1.08-2.12.32-.693.58-1.327.78-1.9.226-.667.433-1.42.62-2.26.186-.84.293-1.627.32-2.36l2.2.22Zm4.7 6.2a34.834 34.834 0 0 0 0 2.34c.013.307.026.707.04 1.2.026.48.053.993.08 1.54.026.547.046 1.067.06 1.56.026.493.04.893.04 1.2a3.18 3.18 0 0 1-.38 1.54c-.24.467-.627.84-1.16 1.12-.534.28-1.24.42-2.12.42-.774 0-1.48-.113-2.12-.34-.627-.227-1.134-.567-1.52-1.02-.374-.453-.56-1.027-.56-1.72 0-.627.173-1.18.52-1.66.36-.48.853-.853 1.48-1.12.626-.28 1.353-.42 2.18-.42 1.146 0 2.2.167 3.16.5.96.32 1.82.727 2.58 1.22.773.48 1.44.967 2 1.46l-1.06 1.7a30.058 30.058 0 0 0-1.28-1.08c-.467-.387-.987-.74-1.56-1.06a8.88 8.88 0 0 0-1.84-.82 6.741 6.741 0 0 0-2.1-.32c-.667 0-1.207.133-1.62.4-.4.267-.6.607-.6 1.02 0 .427.173.773.52 1.04.36.267.88.4 1.56.4.506 0 .906-.08 1.2-.24.306-.173.52-.407.64-.7s.18-.62.18-.98c0-.347-.014-.813-.04-1.4-.014-.587-.04-1.22-.08-1.9-.027-.68-.06-1.36-.1-2.04-.027-.693-.047-1.307-.06-1.84h1.96Zm3.76.76a13.11 13.11 0 0 0-1.4-.98c-.56-.36-1.134-.7-1.72-1.02-.587-.333-1.107-.6-1.56-.8l1.02-1.54c.36.16.766.353 1.22.58.453.227.906.467 1.36.72.453.253.873.507 1.26.76.386.24.706.447.96.62l-1.14 1.66Zm4.12-7.74h1.7v4.42c0 .28.06.46.18.54.12.067.386.1.8.1h2.64c.213 0 .373-.04.48-.12.12-.08.2-.247.24-.5.053-.253.093-.64.12-1.16.186.12.426.247.72.38.306.12.58.207.82.26-.067.707-.18 1.26-.34 1.66-.147.387-.367.66-.66.82-.294.147-.7.22-1.22.22h-3c-.654 0-1.167-.06-1.54-.18-.36-.133-.607-.36-.74-.68-.134-.32-.2-.76-.2-1.32v-4.44Zm5.8.58 1.22 1.26a21.7 21.7 0 0 1-1.84.7c-.68.213-1.374.413-2.08.6-.707.173-1.394.327-2.06.46a2.509 2.509 0 0 0-.2-.64 3.948 3.948 0 0 0-.3-.62c.626-.16 1.26-.333 1.9-.52a28.285 28.285 0 0 0 1.86-.6 13.077 13.077 0 0 0 1.5-.64Zm-4.96 6 1.64.36c-.24.867-.554 1.713-.94 2.54-.387.813-.82 1.507-1.3 2.08a3.059 3.059 0 0 0-.4-.32 5.355 5.355 0 0 0-.52-.38 4.01 4.01 0 0 0-.46-.28 7.546 7.546 0 0 0 1.18-1.82c.333-.707.6-1.433.8-2.18Zm.28 1.58h5.92v1.52h-6.68l.76-1.52Zm-1.94 3.34h8.32v1.58h-8.32v-1.58Zm3.56-2.74h1.72v2.58c0 .533-.047 1.113-.14 1.74a7.109 7.109 0 0 1-.58 1.88c-.28.627-.707 1.24-1.28 1.84-.574.613-1.334 1.173-2.28 1.68a6.819 6.819 0 0 0-.56-.62 4.24 4.24 0 0 0-.66-.58c.866-.413 1.553-.88 2.06-1.4.506-.52.88-1.047 1.12-1.58a5.486 5.486 0 0 0 .48-1.58c.08-.52.12-.987.12-1.4V137Zm.18 5.52 1.14-1.08c.333.267.686.573 1.06.92.386.333.746.667 1.08 1 .333.32.606.607.82.86l-1.18 1.24a8.646 8.646 0 0 0-.8-.9c-.334-.347-.687-.7-1.06-1.06-.36-.36-.714-.687-1.06-.98Zm5.1-13.78h7.8v1.5h-7.8v-1.5Zm7.2 0h.38l.34-.1 1.14.74c-.36.547-.787 1.087-1.28 1.62a16.974 16.974 0 0 1-1.58 1.5c-.56.453-1.12.847-1.68 1.18a5.47 5.47 0 0 0-.5-.6 8.34 8.34 0 0 0-.56-.58c.493-.28.98-.613 1.46-1 .493-.387.94-.793 1.34-1.22.4-.427.713-.833.94-1.22v-.32Zm-6.38 3.56 1.1-1.14c.6.253 1.226.547 1.88.88.666.333 1.3.68 1.9 1.04.6.36 1.093.693 1.48 1l-1.18 1.28c-.36-.307-.834-.64-1.42-1a26.82 26.82 0 0 0-1.86-1.1c-.667-.36-1.3-.68-1.9-.96Zm-1.14 2.84h8.68v1.58h-8.68v-1.58Zm8.08 0h.24l.28-.06 1.16.3c-.187.627-.4 1.28-.64 1.96a13.14 13.14 0 0 1-.72 1.68l-1.36-.4c.186-.413.373-.92.56-1.52.2-.6.36-1.167.48-1.7v-.26Zm-4.22.46h1.68v9.86l-1.68-.78v-9.08Zm.66 4.22h4.5v1.56h-4.5v-1.56Zm-2.46.88c.24.893.546 1.62.92 2.18.373.547.793.967 1.26 1.26.466.293.96.493 1.48.6.533.107 1.086.16 1.66.16H174.863c.346-.013.606-.02.78-.02-.094.187-.194.44-.3.76-.094.32-.16.593-.2.82h-2.1c-.72 0-1.4-.073-2.04-.22a4.99 4.99 0 0 1-1.76-.8c-.547-.373-1.034-.907-1.46-1.6-.427-.707-.794-1.607-1.1-2.7l1.16-.44Zm-1.24-2.8 1.7.06c-.08 1.947-.3 3.653-.66 5.12-.347 1.453-.947 2.68-1.8 3.68a3.572 3.572 0 0 0-.42-.34 21.074 21.074 0 0 0-.54-.4c-.187-.12-.347-.22-.48-.3a5.66 5.66 0 0 0 1.32-2.02c.306-.787.52-1.667.64-2.64.133-.973.213-2.027.24-3.16Zm16.64-.1h6.8v6.06h-6.8v-1.58h5.02v-2.92h-5.02v-1.56Zm-.82 0h1.74v7.22h-1.74v-7.22Zm-3.48-5.96h5.32v1.32h-5.32v-1.32Zm9.26 0h5.38v1.32h-5.38v-1.32Zm4.58-2.9h1.9v15.36c0 .573-.074 1.013-.22 1.32-.134.307-.387.547-.76.72-.374.16-.867.253-1.48.28-.614.04-1.367.06-2.26.06-.027-.187-.08-.4-.16-.64a8.957 8.957 0 0 0-.24-.7 4.263 4.263 0 0 0-.26-.6c.413.027.82.04 1.22.04H192.283c.186-.013.313-.053.38-.12.08-.08.12-.207.12-.38v-15.34Zm-13.68 0h6.36v7.24h-6.36v-1.48h4.58v-4.28h-4.58v-1.48Zm14.68 0v1.46h-4.9v4.32h4.9v1.46h-6.7v-7.24h6.7Zm-15.74 0h1.86v17.76h-1.86v-17.76Zm29.1 3.36a13.72 13.72 0 0 0-.88-.88c-.347-.333-.7-.66-1.06-.98-.36-.32-.68-.58-.96-.78l1.46-1.04c.226.173.52.413.88.72.373.307.746.627 1.12.96.373.333.673.627.9.88l-1.46 1.12Zm-5.96-1.92c.066.12.14.273.22.46.093.173.186.353.28.54.093.173.173.32.24.44.4.747.82 1.587 1.26 2.52.453.933.873 1.84 1.26 2.72.253.587.52 1.253.8 2 .293.747.58 1.52.86 2.32a95 95 0 0 1 .78 2.28c.253.733.466 1.38.64 1.94l-2.18.56a65.097 65.097 0 0 0-1.64-5.54c-.334-.96-.687-1.86-1.06-2.7-.294-.667-.58-1.313-.86-1.94a59.52 59.52 0 0 0-.82-1.76 16.535 16.535 0 0 0-.76-1.46c-.134-.213-.3-.473-.5-.78a9.303 9.303 0 0 0-.56-.78l2.04-.82Zm-3.88 5.86c.333-.08.673-.18 1.02-.3.346-.12.606-.22.78-.3.626-.24 1.3-.52 2.02-.84.733-.333 1.48-.667 2.24-1a41.801 41.801 0 0 1 2.32-.96 19.07 19.07 0 0 1 2.28-.7 8.656 8.656 0 0 1 2.1-.28c.973 0 1.806.173 2.5.52.693.347 1.226.82 1.6 1.42.386.6.58 1.273.58 2.02 0 .84-.187 1.58-.56 2.22-.36.64-.894 1.147-1.6 1.52-.707.36-1.574.54-2.6.54-.56 0-1.114-.06-1.66-.18-.534-.12-.994-.247-1.38-.38l.06-2c.413.187.86.347 1.34.48.493.133.98.2 1.46.2.626 0 1.153-.107 1.58-.32.426-.213.746-.507.96-.88.226-.373.34-.8.34-1.28 0-.373-.1-.713-.3-1.02-.2-.32-.5-.573-.9-.76-.4-.2-.894-.3-1.48-.3-.667 0-1.414.12-2.24.36a22.87 22.87 0 0 0-2.6.94c-.894.373-1.774.773-2.64 1.2-.867.427-1.674.827-2.42 1.2-.734.373-1.347.673-1.84.9l-.96-2.02Zm20.34-6.74h17.32v1.92h-17.32v-1.92Zm9.74 6.2 1.44-1.22c.573.387 1.173.807 1.8 1.26.64.453 1.273.927 1.9 1.42.626.48 1.206.953 1.74 1.42.546.467 1 .893 1.36 1.28l-1.58 1.46c-.334-.4-.76-.833-1.28-1.3a41.58 41.58 0 0 0-1.7-1.48c-.6-.507-1.22-1-1.86-1.48a43.491 43.491 0 0 0-1.82-1.36Zm-.56-5.52 2.08.76a26.918 26.918 0 0 1-2.72 4.04 26.383 26.383 0 0 1-3.56 3.66 23.407 23.407 0 0 1-4.24 2.86 4.67 4.67 0 0 0-.38-.54c-.16-.213-.32-.42-.48-.62a3.034 3.034 0 0 0-.44-.52 19.813 19.813 0 0 0 3.1-1.88c.973-.72 1.88-1.5 2.72-2.34a20.853 20.853 0 0 0 2.26-2.66c.666-.92 1.22-1.84 1.66-2.76Zm-1.56 4.36 2.06-2.04V146.64h-2.06v-12.1Zm19.98-6.44h2.02v3.42h-2.02v-3.42Zm-7.32 1.98h16.86v4.5h-2v-2.72h-12.94v2.72h-1.92v-4.5Zm6.56 2.48 1.98.42c-.374.8-.774 1.627-1.2 2.48a166.94 166.94 0 0 1-1.32 2.58c-.44.867-.874 1.687-1.3 2.46-.427.773-.814 1.467-1.16 2.08l-1.98-.52a57.78 57.78 0 0 0 1.2-2.08c.44-.773.88-1.587 1.32-2.44.453-.867.893-1.727 1.32-2.58.426-.853.806-1.653 1.14-2.4Zm5.2 4.34 2.1.3c-.414 1.547-.994 2.867-1.74 3.96a10.562 10.562 0 0 1-2.72 2.72c-1.054.72-2.28 1.3-3.68 1.74-1.4.453-2.96.813-4.68 1.08a2.764 2.764 0 0 0-.28-.56 70.68 70.68 0 0 0-.42-.62 3.905 3.905 0 0 0-.4-.54c2.24-.253 4.166-.667 5.78-1.24 1.613-.587 2.92-1.427 3.92-2.52 1.013-1.093 1.72-2.533 2.12-4.32Zm-12.26-1.22h17.8v1.8h-17.8v-1.8Zm3.38 5.8 1.34-1.34c1.013.28 2.08.62 3.2 1.02 1.133.387 2.253.807 3.36 1.26 1.106.44 2.146.893 3.12 1.36.973.467 1.806.92 2.5 1.36l-1.46 1.54a26.976 26.976 0 0 0-2.38-1.36 45.02 45.02 0 0 0-3.06-1.42 53.535 53.535 0 0 0-3.36-1.34 55.297 55.297 0 0 0-3.26-1.08Zm24.58-12.34c-.067.307-.127.587-.18.84-.04.253-.08.5-.12.74-.04.333-.1.773-.18 1.32-.067.533-.147 1.133-.24 1.8a76.03 76.03 0 0 0-.26 2.06c-.08.707-.16 1.4-.24 2.08-.08.667-.14 1.28-.18 1.84-.04.547-.06.993-.06 1.34 0 .907.26 1.613.78 2.12.533.507 1.34.76 2.42.76.973 0 1.806-.133 2.5-.4.706-.267 1.246-.64 1.62-1.12a2.63 2.63 0 0 0 .56-1.66c0-.68-.18-1.36-.54-2.04-.347-.68-.874-1.333-1.58-1.96l2.22-.46c.666.787 1.166 1.553 1.5 2.3.333.733.5 1.533.5 2.4 0 .987-.287 1.853-.86 2.6-.56.747-1.347 1.327-2.36 1.74-1.014.413-2.214.62-3.6.62-.974 0-1.847-.153-2.62-.46a3.91 3.91 0 0 1-1.84-1.46c-.44-.667-.66-1.553-.66-2.66 0-.413.033-.967.1-1.66.066-.693.146-1.453.24-2.28.106-.827.213-1.667.32-2.52.12-.867.22-1.68.3-2.44.093-.773.16-1.433.2-1.98.04-.4.06-.713.06-.94 0-.227-.014-.44-.04-.64l2.24.12Zm-6.72 2.58c.573.187 1.206.34 1.9.46.693.12 1.4.213 2.12.28.72.053 1.393.08 2.02.08.773 0 1.5-.02 2.18-.06.68-.053 1.293-.12 1.84-.2l-.06 1.88c-.627.053-1.247.1-1.86.14-.614.04-1.334.06-2.16.06-.614 0-1.28-.033-2-.1a28.947 28.947 0 0 1-2.12-.28 37.045 37.045 0 0 1-1.96-.42l.1-1.84Zm-.46 4.98c.68.227 1.38.407 2.1.54.72.133 1.433.227 2.14.28.72.04 1.4.06 2.04.06.653 0 1.326-.02 2.02-.06.706-.04 1.4-.1 2.08-.18l-.06 1.88c-.614.067-1.227.12-1.84.16-.614.027-1.247.04-1.9.04-1.2 0-2.387-.067-3.56-.2-1.174-.147-2.214-.347-3.12-.6l.1-1.92Zm22.794 9.52a27.178 27.178 0 0 0-1.38-1.56c-.493-.533-1-1.047-1.52-1.54a24.584 24.584 0 0 0-1.46-1.32l1.64-1.44c.48.387.987.84 1.52 1.36a34.225 34.225 0 0 1 1.56 1.58c.52.533.967 1.027 1.34 1.48l-1.7 1.44ZM67.66 159c-.013.187-.033.393-.06.62-.013.213-.027.46-.04.74-.013.227-.027.553-.04.98 0 .427-.007.9-.02 1.42v2.94c0 .613.013 1.28.04 2l.12 2.1c.04.693.073 1.333.1 1.92.04.587.06 1.067.06 1.44 0 .507-.127.98-.38 1.42-.253.44-.653.793-1.2 1.06-.547.28-1.26.42-2.14.42-1.507 0-2.653-.273-3.44-.82-.787-.533-1.18-1.3-1.18-2.3 0-.64.187-1.2.56-1.68.387-.48.933-.853 1.64-1.12.72-.28 1.573-.42 2.56-.42 1.067 0 2.067.12 3 .36.947.24 1.807.547 2.58.92.787.373 1.48.767 2.08 1.18.6.4 1.107.76 1.52 1.08l-1.16 1.78c-.467-.427-.993-.86-1.58-1.3-.587-.44-1.233-.84-1.94-1.2-.707-.36-1.46-.647-2.26-.86a9.528 9.528 0 0 0-2.5-.32c-.853 0-1.507.147-1.96.44-.44.28-.66.62-.66 1.02 0 .28.087.533.26.76.187.213.46.387.82.52.36.12.827.18 1.4.18.373 0 .707-.047 1-.14a1.38 1.38 0 0 0 .72-.48c.173-.24.26-.573.26-1 0-.347-.013-.813-.04-1.4-.027-.587-.053-1.22-.08-1.9a89.037 89.037 0 0 0-.06-2 41.675 41.675 0 0 1-.04-1.66v-1.44c.013-.507.02-1 .02-1.48V160.26c0-.173-.007-.387-.02-.64a3.062 3.062 0 0 0-.08-.62h2.14Zm-7.92 2.04c.333.053.72.107 1.16.16.453.053.913.107 1.38.16.48.04.933.073 1.36.1.427.013.8.02 1.12.02 1.32 0 2.647-.047 3.98-.14a42.49 42.49 0 0 0 4.04-.48v1.84c-.72.08-1.52.16-2.4.24-.88.08-1.8.147-2.76.2-.947.053-1.893.08-2.84.08-.44 0-.973-.02-1.6-.06a87.568 87.568 0 0 1-1.84-.14 47.832 47.832 0 0 1-1.58-.16l-.02-1.82Zm-.1 4.28c.333.053.72.107 1.16.16.44.04.893.073 1.36.1.467.027.907.053 1.32.08.427.013.793.02 1.1.02 1.08 0 2.093-.02 3.04-.06.96-.053 1.88-.12 2.76-.2.893-.093 1.76-.193 2.6-.3l-.02 1.86c-.68.093-1.347.173-2 .24-.653.053-1.313.1-1.98.14-.653.04-1.347.067-2.08.08-.72.013-1.507.02-2.36.02-.413 0-.913-.007-1.5-.02-.587-.027-1.18-.06-1.78-.1a34.87 34.87 0 0 1-1.6-.14l-.02-1.88Zm28.54-6.04c0 .093-.013.24-.04.44l-.04.6c-.013.187-.02.327-.02.42-.013.267-.027.62-.04 1.06v3.08c.013.533.02 1.04.02 1.52.013.48.02.88.02 1.2l-1.94-.8V164.54c0-.493-.007-.987-.02-1.48a41.324 41.324 0 0 0-.06-2.3 46.432 46.432 0 0 0-.08-.9 4.606 4.606 0 0 0-.08-.58h2.28Zm-10.9 2.66c.56 0 1.2-.007 1.92-.02.72-.027 1.473-.047 2.26-.06a138.308 138.308 0 0 1 4.66-.08c.72-.013 1.367-.02 1.94-.02h1.74c.6-.013 1.173-.02 1.72-.02.547 0 1.04.007 1.48.02h1.06l-.02 1.88a136.47 136.47 0 0 0-6.02-.12c-.893 0-1.807.013-2.74.04-.933.013-1.867.04-2.8.08-.933.027-1.84.06-2.72.1-.867.04-1.68.087-2.44.14l-.04-1.94Zm10.64 5.86c0 .973-.133 1.787-.4 2.44-.253.653-.627 1.147-1.12 1.48-.48.32-1.06.48-1.74.48-.413 0-.82-.073-1.22-.22a3.876 3.876 0 0 1-1.08-.68 3.398 3.398 0 0 1-.78-1.08c-.187-.44-.28-.947-.28-1.52 0-.707.167-1.327.5-1.86.347-.533.8-.953 1.36-1.26a3.92 3.92 0 0 1 1.88-.46c.813 0 1.493.187 2.04.56.56.36.98.86 1.26 1.5.28.627.42 1.34.42 2.14 0 .667-.1 1.353-.3 2.06a6.639 6.639 0 0 1-1 2.02c-.467.653-1.1 1.247-1.9 1.78-.787.533-1.773.973-2.96 1.32l-1.68-1.66c.88-.2 1.68-.453 2.4-.76a6.964 6.964 0 0 0 1.86-1.14 4.718 4.718 0 0 0 1.22-1.64c.28-.64.42-1.387.42-2.24 0-.787-.18-1.36-.54-1.72a1.68 1.68 0 0 0-1.28-.56c-.307 0-.6.073-.88.22-.267.147-.487.36-.66.64-.173.28-.26.627-.26 1.04 0 .547.18.98.54 1.3.373.32.793.48 1.26.48.387 0 .713-.107.98-.32.28-.227.473-.573.58-1.04.107-.48.08-1.093-.08-1.84l1.44.54Zm2.96-9c.24.347.493.74.76 1.18.267.44.493.84.68 1.2l-1.36.6c-.213-.4-.44-.813-.68-1.24-.24-.427-.493-.82-.76-1.18l1.36-.56Zm2.54-.54c.24.347.493.733.76 1.16.267.427.5.827.7 1.2l-1.38.6c-.2-.413-.427-.827-.68-1.24a14.611 14.611 0 0 0-.76-1.16l1.36-.56Zm10.48 4.72c.573.053 1.14.1 1.7.14a40.514 40.514 0 0 0 5.36-.12 32.72 32.72 0 0 0 3.34-.46v1.94c-1.067.173-2.2.3-3.4.38-1.187.08-2.373.127-3.56.14-.587 0-1.16-.013-1.72-.04a90.922 90.922 0 0 1-1.7-.1l-.02-1.88Zm7.26-3.5c-.027.2-.053.407-.08.62l-.04.62c-.013.227-.027.527-.04.9 0 .373-.007.78-.02 1.22v1.28c0 .84.013 1.647.04 2.42.04.773.08 1.507.12 2.2.04.693.073 1.347.1 1.96.027.6.04 1.147.04 1.64 0 .453-.06.887-.18 1.3-.12.413-.32.78-.6 1.1-.28.32-.66.567-1.14.74-.467.187-1.047.28-1.74.28-1.36 0-2.413-.267-3.16-.8-.747-.533-1.12-1.28-1.12-2.24 0-.613.167-1.16.5-1.64.347-.48.833-.86 1.46-1.14.64-.28 1.407-.42 2.3-.42.893 0 1.707.1 2.44.3a9.156 9.156 0 0 1 2.04.78c.627.32 1.187.673 1.68 1.06.507.387.967.76 1.38 1.12l-1.08 1.68a18.45 18.45 0 0 0-2.16-1.8 9.573 9.573 0 0 0-2.16-1.18c-.733-.28-1.5-.42-2.3-.42-.68 0-1.233.133-1.66.4-.413.267-.62.613-.62 1.04 0 .467.207.82.62 1.06.413.227.94.34 1.58.34.493 0 .88-.08 1.16-.24.28-.16.48-.393.6-.7.12-.307.18-.667.18-1.08 0-.347-.013-.813-.04-1.4-.027-.6-.06-1.253-.1-1.96-.04-.72-.073-1.453-.1-2.2-.027-.76-.04-1.487-.04-2.18v-3.38c0-.173-.013-.38-.04-.62a4.226 4.226 0 0 0-.08-.66h2.26Zm-9.82.18c-.04.107-.087.26-.14.46l-.16.6a52.468 52.468 0 0 0-.34 1.72c-.08.493-.167 1.04-.26 1.64-.08.587-.16 1.187-.24 1.8-.067.613-.127 1.2-.18 1.76-.04.56-.06 1.053-.06 1.48a14.324 14.324 0 0 0 .16 2.14c.093-.28.2-.567.32-.86.12-.307.24-.607.36-.9.133-.293.253-.56.36-.8l1 .78-.56 1.64c-.2.573-.38 1.12-.54 1.64a28.3 28.3 0 0 0-.34 1.3 8.833 8.833 0 0 0-.08.48c-.013.173-.02.32-.02.44.013.093.02.207.02.34a20 20 0 0 0 .04.4l-1.78.14c-.213-.707-.4-1.6-.56-2.68a27.854 27.854 0 0 1-.22-3.68c0-.747.033-1.52.1-2.32.067-.813.147-1.607.24-2.38.107-.773.207-1.48.3-2.12.093-.64.173-1.16.24-1.56.027-.253.053-.527.08-.82a9.84 9.84 0 0 0 .08-.84l2.18.2Zm15.5 6.5h18.4v2.08h-18.4v-2.08Zm23.88-2.42h14.08v1.52h-14.08v-1.52Zm.22 5.82h11.26v1.52h-11.26v-1.52Zm2.78-7.38h1.8v4.86h4.34v-4.86h1.86v6.32h-8v-6.32Zm7.98 7.38h.38l.34-.08 1.18.62a9.154 9.154 0 0 1-2.12 2.74c-.867.747-1.86 1.38-2.98 1.9-1.107.52-2.3.933-3.58 1.24-1.28.307-2.613.547-4 .72-.053-.227-.16-.5-.32-.82a5.908 5.908 0 0 0-.46-.76 32.203 32.203 0 0 0 3.68-.56c1.2-.253 2.313-.587 3.34-1 1.04-.427 1.947-.947 2.72-1.56a6.45 6.45 0 0 0 1.82-2.18v-.26Zm-6.94 1.24c.613.827 1.447 1.533 2.5 2.12 1.053.587 2.26 1.06 3.62 1.42 1.373.36 2.847.613 4.42.76-.12.133-.253.3-.4.5-.147.2-.28.393-.4.58-.12.2-.22.387-.3.56a25.446 25.446 0 0 1-4.56-1c-1.4-.44-2.653-1.02-3.76-1.74a10.289 10.289 0 0 1-2.76-2.6l1.64-.6Zm.86-12.68h1.96v2.86h-1.96v-2.86Zm-6.36 1.9h15.68v1.7h-15.68v-1.7Zm-.94 0h1.82v5.72c0 .787-.027 1.653-.08 2.6-.04.947-.133 1.913-.28 2.9-.133.987-.34 1.947-.62 2.88-.267.933-.62 1.787-1.06 2.56a4.123 4.123 0 0 0-.46-.38c-.187-.133-.38-.267-.58-.4-.2-.12-.373-.207-.52-.26.413-.72.74-1.5.98-2.34.24-.84.413-1.7.52-2.58.12-.893.193-1.767.22-2.62.04-.853.06-1.64.06-2.36v-5.72Zm26.12-1.12a3.15 3.15 0 0 0-.06.46c-.013.173-.033.36-.06.56-.013.187-.027.36-.04.52-.013.347-.033.76-.06 1.24-.013.467-.033.98-.06 1.54l-.04 1.66v1.58c0 .52.007 1.1.02 1.74l.04 1.9c.013.613.027 1.187.04 1.72.013.52.02.933.02 1.24 0 .707-.087 1.26-.26 1.66-.16.4-.387.68-.68.84-.28.16-.62.24-1.02.24-.427 0-.893-.093-1.4-.28a6.214 6.214 0 0 1-1.44-.76 4.463 4.463 0 0 1-1.12-1.12 2.362 2.362 0 0 1-.44-1.36c0-.613.233-1.22.7-1.82.48-.613 1.107-1.173 1.88-1.68.773-.507 1.593-.92 2.46-1.24a16.822 16.822 0 0 1 2.78-.76c.947-.173 1.807-.26 2.58-.26 1 0 1.893.167 2.68.5.787.333 1.407.813 1.86 1.44.453.627.68 1.367.68 2.22 0 .787-.16 1.493-.48 2.12-.307.627-.78 1.16-1.42 1.6-.64.44-1.447.78-2.42 1.02-.453.093-.9.16-1.34.2-.427.04-.827.073-1.2.1l-.72-2.04c.4.013.807.013 1.22 0 .413-.013.807-.06 1.18-.14a6.474 6.474 0 0 0 1.56-.5c.48-.24.86-.553 1.14-.94.293-.4.44-.88.44-1.44 0-.52-.14-.953-.42-1.3-.28-.36-.66-.633-1.14-.82-.48-.187-1.027-.28-1.64-.28-.867 0-1.727.093-2.58.28-.853.173-1.693.42-2.52.74a9.078 9.078 0 0 0-1.68.86c-.507.333-.907.68-1.2 1.04-.293.347-.44.68-.44 1 0 .2.067.393.2.58.133.173.293.327.48.46.2.133.407.24.62.32.213.08.407.12.58.12.2 0 .36-.067.48-.2.133-.147.2-.387.2-.72 0-.373-.013-.9-.04-1.58-.013-.68-.027-1.427-.04-2.24-.013-.827-.02-1.62-.02-2.38v-1.78c.013-.627.02-1.227.02-1.8.013-.573.02-1.08.02-1.52.013-.44.02-.76.02-.96 0-.147-.007-.32-.02-.52l-.04-.58c-.013-.2-.033-.36-.06-.48h2.2Zm5.98 2.2c.493.24 1.04.54 1.64.9.613.347 1.193.7 1.74 1.06.56.347 1.007.653 1.34.92l-.98 1.6a7.368 7.368 0 0 0-.96-.74c-.387-.267-.807-.54-1.26-.82-.44-.28-.873-.54-1.3-.78-.413-.253-.78-.46-1.1-.62l.88-1.52Zm-12.12 1.26c.573.067 1.067.113 1.48.14.413.013.807.02 1.18.02.493 0 1.053-.027 1.68-.08.627-.053 1.26-.12 1.9-.2.653-.08 1.287-.18 1.9-.3a24.074 24.074 0 0 0 1.7-.42l.04 1.96a30.96 30.96 0 0 1-1.78.34c-.64.107-1.293.207-1.96.3-.653.08-1.28.147-1.88.2-.587.04-1.107.06-1.56.06-.6 0-1.107-.007-1.52-.02a73.526 73.526 0 0 1-1.12-.08l-.06-1.92Zm22.72 4.3h9.9V168h-9.9v-1.34Zm2.5 2.38h4.98v1.1h-4.98v-1.1Zm0 2.18h4.98v1.12h-4.98v-1.12Zm4.32-3.9h1.72v8.86h-1.72v-8.86Zm-5.48.02h1.68v6.88h-1.68v-6.88Zm-1.58 6.48c.68-.04 1.453-.08 2.32-.12.867-.053 1.793-.107 2.78-.16l2.96-.2v1.38c-1.44.107-2.86.207-4.26.3s-2.64.18-3.72.26l-.08-1.46Zm-2.14-12.2H184v1.26h-5.36v-1.26Zm9.26 0h5.38v1.26h-5.38v-1.26Zm4.64-2.68h1.88v15.44c0 .507-.06.907-.18 1.2-.12.307-.34.54-.66.7-.32.16-.733.26-1.24.3-.507.04-1.133.06-1.88.06a2.936 2.936 0 0 0-.12-.6 7.891 7.891 0 0 0-.2-.7 2.645 2.645 0 0 0-.24-.58c.48.013.94.02 1.38.02h.88c.147-.013.247-.047.3-.1.053-.067.08-.173.08-.32v-15.42Zm-13.72 0h6.36v6.72h-6.36v-1.38h4.58v-3.96h-4.58v-1.38Zm14.68 0v1.38h-4.94v4h4.94v1.36h-6.74v-6.74h6.74Zm-15.82 0h1.86v17.76h-1.86v-17.76Zm27.28.38c-.04.2-.087.427-.14.68-.053.253-.1.487-.14.7l-.2 1c-.067.387-.14.793-.22 1.22-.08.413-.167.813-.26 1.2a61.355 61.355 0 0 1-1.2 4.3 38.54 38.54 0 0 1-.88 2.54c-.32.853-.673 1.693-1.06 2.52-.373.813-.78 1.573-1.22 2.28l-2.06-.82c.467-.627.9-1.32 1.3-2.08.4-.773.767-1.567 1.1-2.38a43.381 43.381 0 0 0 1.58-4.66c.2-.693.353-1.287.46-1.78a28.54 28.54 0 0 0 .44-2.56c.12-.853.173-1.653.16-2.4l2.34.24Zm6.9 2.02c.307.413.633.933.98 1.56a34.41 34.41 0 0 1 1.02 2c.347.707.653 1.387.92 2.04.28.653.5 1.213.66 1.68l-1.98.92a16.248 16.248 0 0 0-.58-1.8c-.24-.68-.52-1.367-.84-2.06a19.323 19.323 0 0 0-1-1.96 10.82 10.82 0 0 0-1.04-1.58l1.86-.8Zm-14.5 2.24a24.666 24.666 0 0 0 1.94 0c.32-.013.713-.033 1.18-.06.467-.04.967-.08 1.5-.12.547-.053 1.087-.1 1.62-.14a40.885 40.885 0 0 1 1.5-.12c.453-.027.82-.04 1.1-.04.653 0 1.233.107 1.74.32.507.2.907.56 1.2 1.08.307.52.46 1.247.46 2.18 0 .787-.033 1.64-.1 2.56-.067.907-.187 1.78-.36 2.62-.16.827-.387 1.52-.68 2.08-.32.693-.74 1.153-1.26 1.38-.507.24-1.113.36-1.82.36-.373 0-.78-.027-1.22-.08-.44-.053-.827-.12-1.16-.2l-.32-2.08c.267.067.553.133.86.2.32.067.62.12.9.16.28.027.507.04.68.04.36 0 .673-.06.94-.18.28-.133.513-.393.7-.78.2-.413.367-.947.5-1.6.133-.653.233-1.353.3-2.1.067-.747.1-1.467.1-2.16 0-.587-.087-1.02-.26-1.3a1.17 1.17 0 0 0-.7-.56 3.284 3.284 0 0 0-1.08-.16c-.32 0-.76.027-1.32.08a52.93 52.93 0 0 0-1.76.16c-.627.067-1.207.133-1.74.2-.533.053-.953.1-1.26.14-.253.027-.58.067-.98.12-.387.053-.72.107-1 .16l-.2-2.16Zm33.66-4.12a8.82 8.82 0 0 0-.04.44l-.04.58c-.013.2-.02.387-.02.56-.013.413-.02.833-.02 1.26 0 .427-.007.84-.02 1.24 0 .387-.007.753-.02 1.1a93.818 93.818 0 0 1-.06 1.74 59.07 59.07 0 0 1-.1 1.76c-.04.547-.093.993-.16 1.34-.093.48-.267.807-.52.98-.253.16-.62.24-1.1.24-.24 0-.547-.013-.92-.04l-1.06-.12c-.347-.053-.62-.1-.82-.14l.04-1.74c.333.067.68.127 1.04.18.373.053.667.08.88.08.227 0 .393-.033.5-.1.12-.067.187-.207.2-.42.053-.253.087-.587.1-1 .027-.413.053-.86.08-1.34.027-.493.04-.967.04-1.42.013-.373.02-.753.02-1.14v-2.4c0-.16-.013-.34-.04-.54l-.04-.62c-.013-.2-.033-.36-.06-.48h2.14Zm-7.9.62a96.23 96.23 0 0 0-.08.84c-.013.293-.02.62-.02.98 0 .387-.007.9-.02 1.54 0 .627-.007 1.307-.02 2.04v4.04c0 .56.007.993.02 1.3.013.52.047.953.1 1.3.053.347.187.62.4.82.213.2.547.347 1 .44.467.093 1.1.14 1.9.14.693 0 1.413-.02 2.16-.06a43.92 43.92 0 0 0 2.12-.2c.667-.08 1.227-.16 1.68-.24l-.06 2.14c-.44.053-.987.1-1.64.14a81.1 81.1 0 0 1-2.06.14c-.72.04-1.413.06-2.08.06-1.213 0-2.18-.073-2.9-.22-.72-.147-1.26-.387-1.62-.72-.36-.347-.6-.8-.72-1.36s-.193-1.253-.22-2.08c0-.293-.007-.687-.02-1.18V162c0-.36-.013-.687-.04-.98a7.763 7.763 0 0 0-.1-.94h2.22Zm-6.28 4.66c.293 0 .633-.007 1.02-.02.4-.027.813-.06 1.24-.1.427-.04 1.04-.1 1.84-.18.8-.08 1.707-.167 2.72-.26a586.66 586.66 0 0 1 3.18-.28c1.107-.107 2.173-.2 3.2-.28 1.027-.08 1.94-.147 2.74-.2.267-.013.553-.027.86-.04.307-.027.593-.053.86-.08v1.96a2.878 2.878 0 0 0-.48 0h-.66c-.227 0-.427.007-.6.02-.52 0-1.16.027-1.92.08-.76.053-1.573.12-2.44.2-.867.067-1.753.147-2.66.24-.907.08-1.78.167-2.62.26-.827.08-1.58.16-2.26.24a51.214 51.214 0 0 0-2.36.28c-.267.027-.533.06-.8.1l-.64.1-.22-2.04Zm33.5-4.34a29.914 29.914 0 0 0-1.54 1.24c-.333.28-.74.613-1.22 1s-.987.793-1.52 1.22c-.52.427-1.027.84-1.52 1.24-.493.387-.913.733-1.26 1.04-.373.32-.627.587-.76.8a.563.563 0 0 0 0 .64c.147.2.413.473.8.82.347.28.753.613 1.22 1 .48.387.987.807 1.52 1.26.547.44 1.1.9 1.66 1.38.56.48 1.1.953 1.62 1.42.52.467.987.907 1.4 1.32l-1.82 1.66a34.112 34.112 0 0 0-1.52-1.62 29.214 29.214 0 0 0-1.26-1.22 68.864 68.864 0 0 0-1.64-1.46 83.86 83.86 0 0 0-1.72-1.48c-.573-.493-1.093-.933-1.56-1.32-.64-.547-1.053-1.033-1.24-1.46-.187-.427-.16-.853.08-1.28.253-.427.693-.9 1.32-1.42.387-.32.84-.687 1.36-1.1.52-.427 1.053-.873 1.6-1.34.56-.467 1.087-.913 1.58-1.34a24.8 24.8 0 0 0 2-1.92c.253-.28.44-.527.56-.74l1.86 1.66Zm14.18-.98c-.067.24-.14.54-.22.9l-.16.82a117.454 117.454 0 0 1-.78 3.7c-.16.707-.327 1.393-.5 2.06a62.799 62.799 0 0 1-.66 2.3c-.24.827-.507 1.667-.8 2.52-.28.84-.567 1.64-.86 2.4-.28.747-.56 1.407-.84 1.98l-2.2-.74c.307-.507.62-1.12.94-1.84a44.985 44.985 0 0 0 1.78-4.84c.267-.827.493-1.587.68-2.28.133-.467.26-.953.38-1.46.12-.52.233-1.02.34-1.5.107-.48.193-.927.26-1.34.067-.427.12-.773.16-1.04a6.36 6.36 0 0 0 .08-1 8.522 8.522 0 0 0 0-.82l2.4.18Zm-4.72 3.2c.773 0 1.593-.04 2.46-.12.867-.08 1.747-.193 2.64-.34.907-.147 1.78-.32 2.62-.52v1.96c-.827.187-1.7.347-2.62.48-.92.133-1.82.24-2.7.32a32.066 32.066 0 0 1-4.8.02l-.04-1.96c.493.053.927.093 1.3.12.373.027.753.04 1.14.04Zm6.3 2.88a32.824 32.824 0 0 1 1.8-.12c.653-.04 1.3-.06 1.94-.06.587 0 1.173.013 1.76.04.6.013 1.18.053 1.74.12l-.06 1.92a26.102 26.102 0 0 0-1.64-.16c-.573-.053-1.16-.08-1.76-.08-.653 0-1.293.02-1.92.06-.613.027-1.233.073-1.86.14v-1.86Zm.7 4.94c-.067.307-.127.613-.18.92-.053.293-.08.567-.08.82 0 .227.04.447.12.66.093.2.247.38.46.54.227.16.54.287.94.38.413.093.94.14 1.58.14.653 0 1.32-.033 2-.1.68-.08 1.347-.18 2-.3l-.06 2.02c-.56.067-1.173.127-1.84.18-.653.067-1.36.1-2.12.1-1.627 0-2.873-.26-3.74-.78-.853-.52-1.28-1.273-1.28-2.26 0-.427.033-.847.1-1.26.067-.427.14-.84.22-1.24l1.88.18Zm4.38-10.42c.173.24.36.527.56.86.2.32.393.653.58 1 .187.333.347.627.48.88l-1.32.58c-.12-.28-.273-.58-.46-.9-.187-.333-.38-.667-.58-1a8.432 8.432 0 0 0-.56-.88l1.3-.54Zm2.28-.86c.173.253.36.547.56.88.213.333.42.667.62 1 .2.333.36.62.48.86l-1.3.58a20.02 20.02 0 0 0-.78-1.44 18.4 18.4 0 0 0-.86-1.34l1.28-.54Zm12.86 1.66a40.633 40.633 0 0 0-.24-.78c-.093-.307-.2-.613-.32-.92l2.16-.26c.067.44.167.913.3 1.42.133.493.28.987.44 1.48.16.493.313.96.46 1.4.307.84.68 1.68 1.12 2.52.453.827.873 1.5 1.26 2.02.147.213.3.42.46.62.16.2.327.387.5.56l-1 1.44a9.044 9.044 0 0 0-1.02-.18 61.099 61.099 0 0 0-2.74-.3c-.467-.04-.893-.08-1.28-.12l.14-1.66c.36.027.74.06 1.14.1.4.027.78.06 1.14.1.36.027.653.053.88.08a32.772 32.772 0 0 1-.86-1.42 38.91 38.91 0 0 1-.86-1.66 19.683 19.683 0 0 1-.74-1.76 68.44 68.44 0 0 1-.56-1.52c-.147-.453-.273-.84-.38-1.16Zm-7.3 1.28a53.41 53.41 0 0 0 3.36.28c1.067.053 2.073.067 3.02.04a34.91 34.91 0 0 0 2.58-.16c.56-.067 1.133-.147 1.72-.24a37.196 37.196 0 0 0 1.74-.36c.587-.133 1.14-.287 1.66-.46l.24 2c-.453.12-.953.24-1.5.36-.533.107-1.08.207-1.64.3-.56.08-1.093.153-1.6.22a41.498 41.498 0 0 1-4.32.24 61.296 61.296 0 0 1-5.22-.2l-.04-2.02Zm3.5 6.56c-.307.48-.547.947-.72 1.4-.16.44-.24.893-.24 1.36 0 .893.387 1.547 1.16 1.96.787.413 1.9.627 3.34.64a24.336 24.336 0 0 0 2.88-.12 24.47 24.47 0 0 0 2.36-.36l-.1 2c-.6.107-1.34.207-2.22.3-.867.107-1.88.153-3.04.14-1.307 0-2.44-.167-3.4-.5-.96-.32-1.7-.793-2.22-1.42-.52-.64-.78-1.42-.78-2.34 0-.587.087-1.16.26-1.72.187-.56.433-1.153.74-1.78l1.98.44Zm18.26-7.76c-.04.187-.073.413-.1.68l-.08.8c-.013.267-.02.493-.02.68v1.38l.04 1.56c.013.52.047 1.04.1 1.56.107 1.053.267 1.973.48 2.76.213.787.487 1.4.82 1.84.333.44.72.66 1.16.66.253 0 .493-.12.72-.36.227-.24.44-.56.64-.96.2-.4.38-.833.54-1.3.173-.48.32-.94.44-1.38l1.58 1.86c-.427 1.133-.853 2.04-1.28 2.72-.413.667-.84 1.147-1.28 1.44-.44.293-.907.44-1.4.44-.667 0-1.307-.227-1.92-.68-.6-.467-1.12-1.227-1.56-2.28-.44-1.053-.753-2.46-.94-4.22-.067-.587-.12-1.22-.16-1.9-.027-.68-.047-1.327-.06-1.94v-1.52c0-.253-.013-.56-.04-.92a4.66 4.66 0 0 0-.12-.96l2.44.04Zm10.24.5c.36.467.707 1.013 1.04 1.64.347.613.66 1.28.94 2 .28.72.527 1.453.74 2.2.227.747.413 1.487.56 2.22.147.733.247 1.427.3 2.08l-2.06.8a26.74 26.74 0 0 0-1.12-5.52 18.449 18.449 0 0 0-1.04-2.62c-.387-.827-.833-1.54-1.34-2.14l1.98-.66Zm8.86 8.68a2.91 2.91 0 0 1 1.58.44c.467.28.84.653 1.12 1.12.28.467.42.993.42 1.58 0 .573-.14 1.1-.42 1.58-.28.467-.653.84-1.12 1.12-.467.28-.993.42-1.58.42-.573 0-1.1-.14-1.58-.42a3.382 3.382 0 0 1-1.14-1.12 3.08 3.08 0 0 1-.42-1.58c0-.587.14-1.113.42-1.58.293-.467.673-.84 1.14-1.12a2.976 2.976 0 0 1 1.58-.44Zm0 5.06c.533 0 .987-.187 1.36-.56.373-.373.56-.827.56-1.36 0-.36-.087-.68-.26-.96a1.807 1.807 0 0 0-.68-.7 1.892 1.892 0 0 0-.98-.26c-.347 0-.667.087-.96.26a1.957 1.957 0 0 0-.7.7c-.173.28-.26.6-.26.96 0 .347.087.673.26.98.173.293.407.527.7.7.293.16.613.24.96.24ZM34.264 63.016l-.096.8c-.042.341-.085.693-.127 1.056a175.406 175.406 0 0 0-.192 2.976 3120.37 3120.37 0 0 0-.128 4.608v2.304c0 .875.01 1.845.032 2.912l.063 3.136c.043 1.024.064 1.963.064 2.816.022.853.032 1.515.032 1.984 0 1.323-.149 2.347-.447 3.072-.278.725-.683 1.227-1.217 1.504-.533.299-1.151.448-1.855.448-.768 0-1.59-.16-2.465-.48a9.35 9.35 0 0 1-2.463-1.28 7.91 7.91 0 0 1-1.857-1.92 4.43 4.43 0 0 1-.704-2.4c0-1.024.384-2.037 1.152-3.04.79-1.024 1.825-1.963 3.104-2.816a18.633 18.633 0 0 1 4.192-2.048 22.419 22.419 0 0 1 4.417-1.152c1.514-.256 2.88-.384 4.096-.384 1.642 0 3.125.277 4.447.832 1.323.533 2.38 1.323 3.169 2.368.789 1.045 1.183 2.304 1.183 3.776 0 1.237-.234 2.379-.703 3.424-.47 1.045-1.227 1.952-2.273 2.72-1.024.747-2.389 1.333-4.096 1.76-.725.15-1.45.256-2.175.32a37.6 37.6 0 0 1-2.017.192l-1.471-4.128c.725 0 1.418-.01 2.08-.032a20.853 20.853 0 0 0 1.855-.192 9.64 9.64 0 0 0 2.369-.768c.704-.341 1.258-.79 1.664-1.344.405-.555.608-1.216.608-1.984 0-.725-.203-1.344-.608-1.856-.384-.512-.928-.907-1.633-1.184-.704-.277-1.525-.416-2.464-.416-1.343 0-2.709.139-4.095.416a23.925 23.925 0 0 0-3.936 1.152c-.94.363-1.782.79-2.528 1.28-.747.47-1.334.96-1.76 1.472-.427.512-.64 1.003-.64 1.472 0 .256.074.501.223.736a2.8 2.8 0 0 0 .64.576c.256.17.512.31.768.416.278.085.512.128.704.128.3 0 .545-.085.737-.256.192-.192.288-.555.288-1.088 0-.576-.022-1.397-.064-2.464a286.95 286.95 0 0 0-.096-3.616 244.464 244.464 0 0 1-.032-3.936v-2.72c.02-.917.032-1.792.032-2.624v-2.208c.02-.64.032-1.141.032-1.504a18.658 18.658 0 0 0-.128-1.984c-.022-.384-.054-.661-.096-.832h4.415Zm9.12 3.456c.811.384 1.718.853 2.72 1.408a70.809 70.809 0 0 1 2.913 1.664c.938.533 1.685 1.013 2.24 1.44l-1.92 3.264a16 16 0 0 0-1.6-1.152 41.625 41.625 0 0 0-2.113-1.312 61.18 61.18 0 0 0-2.175-1.248 22.833 22.833 0 0 0-1.825-.96l1.76-3.104Zm-19.616 1.76c.94.107 1.76.181 2.465.224.725.021 1.375.032 1.951.032.832 0 1.75-.032 2.752-.096a83.552 83.552 0 0 0 3.072-.32 60.07 60.07 0 0 0 3.04-.512 30.373 30.373 0 0 0 2.72-.64l.096 3.968c-.895.213-1.866.405-2.911.576-1.046.15-2.102.288-3.169.416a54.746 54.746 0 0 1-3.008.288c-.938.064-1.76.096-2.463.096-1.067 0-1.942-.01-2.624-.032a22.396 22.396 0 0 1-1.857-.128l-.064-3.872Zm36.513-3.328h21.824v3.168H60.28v-3.168Zm.352 4.704h18.56v3.104h-18.56v-3.104Zm-3.809 4.704H75.29v3.2H56.823v-3.2Zm3.073-12.64 4.032.864c-.769 2.581-1.803 4.97-3.105 7.168-1.3 2.197-2.73 4.01-4.288 5.44-.234-.235-.575-.501-1.023-.8a29 29 0 0 0-1.313-.928c-.448-.32-.832-.565-1.152-.736 1.58-1.216 2.955-2.795 4.128-4.736a24.835 24.835 0 0 0 2.72-6.272Zm7.904 16 3.743 1.216a27.844 27.844 0 0 1-3.903 5.568 32.253 32.253 0 0 1-4.993 4.512 35.842 35.842 0 0 1-5.664 3.392 15.684 15.684 0 0 0-.8-.96 12.92 12.92 0 0 0-1.055-1.12 16.169 16.169 0 0 0-.96-.896 30.393 30.393 0 0 0 5.536-2.912 24.713 24.713 0 0 0 4.671-3.968 21.906 21.906 0 0 0 3.424-4.832Zm6.24-3.36h3.936c0 1.92.02 3.723.063 5.408.043 1.664.14 3.125.288 4.384.171 1.237.406 2.219.704 2.944.3.704.683 1.056 1.153 1.056.255-.021.426-.427.511-1.216.086-.79.14-1.824.16-3.104.363.427.769.864 1.217 1.312.469.427.896.79 1.28 1.088-.086 1.323-.246 2.41-.48 3.264-.214.853-.555 1.472-1.025 1.856-.469.405-1.109.608-1.92.608-1.343 0-2.41-.459-3.2-1.376-.767-.896-1.343-2.144-1.727-3.744-.385-1.621-.64-3.499-.769-5.632a114.664 114.664 0 0 1-.192-6.848Zm-17.152 6.912 2.72-2.528a67.226 67.226 0 0 1 3.648 2.08 69.757 69.757 0 0 1 3.776 2.368 54.861 54.861 0 0 1 3.487 2.496c1.067.81 1.963 1.59 2.689 2.336l-3.073 2.912c-.66-.725-1.504-1.515-2.527-2.368a45.168 45.168 0 0 0-3.328-2.56 66.641 66.641 0 0 0-3.713-2.528 83.796 83.796 0 0 0-3.68-2.208Zm43.423-.704h13.633v3.232h-13.633V80.52Zm-1.727 7.264h16.8v3.392h-16.8v-3.392Zm1.344-24.512h11.84v3.296h-11.84v-3.296Zm5.28 13.696h3.776v12.928h-3.776V76.968Zm5.568-13.696h.704l.672-.128 2.4.896c-.704 2.667-1.739 4.95-3.104 6.848a18.792 18.792 0 0 1-4.896 4.736c-1.878 1.259-3.979 2.261-6.304 3.008a17.142 17.142 0 0 0-.896-1.6c-.363-.619-.726-1.11-1.088-1.472a18.92 18.92 0 0 0 4.256-1.632 17.638 17.638 0 0 0 3.648-2.528 15.291 15.291 0 0 0 2.816-3.392 15.178 15.178 0 0 0 1.792-4.16v-.576Zm-6.496 3.104a14.328 14.328 0 0 0 2.592 4.032c1.088 1.195 2.378 2.219 3.872 3.072 1.493.832 3.178 1.472 5.056 1.92a9.975 9.975 0 0 0-.8.928c-.299.363-.587.736-.864 1.12a8.116 8.116 0 0 0-.608 1.056c-2.027-.597-3.84-1.419-5.44-2.464a17.265 17.265 0 0 1-4.096-3.776 22.75 22.75 0 0 1-2.912-5.024l3.2-.864ZM85.624 64.84H99.13v3.296H85.624V64.84Zm-.383 18.624h14.112v3.328H85.24v-3.328Zm5.376-21.696h3.423v9.472h-3.424v-9.472Zm.383 9.44h2.624v8.928h.416V91.88h-3.424V80.136h.385v-8.928Zm-2.272 5.728v1.952h7.265v-1.952h-7.264Zm0-4.384v1.92h7.265v-1.92h-7.264Zm-2.751-2.624h12.895v11.616H85.978V69.928Zm44.672-3.296c.981.128 2.08.224 3.295.288 1.238.043 2.486.064 3.745.064a97.456 97.456 0 0 0 3.68-.128c1.173-.085 2.186-.17 3.04-.256v4.128c-.982.085-2.059.16-3.232.224a102.09 102.09 0 0 1-7.264 0 107.876 107.876 0 0 1-3.264-.224v-4.096Zm2.559 13.664a17.495 17.495 0 0 0-.287 1.44 7.99 7.99 0 0 0-.096 1.248c0 .341.085.661.256.96.17.277.426.523.768.736.362.192.821.341 1.376.448.576.085 1.269.128 2.08.128 1.429 0 2.773-.064 4.032-.192a53.231 53.231 0 0 0 4-.64l.064 4.32a34.152 34.152 0 0 1-3.552.448c-1.323.107-2.891.16-4.704.16-2.752 0-4.8-.459-6.144-1.376-1.344-.939-2.016-2.23-2.016-3.872 0-.619.042-1.259.128-1.92.106-.683.245-1.43.416-2.24l3.679.352Zm-7.488-15.808a9.04 9.04 0 0 0-.287.896c-.107.384-.214.757-.32 1.12-.086.363-.15.64-.192.832a30.9 30.9 0 0 1-.32 1.76c-.128.704-.267 1.504-.416 2.4-.128.875-.256 1.77-.384 2.688a68.071 68.071 0 0 0-.32 2.656c-.064.853-.096 1.6-.096 2.24v1.024c.021.384.064.736.128 1.056.149-.363.309-.725.48-1.088l.512-1.088c.17-.384.32-.747.448-1.088l1.984 1.568c-.299.875-.608 1.813-.928 2.816a258.222 258.222 0 0 0-.832 2.848c-.235.875-.416 1.6-.544 2.176-.043.235-.086.501-.128.8-.022.299-.032.533-.032.704v.608c.021.256.042.49.063.704l-3.711.256c-.32-1.11-.608-2.581-.864-4.416-.256-1.856-.384-3.872-.384-6.048 0-1.195.053-2.41.16-3.648a77.05 77.05 0 0 1 .384-3.552c.149-1.152.288-2.197.415-3.136.15-.939.278-1.717.385-2.336.042-.448.096-.95.16-1.504.085-.576.138-1.12.16-1.632l4.479.384Zm28.24 1.568c1.173.15 2.496.256 3.968.32s3.05.096 4.736.096a84.93 84.93 0 0 0 3.264-.064c1.109-.043 2.186-.096 3.232-.16 1.045-.085 1.973-.16 2.784-.224v4.256c-.747.043-1.654.096-2.72.16-1.046.064-2.144.117-3.296.16a85.806 85.806 0 0 1-3.232.064c-1.664 0-3.211-.032-4.64-.096-1.43-.085-2.795-.17-4.096-.256v-4.256Zm2.688 13.568c-.15.555-.278 1.099-.384 1.632a8.115 8.115 0 0 0-.16 1.6c0 1.045.512 1.899 1.536 2.56 1.045.64 2.72.96 5.024.96 1.45 0 2.848-.053 4.192-.16a60.647 60.647 0 0 0 3.84-.416 30.91 30.91 0 0 0 3.2-.672l.032 4.48c-.918.213-1.963.405-3.136.576-1.152.17-2.4.299-3.744.384-1.323.107-2.731.16-4.224.16-2.454 0-4.491-.277-6.112-.832-1.622-.533-2.848-1.301-3.68-2.304-.811-1.024-1.216-2.272-1.216-3.744 0-.917.074-1.76.224-2.528.149-.79.277-1.483.384-2.08l4.224.384Zm16.128-16.864c.277.384.565.843.864 1.376a62.78 62.78 0 0 1 1.696 3.008l-2.592 1.12a50.17 50.17 0 0 0-1.184-2.272 21.722 21.722 0 0 0-1.312-2.208l2.528-1.024Zm3.808-1.44c.277.405.576.875.896 1.408.32.533.629 1.067.928 1.6.32.512.576.96.768 1.344l-2.56 1.088a71.493 71.493 0 0 0-1.216-2.24 18.628 18.628 0 0 0-1.376-2.176l2.56-1.024Zm19.808 9.792h11.456V74.6h-11.456v-3.488Zm0 7.584h11.456v3.456h-11.456v-3.456Zm0 7.552h11.456v3.488h-11.456v-3.488Zm-1.824-22.72h15.072V91.4h-3.84V67.176h-7.552v24.416h-3.68V63.528Zm-13.44 4.896h12.288v3.616h-12.288v-3.616Zm4.608-6.624h3.68v30.048h-3.68V61.8Zm-.192 9.088 2.272.8a54.668 54.668 0 0 1-.96 4.032 52.6 52.6 0 0 1-1.312 4.032 39.053 39.053 0 0 1-1.6 3.68c-.576 1.13-1.184 2.101-1.824 2.912-.171-.533-.438-1.141-.8-1.824a16.99 16.99 0 0 0-1.024-1.76 17.733 17.733 0 0 0 1.664-2.464 29.783 29.783 0 0 0 1.472-2.976 37.569 37.569 0 0 0 1.248-3.232c.362-1.11.65-2.176.864-3.2Zm3.616 2.816c.234.213.576.587 1.024 1.12.448.512.917 1.077 1.408 1.696.512.619.981 1.195 1.408 1.728.448.512.757.875.928 1.088l-2.208 3.104a40.572 40.572 0 0 0-2.08-3.616 100.75 100.75 0 0 0-1.248-1.888 65.457 65.457 0 0 0-.992-1.504l1.76-1.728Zm42.432-2.912 2.368-2.528c.917.512 1.92 1.099 3.008 1.76a62.698 62.698 0 0 1 3.168 2.016c1.024.661 1.856 1.259 2.496 1.792l-2.56 2.912c-.576-.576-1.355-1.216-2.336-1.92a78.781 78.781 0 0 0-3.104-2.112 152.98 152.98 0 0 0-3.04-1.92ZM233.8 75.4h1.92v4.864c0 .427.064.917.192 1.472.128.555.341 1.152.64 1.792.32.619.757 1.237 1.312 1.856.554.597 1.248 1.184 2.08 1.76.832.555 1.824 1.056 2.976 1.504-.32.448-.704.992-1.152 1.632-.448.64-.8 1.184-1.056 1.632a11.459 11.459 0 0 1-2.72-1.472 13.486 13.486 0 0 1-2.048-1.888 13.166 13.166 0 0 1-1.408-1.984c-.363-.661-.619-1.237-.768-1.728-.171.49-.459 1.056-.864 1.696-.384.64-.896 1.301-1.536 1.984-.64.661-1.398 1.28-2.272 1.856-.854.597-1.835 1.11-2.944 1.536-.15-.299-.352-.65-.608-1.056a18.288 18.288 0 0 0-.768-1.152 14.11 14.11 0 0 0-.768-.928c1.237-.427 2.293-.928 3.168-1.504.896-.576 1.642-1.173 2.24-1.792.597-.64 1.066-1.27 1.408-1.888.362-.64.608-1.248.736-1.824.149-.576.224-1.077.224-1.504V75.4h2.016Zm-1.728-13.6h3.776c-.086 1.92-.256 3.67-.512 5.248-.235 1.579-.662 2.997-1.28 4.256-.598 1.237-1.483 2.325-2.656 3.264-1.152.939-2.699 1.75-4.64 2.432-.171-.47-.47-1.003-.896-1.6-.427-.619-.843-1.099-1.248-1.44 1.685-.512 3.008-1.13 3.967-1.856.961-.747 1.675-1.61 2.145-2.592.49-1.003.821-2.133.992-3.392.17-1.28.288-2.72.352-4.32Zm-4.704 1.92 3.135.608a14.235 14.235 0 0 1-.863 3.264c-.427 1.088-.992 1.995-1.696 2.72L224.968 69c.576-.576 1.077-1.355 1.504-2.336.426-.981.725-1.963.896-2.944Zm-.384 13.888 3.36.672a16.278 16.278 0 0 1-1.088 3.648c-.491 1.173-1.131 2.155-1.92 2.944l-3.136-1.6c.682-.597 1.258-1.419 1.728-2.464a13.79 13.79 0 0 0 1.056-3.2Zm11.68-14.112 3.68 1.152c-.534.96-1.078 1.91-1.632 2.848a41.524 41.524 0 0 1-1.472 2.368l-2.88-1.088c.277-.47.565-1.013.864-1.632.298-.619.576-1.248.832-1.888.256-.64.458-1.227.608-1.76Zm.192 13.888 3.776 1.184c-.576.981-1.163 1.973-1.76 2.976-.576 1.003-1.12 1.845-1.632 2.528l-2.976-1.088c.32-.512.64-1.088.96-1.728.32-.661.618-1.333.896-2.016.298-.683.544-1.301.736-1.856Zm-24.704-5.76h9.664v2.912h-9.664v-2.912Zm.128-8.8h9.472v2.88h-9.472v-2.88Zm-.128 13.184h9.664v2.88h-9.664v-2.88Zm-1.504-8.896h12.224v3.04h-12.224v-3.04Zm3.168 13.312h8.064v9.76h-8.064v-3.04h4.768v-3.68h-4.768v-3.04Zm-1.728 0h3.232v11.008h-3.232V80.424Zm53.088-14.496c-.512.363-1.014.747-1.504 1.152a27.94 27.94 0 0 0-1.28 1.056 96.38 96.38 0 0 0-1.92 1.504l-2.304 1.824c-.79.619-1.558 1.227-2.304 1.824a53.56 53.56 0 0 0-1.92 1.6c-.555.49-.928.896-1.12 1.216-.192.299-.192.597 0 .896.213.299.608.704 1.184 1.216.469.405 1.066.907 1.792 1.504.746.597 1.546 1.259 2.4 1.984.874.704 1.76 1.44 2.656 2.208a71.89 71.89 0 0 1 2.624 2.24c.853.725 1.61 1.408 2.272 2.048l-3.744 3.424a90.231 90.231 0 0 0-2.784-2.976 47.997 47.997 0 0 0-1.92-1.792 73.985 73.985 0 0 0-2.528-2.272c-.896-.79-1.792-1.568-2.688-2.336a206.61 206.61 0 0 0-2.432-2.112c-1.067-.896-1.76-1.717-2.08-2.464-.299-.747-.256-1.483.128-2.208.405-.747 1.141-1.557 2.207-2.432a91.812 91.812 0 0 0 2.177-1.728c.81-.683 1.642-1.376 2.496-2.08.853-.725 1.664-1.419 2.432-2.08a71.542 71.542 0 0 0 1.952-1.792c.469-.47.938-.95 1.408-1.44.469-.49.821-.917 1.056-1.28l3.744 3.296Zm22.72-2.112c-.128.448-.267.981-.416 1.6a42.265 42.265 0 0 0-.288 1.44c-.15.725-.342 1.61-.576 2.656a263.955 263.955 0 0 1-.704 3.328 112.79 112.79 0 0 1-.8 3.36c-.299 1.11-.651 2.325-1.056 3.648a78.965 78.965 0 0 1-1.28 4 101.366 101.366 0 0 1-1.376 3.872 49.009 49.009 0 0 1-1.376 3.296l-4.48-1.504c.49-.81.992-1.803 1.504-2.976a71.223 71.223 0 0 0 1.568-3.744 82 82 0 0 0 1.408-4 88.63 88.63 0 0 0 1.088-3.68c.192-.768.384-1.547.576-2.336.192-.79.362-1.557.512-2.304.17-.747.309-1.44.416-2.08.128-.661.224-1.227.288-1.696a25.69 25.69 0 0 0 .128-1.792c.021-.597.01-1.088-.032-1.472l4.896.384Zm-8.16 4.8c1.301 0 2.656-.064 4.064-.192a59.566 59.566 0 0 0 4.256-.544 93.986 93.986 0 0 0 4.256-.864v4c-1.323.32-2.731.587-4.224.8a82.701 82.701 0 0 1-4.416.512 54.853 54.853 0 0 1-6.08.128 56.182 56.182 0 0 0-1.793-.096l-.095-4c.832.085 1.546.15 2.144.192.597.043 1.226.064 1.888.064Zm10.048 4.896a37.882 37.882 0 0 1 2.976-.224 53.978 53.978 0 0 1 3.168-.096c.917 0 1.845.021 2.784.064.96.043 1.909.117 2.848.224l-.096 3.84a58.21 58.21 0 0 0-2.624-.288 31.826 31.826 0 0 0-2.88-.128c-1.11 0-2.166.032-3.168.096a35.723 35.723 0 0 0-3.008.256v-3.744Zm1.728 8.032c-.128.448-.235.917-.32 1.408a7.41 7.41 0 0 0-.128 1.248c0 .363.074.693.224.992.149.299.384.565.704.8.32.213.757.384 1.312.512.576.107 1.29.16 2.144.16 1.066 0 2.154-.053 3.264-.16a39.32 39.32 0 0 0 3.392-.48l-.16 4.064c-.896.128-1.888.235-2.976.32-1.088.107-2.272.16-3.552.16-2.688 0-4.747-.448-6.176-1.344-1.408-.896-2.112-2.144-2.112-3.744 0-.747.053-1.493.16-2.24.128-.747.256-1.43.384-2.048l3.84.352Zm6.624-16.8c.277.384.565.843.864 1.376.32.533.629 1.067.928 1.6.298.533.544 1.003.736 1.408l-2.56 1.12a49.493 49.493 0 0 0-.736-1.472 62.632 62.632 0 0 0-.864-1.6 11.125 11.125 0 0 0-.896-1.376l2.528-1.056Zm3.776-1.44c.298.384.608.853.928 1.408.32.533.629 1.067.928 1.6.32.512.565.96.736 1.344l-2.528 1.088a53.155 53.155 0 0 0-1.216-2.272 19.93 19.93 0 0 0-1.376-2.144l2.528-1.024Zm20 2.976a47.03 47.03 0 0 1-.448-1.344 24.399 24.399 0 0 0-.576-1.6l4.32-.512c.17.832.362 1.664.576 2.496.213.81.448 1.61.704 2.4.256.768.512 1.493.768 2.176a34.837 34.837 0 0 0 1.728 3.904c.682 1.259 1.28 2.25 1.792 2.976.277.405.554.79.832 1.152.298.341.597.672.896.992l-1.984 2.88a27.798 27.798 0 0 0-1.696-.256 45.365 45.365 0 0 0-2.24-.288l-2.4-.256a51.05 51.05 0 0 0-2.176-.192l.32-3.392c.533.043 1.098.096 1.696.16.597.043 1.152.085 1.664.128.533.043.97.075 1.312.096a40.53 40.53 0 0 1-1.216-2.112c-.427-.79-.843-1.61-1.248-2.464a45.395 45.395 0 0 1-1.12-2.624c-.342-.896-.64-1.707-.896-2.432-.235-.725-.438-1.355-.608-1.888Zm-11.648 1.504c1.984.235 3.85.395 5.6.48 1.749.085 3.381.107 4.896.064a46.69 46.69 0 0 0 4.16-.288c.981-.128 1.93-.267 2.848-.416.938-.15 1.856-.33 2.752-.544a34.846 34.846 0 0 0 2.592-.704l.512 4.032c-.704.192-1.472.373-2.304.544-.811.17-1.654.33-2.528.48-.875.128-1.739.245-2.592.352-2.155.235-4.523.373-7.104.416-2.582.043-5.504-.064-8.768-.32l-.064-4.096Zm6.4 10.912a11.516 11.516 0 0 0-1.152 2.208 5.713 5.713 0 0 0-.417 2.112c0 1.344.587 2.325 1.761 2.944 1.173.597 2.848.896 5.024.896 1.749 0 3.328-.075 4.736-.224a47.55 47.55 0 0 0 3.84-.544l-.224 4.032c-.896.17-2.07.341-3.52.512-1.43.17-3.126.256-5.088.256-2.155-.021-4.032-.31-5.632-.864-1.6-.533-2.838-1.333-3.712-2.4-.875-1.088-1.312-2.39-1.312-3.904 0-.981.138-1.941.416-2.88.298-.96.725-1.984 1.28-3.072l4 .928Zm29.344-12.576c-.086.384-.16.821-.224 1.312l-.128 1.44c-.022.47-.032.853-.032 1.152-.022.704-.032 1.43-.032 2.176l.064 2.304c.042.768.096 1.536.16 2.304.149 1.536.362 2.89.64 4.064.277 1.173.64 2.09 1.088 2.752.448.64 1.013.96 1.696.96.362 0 .714-.203 1.056-.608.362-.405.682-.928.96-1.568.298-.661.554-1.355.768-2.08.234-.725.437-1.408.608-2.048l3.2 3.904c-.704 1.856-1.408 3.339-2.112 4.448-.683 1.088-1.398 1.877-2.144 2.368a4.487 4.487 0 0 1-2.432.704c-1.152 0-2.251-.384-3.296-1.152-1.024-.768-1.899-2.005-2.624-3.712-.726-1.728-1.238-4.021-1.536-6.88a62.605 62.605 0 0 1-.256-3.104 171.878 171.878 0 0 1-.096-3.104V69.32c0-.448-.022-.981-.064-1.6a16.545 16.545 0 0 0-.192-1.664l4.928.064Zm16 .736c.597.725 1.173 1.61 1.728 2.656a32.86 32.86 0 0 1 1.536 3.36 41.64 41.64 0 0 1 1.248 3.68c.362 1.237.65 2.453.864 3.648.234 1.173.384 2.25.448 3.232l-4.224 1.632a44.82 44.82 0 0 0-.576-4.256 42.066 42.066 0 0 0-1.12-4.64 31.187 31.187 0 0 0-1.696-4.416c-.64-1.387-1.398-2.581-2.272-3.584l4.064-1.312Z"/><defs><clipPath id="a"><path fill="#fff" d="M118 208h156v158H118z"/></clipPath></defs></svg>