<svg xmlns="http://www.w3.org/2000/svg" width="156" height="158" fill="none"><g clip-path="url(#a)"><path fill="#fff" d="M87.453 115.548c-1.592-12.973-3.43-28.362-3.537-33.638.905-1.174 1.652-2.136 2.5-3.12a43.54 43.54 0 0 1 2.202-2.363 1.159 1.159 0 0 1 1.394-.05 61.293 61.293 0 0 0 5.448 5.38 78.367 78.367 0 0 0 15.277-9.583c1.07-.875 2.314-.02 2.923 1.11l3.284 7.67.366.856c-6.127 15.888-17.468 37.839-24.748 52.542h-2.859c-.283-2.947-1.215-10.365-2.25-18.804Z"/><path fill="#fff" d="M92.764 79.262a48.999 48.999 0 0 1-2.752-2.883v-1.165c1.582.31 3.19.461 4.8.453.99 0 1.977-.049 2.96-.148a39.175 39.175 0 0 0 8.269-2.04 32.585 32.585 0 0 0 4.698-2.194v.892a78.375 78.375 0 0 1-15.277 9.583 89.797 89.797 0 0 1-2.698-2.498Z"/><path fill="#fff" d="M125.315 45.808a4.24 4.24 0 0 1 3.121-.404c2.07.505 2.736 1.77 2.986 2.483.747 2.13-.024 5.6-1.239 7.597a11.166 11.166 0 0 1-4.628 4.587 8.08 8.08 0 0 1-4.447.52l-.382.647c-.568.964-1.859 2.624-1.859 2.624a35.728 35.728 0 0 1-4.383 4.609l-1.945 1.684a30.598 30.598 0 0 1-6.497 3.326 39.142 39.142 0 0 1-8.268 2.04c-.984.1-1.971.15-2.96.149-6.323.003-11.385-2.112-15.938-6.576-4.342-4.258-5.848-10.502-5.994-17.27-.084-3.904-.084-8.14-.268-12.387 0 0-3.535-20.527 23.493-20.527 36.295-.006 29.208 26.898 29.208 26.898Z"/><path fill="#2D68A4" d="M66.284 88.075a66.909 66.909 0 0 1 8.595-4.307l8.995-3.977.044 2.12c.176 8.707 5.067 44.963 5.786 52.441h2.86c7.473-15.092 19.22-37.82 25.224-53.789 12.015 5.066 26.211 9.208 32.627 21.014 2.485 4.57 3.552 10.061 3.96 15.577.253 3.423.254 6.856.182 10.086a226.814 226.814 0 0 1-2.401 28.273H30.711c-2.546-9.668-4.846-18.455-7.218-27.964l21.463-6.665a1.229 1.229 0 0 1 1.204-.07 1.247 1.247 0 0 1 .694.99l2.569 7.091c1.069-7.766 1.67-15.748 4.103-23.247 1.923-5.926 5.085-11.599 9.897-15.535.91-.739 1.866-1.42 2.861-2.038Z"/><path fill="#211715" d="M76.11 87.257a58.38 58.38 0 0 0-4.38 6.072 1.359 1.359 0 0 0 0 1.398c1.46 1.969 2.804 4.025 4.302 5.966v-1.96l-4.197 4.841c-.256.295-.54.582-.767.9-.409.572-.265 1.128-.12 1.752l.513 2.194a49038.085 49038.085 0 0 1 4.443 19.043c.402 1.735 3.065 1 2.66-.737-1.691-7.26-3.386-14.519-5.082-21.778l-.355 1.348 4.857-5.6a1.441 1.441 0 0 0 0-1.96c.221.29-.136-.186-.204-.279a220.524 220.524 0 0 1-1.629-2.277c-.675-.953-1.342-1.912-2.038-2.848v1.398a52.914 52.914 0 0 1 3.948-5.511 1.43 1.43 0 0 0 0-1.96 1.386 1.386 0 0 0-1.951 0v-.002ZM123.125 89.163a25.347 25.347 0 0 1 3.268 8.327l.963-1.704c-2.305.923-4.673 1.697-6.922 2.764a1.405 1.405 0 0 0-.604 1.642c.067.2.178.383.325.533 1.823 1.905 3.377 4.053 5.201 5.959l-.216-1.679c-5.249 7.473-10.101 15.218-15.272 22.745a1.404 1.404 0 0 0 .495 1.896 1.402 1.402 0 0 0 1.887-.497c5.174-7.527 10.023-15.272 15.273-22.745a1.405 1.405 0 0 0-.216-1.68c-1.824-1.905-3.378-4.052-5.201-5.958l-.279 2.176c2.031-.963 4.18-1.647 6.266-2.482a1.443 1.443 0 0 0 .964-1.705 27.596 27.596 0 0 0-3.546-8.989c-.916-1.524-3.303-.133-2.383 1.4l-.003-.002Z"/><path fill="#E8B06E" d="M90.923 99.436c.182-.866.286-1.747.311-2.632-.045-1.458-.334-4.451-.444-6.131l-.028-.355c1.48-1.344 2.73-2.38 4.23-3.637.366-.307.822-.642 1.272-.485.206.089.386.23.523.408 1.462 1.65 2.755 3.143 4.032 4.809-.058.236-.098.414-.098.414-.605 2.57-1.888 7.375-1.954 8.277-.08 1.141.008 12.426.505 17.873l.115 2.693c-2.456 4.931-4.798 9.588-6.826 13.682h-2.858c-.297-3.079-1.3-11.038-2.39-19.945l.597-2.232c1.039-4.02 2.404-9.376 3.013-12.74Z"/><path fill="#211715" d="M116.127 81.07c-2.668 6.953-5.762 13.739-8.939 20.47-3.399 7.198-6.937 14.329-10.495 21.449-1.775 3.554-3.548 7.108-5.32 10.664l1.191-.686h-2.858l1.38 1.385c-.602-6.216-1.467-12.412-2.227-18.608-1.009-8.213-2.023-16.427-2.852-24.66-.306-3.047-.642-6.11-.709-9.174-.038-1.78-2.797-1.786-2.759 0 .058 2.62.325 5.24.575 7.847a631.5 631.5 0 0 0 1.26 11.64c.943 8.144 1.967 16.28 2.96 24.416.345 2.844.713 5.687.989 8.539.008.365.156.713.413.971s.603.407.967.415h2.858a1.372 1.372 0 0 0 1.192-.686c3.308-6.68 6.672-13.331 9.966-20.017 3.547-7.201 7.035-14.432 10.29-21.775 1.677-3.781 3.294-7.591 4.776-11.454a1.395 1.395 0 0 0-.963-1.704 1.408 1.408 0 0 0-1.695.967Z"/><path fill="#211715" d="M90.597 92.353a89.646 89.646 0 0 1 3.209-2.872c.498-.424.998-.845 1.498-1.264.25-.187.49-.386.718-.598l.18-.111a2.82 2.82 0 0 1-.495-.047c.082.104.169.204.26.299a69.54 69.54 0 0 1 5.431 6.797 1.414 1.414 0 0 0 1.887.497 1.398 1.398 0 0 0 .495-1.895 61.878 61.878 0 0 0-3.233-4.297 73.368 73.368 0 0 0-1.645-1.942 8.732 8.732 0 0 0-1.791-1.848c-1.758-1.07-3.488.955-4.714 1.99a95.305 95.305 0 0 0-3.754 3.333c-1.3 1.22.654 3.175 1.951 1.96l.003-.002Z"/><path fill="#211715" d="M89.41 90.673c.128 1.895.331 3.785.426 5.683.035 1.196-.1 2.39-.402 3.547-.787 4.003-1.835 7.956-2.855 11.903-.446 1.728 2.215 2.465 2.66.737 1.036-4.004 2.103-8.015 2.89-12.077a17.19 17.19 0 0 0 .469-4.031c-.09-1.924-.3-3.841-.43-5.762a1.422 1.422 0 0 0-.413-.97 1.41 1.41 0 0 0-.966-.416c-.365.003-.715.15-.973.41a1.4 1.4 0 0 0-.407.976h.001ZM99.391 91.459c-.483 2.04-1.02 4.068-1.507 6.108a15.092 15.092 0 0 0-.517 3.345c-.04 3.506.045 7.017.165 10.52.075 2.184.166 4.369.362 6.545.009.364.157.711.414.969s.602.407.965.416c.365-.002.715-.149.973-.408a1.4 1.4 0 0 0 .407-.977c-.352-3.926-.428-7.883-.493-11.822a223.75 223.75 0 0 1-.037-4.777c0-.389.024-.78.019-1.168 0-.054.011-.108.011-.162.006.441-.019.125.013-.035.078-.383.159-.766.247-1.148.514-2.231 1.11-4.442 1.638-6.67.41-1.732-2.25-2.473-2.661-.736h.001Z"/><path fill="#211715" d="M91.563 98.92c2.076.189 4.156.346 6.236.487.365-.002.715-.148.973-.408.259-.259.404-.61.406-.977a1.42 1.42 0 0 0-.413-.97 1.41 1.41 0 0 0-.966-.416c-2.08-.143-4.16-.298-6.236-.488a1.383 1.383 0 0 0-.974.408c-.258.26-.404.61-.406.978.01.364.158.712.414.97.257.257.603.406.966.415ZM84.892 82.89c.814-1.056 1.63-2.111 2.5-3.12a40.49 40.49 0 0 1 1.271-1.407c.241-.254.502-.496.733-.758.232-.263.214-.15-.052-.038.153-.065.263.006-.094-.115-.388-.132-.145-.019 0 .14a42.98 42.98 0 0 0 .871.952c.413.44.834.87 1.265 1.293a83.391 83.391 0 0 0 3.104 2.898 1.435 1.435 0 0 0 1.672.218 84.453 84.453 0 0 0 14.294-8.796c.282-.22.562-.441.841-.665.113-.107.234-.205.36-.295.33-.026.682.52.817.784.118.23.207.484.31.723l1.667 3.9 1.304 3.047a1.389 1.389 0 0 0 1.888.497 1.42 1.42 0 0 0 .495-1.895l-2.989-6.986c-.694-1.619-2.185-3.266-4.135-2.751a5.315 5.315 0 0 0-1.879 1.188c-.597.476-1.205.94-1.823 1.392a68.42 68.42 0 0 1-3.799 2.598 96.767 96.767 0 0 1-8.744 4.87l1.672.216a79.048 79.048 0 0 1-3.513-3.308 49.514 49.514 0 0 1-1.512-1.598 2.575 2.575 0 0 0-1.867-1.085c-1.61-.058-2.594 1.331-3.571 2.42-1.07 1.192-2.054 2.456-3.031 3.724a1.436 1.436 0 0 0 0 1.962 1.386 1.386 0 0 0 1.95 0l-.005-.005Z"/><path fill="#fff" d="M132.042 113.186c-8.572-2.203-30.813-7.12-38.19-8.788a1.61 1.61 0 0 0-1.22.214c-.362.23-.618.595-.713 1.015l-4.227 18.992-.152.534a30.694 30.694 0 0 1 3.031 1.838 55.717 55.717 0 0 1 4.969 3.308c3.241 2.436 5.637 3.724 7.416 7.325.419.847 2.242 2.09 3.514 2.829l1.283-.913c2.596.856 19.144 3.663 20.377 3.477l.123-.763.466-2.891c1.092-5.946 3.611-19.241 4.514-24.316a1.625 1.625 0 0 0-1.191-1.861Z"/><path fill="#fff" d="M101.516 155.497a70.462 70.462 0 0 0 5.616-13.882.934.934 0 0 0-.047-.597.915.915 0 0 0-.4-.442c-1.275-.72-3.286-2.057-3.728-2.953-1.78-3.601-4.176-4.889-7.416-7.325a55.762 55.762 0 0 0-4.968-3.308c-1.08-.661-2.97-2.111-4.268-2.222-1.299-.111-1.995-.075-2.732 1.015a2.247 2.247 0 0 0-.35 2.175 8.577 8.577 0 0 0 1.76 2.321c.758.788 1.681 1.628 2.479 2.476a86.445 86.445 0 0 0-8.753-.436 3.94 3.94 0 0 0-2.206.558 3.923 3.923 0 0 0-1.265 1.507 3.04 3.04 0 0 0 0 2.419 6.595 6.595 0 0 0 1.907 2.43c-.693 2.097-1.207 3.158-.521 5.288.776 2.408 1.216 5.421 2.775 7.646.436.666 1 1.237 1.66 1.68a6.71 6.71 0 0 0 2.006.693c4.09.599 9.675.341 13.548.79 1.17.301 2.308.71 3.403 1.222a.922.922 0 0 0 1.167-.421c.113-.212.224-.423.333-.634Z"/><path fill="#211715" d="M89.107 132.529c-1.043-1.243-2.275-2.304-3.388-3.482-.733-.777-1.911-1.983-.69-2.853.014-.009.252-.084.155-.069a3.7 3.7 0 0 1 .91.011 4.29 4.29 0 0 1 1.453.571c1.174.663 2.29 1.447 3.435 2.161 2.25 1.403 4.384 2.979 6.51 4.565a16.92 16.92 0 0 1 2.627 2.356c.858.977 1.295 2.218 2.124 3.197a12.66 12.66 0 0 0 3.115 2.414c.121.074.506.404.632.371-.313.077-.068-.956-.272-.213a49.779 49.779 0 0 1-.822 2.689 71.13 71.13 0 0 1-3.747 8.93c-.112.226-1.011 2.274-1.155 2.255l.23-.173c.183-.014.212-.039.086-.073-.036-.063-.33-.138-.395-.165-.304-.127-.608-.254-.914-.377a11.953 11.953 0 0 0-3.725-.823c-3.024-.226-6.061-.18-9.088-.364-1.42-.087-3.17-.045-4.43-.808-1.284-.778-1.998-2.473-2.46-3.831-.52-1.532-.87-3.118-1.341-4.665a4.469 4.469 0 0 1-.221-2.118 17.16 17.16 0 0 1 .742-2.434 1.347 1.347 0 0 0-.355-1.348c-.747-.583-1.773-1.62-1.753-2.651a1.978 1.978 0 0 1 1.688-1.857 20.897 20.897 0 0 1 4.04.023c1.507.058 3.01.156 4.512.289a1.39 1.39 0 0 0 1.38-1.386 1.416 1.416 0 0 0-1.38-1.385 91.697 91.697 0 0 0-5.64-.324c-1.649-.042-3.617-.271-5.08.665a4.762 4.762 0 0 0-1.729 1.859 4.785 4.785 0 0 0-.53 2.487 6.549 6.549 0 0 0 2.541 4.24l-.355-1.348c-.56 1.68-1.083 3.247-.77 5.039.145.83.454 1.636.674 2.449.22.813.426 1.625.669 2.428a14.04 14.04 0 0 0 2.303 4.731 6.886 6.886 0 0 0 4.794 2.472c3.431.437 6.904.357 10.352.523a11.795 11.795 0 0 1 3.952.623c.621.237 1.228.552 1.86.76a2.316 2.316 0 0 0 2.613-.894c.527-.855.991-1.746 1.39-2.667.44-.895.865-1.798 1.274-2.707a77.27 77.27 0 0 0 2.158-5.288 59.54 59.54 0 0 0 .826-2.446 9.713 9.713 0 0 0 .632-2.476c.055-1.839-2.127-2.513-3.334-3.442a4.84 4.84 0 0 1-1.028-.993 21.977 21.977 0 0 0-1.269-2.095 16.25 16.25 0 0 0-3.11-3.14 85.978 85.978 0 0 0-7.528-5.33c-1.495-.929-2.944-2.039-4.582-2.698-1.47-.591-3.466-.602-4.661.57a4.335 4.335 0 0 0-1.33 2.798 4.46 4.46 0 0 0 1.172 2.891c1.283 1.639 2.948 2.924 4.284 4.516a1.385 1.385 0 0 0 1.951 0 1.416 1.416 0 0 0 0-1.959l-.002-.001Z"/><path fill="#211715" d="m89.023 124.986 2.79-12.534 1.347-6.058c.02-.133.049-.265.088-.394.161-.404.449-.219.823-.134 1.274.287 2.55.574 3.824.859 7.351 1.647 14.703 3.29 22.043 4.987 3.303.763 6.606 1.532 9.897 2.347.629.08 1.247.235 1.839.461.204.116.182.105.202.332-.012-.136-.039.191-.054.276l-.088.489c-.291 1.61-.586 3.22-.887 4.828-1.284 6.928-2.698 13.835-3.82 20.79l-.23 1.411 1.331-1.017a9.13 9.13 0 0 1-2.218-.191 5.253 5.253 0 0 0-.172-.022l-.522-.073a210.047 210.047 0 0 1-3.469-.528 256.935 256.935 0 0 1-10.229-1.823 30.45 30.45 0 0 1-3.399-.79c-1.695-.548-2.42 2.127-.735 2.673 2.48.803 5.167 1.147 7.723 1.607 3.326.599 6.66 1.165 10.009 1.62.988.224 1.999.324 3.012.298a1.427 1.427 0 0 0 1.33-1.017c1.093-6.777 2.431-13.508 3.688-20.259.339-1.823.676-3.647 1.011-5.471.336-1.841 1.037-4.002-.767-5.322a6.424 6.424 0 0 0-2.316-.818 541.49 541.49 0 0 0-7.212-1.73c-7.753-1.815-15.522-3.554-23.292-5.295l-4.436-.994c-.575-.13-1.15-.266-1.725-.389a3.092 3.092 0 0 0-3.327 1.121 4.925 4.925 0 0 0-.696 1.951l-.66 2.961-3.287 14.779-.075.335c-.387 1.737 2.273 2.479 2.66.737l-.001-.003Z"/><path fill="#211715" d="M122.791 84.09c9.015 3.605 19.183 7.469 24.957 15.792 3.061 4.413 4.452 9.688 5.036 14.979.651 5.896.48 11.875.208 17.789a225.158 225.158 0 0 1-2.142 22.317 1.434 1.434 0 0 0 .963 1.704c.353.095.729.047 1.046-.134.318-.181.552-.48.652-.833a233.404 233.404 0 0 0 2.123-20.776c.345-6.184.586-12.441.05-18.621-.492-5.672-1.662-11.444-4.621-16.378-2.723-4.542-6.74-8.095-11.195-10.867-5.121-3.186-10.767-5.413-16.344-7.644a1.386 1.386 0 0 0-1.698.968 1.42 1.42 0 0 0 .964 1.705h.001ZM57.939 124.761c.457 9.923.835 19.849 1.132 29.779.054 1.779 2.813 1.789 2.76 0-.298-9.93-.676-19.856-1.133-29.779-.082-1.776-2.842-1.786-2.76 0ZM54.745 139.53l-6.267-17.285c-.488-1.35-.987-2.829-2.671-2.901a5.834 5.834 0 0 0-1.897.414l-2.308.722-8.695 2.698-9.781 3.036a1.408 1.408 0 0 0-.824.657c-.18.318-.23.693-.14 1.047 2.332 9.341 4.767 18.655 7.22 27.964.453 1.723 3.116.992 2.66-.736-2.453-9.309-4.886-18.623-7.22-27.965l-.964 1.702 16.03-4.975 4.076-1.265a10.767 10.767 0 0 0 1.782-.536c-.016.072-.32-.159-.325-.156-.005.004.095.188.098.201.093.369.267.743.397 1.102l2.888 7.966 3.276 9.048a1.416 1.416 0 0 0 1.697.968 1.395 1.395 0 0 0 .965-1.705l.003-.001Z"/><path fill="#fff" d="M3.698 102.38a6.228 6.228 0 0 1 2.832-.044c.563.183 1.113.354 1.597.511l.064-.433a2.108 2.108 0 0 1 .941-1.594c.974-.745 2.439-.368 3.23-.148 2.809.782 14.226 5.159 17.999 7.481 1.299.798 3.64.861 5.907-.578.185-1.576.459-3.14.82-4.684a3.904 3.904 0 0 1 2.29-2.973 2.905 2.905 0 0 1 2.51.271c.715.466 1.114 1.643 1.314 2.476 1.342 5.604 1.833 6.102 2.36 11.517l.045.466-.386 3.68a13.472 13.472 0 0 1-3.921 8.133c-2.19 2.148-5.124 3.9-10.182 3.849-5.257-.924-10.183-3.744-12.925-5.386-2.008-1.203-3.794-2.474-6.695-4.558-1.443-1.035-6.297-4.952-6.698-5.364-.677-.696-1.356-2.014-.889-3.179a9.834 9.834 0 0 1-1.03-.858 3.276 3.276 0 0 1-.748-3.056c.027-.069.057-.136.089-.202-.678-1.155-1.18-1.874-.557-3.532a2.898 2.898 0 0 1 2.033-1.795Z"/><path fill="#211715" d="M37.602 107.918c.185-1.29.367-2.572.64-3.846.255-1.179.667-3.097 2.273-2.936.702.071.939.565 1.15 1.18.292.961.532 1.938.719 2.926.448 1.979.866 3.967 1.21 5.969.29 1.426.46 2.874.508 4.329a21.31 21.31 0 0 1-.303 3.109 12.407 12.407 0 0 1-1.664 4.537 12.36 12.36 0 0 1-3.268 3.55 11.346 11.346 0 0 1-3.782 1.762c-.808.206-1.634.337-2.466.39a9.256 9.256 0 0 1-3.119-.346 39.375 39.375 0 0 1-9.773-4.311 95.921 95.921 0 0 1-13.403-9.727c-.607-.511-1.766-1.79-.962-2.44.72-.585 2.827.652 3.725 1.128a74.778 74.778 0 0 1 10.252 6.617 1.388 1.388 0 0 0 1.888-.497 1.424 1.424 0 0 0-.495-1.896 75.263 75.263 0 0 0-10.175-6.574c-1.495-.796-3.245-1.781-4.988-1.655a3.503 3.503 0 0 0-2.622 1.56 3.525 3.525 0 0 0-.41 3.033c.383 1.359 1.288 2.235 2.324 3.091 1.12.924 2.25 1.835 3.391 2.735a96.503 96.503 0 0 0 8.305 5.938 48.435 48.435 0 0 0 10.52 5.163c1.08.361 2.182.652 3.299.871 1.128.168 2.275.156 3.4-.036a14.74 14.74 0 0 0 5.332-1.686 15.046 15.046 0 0 0 7.003-8.9c.34-1.374.559-2.776.653-4.189.116-1.712.01-3.432-.316-5.117-.333-2.172-.775-4.33-1.251-6.473-.439-1.977-.683-4.797-2.472-6.08A4.311 4.311 0 0 0 37 99.98c-1.123 1.362-1.425 3.143-1.71 4.841-.132.784-.235 1.573-.346 2.36-.085.354-.032.727.147 1.044.178.316.47.552.817.66a1.393 1.393 0 0 0 1.697-.967h-.004Z"/><path fill="#211715" d="M4.608 110.63c-.65-.498-1.385-1.184-1.208-2.109a1.4 1.4 0 0 1 1.304-1.064c1.064-.145 2.211.395 3.184.783a93.354 93.354 0 0 1 9.213 4.35 38.506 38.506 0 0 1 4.714 2.865 1.389 1.389 0 0 0 1.888-.498 1.422 1.422 0 0 0-.495-1.895c-3.224-2.379-6.988-4.12-10.614-5.78-1.588-.727-3.191-1.443-4.829-2.046-1.716-.632-3.755-.905-5.35.199a4.014 4.014 0 0 0-1.76 3.666c.168 1.787 1.22 2.891 2.565 3.921a1.386 1.386 0 0 0 1.887-.497 1.424 1.424 0 0 0-.495-1.895h-.004Z"/><path fill="#211715" d="M23.58 108.304a101.21 101.21 0 0 0-11.746-5.448c-3.08-1.276-7.614-3.583-10.52-.654a4.911 4.911 0 0 0-1.311 3.131 5.253 5.253 0 0 0 .95 2.952c.902 1.534 3.288.141 2.382-1.399-.44-.748-.729-1.222-.436-2.082a1.642 1.642 0 0 1 1.33-1.132c1.777-.436 3.745.563 5.403 1.249 4.25 1.759 8.553 3.48 12.552 5.773 1.544.887 2.936-1.507 1.393-2.392l.002.002Z"/><path fill="#211715" d="M9.57 102.414c.08-.766 1.27-.68 1.81-.562.564.132 1.12.293 1.668.482a103.76 103.76 0 0 1 4.554 1.647 104.35 104.35 0 0 1 10.57 4.539c.803.489 1.64.918 2.504 1.287a7.067 7.067 0 0 0 4.752-.268c.347-.106.64-.342.82-.659.178-.317.23-.691.143-1.045a1.385 1.385 0 0 0-1.697-.967c-1.15.447-2.507.733-3.638.088a41.311 41.311 0 0 0-1.935-1.054c-1.86-.929-3.772-1.752-5.688-2.555a108.595 108.595 0 0 0-10.337-3.904 6.889 6.889 0 0 0-3.43-.346 3.685 3.685 0 0 0-1.97 1.19 3.71 3.71 0 0 0-.885 2.129 1.4 1.4 0 0 0 .407.977c.258.259.608.406.973.408a1.418 1.418 0 0 0 1.38-1.385v-.002ZM21.218 119.587l6.587-6.012a1.398 1.398 0 0 0 0-1.959 1.405 1.405 0 0 0-1.95 0l-6.588 6.011a1.398 1.398 0 0 0 0 1.96 1.41 1.41 0 0 0 1.95 0Z"/><path fill="#645D5C" d="M103.703 1.394a32.93 32.93 0 0 0-16.46 4.624c-1.448.845-4.468 2.482-6.79 5.2a26.374 26.374 0 0 0-5.065 6.917 27.52 27.52 0 0 0-2.869 10.514 60.493 60.493 0 0 0 .142 10.82c.206-5.407 4.9-6.058 6.795-8.675 1.048-1.448 1.801-3.207 3.368-4.118a7.32 7.32 0 0 1 4.017-.701c2.142.096 6.102.236 8.959.841a6.289 6.289 0 0 1 4.693-.62c2.566.631 8.189 3.374 8.189 3.374 3.787 2.046 5.495 3.573 7.653 6.973a16.642 16.642 0 0 1 2.388 8.766c2.299 0 6.593.5 6.593.5a4.237 4.237 0 0 1 3.12-.405c2.07.505 2.735 1.767 2.985 2.48 1.951-3.53 3.63-7.37 4.099-11.5 1.397-12.296-1.142-17.195-7.179-23.71-4.89-7.602-12.512-10.29-20.205-11.078a38.262 38.262 0 0 0-4.433-.202Z"/><path fill="#211715" d="M96.167 25.48a47.754 47.754 0 0 0-7.113-.788c-2.33-.123-4.929-.439-7.019.844a8.336 8.336 0 0 0-2.464 2.566c-.303.45-.584.915-.88 1.369-.19.333-.422.64-.69.912-1.002 1.04-2.385 1.76-3.617 2.777a8.411 8.411 0 0 0-3.057 5.678c.002.367.148.718.406.978.259.259.609.406.974.408.363-.01.709-.158.966-.416s.405-.605.414-.97c.397-3.22 3.345-4.204 5.519-6.16 1.335-1.204 1.939-2.974 3.194-4.236 1.445-1.453 3.683-1.104 5.544-1.015 2.378.058 4.747.3 7.087.726a1.41 1.41 0 0 0 1.698-.969 1.404 1.404 0 0 0-.965-1.704h.003ZM104.094 28.703c-.162-2.904-2.399-5.464-4.848-6.795a11.778 11.778 0 0 0-3.08-1.146 1.373 1.373 0 0 0-1.456.483 1.388 1.388 0 0 0 .72 2.189 11.014 11.014 0 0 1 1.824.564 1.32 1.32 0 0 0-.055-.02c.115.057.237.109.354.167a9.05 9.05 0 0 1 1.2.714c.09.078.185.148.287.21-.163-.128-.188-.146-.074-.058a8.76 8.76 0 0 1 1.225 1.21c.067.08.246.383.022.02.09.146.203.28.297.424.199.308.377.63.534.961.152.316-.091-.255-.014-.038.021.058.045.115.066.173.054.147.102.296.143.447.038.14.066.28.094.423.062.31-.029-.337-.014-.12.004.064.011.127.014.19 0 .368.145.72.404.98a1.378 1.378 0 0 0 2.356-.98l.001.002ZM120.102 45.309a18.733 18.733 0 0 0-3.573-10.94 20.572 20.572 0 0 0-7.153-5.995c-1.562-.848-2.956 1.543-1.393 2.393 2.387 1.296 4.548 2.77 6.163 5a16.144 16.144 0 0 1 2.336 4.272c.559 1.7.849 3.478.859 5.27.026 1.78 2.786 1.786 2.759 0h.002ZM98.95 48.495c-.248-1.402.403-4.474 2.981-4.423 3.364.436 3.083 4.214 1.734 5.839-1.106 1.33-3.907 1.594-4.715-1.416ZM78.887 46.655c-.216-1.403.402-4.488 2.767-4.458 3.08.41 2.792 4.2 1.543 5.84-1.023 1.343-3.593 1.63-4.31-1.382ZM88.935 50.82a28.575 28.575 0 0 0-1.418 2.14 2.816 2.816 0 0 0-.405.96c-.07.325-.057.663.035.982.111.321.298.612.543.847.312.308.691.538 1.108.673.16.054.33.07.493.109.36.091.74.041 1.064-.14a1.383 1.383 0 0 0 .67-1.374 1.388 1.388 0 0 0-.998-1.156 4.22 4.22 0 0 1-.575-.138l.33.14a1.407 1.407 0 0 1-.288-.174l.279.217a1.961 1.961 0 0 1-.263-.264l.216.28a.404.404 0 0 1-.055-.087l.14.33a.595.595 0 0 1-.038-.143l.05.368a.539.539 0 0 1 0-.101l-.05.368c.013-.09.037-.179.07-.264l-.139.33c.229-.465.498-.909.805-1.327.263-.396.532-.79.81-1.177a1.39 1.39 0 0 0-.753-2.013 1.374 1.374 0 0 0-.805-.022 1.578 1.578 0 0 0-.825.635h-.001ZM126.015 47.005a3.013 3.013 0 0 1 2.4-.174c.337.1.655.254.941.459.102.076.196.16.283.253.067.063.127.133.181.208.068.102.129.208.189.316.028.05.159.355.087.173-.071-.183.058.202.077.262.061.205.107.415.136.627a7.668 7.668 0 0 1-.099 2.232c-.555 3.06-2.513 6.273-5.443 7.552.253-.11-.126.035-.21.062a8.24 8.24 0 0 1-.608.163 6.572 6.572 0 0 1-1.097.161 4.33 4.33 0 0 1-2.472-.45c-1.542-.89-2.932 1.501-1.393 2.393 1.869 1.077 4.292 1.044 6.306.404 2.134-.679 3.866-2.297 5.168-4.072a13.233 13.233 0 0 0 2.448-5.69c.308-1.889.355-4.073-.82-5.695a5.916 5.916 0 0 0-3.445-2.158 5.899 5.899 0 0 0-4.02.578c-1.56.854-.168 3.248 1.393 2.393l-.002.002ZM88.465 63.778a9.855 9.855 0 0 0 6.484 1.046 13.43 13.43 0 0 0 2.193-.778 1.421 1.421 0 0 0 .963-1.705 1.4 1.4 0 0 0-.651-.831 1.39 1.39 0 0 0-1.045-.136c-.649.29-1.316.537-1.997.737-.058.014-.371.033-.399.075.024-.036.278-.03.055-.01-.09.008-.178.017-.267.023a8.57 8.57 0 0 1-1.397-.023c-.075-.007-.151-.018-.226-.024.115.01.185.03.027.003a8.524 8.524 0 0 1-1.804-.474c-.172-.066-.033.014.048.02a.763.763 0 0 1-.222-.107 5.216 5.216 0 0 1-.37-.209 1.375 1.375 0 0 0-1.887.497 1.391 1.391 0 0 0 .495 1.896Z"/><path fill="#211715" d="M113.514 71.129c1.323-1.145 2.667-2.267 3.889-3.521a31.667 31.667 0 0 0 4.514-5.673 1.405 1.405 0 0 0 .144-1.051 1.381 1.381 0 0 0-2.169-.753c-.145.11-.266.248-.357.405a30.248 30.248 0 0 1-1.761 2.497c.361-.485-.003-.004-.08.09-.265.323-.533.642-.805.959a35.515 35.515 0 0 1-1.547 1.68c-1.19 1.212-2.494 2.3-3.778 3.41a1.404 1.404 0 0 0 0 1.96 1.407 1.407 0 0 0 1.952 0l-.002-.003ZM71.232 39.432c.197 4.645.073 9.306.327 13.947.22 4.003.947 8.02 2.719 11.64 3.387 6.92 10.846 11.326 18.36 11.944 4.7.387 9.355-.57 13.769-2.151a1.423 1.423 0 0 0 .964-1.704 1.396 1.396 0 0 0-1.698-.968 32.024 32.024 0 0 1-11.325 2.136 20.31 20.31 0 0 1-9.841-2.585 19.429 19.429 0 0 1-7.399-7.217c-1.73-3.123-2.472-6.73-2.734-10.264-.363-4.907-.172-9.861-.38-14.779-.075-1.776-2.835-1.786-2.76 0h-.002Z"/><path fill="#211715" d="M128.583 10.602a25.407 25.407 0 0 0-13.481-9.106A38.457 38.457 0 0 0 97.97.558a36.622 36.622 0 0 0-14.751 6.344 30.117 30.117 0 0 0-5.782 5.581A27.787 27.787 0 0 0 73.47 19c-2.69 6.27-2.839 13.258-2.236 19.965.01.364.158.711.415.97.257.257.602.406.965.416a1.398 1.398 0 0 0 1.38-1.385c-.501-5.576-.57-11.464 1.214-16.831a27.299 27.299 0 0 1 7.927-11.661 30.46 30.46 0 0 1 5.462-3.634 32.347 32.347 0 0 1 7.658-3.078 34.824 34.824 0 0 1 15.941-.139C117.674 4.804 122.765 7.448 126.2 12a1.423 1.423 0 0 0 1.888.497 1.398 1.398 0 0 0 .495-1.895ZM133.593 46.726a33.229 33.229 0 0 0 2.918-7.898c.508-2.594.762-5.233.759-7.877.052-3.948-.521-7.875-2.245-11.452a26.768 26.768 0 0 0-3.329-5.076 1.385 1.385 0 0 0-1.951 0 1.421 1.421 0 0 0 0 1.959 20.587 20.587 0 0 1 4.187 8.262 25.05 25.05 0 0 1 .581 5.446 41.157 41.157 0 0 1-.468 6.97 29.166 29.166 0 0 1-2.835 8.268c-.794 1.59 1.585 2.994 2.383 1.398ZM51.438 123.989c1.153-9.273 2.414-18.963 7.646-26.942a26.743 26.743 0 0 1 9.423-8.684c2.733-1.536 5.623-2.761 8.486-4.027l6.047-2.674a1.4 1.4 0 0 0 .495-1.895 1.415 1.415 0 0 0-1.888-.497c-4.555 2.014-9.247 3.876-13.646 6.216a30.221 30.221 0 0 0-10.44 8.917 39.76 39.76 0 0 0-5.771 12.19c-1.671 5.663-2.387 11.552-3.114 17.396.002.366.148.718.406.977.258.26.608.406.974.408a1.42 1.42 0 0 0 1.38-1.385h.002Z"/></g><defs><clipPath id="a"><path fill="#fff" d="M0 0h156v158H0z"/></clipPath></defs></svg>