<svg xmlns="http://www.w3.org/2000/svg" width="680" height="227" fill="none"><path fill="#fff" d="M621.529 58.076c1.122-1.071 2.631-1.474 3.924-1.428 2.813.098 4.009 1.61 4.524 2.498 1.538 2.65 1.472 7.533.441 10.555-.731 2.14-1.929 5.412-4.814 7.76-1.189.966-2.94 1.603-4.613 1.323l-.443-.075c-.53 1.744-1.186 3.453-1.587 4.283-1.242 3.351-8.44 15.601-17.327 19.281v4.035-.156.72a4330.259 4330.259 0 0 1-12.869 9.122h-2.723a4169.63 4169.63 0 0 1-13.413-9.509l.001-.101s0-2.315-.002-3.917c-4.344-1.704-8.166-4.772-11.785-9.077-4.158-4.945-6.525-10.273-7.832-14.686-1.783.456-3.712-.203-4.991-1.243-2.886-2.347-4.083-5.62-4.813-7.76-1.033-3.021-1.097-7.904.44-10.554.515-.888 1.712-2.4 4.524-2.498 1.293-.046 2.803.357 3.924 1.427 0 0-12.232-39.427 34.718-39.427 46.949 0 34.718 39.427 34.718 39.427h-.002Z"/><path fill="#211715" d="M570.92 103.67v2.715c0 .436.191.894.501 1.202.297.295.783.517 1.21.498.442-.02.901-.164 1.209-.498.309-.334.501-.742.501-1.202v-2.715a1.75 1.75 0 0 0-.501-1.202c-.296-.295-.783-.517-1.209-.498-.443.02-.901.164-1.21.498-.309.334-.501.742-.501 1.202ZM599.923 103.505v2.804c0 .436.191.894.501 1.202.297.295.784.518 1.21.498.443-.019.901-.164 1.21-.498.308-.333.501-.741.501-1.202v-.156c0-.436-.191-.894-.501-1.202-.297-.295-.784-.518-1.21-.498-.443.019-.901.164-1.21.498-.308.333-.501.742-.501 1.202v.156c0 .436.191.894.501 1.202.297.295.784.518 1.21.498.443-.019.901-.164 1.21-.498.308-.333.501-.741.501-1.202v-2.804a1.75 1.75 0 0 0-.501-1.203c-.297-.295-.784-.517-1.21-.498-.443.02-.901.164-1.21.498-.308.334-.501.742-.501 1.203Z"/><path fill="#645D5C" d="M624.33 23.96c-1.568-2.58-3.546-4.787-5.972-6.965l-5.545-4.9c-7.186-7.96-16.74-10.16-26.155-10.16-9.877 0-18.532 2.787-26.413 8.63-1.761 1.306-5.21 4.49-7.444 7.705-4.825 4.695-8.675 14.95-8.387 25.122.04 4.121.362 8.86 1.686 13.652.568-.218 1.25-.367 2.07-.395 1.293-.046 2.803.357 3.924 1.427l1.555 1.084c.172-2.297.244-3.576.678-6.2.722-4.358 5.271-6.367 7.205-10.258 1.113-2.24 1.776-4.86 3.682-6.455 1.435-1.201 3.349-1.608 5.196-1.801 2.86-.3 12.535.13 15.77.723 2.737.153 5.39.697 9.295 1.19 2.117.268 6.044.957 7.546 1.257 5.907 1.35 8.171 2.816 11.137 6.81 1.137 1.532 2.348 4.326 3.468 7.962l3.903 5.688c1.121-1.07 2.631-1.473 3.923-1.428a6.442 6.442 0 0 1 1.924.343c1.286-5.088 1.835-8.915 1.636-13.6-.382-8.986-1.872-14.805-4.684-19.431h.002Z"/><path fill="#211715" d="M580.987 87.172c2.115 1.11 4.392 1.575 6.783 1.56 2.431-.016 4.887-.491 6.834-1.998.729-.565.597-1.812 0-2.405-.72-.716-1.688-.566-2.419 0 .515-.399.102-.085-.03 0a5.447 5.447 0 0 1-.422.242c-.114.06-.627.265-.169.095-.193.072-.384.148-.581.21-.529.17-1.076.289-1.625.37.245-.036-.082.005-.171.015a16.089 16.089 0 0 1-1.635.07 16.772 16.772 0 0 1-1.509-.075c-.007-.001-.57-.078-.245-.027a11.612 11.612 0 0 1-1.519-.335c-.213-.063-.42-.14-.63-.21-.061-.022-.149-.043-.203-.08.345.233.18.08.041.016-.261-.122-.518-.25-.772-.384-.817-.428-1.861-.206-2.341.61-.452.768-.206 1.896.614 2.327h-.001ZM586.928 71.253c.297 1.126.582 2.27.753 3.422l-.062-.452c.02.158.029.314.013.473l.061-.452a1.11 1.11 0 0 1-.052.212l.173-.406a.82.82 0 0 1-.076.137l.268-.344a.797.797 0 0 1-.113.11l.346-.266c-.087.056-.178.101-.272.144l.409-.172a2.012 2.012 0 0 1-.46.133l.455-.06a1.836 1.836 0 0 1-.432-.001l.455.06c-.162-.022-.322-.061-.485-.083-.477-.064-.883-.082-1.318.171-.355.207-.693.611-.786 1.016-.1.436-.078.924.173 1.31.222.344.595.725 1.022.782.366.049.72.142 1.091.158.568.025 1.096-.147 1.603-.378a2.287 2.287 0 0 0 1.278-1.509c.141-.566.08-1.064-.016-1.632a37.103 37.103 0 0 0-.729-3.276c-.227-.86-1.233-1.468-2.104-1.187-.892.286-1.439 1.17-1.195 2.091v-.001ZM568.6 61.576c-.575 1.857-.2 6.13 3.339 6.493 4.678-.028 4.927-5.193 3.353-7.621-1.29-1.989-5.081-2.815-6.692 1.128ZM606.206 61.576c.575 1.857.2 6.13-3.339 6.493-4.678-.029-4.927-5.193-3.352-7.621 1.289-1.989 5.08-2.815 6.691 1.128ZM553.304 56.873c-2.287-2.056-5.629-2.489-8.405-1.153-2.024.975-3.195 2.97-3.71 5.08-1.21 4.952.046 10.585 2.884 14.791 2.087 3.094 5.112 5.362 9.014 4.832.917-.124 1.417-1.29 1.195-2.091-.272-.982-1.186-1.312-2.104-1.188-2.735.372-4.847-2.54-5.957-4.61-1.073-2.006-1.845-4.268-2.007-6.54-.09-1.264-.081-2.566.168-3.812.173-.861.58-2.032.973-2.55-.11.145.235-.26.277-.303.206-.221.181-.192.358-.314a3.724 3.724 0 0 1 1.487-.596c1.21-.222 2.481.028 3.406.86 1.63 1.465 4.057-.933 2.419-2.405h.002ZM622.739 59.279c1.638-1.473 4.365-1.111 5.574.408-.233-.292.09.157.127.217.131.215.255.441.352.673.21.507.34 1.068.448 1.606.25 1.246.258 2.548.168 3.812-.159 2.232-.909 4.45-1.949 6.428-1.107 2.106-3.237 5.1-6.014 4.723-.915-.124-1.837.219-2.105 1.187-.219.794.274 1.967 1.195 2.092 6.304.856 9.965-5.32 11.6-10.48.825-2.606.924-5.49.492-8.174-.352-2.186-1.266-4.26-3.11-5.58-2.75-1.97-6.753-1.516-9.199.684-1.636 1.471.789 3.87 2.42 2.404h.001Z"/><path fill="#211715" d="M619.554 75.724c-.519 2.516-1.483 4.94-2.368 7.137.203-.503-.137.294-.222.472-.163.34-.333.675-.509 1.008-.434.823-.9 1.63-1.387 2.425-2.521 4.114-5.597 8.007-9.367 11.062-2.049 1.66-4.364 2.983-6.924 3.57-2.145.492-1.237 3.772.909 3.28 5.284-1.212 9.675-5.06 13.118-9.048 2.847-3.298 5.511-7.014 7.308-10.996.117-.26.229-.52.337-.782.045-.108.246-.58.052-.133.298-.685.592-1.371.854-2.072.613-1.634 1.146-3.309 1.498-5.018.185-.899-.262-1.837-1.195-2.091-.846-.231-1.918.283-2.104 1.186ZM550.671 76.506c1.16 5.09 3.241 10.02 6.154 14.365 3.133 4.673 7.25 9.043 12.228 11.79a24.29 24.29 0 0 0 8.203 2.777c.913.134 1.838-.226 2.104-1.187.221-.802-.275-1.957-1.195-2.092-10.309-1.512-18.018-10.395-21.927-19.5-.976-2.272-1.719-4.648-2.268-7.056-.486-2.134-3.785-1.232-3.299.903ZM614.024 10.893c-4.888-5.36-11.464-8.693-18.6-9.931-7.136-1.238-14.699-.983-21.675 1-6.802 1.933-13.261 5.54-18.258 10.537-1.39 1.39-2.618 2.884-3.823 4.43-.914 1.175-1.957 2.223-2.798 3.468-1.945 2.88-3.33 6.162-4.33 9.474a43.438 43.438 0 0 0-1.844 13.202c.077 4.685.445 9.35 1.616 13.903.544 2.12 3.845 1.22 3.299-.904-.968-3.77-1.375-7.619-1.466-11.503-.087-3.722.129-7.375.961-11.016.754-3.3 1.876-6.535 3.531-9.5.677-1.215 1.432-2.407 2.337-3.468.49-.575 1.026-1.09 1.476-1.698a31.258 31.258 0 0 1 1.62-2.022c4.349-4.956 9.812-8.614 16.144-10.846 6.42-2.264 13.339-2.829 20.091-2.091 7.407.808 14.257 3.84 19.3 9.37 1.482 1.626 3.896-.785 2.419-2.404v-.001ZM629.139 56.977c.874-3.55 1.527-7.162 1.614-10.823.082-3.464-.228-6.964-.723-10.392-.719-4.974-2.221-9.901-5.137-14.058-1.53-2.181-3.347-4.128-5.325-5.912-1.628-1.468-4.055.93-2.42 2.404 3.2 2.885 5.87 6.125 7.439 10.046 2.062 5.154 2.676 10.89 2.751 16.398.054 3.89-.569 7.664-1.498 11.432-.524 2.126 2.775 3.033 3.299.905Z"/><path fill="#211715" d="M586.635 33.53c-2.786-.498-5.657-.63-8.481-.758-2.647-.12-5.381-.3-8.022.004-2.124.245-4.207.738-5.909 2.094-1.539 1.226-2.42 2.976-3.178 4.743-.699 1.629-1.377 3.175-2.563 4.518-1.095 1.24-2.335 2.348-3.389 3.626-1.339 1.622-2.2 3.334-2.524 5.417-.347 2.24-.516 4.488-.695 6.745-.073.917.838 1.7 1.71 1.7.986 0 1.639-.78 1.711-1.7.25-3.152.047-6.922 2.059-9.558 1.919-2.515 4.526-4.347 5.887-7.286.728-1.57 1.257-3.307 2.303-4.71 1.014-1.36 2.587-1.873 4.208-2.133 2.399-.384 4.943-.193 7.358-.102 1.673.063 3.344.154 5.013.283.726.057 1.451.12 2.175.199.145.015.29.032.435.049.03.003.572.074.184.02.27.038.539.08.808.128.908.162 1.844-.245 2.104-1.188.228-.823-.281-1.928-1.194-2.091ZM602.567 39.255c1.697.392 3.698.934 5.025 1.57.669.32 1.296.698 1.907 1.116l.193.142a13.566 13.566 0 0 1 1.244 1.135c2.582 2.646 3.924 6.024 5.041 9.622.647 2.085 3.951 1.195 3.299-.905-.717-2.31-1.53-4.633-2.663-6.78-.839-1.59-2.002-3.056-3.257-4.342-2.681-2.747-6.205-3.99-9.879-4.838-2.143-.495-3.058 2.784-.91 3.28ZM597.339 35.236c-.539-2.278-2.333-4.22-4.138-5.617-2.993-2.315-6.545-3.52-10.278-4.008-.917-.12-1.711.867-1.711 1.7 0 1.019.791 1.58 1.711 1.701 1.538.201 3.253.66 4.756 1.274-.238-.098.204.09.248.11a17.073 17.073 0 0 1 2.396 1.321c.15.1.298.202.443.306.062.044.418.31.133.092a13.18 13.18 0 0 1 1.872 1.757c.092.106.176.222.272.325.079.1.051.062-.087-.112a9.358 9.358 0 0 1 .843 1.34c.026.054.132.205.119.254.013-.051-.139-.403-.04-.079.055.18.117.356.162.54.211.895 1.238 1.425 2.104 1.188.921-.251 1.407-1.195 1.195-2.092Z"/><path fill="#fff" d="M600.361 153.882c.23-.733.458-1.469.683-2.208.342-1.098.677-2.203 1.005-3.308 3.34-11.136 6.425-22.681 9.003-33.763h-.35c.53-1.421-.156-3.392-1.088-4.466-1.584-1.823-3.58-4.461-5.199-6.261-.688.553-14.713 11.546-15.777 12.295h-2.47c-1.064-.749-15.089-11.741-15.777-12.295-1.619 1.8-3.615 4.438-5.199 6.261-.932 1.074-1.618 3.045-1.088 4.466h-.351c3.564 15.321 8.085 31.498 12.93 46.286 3.808 11.626 5.062 15.571 9.934 27.522h1.576c3.507-8.601 5.139-13.057 7.192-19.215.806-2.394 1.668-5.051 2.737-8.311a333.553 333.553 0 0 0 1.504-4.676c.246-.774.492-1.549.736-2.327h-.001Z"/><path fill="#2D68A4" d="M586.224 188.411c-4.872-11.951-6.126-15.897-9.935-27.522-5.141-15.691-9.917-32.948-13.573-49.087a74.993 74.993 0 0 0-5.834 4.154h-2.049l-5.365 2.094c-9.59 4.002-21.183 6.531-28.277 14.64-6.804 7.777-10.071 18.98-13.176 28.618-3.452 10.719-5.956 21.77-7.078 32.978-.97 9.683.975 19.355 9.624 24.83 4.579 2.898 10.044 4.229 15.469 4.399a36.91 36.91 0 0 0 10.063-1.082c20.558-.004 132.15-.004 132.15-.004.015-15.948-.231-28.205-1.39-44.107-.969-13.283-2.566-27.958-10.108-39.359-5.096-7.709-14.726-12.941-25.497-17.669l-.55-.24a353.423 353.423 0 0 0-5.177-2.202l-5.365-2.094-2.013-.002a76.067 76.067 0 0 0-6.838-4.954c-3.656 16.138-8.433 33.395-13.573 49.087-3.809 11.625-5.063 15.571-9.935 27.522"/><path fill="#E8B06E" d="M583.185 179.766c-2.068-5.408-3.411-9.44-5.534-15.92 1.541-13.161 3.607-28.989 3.607-29.451 0-.825-.189-1.641-.377-2.447a24.119 24.119 0 0 1-.255-1.097c-.405-1.819-.48-2.75-.951-4.676l-.372-1.246c2.298-3.085 5.148-6.839 6.865-8.759h2.47c1.757 1.964 4.699 5.849 7.025 8.973l-.481 1.448c-.629 1.301-.801 2.596-1.157 3.739-.444 1.408-.888 2.857-.914 4.332-.013.765 2.094 15.315 4.063 29.114a688.878 688.878 0 0 1-1.79 5.42c-2.052 6.157-3.685 10.614-7.192 19.215h-1.575a416.166 416.166 0 0 1-3.432-8.645Z"/><path fill="#211715" d="M581.797 134.679c3.655-.002 7.31-.076 10.966-.078.894 0 1.752-.782 1.711-1.7-.042-.918-.753-1.701-1.711-1.701-3.656.002-7.311.076-10.966.078-.895 0-1.752.782-1.711 1.7.041.918.752 1.701 1.711 1.701Z"/><path fill="#211715" d="M578.025 126.627c.347 1.445.576 2.911.883 4.365.239 1.127.688 2.306.636 3.47-.046 1.024-.241 2.062-.368 3.078-.633 5.088-1.278 10.175-1.905 15.264-.442 3.586-.877 7.172-1.298 10.761-.108.914.863 1.7 1.711 1.7 1.013 0 1.603-.784 1.711-1.7.727-6.192 1.493-12.38 2.268-18.566.434-3.465 1.066-6.967 1.294-10.453.082-1.254-.319-2.525-.592-3.735-.381-1.69-.637-3.403-1.041-5.087-.511-2.128-3.811-1.228-3.299.904v-.001ZM598.772 162.956c-.858-6.005-1.722-12.009-2.573-18.015-.318-2.251-.636-4.503-.944-6.755l-.067-.486-.057-.428-.129-.984c-.057-.444-.127-.891-.159-1.338-.071-.949.164-1.888.418-2.797.428-1.534.736-3.254 1.398-4.703.382-.835.241-1.83-.614-2.327-.734-.427-1.957-.23-2.341.61-.658 1.439-.964 2.946-1.424 4.449-.439 1.433-.921 2.986-.88 4.503.025.94.217 1.896.341 2.825.677 5.057 1.408 10.107 2.13 15.158l1.601 11.193c.13.91 1.295 1.409 2.104 1.188.985-.269 1.325-1.179 1.195-2.092l.001-.001Z"/><path fill="#211715" d="M589.842 188.864c3.34-8.198 6.314-16.485 9.067-24.894 3.571-10.91 6.885-21.891 9.825-32.988a535.217 535.217 0 0 0 4.61-18.725l-2.514 1.016a68.802 68.802 0 0 1 8.198 6.117c1.353 1.178 2.662 2.414 3.859 3.75a19.095 19.095 0 0 1 1.446 1.789c.198.282.387.569.564.864.101.167.197.337.289.508l.087.167c.109.224.112.222.007-.004l.234-.858c.264-.172.313-.207.146-.103a8.882 8.882 0 0 1-.389.224c-.301.172-.604.342-.905.513l-1.658.941-3.467 1.967c-.935.531-1.146 1.922-.346 2.67a215.168 215.168 0 0 1 3.943 3.758c.65.638 1.293 1.284 1.925 1.938.314.325.64.646.937.986.253.29.318.249.246.538-.177.708-.762 1.484-1.099 2.132a726.737 726.737 0 0 1-3.931 7.449 1005.05 1005.05 0 0 1-10.765 19.544 1608.458 1608.458 0 0 1-6.336 11.129c-1.094 1.903 1.861 3.618 2.955 1.716a1360.103 1360.103 0 0 0 11.841-20.995 870.898 870.898 0 0 0 5.581-10.278 701.872 701.872 0 0 0 3.916-7.439c.447-.861 1.04-1.76 1.241-2.717.482-2.313-1.668-3.981-3.121-5.444-1.601-1.611-3.253-3.17-4.913-4.721l-.346 2.671 4.823-2.737c1.389-.789 3.304-1.604 2.857-3.569-.236-1.04-.988-2.069-1.614-2.918a29.68 29.68 0 0 0-2.481-2.937c-3.525-3.679-7.701-6.85-11.997-9.588-.902-.576-2.276-.029-2.513 1.016a551.5 551.5 0 0 1-8.625 33.122c-2.867 9.783-5.96 19.525-9.351 29.143-1.704 4.832-3.592 9.596-5.526 14.341-.347.851.378 1.868 1.195 2.091.978.267 1.756-.333 2.104-1.187l.001.002Z"/><path fill="#211715" d="M576.061 188.068c-8.75-15.077-17.4-30.224-25.469-45.675-.542-1.038-1.152-2.07-1.629-3.139-.201-.452-.202-.364.145-.753.415-.464.858-.907 1.293-1.353 1.784-1.829 3.643-3.584 5.513-5.327.802-.748.588-2.141-.346-2.671l-3.467-1.967-1.658-.941c-.302-.171-.604-.341-.905-.513l-.302-.171c-.254-.157-.235-.14.058.05l.233.858a1.869 1.869 0 0 0-.039.088 11.746 11.746 0 0 1 .368-.674c.192-.324.398-.64.614-.949.418-.597.884-1.155 1.368-1.7 1.219-1.37 2.556-2.635 3.938-3.84a69.32 69.32 0 0 1 8.195-6.121l-2.513-1.016a550.959 550.959 0 0 0 8.629 33.134c2.849 9.718 5.919 19.395 9.286 28.949 1.724 4.894 3.636 9.72 5.594 14.527.346.851 1.14 1.451 2.104 1.187.812-.221 1.544-1.235 1.195-2.091-3.388-8.315-6.396-16.719-9.19-25.247-3.539-10.804-6.808-21.685-9.719-32.673a538.213 538.213 0 0 1-4.6-18.689c-.237-1.044-1.611-1.593-2.513-1.016-4.292 2.743-8.469 5.913-11.994 9.592a29.986 29.986 0 0 0-2.483 2.938c-.627.851-1.375 1.874-1.611 2.917-.445 1.967 1.468 2.779 2.86 3.569l4.824 2.737-.347-2.671c-1.745 1.627-3.48 3.264-5.155 4.962-1.643 1.667-3.705 3.422-2.618 5.977.861 2.025 2.022 3.964 3.047 5.911a740.73 740.73 0 0 0 3.25 6.095c4.348 8.07 8.83 16.069 13.374 24.032 2.554 4.474 5.129 8.936 7.715 13.392 1.1 1.895 4.058.185 2.955-1.717v-.001ZM603.206 105.078c.938 1.052 1.823 2.146 2.708 3.242.822 1.016 1.736 1.992 2.508 3.043.321.437.544.932.669 1.457.046.196.078.372.085.574.003.112-.1.723.031.387-.139.356-.399.697-.597 1.021-1.894 3.094-3.984 6.113-6.311 8.901a36.564 36.564 0 0 1-2.332 2.567c-.355.351-.72.691-1.1 1.014-.449.383-.392.34-.894.666l2.341.61c-3.434-4.556-6.667-9.321-10.465-13.592l-.347 2.67c1.993-1.417 3.891-2.987 5.818-4.49 2.726-2.124 5.446-4.254 8.165-6.386.714-.561 1.432-1.116 2.141-1.684.72-.578.604-1.804 0-2.405-.712-.707-1.698-.579-2.42 0-4.417 3.542-8.91 6.999-13.387 10.467l-.822.636-.359.276c-.223.172.279-.213-.049.037-.27.205-.537.416-.814.613-.93.661-1.125 1.794-.347 2.67 3.606 4.054 6.67 8.578 9.93 12.904.531.706 1.496 1.159 2.341.61 3.682-2.393 6.415-6.345 8.894-9.873a85.312 85.312 0 0 0 2.97-4.495c.251-.41.514-.818.702-1.261.611-1.437.311-3.115-.292-4.5-.664-1.523-1.931-2.734-2.968-4.014-1.111-1.37-2.206-2.754-3.381-4.071-1.464-1.641-3.876.772-2.419 2.405l.001.001Z"/><path fill="#211715" d="M569.181 102.673c-1.04 1.166-2.015 2.385-2.997 3.599-.928 1.148-2.005 2.247-2.821 3.476-1.272 1.916-1.553 4.37-.368 6.361a78.276 78.276 0 0 0 6.953 9.828c1.512 1.829 3.153 3.645 5.16 4.95.836.544 1.809.095 2.341-.61 3.26-4.325 6.324-8.849 9.929-12.904.78-.875.583-2.01-.346-2.67-.218-.155-.429-.319-.642-.481l-.247-.189c-.212-.161.292.226-.018-.013l-.71-.548a1158.36 1158.36 0 0 1-3.724-2.895c-2.67-2.082-5.339-4.17-8.003-6.26-.697-.547-1.397-1.089-2.088-1.643-.718-.576-1.717-.698-2.419 0-.6.596-.723 1.825 0 2.405 4.471 3.586 9.018 7.085 13.551 10.593.852.66 1.692 1.342 2.572 1.967l-.346-2.67c-3.798 4.27-7.031 9.036-10.465 13.592l2.341-.61c-.152-.098-.3-.2-.447-.305-.155-.11-.008 0 .019.02a8.817 8.817 0 0 1-.266-.212 18.805 18.805 0 0 1-1.022-.913 31.51 31.51 0 0 1-2.044-2.171c-1.329-1.535-2.552-3.156-3.724-4.812a89.7 89.7 0 0 1-2.889-4.329 34.027 34.027 0 0 1-.757-1.257c-.031-.055-.07-.111-.094-.17.077.188.023.034.022-.155a3.67 3.67 0 0 1 .258-1.411c.522-1.287 1.754-2.373 2.617-3.441 1.014-1.253 2.02-2.513 3.094-3.717 1.456-1.632-.955-4.046-2.42-2.405ZM560.647 207.299c-10.052 7.363-21.169 14.774-34.17 14.527-6.175-.118-12.825-1.809-17.498-6.022-3.985-3.593-5.954-8.688-6.421-13.938-.571-6.423.609-13.033 1.788-19.329 1.334-7.123 3.186-14.136 5.403-21.037 1.885-5.866 3.674-11.801 6.285-17.399 2.463-5.28 5.66-10.458 10.443-13.961 4.648-3.405 10.092-5.467 15.469-7.428 4.026-1.469 8.008-3.034 11.999-4.592l1.342-.524c.859-.336 1.458-1.139 1.194-2.092-.225-.814-1.239-1.525-2.104-1.187-3.304 1.29-6.592 2.636-9.919 3.866-5.704 2.107-11.566 4.021-16.822 7.125-2.596 1.534-5.058 3.377-7.115 5.583-2.207 2.366-4.051 5.08-5.616 7.9-3.162 5.696-5.276 11.91-7.264 18.086-2.225 6.912-4.317 13.842-5.831 20.947a153.749 153.749 0 0 0-1.972 11.314c-.45 3.318-.877 6.66-.836 10.014.072 5.843 1.477 11.76 5.136 16.44 4.053 5.182 10.429 8.104 16.842 9.132 6.589 1.057 13.311.371 19.588-1.862 6.336-2.254 12.103-5.772 17.588-9.598 1.419-.99 2.823-2.003 4.218-3.026.743-.544 1.116-1.474.614-2.327-.428-.728-1.592-1.157-2.341-.61v-.002ZM619.701 118.397c5.563 2.172 11.089 4.412 16.462 7.024 7.022 3.414 14.499 7.588 18.967 14.195 4.822 7.13 7.129 15.621 8.461 24.02 1.413 8.912 1.865 18.003 2.307 27.003.521 10.589.642 21.19.634 31.79-.002 2.188 3.419 2.192 3.421 0 .009-9.702-.086-19.403-.508-29.096-.408-9.374-.911-18.804-2.187-28.107-1.207-8.801-3.365-17.673-7.948-25.386-4.304-7.244-11.219-12.082-18.589-15.93-6.491-3.39-13.293-6.131-20.11-8.792-.86-.336-1.878.369-2.104 1.188-.267.964.331 1.755 1.195 2.091h-.001ZM637.628 222.431c.513-14.401.848-28.806 1.134-43.214.081-4.096.159-8.192.238-12.288.042-2.189-3.38-2.189-3.422 0-.276 14.331-.546 28.662-.966 42.99-.123 4.171-.258 8.341-.407 12.512-.077 2.188 3.344 2.186 3.422 0h.001Z"/><path fill="#fff" d="M557.96 168.018c3.039-4.382 5.891-8.808 8.053-13.765.674-1.544 1.315-3.17 2.546-4.326 1.231-1.155 3.263-1.674 4.628-.679.652.476 1.054 1.214 1.364 1.956 1.387 3.322 1.274 7.24-.362 10.458 6.483-3.984 13.287-8.576 19.957-12.33 2.185-1.229 4.444-2.459 6.896-1.921 2.923.641 4.966 4.448 2.297 7.224 1.775-1.053 3.694-1.887 5.735-1.577 2.169.33 3.901 2.39 3.319 4.491-.316 1.141-.701 2.328-1.699 2.973-.482.312-.96.618-1.432.921-1.865.362.7-.137.7-.137 1.234-.24 2.355.031 3.127.587.832.598 1.356 2.182 1.139 3.18-.218.997-.536 2.224-1.345 2.852a270.606 270.606 0 0 1-4.212 3.214c2.146-.318 3.613 1.76 3.625 3.091.012 1.33-.413 2.681-1.509 3.443-5.762 4.007-10.851 7.138-16.795 10.146-3.021 1.528-5.818 3.457-8.799 5.061-1.512.813-3.069 1.54-4.624 2.268l-5.242 2.45c-1.3.608-2.605 1.217-3.939 1.748-1.86.74-3.938.659-5.764-.162a36.4 36.4 0 0 1-9.53-6.264 36.599 36.599 0 0 1-5.499-6.28c-1.7-2.462-1.648-5.724.078-8.168a298.48 298.48 0 0 0 3.301-4.781c1.337-1.909 2.679-3.788 3.986-5.673Z"/><path fill="#fff" d="M604.55 151.253c-.223-1.83-1.696-3.444-3.508-3.842-2.452-.537-4.711.692-6.896 1.921-3.134 1.764-6.299 3.713-9.446 5.697"/><path fill="#211715" d="M552.497 172.832c-1.936 2.852-4.529 5.614-4.834 9.182-.286 3.365 1.669 6 3.716 8.453 2.028 2.43 4.371 4.568 6.931 6.433a36.613 36.613 0 0 0 4.003 2.537c1.453.793 3.003 1.638 4.646 1.942 3.736.692 7.046-1.291 10.31-2.817 3.334-1.558 6.733-3.026 9.932-4.848 3.132-1.784 6.19-3.641 9.384-5.318a126.499 126.499 0 0 0 8.887-5.14 162.022 162.022 0 0 0 4.913-3.241c1.652-1.13 3.067-2.206 3.472-4.275.296-1.506.107-2.964-.82-4.218-1.014-1.372-2.612-2.268-4.359-2.088-.919.094-1.711.714-1.711 1.7 0 .846.787 1.796 1.711 1.701.859-.089 1.428.256 1.786.993.033.069.076.164.122.37-.06-.267 0 .291-.012.432-.037.447-.143.949-.417 1.319-.391.526-1.103.86-1.637 1.225-.641.438-1.284.871-1.93 1.301-1.294.859-2.599 1.7-3.92 2.518a125.61 125.61 0 0 1-7.953 4.541c-2.762 1.444-5.427 2.998-8.109 4.584-2.822 1.669-5.784 3.039-8.752 4.426-1.43.669-2.859 1.342-4.293 2.005-1.321.612-2.745 1.418-4.215 1.578-2.682.291-5.382-1.566-7.532-2.947a35.002 35.002 0 0 1-6.194-5.092 33.43 33.43 0 0 1-2.883-3.373c-.847-1.147-1.605-2.299-1.671-3.765-.062-1.404.385-2.614 1.18-3.758 1.074-1.544 2.149-3.087 3.205-4.643 1.235-1.82-1.728-3.524-2.955-1.717h-.001ZM574.848 163.25c5.256-3.223 10.395-6.63 15.67-9.821a175.824 175.824 0 0 1 3.914-2.302c1.176-.67 2.365-1.404 3.66-1.825 2.182-.711 4.429-.072 4.809 2.403.139.908 1.288 1.411 2.104 1.187.977-.267 1.334-1.18 1.195-2.091-.472-3.074-3.316-5.22-6.37-5.221-3.281 0-6.294 2.104-9.008 3.7-5.995 3.525-11.774 7.397-17.701 11.031-1.87 1.148-.154 4.091 1.727 2.937v.002Z"/><path fill="#211715" d="M585.004 167.866a829.227 829.227 0 0 1 10.463-6.45l5.026-3.055c1.651-1.004 3.275-2.128 5.019-2.969 1.263-.609 3.049-1.127 4.318-.256 1.091.748 1.044 1.681.653 2.816-.508 1.479-2.25 2.13-3.496 2.921a545.44 545.44 0 0 1-4.916 3.079c-3.703 2.295-7.425 4.561-11.126 6.859-1.863 1.157-.147 4.101 1.727 2.937 3.701-2.299 7.422-4.565 11.126-6.859a517.816 517.816 0 0 0 5.616-3.525c.898-.571 1.88-1.099 2.694-1.787.776-.656 1.236-1.548 1.588-2.482.663-1.752.731-3.625-.385-5.218-1.156-1.649-2.997-2.546-5.006-2.583-2.167-.039-4.211.898-6.026 1.989-1.939 1.166-3.863 2.355-5.797 3.529-4.416 2.683-8.831 5.368-13.205 8.117-1.856 1.166-.142 4.111 1.727 2.937Z"/><path fill="#211715" d="M610.416 162.946c.669-.109 1.528.005 1.872.607.432.755.28 1.268.05 2.03-.316 1.046-1.112 1.49-1.956 2.138-.94.723-1.885 1.439-2.838 2.145a122.651 122.651 0 0 1-11.928 7.839c-1.905 1.097-.184 4.037 1.727 2.937 5.111-2.942 9.932-6.281 14.607-9.863 1.204-.922 2.598-1.748 3.254-3.166.551-1.19.901-2.518.703-3.825-.489-3.234-3.343-4.616-6.401-4.121-.912.147-1.42 1.274-1.195 2.091.267.965 1.189 1.336 2.105 1.188ZM576.372 160.899c1.114-3.092 1.151-6.631-.003-9.72-.54-1.443-1.295-2.93-2.746-3.652-1.481-.738-3.171-.588-4.642.088-2.901 1.335-3.856 4.59-5.108 7.242-1.422 3.009-3.117 5.882-4.936 8.67-2.06 3.159-4.274 6.216-6.439 9.306-.528.754-.139 1.889.614 2.326.851.496 1.811.146 2.34-.61 3.283-4.682 6.687-9.303 9.479-14.3 1.351-2.42 2.319-5.012 3.625-7.445.486-.907 1.099-1.837 2.105-2.219.927-.352 1.596-.106 2.067.748 1.441 2.605 1.326 5.94.345 8.663-.311.865.352 1.861 1.195 2.092.948.259 1.792-.32 2.104-1.188v-.001Z"/><path fill="#FD8B27" d="m661.294 97.465-8.424 9.99c-.574.681-.721 1.747 0 2.405.634.578 1.806.728 2.419 0l8.425-9.99c.573-.681.721-1.747 0-2.405-.634-.578-1.806-.728-2.42 0ZM677.839 123.708c-4.45.961-8.901 1.92-13.351 2.88-.903.195-1.43 1.241-1.195 2.092.257.927 1.199 1.383 2.105 1.187l13.351-2.879c.903-.195 1.43-1.242 1.194-2.092-.256-.927-1.198-1.383-2.104-1.188ZM677.43 105.612l-17.572 10.995c-1.859 1.163-.144 4.107 1.727 2.937l17.572-10.995c1.859-1.164.144-4.108-1.727-2.937Z"/><path fill="#645D5C" d="M47.58 59.6c0 14.587-1.197 25.106-2.871 31.088-1.138 4.093-2.112 10.907-2.153 15.065-.05 6.039 5.74 12.59 14.64 12.375l69.346-1.664c9.718 3.486 18.17-5.322 18.108-12.125-.037-4.16-.713-7.37-2.1-11.385-1.729-5.007-5.079-15.179-5.32-33.353.481-5.5-.019-13.446-.237-16.5-.753-10.587-5.486-22.409-12.295-28.98-2.005-1.935-3.458-3.188-5.094-4.364l-7.273-4.211c-5.614-2.277-11.462-3.788-19.768-3.788-13.618 0-25.739 7.018-31.118 12.169-8.923 8.544-14.583 24.152-13.87 45.674"/><path fill="#F2635F" d="m2.542 117.36 13.307 2.337c.907.159 1.94-.262 2.159-1.246.192-.865-.277-1.988-1.247-2.158l-13.307-2.338c-.906-.159-1.939.262-2.158 1.247-.193.865.276 1.988 1.246 2.158ZM17.579 89l9.46 10.418c.641.705 1.852.632 2.494-.018.7-.71.624-1.786-.018-2.493l-9.461-10.418c-.64-.705-1.851-.632-2.493.018-.7.71-.625 1.786.018 2.493ZM1.544 98.744l18.92 9.977c2.002 1.055 3.762-2.001 1.747-3.063l-18.92-9.977c-2.002-1.055-3.761 2-1.747 3.063Z"/><path fill="#fff" d="M81.85 44.791c-.949.285-1.876.532-2.771.734 0 0-.47.106-1.324.303-2.423 1.827-5.024 3.534-7.738 5.14-.914.54-7.195 3.263-9.451 4.314l-1.947.907c-1.005-.736-2.22-1.018-3.284-.985-2.737.087-3.907 1.576-4.411 2.45-1.506 2.612-1.462 7.435-.469 10.424.703 2.116 1.856 5.354 4.655 7.683 1.24 1.032 3.114 1.69 4.852 1.247 1.255 4.363 3.537 9.634 7.564 14.535 3.342 4.068 6.87 7.025 10.849 8.766-.022 1.414.016 2.055-.126 3.978-.072.926-.144 1.923-.487 2.824-.455 1.181-1.077 2.21-2.066 3.016-1.414 1.133-2.843 1.867-4.44 2.533a497.245 497.245 0 0 0 2.755 11.293c5.817 2.838 12.333 4.123 18.863 3.947 6.535.176 13.053-1.11 18.874-3.95a504.205 504.205 0 0 0 2.823-11.605c-1.308-.591-2.52-1.261-3.708-2.218-.989-.805-1.611-1.834-2.066-3.015-.342-.902-.414-1.899-.486-2.824-.155-2.237-.096-2.739-.118-4.742 3.678-1.72 6.716-4.118 9.906-8.002 3.96-4.82 6.233-9.997 7.501-14.317 1.772.531 3.719-.119 5.001-1.169 2.818-2.307 3.995-5.535 4.714-7.646 1.015-2.98 1.097-7.804-.389-10.426-.498-.88-1.656-2.377-4.392-2.485-1.143-.045-2.461.274-3.511 1.128l-1.994-1.55c-2.535-1.972-6.848-4.816-10.207-9.344-5.144-6.934-6.109-11.273-7.638-16.068-3.589 5.198-15.601 12.202-25.333 15.127l-.001-.002Z"/><path fill="#211715" d="M49.339 59.602c-.42-13.29 1.248-27.73 8.833-39.032 2.912-4.338 6.822-7.754 11.375-10.435 6.28-3.699 13.46-6.141 20.762-6.55 4.36-.243 8.815.076 13.084 1a47.78 47.78 0 0 1 5.349 1.493c.891.304 1.768.641 2.646.978.074.029.437.218.083.03.111.059.22.124.33.187l.661.374c1.977 1.12 3.754-1.925 1.779-3.044-2.626-1.488-5.667-2.39-8.588-3.111C101.772.533 97.767.08 93.774.007c-8.14-.148-16.134 1.93-23.362 5.63-5.345 2.736-10.147 6.336-13.817 11.116-3.743 4.875-6.276 10.62-7.95 16.51-2.422 8.527-3.11 17.507-2.83 26.339.072 2.262 3.596 2.273 3.524 0ZM138.992 59.601c.31-3.674.231-7.38.075-11.062-.136-3.219-.308-6.445-.795-9.633-1.169-7.656-4.031-15.408-8.614-21.688-2.535-3.474-5.686-6.462-9.164-8.982-.771-.559-1.964-.132-2.411.632-.52.89-.141 1.852.632 2.412 5.82 4.217 10.085 9.947 12.815 16.568a52.575 52.575 0 0 1 3.153 10.839c.524 2.955.677 5.959.819 8.953.189 3.978.3 7.989-.034 11.961-.081.95.867 1.763 1.762 1.763 1.02 0 1.682-.81 1.762-1.763Z"/><path fill="#211715" d="M45.817 59.6c-.004 5.686-.168 11.377-.65 17.043-.333 3.925-.792 7.8-1.67 11.646-.42 1.837-.949 3.641-1.312 5.493a83.095 83.095 0 0 0-1.14 7.822c-.209 2.129-.411 4.296-.034 6.417.338 1.906 1.193 3.76 2.337 5.314 3.237 4.397 8.445 6.641 13.849 6.555 2.266-.036 2.272-3.561 0-3.525-4.095.065-8.16-1.442-10.742-4.728-1.055-1.341-1.691-2.787-2.027-4.454a5.73 5.73 0 0 1-.105-1.033c-.016-.476.003-.954.022-1.431.043-1.087.13-2.172.238-3.254.236-2.353.59-4.696 1.054-7.016.352-1.76.859-3.477 1.257-5.225.864-3.78 1.344-7.654 1.702-11.51.558-6.02.74-12.072.744-18.115.002-2.268-3.523-2.272-3.524 0l.001.002ZM135.468 59.602c.14 9.677 1.117 19.447 3.778 28.78.975 3.421 2.352 6.734 3.07 10.224.286 1.392.456 2.795.527 4.215.055 1.081.07 2.242-.11 3.078-.393 1.824-1.245 3.479-2.47 4.939-3.306 3.942-8.331 5.638-13.253 3.927-2.147-.746-3.07 2.658-.937 3.4 5.099 1.772 10.483.561 14.619-2.804 3.632-2.955 5.867-7.342 5.697-12.042-.113-3.129-.674-6.213-1.603-9.2-.468-1.506-1.012-2.986-1.486-4.49a85.702 85.702 0 0 1-2.606-10.666c-1.143-6.387-1.608-12.878-1.702-19.36-.033-2.267-3.557-2.273-3.524 0v-.002ZM86.592 84.803c2.07 1.094 4.3 1.554 6.641 1.539 2.393-.016 4.797-.492 6.71-1.983.731-.57.643-1.903 0-2.493-.774-.712-1.712-.607-2.491 0 .537-.419.129-.105-.01-.016-.132.085-.268.164-.409.237-.072.038-.147.072-.22.11-.25.129-.038-.074.08-.027-.079-.032-.474.176-.565.205-.514.165-1.045.28-1.58.36.264-.04-.024 0-.139.012a15.887 15.887 0 0 1-1.589.07 16.391 16.391 0 0 1-1.466-.074c-.027-.003-.581-.087-.211-.023-.499-.087-.99-.183-1.476-.327-.207-.062-.408-.136-.613-.206-.447-.153.27.138-.133-.052-.253-.12-.503-.244-.75-.375-.816-.43-1.954-.233-2.412.633-.43.814-.238 1.952.632 2.412l.001-.002ZM92.319 69.178c.288 1.1.565 2.219.73 3.346l-.062-.469c.02.155.028.307.012.462l.063-.468a1.13 1.13 0 0 1-.05.208l.177-.421a.842.842 0 0 1-.073.133l.275-.356a.69.69 0 0 1-.11.108l.358-.276a2.11 2.11 0 0 1-.265.14l.42-.177c-.146.06-.29.105-.446.13l.469-.063a1.782 1.782 0 0 1-.42-.001l.469.063c-.158-.022-.313-.06-.472-.082a1.339 1.339 0 0 0-.702-.031c-.235.01-.453.08-.655.21-.366.213-.715.632-.81 1.052-.103.451-.081.958.177 1.358.23.356.614.75 1.053.81.365.05.718.142 1.088.158.57.025 1.099-.15 1.607-.383a2.33 2.33 0 0 0 1.289-1.536c.141-.574.081-1.073-.016-1.649a36.749 36.749 0 0 0-.709-3.203c-.233-.892-1.27-1.522-2.167-1.231-.918.297-1.482 1.212-1.23 2.168ZM74.677 59.69c-.56 1.815-.195 5.993 3.244 6.348 4.546-.027 4.788-5.077 3.257-7.451-1.252-1.945-4.936-2.753-6.501 1.103ZM111.077 59.69c.558 1.815.194 5.993-3.245 6.347-4.546-.027-4.788-5.077-3.257-7.451 1.252-1.944 4.936-2.753 6.502 1.104ZM87.575 33.216c-2.846 4.368-6.675 8.06-10.828 11.18-2.267 1.702-4.638 3.262-7.069 4.72-1.319.792-2.747 1.386-4.148 2.015-1.951.876-3.914 1.728-5.853 2.629-.864.4-1.08 1.645-.633 2.412.518.885 1.545 1.034 2.412.632 3.115-1.447 6.418-2.632 9.423-4.3 4.995-2.77 9.798-6.34 13.863-10.35a43.3 43.3 0 0 0 5.877-7.159c1.242-1.906-1.809-3.675-3.044-1.78Z"/><path fill="#211715" d="M105.773 28.61c-.088.131-.177.26-.269.387-.182.254.075-.079-.131.17-.268.324-.545.64-.835.944a25.043 25.043 0 0 1-1.848 1.742c-1.499 1.287-3.123 2.423-4.785 3.49a69.804 69.804 0 0 1-12.26 6.27c-2.293.894-4.636 1.663-7.036 2.213-2.21.506-1.275 3.905.937 3.4 4.648-1.066 9.13-2.908 13.39-5.028 4.145-2.063 8.162-4.476 11.741-7.427 1.554-1.282 3.01-2.702 4.138-4.38 1.269-1.888-1.783-3.655-3.043-1.78h.001Z"/><path fill="#211715" d="M126.274 53.83c-1.818-1.408-3.691-2.74-5.426-4.253-2.279-1.987-4.224-4.22-5.917-6.723-1.447-2.14-2.749-4.402-3.738-6.793-.799-1.932-1.4-3.938-2.02-5.933-.671-2.159-4.075-1.237-3.399.938 1.498 4.817 3.27 9.36 6.115 13.568 1.804 2.667 3.84 5.115 6.256 7.25 1.039.918 2.128 1.779 3.229 2.623.432.331.868.658 1.303.985.323.241.977.731 1.105.83.752.582 1.76.733 2.492 0 .607-.606.757-1.906 0-2.492ZM57.6 74.856c1.109 5.027 3.114 9.907 5.936 14.216 3.026 4.622 7.01 8.957 11.851 11.706a23.54 23.54 0 0 0 8.043 2.809c.94.144 1.895-.238 2.167-1.231.23-.834-.284-2.023-1.23-2.168-9.983-1.53-17.411-10.286-21.146-19.183a41.258 41.258 0 0 1-2.223-7.086c-.488-2.215-3.886-1.277-3.398.937ZM124.625 73.919c-1.263 5.727-3.71 11.223-7.343 15.845-1.778 2.262-3.815 4.418-6.18 6.073-2.25 1.573-4.725 2.69-7.328 3.54-2.147.699-1.229 4.105.937 3.399 4.529-1.477 8.607-3.734 12.014-7.097 3.945-3.894 6.963-8.63 9.077-13.737a42.537 42.537 0 0 0 2.222-7.086c.488-2.211-2.909-3.155-3.399-.937Z"/><path fill="#211715" d="M127.957 57.847c.886-.8 2.109-1.034 3.263-.8.531.106 1.028.3 1.46.634-.096-.074.663.768.445.457 1.25 1.78 1.283 4.308 1.119 6.4-.169 2.154-.902 4.302-1.9 6.212-1.058 2.026-3.102 4.975-5.767 4.603-.941-.132-1.892.229-2.167 1.23-.227.826.282 2.037 1.23 2.169 6.222.87 9.831-5.263 11.446-10.383.799-2.534.91-5.325.527-7.94-.326-2.229-1.201-4.387-3.076-5.735-2.727-1.96-6.637-1.536-9.072.66-1.688 1.522.811 4.009 2.493 2.492h-.001ZM60.393 55.382c-2.246-2.058-5.515-2.495-8.264-1.19-1.975.937-3.133 2.886-3.665 4.936-1.265 4.88-.063 10.445 2.625 14.653 1.84 2.882 4.84 5.548 8.503 5.066.944-.124 1.763-.721 1.763-1.763 0-.856-.813-1.888-1.763-1.763-2.939.387-4.91-2.14-6.137-4.49-1.016-1.946-1.747-4.144-1.902-6.34-.147-2.085-.1-4.624 1.175-6.389-.218.304.544-.516.453-.448.438-.329.932-.52 1.468-.62 1.16-.218 2.37.03 3.252.84 1.67 1.53 4.17-.957 2.492-2.493v.001ZM71.49 114.459c2.779-1.149 5.789-2.602 7.29-5.358 1.354-2.489 1.33-5.409 1.35-8.173.006-.953-.815-1.763-1.762-1.763-.962 0-1.756.807-1.763 1.763a49.654 49.654 0 0 1-.089 2.919c-.044.675-.075 1.271-.178 1.8a6.19 6.19 0 0 1-.242.898c-.022.061-.166.405-.073.197-.062.141-.13.28-.201.417-.532 1.033-1.094 1.568-2.093 2.233-.979.652-2.258 1.288-3.176 1.668-.88.363-1.505 1.169-1.23 2.168.228.831 1.282 1.597 2.167 1.231ZM106.436 100.928c0 2.57-.006 5.276 1.081 7.65 1.183 2.583 3.664 4.149 6.164 5.288.837.382 1.936.268 2.412-.632.408-.773.263-2.004-.633-2.412-1.098-.501-2.161-1.071-3.139-1.782-.853-.62-1.275-1.201-1.761-2.242-.125-.267.076.206-.032-.072a6.355 6.355 0 0 1-.164-.476 6.575 6.575 0 0 1-.198-.909c-.02-.137-.008-.023-.027-.248l-.036-.406a42.868 42.868 0 0 1-.143-3.759c0-.922-.811-1.805-1.762-1.763-.952.043-1.762.775-1.762 1.763Z"/><path fill="#FED8A5" d="M105.95 144.771a486.953 486.953 0 0 1-3.269 10.453c-3.663 11.25-4.742 14.684-9.807 27.085-4.847-11.879-6.039-15.539-9.35-25.718-.148-.441-.295-.896-.449-1.366-4.706-14.439-9.068-30.325-12.416-45.175a69.436 69.436 0 0 0-5.906 4.279c-3.954 1.627-15.91 6.572-18.519 7.944-4.774 2.511-9.321 5.239-12.998 9.299-5.69 6.284-10.029 19.569-13.216 30.112-3.262 10.787-6.096 22.579-7.787 33.534-1.492 9.663.92 19.476 9.091 24.987 4.325 2.916 9.488 4.256 14.613 4.426 3.807.127 7.403-.418 10.866-1.474 31.362-.003 122.724-.003 122.724-.003-3.103-39.436-3.701-45.539-5.672-62.948-1.092-9.622-3.621-18.039-7.705-24.237-6.86-10.42-18.481-15.278-32.009-21.892 0 0-1.824 0-3.461-.002a69.191 69.191 0 0 0-5.588-4.022c-2.553 11.339-5.703 23.278-9.143 34.719l.001-.001Z"/><path fill="#211715" d="M123.253 115.598c4.854 2.372 9.766 4.639 14.514 7.222 4.127 2.246 8.162 4.747 11.626 7.946 7.515 6.939 10.809 16.714 12.324 26.603.847 5.526 1.32 11.137 1.889 16.698a999.739 999.739 0 0 1 1.545 16.718c.784 9.201 1.512 18.405 2.239 27.61l.375 4.759c.075.949.757 1.763 1.762 1.763.896 0 1.838-.809 1.763-1.763-.787-9.994-1.572-19.988-2.412-29.978a1101.443 1101.443 0 0 0-1.603-17.676 1002.749 1002.749 0 0 0-1.675-15.461c-1.217-10.501-4.099-21.342-11.338-29.366-6.807-7.545-16.386-11.906-25.372-16.247a913.048 913.048 0 0 1-3.857-1.87c-.855-.418-1.906-.233-2.412.632-.453.775-.226 1.992.632 2.412v-.002Z"/><path fill="#211715" d="M135.569 155.391c.374 9.205.662 18.411.895 27.62.22 8.656.447 17.312.679 25.969.127 4.72.255 9.44.389 14.16.064 2.264 3.589 2.273 3.524 0-.248-8.762-.48-17.523-.71-26.285-.216-8.25-.403-16.502-.65-24.75-.168-5.572-.376-11.143-.602-16.714-.092-2.261-3.617-2.272-3.525 0Z"/><path fill="#fff" d="M88.072 170.053c-1.522-4.16-2.708-7.804-4.549-13.461-.147-.441-.294-.896-.448-1.366-3.261-10.006-6.357-20.706-9.066-31.271 5.82 2.836 12.334 4.121 18.865 3.945 6.533.176 13.051-1.11 18.872-3.949-2.709 10.567-5.807 21.266-9.065 31.272-3.482 10.699-4.629 14.329-9.084 25.328l-1.438-.002c-1.765-4.354-3.01-7.554-4.087-10.496Z"/><path fill="#211715" d="M73.712 125.758c6.092 2.805 12.489 3.904 19.161 3.904 6.672 0 13.069-1.099 19.162-3.904.864-.398 1.079-1.647.632-2.411-.519-.888-1.544-1.032-2.412-.633-5.51 2.537-11.364 3.423-17.382 3.423-6.019 0-11.873-.886-17.383-3.423-.865-.397-1.898-.245-2.412.633-.444.76-.236 2.011.632 2.411h.002Z"/><path fill="#211715" d="M93.857 180.081c-7.011-17.316-12.545-35.261-17.295-53.318a504.192 504.192 0 0 1-4.204-17.182c-.244-1.081-1.66-1.653-2.589-1.053-4.198 2.713-8.347 5.853-11.684 9.597-1.246 1.399-3.996 4.267-2.929 6.314.613 1.174 2.176 1.738 3.273 2.364 1.217.695 2.435 1.391 3.652 2.088l-.357-2.768a202.967 202.967 0 0 0-3.517 3.369c-1.125 1.111-2.48 2.243-3.356 3.567-.908 1.373-.6 2.741.088 4.115.73 1.459 1.494 2.901 2.25 4.345a771.328 771.328 0 0 0 9.422 17.425l-.24-.889c0 .991.913 2.112 1.382 2.953a1312.38 1312.38 0 0 0 5.127 9.116c2.234 3.94 4.487 7.869 6.75 11.794 1.132 1.965 4.179.192 3.043-1.779-4.394-7.625-8.753-15.269-13.019-22.966l.241.889c0-.763-.592-1.53-.948-2.171a885.43 885.43 0 0 1-3.323-6.05c-1.457-2.68-2.9-5.367-4.323-8.065a578.082 578.082 0 0 1-3.08-5.918c-.136-.263-.37-.571-.43-.86.024.12-.103.18-.006-.007.288-.554 1.004-1.072 1.436-1.517.569-.585 1.145-1.162 1.728-1.734a214.08 214.08 0 0 1 3.268-3.124c.826-.776.606-2.217-.357-2.768-1.014-.58-2.028-1.161-3.042-1.739l-1.372-.783-.762-.435-.305-.174c-.338-.225-.398-.243-.18-.056l.242.89c.009-.231.683-1.101.914-1.426.346-.488.729-.947 1.124-1.395 1.071-1.217 2.245-2.341 3.459-3.414a63.542 63.542 0 0 1 7.61-5.743l-2.589-1.054a520.9 520.9 0 0 0 16.37 57.084c1.58 4.521 3.333 8.977 5.13 13.415.356.883 1.173 1.505 2.167 1.231.836-.229 1.59-1.28 1.23-2.168h.001Z"/><path fill="#211715" d="M106.121 181.914c8.457-14.663 16.819-29.397 24.545-44.462.557-1.087 1.051-2.138.703-3.382-.323-1.159-1.296-2.003-2.102-2.838-1.693-1.759-3.463-3.44-5.242-5.111l-.357 2.768 4.266-2.436c1.324-.755 3.008-1.416 2.892-3.229-.072-1.121-.932-2.28-1.585-3.162a28.208 28.208 0 0 0-2.258-2.683c-3.234-3.394-7.065-6.317-11-8.849-.929-.598-2.345-.029-2.589 1.053A517.461 517.461 0 0 1 97 166.746c-1.574 4.493-3.318 8.923-5.105 13.335-.357.883.39 1.937 1.231 2.168 1.007.277 1.81-.345 2.168-1.231 7.032-17.372 12.58-35.371 17.341-53.487a496.449 496.449 0 0 0 4.157-17.011l-2.589 1.053a63.231 63.231 0 0 1 7.362 5.521c1.237 1.079 2.435 2.211 3.532 3.432.432.481.856.972 1.233 1.496a14.16 14.16 0 0 1 .811 1.258c.031.056.183.468.174.265l.241-.889c.151-.293-.15.038-.334.144l-.763.434-1.523.871c-1.016.58-2.032 1.159-3.047 1.74-.962.549-1.183 1.994-.357 2.768 1.525 1.43 3.042 2.87 4.511 4.359.327.331.651.666.973 1.002.277.291.796.648.95 1.014.033.078.063-.122-.043.094-.243.496-.504.984-.757 1.475a660.242 660.242 0 0 1-5.535 10.499c-3.842 7.139-7.791 14.219-11.792 21.269-2.24 3.944-4.496 7.878-6.762 11.807-1.135 1.969 1.909 3.746 3.043 1.78l.001.002ZM65.558 112.108c-6.492 2.657-13.065 5.227-19.401 8.242-5.502 2.619-11.18 6.168-15.018 10.979-4.03 5.051-6.506 11.259-8.698 17.277-2.45 6.728-4.519 13.615-6.385 20.525-2.09 7.736-3.865 15.566-5.178 23.472-.553 3.327-.982 6.645-.752 10.024.22 3.234.915 6.383 2.198 9.362 2.694 6.259 8.09 10.684 14.486 12.828 6.733 2.259 14.233 2.037 20.96-.117 6.725-2.154 12.778-6.037 18.43-10.225a234.839 234.839 0 0 0 4.501-3.439c.751-.586.615-1.878 0-2.493-.742-.741-1.74-.587-2.492 0-10.287 8.026-22.277 16.262-36.03 13.972-6.269-1.044-12.216-4.165-15.523-9.756-2.962-5.009-3.568-11.116-2.766-16.797 1.062-7.528 2.75-15.002 4.634-22.362a282.613 282.613 0 0 1 6.02-20.359c1.99-5.896 4.184-11.883 7.523-17.169 3.403-5.387 8.712-8.886 14.231-11.84 3.136-1.678 6.695-3.096 9.803-4.408a1087.59 1087.59 0 0 1 9.813-4.081l.579-.238c.88-.361 1.505-1.171 1.23-2.168-.228-.834-1.28-1.594-2.167-1.231l.002.002Z"/><path fill="#fff" d="M116.188 162.1c-.2.928-.491 2.071-1.242 2.662-1.373 1.066-2.647 2.056-3.889 2.984-.005 0-.007.003-.007.007a2.581 2.581 0 0 1 1.335.138c.229.085.444.2.636.338.13.092.253.192.361.299.069.069.145.146.207.215.122.145.238.291.337.452.307.483.476.997.476 1.434.016 1.236-.376 2.494-1.396 3.2-5.322 3.728-10.032 6.643-15.531 9.444-2.792 1.427-5.385 3.222-8.138 4.711-1.403.759-2.838 1.434-4.28 2.11-1.619.767-3.23 1.527-4.848 2.286-1.204.56-2.408 1.128-3.643 1.626-1.726.69-3.644.614-5.331-.153a48.252 48.252 0 0 1-1.043-.491c-.268-.138-.537-.269-.798-.422-.1-.047-.199-.1-.299-.154a5.827 5.827 0 0 1-.514-.291 13.865 13.865 0 0 1-.72-.415c-.108-.061-.208-.115-.3-.184a17.24 17.24 0 0 1-.897-.568c-.038-.023-.069-.046-.107-.069-.33-.214-.652-.437-.966-.667-.046-.031-.085-.054-.123-.092-.345-.245-.69-.506-1.028-.768a28.099 28.099 0 0 1-1.863-1.572c-.054-.038-.108-.092-.161-.138a11.554 11.554 0 0 1-.43-.407 33.513 33.513 0 0 1-4.656-5.439c-1.572-2.294-1.526-5.324.077-7.603a276.027 276.027 0 0 0 3.053-4.45c1.288-1.848 2.577-3.674 3.835-5.501.3-.437.598-.874.89-1.311.36-.53.713-1.059 1.058-1.588.322-.499.644-.997.959-1.496.007-.008.007-.016.007-.016.299-.476.598-.959.89-1.449.062-.092.115-.192.169-.284.23-.391.46-.775.683-1.173.16-.284.322-.576.483-.867v-.007c.146-.261.284-.522.422-.783l.368-.713c.2-.391.399-.782.583-1.189.01-.005.013-.01.007-.015.276-.561.537-1.12.782-1.695.621-1.443 1.212-2.954 2.355-4.028 1.135-1.074 3.014-1.558 4.28-.637.598.445.974 1.136 1.258 1.826a11.829 11.829 0 0 1 .805 5.899c-.015.131-.03.269-.053.399-.008.1-.023.192-.047.291-.03.2-.076.399-.122.599a6.332 6.332 0 0 1-.138.545c-.031.131-.07.253-.115.376-.054.161-.108.33-.17.491-.137.383-.298.752-.483 1.12 0 .007-.007.007-.007.015.69-.43 1.388-.867 2.094-1.32.768-.476 1.534-.966 2.309-1.458.644-.414 1.296-.828 1.948-1.25 1.12-.714 2.24-1.435 3.367-2.149.392-.245.782-.49 1.166-.736.338-.215.683-.43 1.02-.644.23-.138.46-.284.69-.423.176-.115.36-.222.545-.338.222-.138.445-.276.675-.414.376-.23.752-.46 1.127-.683.782-.476 1.565-.944 2.355-1.396.383-.23.774-.452 1.158-.668 2.025-1.15 4.111-2.293 6.381-1.795.368.085.713.216 1.043.399.085.038.161.085.238.138.1.062.192.131.284.2.046.038.1.076.145.115.338.269.629.591.859.952.061.091.116.176.169.268.215.376.376.775.452 1.197.023.1.039.208.054.315.131 1.043-.184 2.163-1.12 3.145a13.415 13.415 0 0 1 1.895-.966c.1-.038.191-.077.284-.107.092-.039.184-.069.283-.1.154-.054.307-.1.468-.138.076-.023.161-.047.245-.062.69-.153 1.404-.207 2.133-.092 2.001.307 3.604 2.225 3.067 4.181-.291 1.059-.644 2.164-1.572 2.762-.445.291-.89.575-1.327.859l.652-.131c1.143-.222 2.179.031 2.892.553.767.552 1.258 2.025 1.051 2.954h-.001Z"/><path fill="#fff" d="M107.239 149.239c-.206-1.705-1.569-3.207-3.245-3.577-2.267-.5-4.358.643-6.379 1.788-2.898 1.643-5.825 3.457-8.737 5.304l18.361-3.515Z"/><path fill="#211715" d="M58.935 169.234c-1.827 2.709-4.259 5.322-4.502 8.723-.227 3.168 1.608 5.639 3.528 7.948 1.9 2.286 4.101 4.292 6.502 6.041a33.537 33.537 0 0 0 3.755 2.375c1.328.72 2.744 1.486 4.243 1.754 3.496.626 6.547-1.193 9.605-2.631 3.132-1.473 6.325-2.863 9.329-4.592 2.865-1.649 5.668-3.353 8.593-4.899a116.99 116.99 0 0 0 8.273-4.82 153.544 153.544 0 0 0 4.769-3.176c1.473-1.02 2.673-2.084 3-3.939.258-1.467.08-2.833-.822-4.049-.971-1.308-2.493-2.15-4.151-1.987-.947.092-1.762.744-1.762 1.762 0 .882.809 1.856 1.762 1.763.771-.076 1.269.23 1.555.951-.058-.146.052.244.059.301-.043-.33-.037.304-.05.398-.055.392-.192.803-.462 1.092-.391.42-1.004.732-1.48 1.058-.608.418-1.22.832-1.835 1.241a130.687 130.687 0 0 1-3.603 2.322 116.128 116.128 0 0 1-7.178 4.116c-2.58 1.359-5.07 2.823-7.577 4.311-2.508 1.489-5.137 2.721-7.774 3.961-1.382.65-2.763 1.304-4.147 1.95-1.196.558-2.474 1.286-3.796 1.468-2.423.335-4.868-1.362-6.814-2.605a32.083 32.083 0 0 1-5.822-4.784 30.713 30.713 0 0 1-2.682-3.154c-.722-.987-1.38-1.965-1.494-3.215-.116-1.266.267-2.415.967-3.455 1.005-1.493 2.048-2.96 3.054-4.451 1.272-1.886-1.78-3.652-3.044-1.78l.001.002ZM108.936 148.773c-.556-3.256-3.646-5.306-6.847-4.941-3.011.344-5.756 2.281-8.293 3.809-5.304 3.191-10.45 6.632-15.72 9.876-1.928 1.186-.16 4.237 1.779 3.044 4.626-2.848 9.147-5.86 13.778-8.7 2.242-1.375 4.511-2.901 6.918-3.972 2.063-.919 4.536-.824 4.987 1.822.16.939 1.316 1.465 2.168 1.231.993-.273 1.391-1.227 1.23-2.168v-.001Z"/><path fill="#211715" d="M89.25 164.857c3.191-2.017 6.405-4 9.625-5.971l4.616-2.823c1.519-.93 3.013-1.958 4.606-2.756 1.115-.559 2.609-1.032 3.781-.39 1.053.577 1.053 1.495.677 2.509-.215.577-.456.875-.969 1.208-.824.534-1.651 1.065-2.479 1.592a531.03 531.03 0 0 1-4.357 2.744c-3.391 2.113-6.797 4.201-10.185 6.318-1.92 1.199-.152 4.251 1.779 3.044 3.434-2.146 6.887-4.262 10.323-6.405a462.119 462.119 0 0 0 5.084-3.21c.878-.562 1.849-1.08 2.637-1.766.712-.62 1.148-1.458 1.473-2.328.632-1.696.698-3.471-.352-5.023-1.066-1.577-2.831-2.444-4.714-2.503-2-.063-3.913.781-5.596 1.784-1.766 1.052-3.507 2.15-5.261 3.222-4.169 2.548-8.336 5.098-12.466 7.709-1.912 1.209-.146 4.261 1.78 3.044l-.002.001Z"/><path fill="#211715" d="M112.714 160.296c.362-.059.803-.027 1.141.124.262.118.262.132.387.358.393.711.264.964.027 1.751-.273.906-.921 1.259-1.662 1.832a197.07 197.07 0 0 1-2.638 2.009 113.556 113.556 0 0 1-11.085 7.335c-1.962 1.137-.19 4.185 1.779 3.044 4.762-2.759 9.25-5.892 13.605-9.252 1.119-.864 2.369-1.614 2.982-2.94.547-1.183.879-2.506.654-3.805-.529-3.06-3.253-4.324-6.127-3.856-.94.153-1.464 1.321-1.231 2.168.275 1 1.225 1.384 2.168 1.231v.001ZM61.98 171.013c1.703-2.441 3.424-4.87 5.083-7.342a93.91 93.91 0 0 0 2.206-3.44 76.19 76.19 0 0 0 1.033-1.74c.353-.614.892-1.334.892-2.062l-.24.889c.906-1.649 1.707-3.348 2.454-5.075.573-1.324 1.384-3.472 3.101-3.604 1.449-.112 1.849 2.556 2.005 3.562.287 1.86.049 3.399-.565 5.125-.319.897.36 1.93 1.23 2.168.976.268 1.849-.33 2.168-1.231a13.79 13.79 0 0 0 .437-7.648c-.598-2.633-2.038-5.461-5.102-5.493-2.762-.028-4.777 2.07-5.892 4.396-.528 1.101-.977 2.236-1.507 3.336a61.668 61.668 0 0 1-.828 1.665c-.307.592-.785 1.233-.785 1.918l.24-.89c-2.644 4.783-5.851 9.21-8.973 13.687-.544.781-.142 1.958.633 2.412.878.513 1.864.15 2.41-.633Z"/><path fill="#000" d="m253.9 39.168-4.603-21.899h5.771l1.146 8.123c.363 2.55.729 5.45 1.034 7.702h.058c.32-2.47.737-5.091 1.169-7.775l1.292-8.05h5.74l1.235 8.44c.37 2.527.625 4.759.906 7.24h.058c.274-2.462.641-5.046 1.003-7.63l1.177-8.05h5.451l-4.946 21.899h-5.844l-1.354-8.578a105.56 105.56 0 0 1-.81-6.555h-.058c-.343 2.584-.602 4.636-.968 6.578l-1.517 8.555h-5.94ZM290.224 30.338h-7.207v4.036h8.055v4.794h-13.425V17.269h13.009v4.793h-7.639v3.532h7.207v4.744ZM294.07 17.567c1.211-.244 3.861-.47 6.338-.47 2.835 0 4.552.218 6.115 1.074 1.562.795 2.7 2.374 2.7 4.507 0 1.842-.922 3.639-3.248 4.598v.08c2.453.723 3.927 2.714 3.927 5.314 0 2.064-.914 3.68-2.245 4.778-1.509 1.234-4.001 1.965-8.302 1.965-2.427 0-4.201-.172-5.281-.36V17.567h-.004Zm5.32 8.13h1.08c2.268 0 3.368-.875 3.368-2.29 0-1.283-.892-2.094-2.693-2.094-.899 0-1.404.058-1.755.13v4.258-.003Zm0 9.354c.393.065.856.065 1.547.065 1.786 0 3.309-.78 3.309-2.706 0-1.927-1.554-2.569-3.568-2.569h-1.288v5.21ZM320.302 28.828v3.811h-7.973v-3.81h7.973ZM323.404 33.335c1.219.665 3.19 1.357 5.2 1.357 1.836 0 2.743-.7 2.743-1.804 0-1.048-.899-1.667-3.167-2.512-3.376-1.307-5.629-3.348-5.629-6.605 0-3.876 2.99-6.85 8.055-6.85 2.396 0 4.105.486 5.42 1.12l-1.122 4.687c-.865-.413-2.35-1.04-4.36-1.04-1.635 0-2.534.657-2.534 1.617 0 1.112 1.065 1.56 3.591 2.591 3.615 1.445 5.228 3.56 5.228 6.606 0 3.784-2.693 7.002-8.545 7.002-2.419 0-4.761-.692-5.899-1.334l1.019-4.843v.008ZM345.235 18.641v4.541h3.043v4.29h-3.043v4.59c0 1.9.401 2.687 1.705 2.687.544 0 .976-.057 1.273-.122v4.441c-.617.238-1.813.44-3.191.44-1.577 0-2.893-.608-3.664-1.452-.891-.975-1.354-2.542-1.354-4.981V27.47h-1.81v-4.289h1.81v-3.256l5.235-1.285h-.004ZM365.194 33.725c0 2.251.058 4.086.12 5.443h-4.625l-.24-2.102h-.104c-.528.86-1.813 2.461-4.44 2.461-3.264 0-5.185-2.297-5.185-6.922v-9.423h5.37v8.49c0 2.037.61 3.154 1.875 3.154 1.003 0 1.516-.757 1.724-1.357.105-.237.135-.536.135-.868v-9.415h5.37v10.542-.003ZM383.376 16.096v18.019c0 1.983.058 3.998.12 5.053h-4.761l-.216-2.16h-.058c-.968 1.797-2.743 2.52-4.417 2.52-3.414 0-6.234-3.227-6.234-8.246-.023-5.378 3.086-8.455 6.539-8.455 1.62 0 2.951.512 3.607 1.544h.058v-8.275h5.362Zm-5.366 13.99c0-.237 0-.512-.039-.757-.192-1.12-.995-2.038-2.121-2.038-1.802 0-2.604 1.755-2.604 3.85 0 2.454 1.099 3.727 2.581 3.727 1.084 0 1.913-.837 2.098-1.908.066-.325.081-.7.081-1.074v-1.804l.004.004ZM392.106 18.779c.007 1.552-1.057 2.771-2.766 2.771s-2.701-1.22-2.693-2.771c-.008-1.602 1.065-2.779 2.731-2.779 1.667 0 2.708 1.177 2.732 2.779h-.004Zm-5.417 20.389V23.182h5.37v15.986h-5.37ZM410.322 31.01c0 5.81-3.8 8.513-7.897 8.513-4.382 0-7.781-3.038-7.781-8.237s3.071-8.463 8.055-8.463c4.591 0 7.623 3.38 7.623 8.188Zm-10.146.157c0 2.397.721 4.224 2.38 4.224 1.443 0 2.23-1.659 2.23-4.223 0-2.21-.656-4.209-2.245-4.209-1.763 0-2.365 2.122-2.365 4.209Z"/><path fill="#FF8A27" d="M214.404 83.944c0-6.602-.096-10.542-.308-14.002h11.893l.502 7.485h.308c2.029-6.285 6.836-8.414 10.119-8.414 1.234 0 1.798.023 2.781.253v14.277a14.72 14.72 0 0 0-3.553-.42c-4.112 0-6.874 1.876-7.607 5.228-.135.719-.193 1.625-.193 2.596v20.496h-13.942v-27.5ZM256.326 96.027c.444 3.29 4.826 5.126 9.733 5.126 3.592 0 6.971-.421 10.427-1.602l1.76 10.164c-4.576 1.984-9.541 2.614-14.232 2.614-13.382 0-20.931-8.054-20.931-21.191 0-9.679 5.697-22.12 19.697-22.12 12.283 0 17.533 9.846 17.533 21.233 0 2.53-.27 4.766-.501 5.78H256.33l-.004-.004Zm11.164-10.29c0-2.405-1.022-6.79-5.389-6.79-4.112 0-5.717 4.133-5.949 6.79h11.338Z"/><path fill="#000" d="M302.437 55.371c3.784-.676 9.251-1.223 17.167-1.223 7.491 0 12.861 1.475 16.511 4.533 3.553 2.867 5.929 7.886 5.929 13.685 0 5.798-1.759 10.798-5.057 14.024-4.209 4.113-10.312 5.948-17.341 5.948-1.35 0-2.55-.126-3.398-.191v19.296h-13.807V55.371h-.004Zm13.807 25.095c.752.149 1.678.21 3.186.21 5.428 0 8.827-3.058 8.827-7.951 0-4.239-2.57-7.106-7.878-7.106-2.048 0-3.418.168-4.131.36v14.487h-.004ZM348.414 51.553h13.941v59.89h-13.941v-59.89ZM408.466 97.315c0 5.841.154 10.607.309 14.128h-12.009l-.618-5.463h-.27c-1.369 2.236-4.71 6.391-11.526 6.391-8.476 0-13.46-5.966-13.46-17.965V69.942h13.942V91.98c0 5.294 1.582 8.184 4.864 8.184 2.608 0 3.939-1.961 4.479-3.52.27-.612.347-1.392.347-2.256v-24.44h13.942v27.372-.004ZM417.501 98.683c2.183 1.457 7.106 3.142 10.543 3.142 2.936 0 4.112-.718 4.112-2.255 0-1.536-.868-2.194-4.941-3.604-8.341-2.89-11.199-7.844-11.142-12.676 0-8.268 6.47-14.277 16.434-14.277 4.691 0 8.885 1.14 11.296 2.363L441.6 81.708c-1.817-.971-5.351-2.297-8.421-2.297-2.377 0-3.785.695-3.785 2.339 0 1.372 1.196 2.213 5.717 3.819 7.492 2.679 10.351 6.918 10.408 12.904 0 7.909-5.659 13.856-17.359 13.856-5.289 0-10.003-1.242-12.997-2.931l2.338-10.715Z"/><path fill="#FF8A27" d="M458.346 55.562V46.99h-7.09v8.573h-8.653v6.984h8.653v8.616h7.09v-8.616h8.653v-6.984h-8.653Z"/><path fill="#000" stroke="#000" stroke-miterlimit="10" stroke-width=".5" d="M214.096 126.736h16.31c17.059 0 24.767 8.23 24.767 24.835 0 13.271-5.312 27.135-24.616 27.135h-16.461v-51.97Zm11.372 42.628h4.19c10.701 0 13.768-6.746 13.768-16.754 0-12.529-5.536-16.532-13.842-16.532h-4.116v33.286ZM295.578 174.85c-3.29 2.668-7.407 4.671-15.488 4.671-13.317 0-20.126-7.412-20.126-21.873 0-13.565 7.63-21.646 19.828-21.646 10.775 0 16.986 6.747 16.986 16.975 0 2.149-.073 4.228-.525 7.489h-25.214c.151 6.597 3.144 10.232 10.327 10.232 4.564 0 7.708-2.148 9.278-3.78l4.938 7.932h-.004Zm-24.319-21.796h14.891v-1.112c0-4.893-2.095-7.489-6.658-7.489-5.089 0-8.082 3.708-8.233 8.601ZM304.783 149.052c0-6.819 5.91-12.974 15.712-12.974 7.631 0 12.495 2.668 15.265 5.856l-7.256 7.045c-1.497-1.705-4.414-3.929-8.306-3.929-2.542 0-4.189 1.334-4.189 3.26 0 6.303 19.901 4.079 19.901 18.088 0 5.562-4.413 13.05-16.684 13.05-9.278 0-14.891-3.857-17.209-6.303l6.735-7.71c1.871 2.148 5.987 5.191 11.072 5.191 3.518 0 4.864-1.633 4.864-3.559 0-6.078-19.902-4.079-19.902-18.015h-.003ZM349.3 119.248c3.816 0 6.659 2.817 6.659 6.674 0 3.486-2.843 6.303-6.659 6.303-3.591 0-6.434-2.817-6.434-6.303 0-3.857 2.843-6.674 6.434-6.674Zm-5.462 17.568h11.299v41.886h-11.299v-41.886ZM399.655 176.852c0 11.418-8.082 17.052-19.377 17.052-10.4 0-14.59-2.89-16.986-5.707l6.362-8.229c2.095 2.889 6.211 4.892 10.624 4.892 5.837 0 8.306-2.148 8.306-8.08v-2.149h-.301c-1.57 1.411-4.491 2.374-8.306 2.374-8.753 0-16.611-4.3-16.611-19.349 0-11.789 6.735-21.352 20.577-21.352 7.407 0 11.97.89 15.712 2.523v38.033-.008Zm-15.789-31.73c-5.91 0-9.278 4.079-9.278 12.083 0 8.6 2.993 10.749 8.005 10.749 2.469 0 4.49-.742 5.91-2.149v-19.941c-1.57-.52-2.844-.742-4.641-.742h.004ZM445.52 178.706h-11.3v-26.615c0-4.301-2.021-6.82-5.836-6.82-3.291 0-5.987 1.927-7.257 4.966v28.469h-11.299V136.82h8.83l2.246 3.929h.3c2.543-3.039 6.96-4.965 11.373-4.965 8.229 0 12.943 4.522 12.943 13.937v28.989-.004Z"/></svg>