<svg xmlns="http://www.w3.org/2000/svg" width="1517" height="98" fill="none"><g fill="#fff" clip-path="url(#a)"><path d="m472.979 75.814 5.331-10.965-2.438-1.148c-5.242-2.469-9.541-5.826-12.5-9.696-2.96-3.876-4.594-8.235-4.598-12.88.002-3.647 1.01-7.11 2.867-10.31 2.785-4.796 7.524-8.99 13.605-11.978 6.077-2.99 13.474-4.762 21.464-4.76 8.544-.002 16.388 2.03 22.668 5.405 6.287 3.375 10.979 8.077 13.373 13.382l5.331-2.04c-2.962-6.548-8.584-12.057-15.791-15.93-7.214-3.872-16.045-6.127-25.581-6.128-11.89.003-22.706 3.494-30.657 9.272-3.972 2.89-7.23 6.363-9.504 10.272-2.273 3.905-3.551 8.257-3.549 12.815-.004 5.814 2.083 11.28 5.65 15.937 3.079 4.025 7.256 7.462 12.19 10.144l-7.308 15.03 5.015-.512c10.295-1.055 20.31-3.306 28.622-5.599l-1.658-5.086c-6.684 1.844-14.487 3.64-22.532 4.775Z"/><path d="M555.402 70.982c2.609-3.403 4.146-7.424 4.142-11.702.002-3.35-.939-6.554-2.605-9.416-2.503-4.296-6.594-7.839-11.627-10.314-5.038-2.476-11.042-3.894-17.474-3.896-8.575.004-16.393 2.518-22.171 6.716-2.887 2.1-5.265 4.631-6.932 7.495-1.666 2.861-2.607 6.065-2.606 9.416-.003 5.128 2.203 9.868 5.81 13.653 3.576 3.755 8.51 6.627 14.213 8.31 5.928 2.112 18.394 6.132 31.475 7.477l5.015.511-5.475-11.255c3.293-1.888 6.12-4.234 8.235-6.995Zm-13.243 3.543-2.438 1.147 3.455 7.103c-10.395-1.625-20.067-4.74-24.934-6.483l-.088-.032-.091-.026c-4.868-1.407-8.96-3.83-11.776-6.796-2.821-2.977-4.379-6.439-4.383-10.158.002-2.44.673-4.754 1.923-6.91 1.874-3.23 5.092-6.091 9.257-8.137 4.162-2.047 9.248-3.27 14.754-3.268 7.34-.003 13.934 2.177 18.586 5.57 2.329 1.694 4.171 3.682 5.421 5.835 1.252 2.156 1.923 4.47 1.925 6.91-.003 3.109-1.092 6.024-3.092 8.645-1.998 2.616-4.925 4.909-8.519 6.6Z"/></g><path fill="#fff" d="M613.419 22.672a50.97 50.97 0 0 0-.256 2.24c-.085.853-.149 1.75-.192 2.688-.042.896-.085 1.75-.128 2.56-.042 1.536-.064 3.2-.064 4.992.043 1.792.064 3.605.064 5.44 0 1.792.043 3.904.128 6.336.128 2.39.278 4.864.448 7.424.171 2.56.299 4.95.384 7.168.128 2.176.192 3.947.192 5.312a13.25 13.25 0 0 1-.64 4.096c-.426 1.323-1.152 2.496-2.176 3.52-1.024 1.067-2.41 1.899-4.16 2.496-1.749.64-3.968.96-6.656.96-3.029 0-5.824-.384-8.384-1.152-2.517-.725-4.522-1.941-6.016-3.648-1.493-1.707-2.24-4.01-2.24-6.912 0-2.219.64-4.224 1.92-6.016 1.28-1.835 3.2-3.285 5.76-4.352 2.603-1.067 5.867-1.6 9.792-1.6 3.328 0 6.55.384 9.664 1.152 3.158.768 6.102 1.77 8.832 3.008 2.774 1.195 5.27 2.56 7.488 4.096 2.262 1.493 4.203 3.008 5.824 4.544l-4.928 7.616c-1.578-1.579-3.392-3.157-5.44-4.736a44.858 44.858 0 0 0-6.592-4.288 37.968 37.968 0 0 0-7.68-3.072 28.873 28.873 0 0 0-8.384-1.216c-2.474 0-4.437.405-5.888 1.216-1.408.768-2.112 1.856-2.112 3.264 0 1.579.726 2.688 2.176 3.328 1.451.64 3.307.96 5.568.96 2.006 0 3.435-.47 4.288-1.408.854-.981 1.28-2.539 1.28-4.672 0-1.11-.042-2.645-.128-4.608-.085-2.005-.17-4.16-.256-6.464-.085-2.347-.17-4.608-.256-6.784a146.059 146.059 0 0 1-.128-5.568V33.232c0-1.152-.021-2.176-.064-3.072a58.118 58.118 0 0 0-.192-3.008 38.702 38.702 0 0 0-.192-2.56c-.042-.768-.149-1.408-.32-1.92h9.664Zm-4.928 12.224h4.032c1.75-.043 3.67-.107 5.76-.192 2.134-.085 4.267-.192 6.4-.32 2.176-.17 4.182-.341 6.016-.512l.256 7.616c-1.792.17-3.776.32-5.952.448s-4.33.235-6.464.32c-2.133.043-4.096.085-5.888.128-1.749.043-3.114.064-4.096.064l-.064-7.552Zm79.424-7.04a51.288 51.288 0 0 0-3.008 2.304 57.563 57.563 0 0 0-2.56 2.112c-1.066.81-2.346 1.813-3.84 3.008-1.45 1.152-2.986 2.368-4.608 3.648a614.361 614.361 0 0 0-4.608 3.648 108.928 108.928 0 0 0-3.84 3.2c-1.109.981-1.856 1.792-2.24 2.432-.384.597-.384 1.195 0 1.792.427.597 1.216 1.408 2.368 2.432.939.81 2.134 1.813 3.584 3.008a207.425 207.425 0 0 1 4.8 3.968c1.75 1.408 3.52 2.88 5.312 4.416a142.94 142.94 0 0 1 5.248 4.48 95.038 95.038 0 0 1 4.544 4.096l-7.488 6.848a180.663 180.663 0 0 0-5.568-5.952c-.981-.981-2.261-2.176-3.84-3.584a147.023 147.023 0 0 0-5.056-4.544 524.659 524.659 0 0 0-5.376-4.672 403.472 403.472 0 0 0-4.864-4.224c-2.133-1.792-3.52-3.435-4.16-4.928-.597-1.493-.512-2.965.256-4.416.811-1.493 2.283-3.115 4.416-4.864 1.28-.981 2.731-2.133 4.352-3.456a671.058 671.058 0 0 1 4.992-4.16 983.915 983.915 0 0 0 4.864-4.16 140.009 140.009 0 0 0 3.904-3.584 177.33 177.33 0 0 0 2.816-2.88c.939-.981 1.643-1.835 2.112-2.56l7.488 6.592Zm48.768-5.376-.512 1.792a90.535 90.535 0 0 1-.384 1.6c-.384 2.005-.746 4.31-1.088 6.912-.341 2.56-.618 5.248-.832 8.064-.213 2.773-.32 5.504-.32 8.192 0 3.328.171 6.4.512 9.216.342 2.773.811 5.355 1.408 7.744a114.61 114.61 0 0 0 2.048 6.72l-7.36 2.24c-.64-1.92-1.258-4.203-1.856-6.848a107.64 107.64 0 0 1-1.408-8.512 74.745 74.745 0 0 1-.576-9.28c0-2.133.064-4.267.192-6.4.171-2.176.342-4.31.512-6.4.171-2.133.363-4.16.576-6.08.256-1.963.47-3.733.64-5.312.043-.597.086-1.237.128-1.92.043-.725.043-1.365 0-1.92l8.32.192Zm-11.392 7.104c4.054 0 7.851-.085 11.392-.256 3.584-.17 7.019-.47 10.304-.896a88.173 88.173 0 0 0 9.92-1.856l.064 7.424c-2.218.384-4.672.747-7.36 1.088-2.645.299-5.418.555-8.32.768-2.858.213-5.674.384-8.448.512-2.773.085-5.376.128-7.808.128-1.109 0-2.368-.021-3.776-.064l-4.096-.128c-1.322-.085-2.474-.15-3.456-.192l-.192-7.424c.726.085 1.771.213 3.136.384 1.366.128 2.816.256 4.352.384 1.579.085 3.008.128 4.288.128Zm27.584 9.344c-.128.384-.32.917-.576 1.6-.256.683-.512 1.387-.768 2.112-.213.725-.384 1.301-.512 1.728-1.237 3.84-2.752 7.36-4.544 10.56-1.749 3.157-3.648 5.93-5.696 8.32-2.048 2.347-4.074 4.267-6.08 5.76-2.09 1.579-4.48 2.965-7.168 4.16-2.688 1.152-5.397 1.728-8.128 1.728-1.536 0-2.965-.32-4.288-.96-1.322-.64-2.389-1.643-3.2-3.008-.768-1.408-1.152-3.179-1.152-5.312 0-2.304.47-4.565 1.408-6.784.939-2.219 2.24-4.33 3.904-6.336a28.897 28.897 0 0 1 5.824-5.312 28.608 28.608 0 0 1 7.168-3.712c2.091-.768 4.374-1.387 6.848-1.856a40.458 40.458 0 0 1 7.424-.704c3.968 0 7.51.725 10.624 2.176 3.158 1.45 5.632 3.435 7.424 5.952 1.792 2.517 2.688 5.461 2.688 8.832a20.9 20.9 0 0 1-1.088 6.656c-.725 2.133-1.92 4.117-3.584 5.952-1.621 1.835-3.776 3.413-6.464 4.736-2.688 1.323-5.994 2.283-9.92 2.88l-4.224-6.72c4.096-.47 7.424-1.387 9.984-2.752 2.56-1.408 4.416-3.093 5.568-5.056 1.195-1.963 1.792-3.99 1.792-6.08 0-1.877-.512-3.563-1.536-5.056-.981-1.493-2.474-2.688-4.48-3.584-1.962-.939-4.394-1.408-7.296-1.408-2.901 0-5.504.32-7.808.96-2.261.64-4.16 1.323-5.696 2.048a22.129 22.129 0 0 0-5.696 3.904c-1.664 1.536-2.965 3.157-3.904 4.864-.938 1.707-1.408 3.285-1.408 4.736 0 1.024.235 1.813.704 2.368.47.512 1.216.768 2.24.768 1.536 0 3.307-.49 5.312-1.472 2.006-1.024 3.99-2.453 5.952-4.288 2.304-2.133 4.48-4.693 6.528-7.68 2.048-2.987 3.734-6.699 5.056-11.136.128-.427.256-.981.384-1.664a33.72 33.72 0 0 0 .32-2.048 24.2 24.2 0 0 0 .256-1.728l7.808 1.856Zm30.144-13.696c.896.128 1.856.213 2.88.256a70.78 70.78 0 0 0 2.944.064h3.072c1.366-.043 2.902-.085 4.608-.128l5.184-.128c1.707-.043 3.243-.085 4.608-.128a705.12 705.12 0 0 1 3.264-.192c1.323-.128 2.368-.235 3.136-.32.768-.128 1.344-.256 1.728-.384l4.16 5.696c-.725.47-1.472.939-2.24 1.408-.768.47-1.514.981-2.24 1.536-.853.597-1.877 1.387-3.072 2.368-1.194.939-2.474 1.941-3.84 3.008a1196.177 1196.177 0 0 1-3.904 3.136 201.739 201.739 0 0 1-3.392 2.752 20.975 20.975 0 0 1 3.072-.512 23.243 23.243 0 0 1 3.008-.192c3.627 0 6.87.704 9.728 2.112 2.902 1.408 5.184 3.328 6.848 5.76 1.707 2.39 2.56 5.141 2.56 8.256 0 3.37-.853 6.421-2.56 9.152-1.706 2.73-4.288 4.907-7.744 6.528-3.413 1.621-7.701 2.432-12.864 2.432-2.944 0-5.61-.427-8-1.28-2.346-.853-4.202-2.07-5.568-3.648-1.365-1.579-2.048-3.435-2.048-5.568 0-1.75.47-3.37 1.408-4.864.982-1.536 2.326-2.773 4.032-3.712 1.75-.939 3.755-1.408 6.016-1.408 2.944 0 5.419.597 7.424 1.792 2.048 1.152 3.606 2.71 4.672 4.672 1.11 1.963 1.686 4.117 1.728 6.464l-7.488 1.024c-.042-2.347-.64-4.224-1.792-5.632-1.109-1.45-2.602-2.176-4.48-2.176-1.194 0-2.154.32-2.88.96-.725.597-1.088 1.301-1.088 2.112 0 1.195.598 2.155 1.792 2.88 1.195.725 2.752 1.088 4.672 1.088 3.627 0 6.656-.427 9.088-1.28 2.432-.896 4.246-2.155 5.44-3.776 1.238-1.664 1.856-3.627 1.856-5.888 0-1.92-.597-3.605-1.792-5.056-1.152-1.45-2.73-2.581-4.736-3.392-2.005-.81-4.266-1.216-6.784-1.216-2.474 0-4.736.32-6.784.96a23.038 23.038 0 0 0-5.824 2.624c-1.792 1.11-3.562 2.475-5.312 4.096a68.266 68.266 0 0 0-5.12 5.312l-5.824-6.016a409.91 409.91 0 0 1 3.904-3.136 289.833 289.833 0 0 0 4.416-3.712 1659.38 1659.38 0 0 0 4.288-3.584 318.329 318.329 0 0 1 3.456-2.88c.896-.725 1.942-1.579 3.136-2.56a374.023 374.023 0 0 1 3.712-3.008c1.28-1.067 2.496-2.07 3.648-3.008a185.624 185.624 0 0 0 2.88-2.496c-.64 0-1.472.021-2.496.064s-2.154.085-3.392.128c-1.194.043-2.41.085-3.648.128a77.351 77.351 0 0 0-3.392.192c-1.024.043-1.877.085-2.56.128-.853.043-1.749.107-2.688.192-.938.085-1.792.192-2.56.32l-.256-8.32Zm62.464 2.88c2.347.299 4.992.512 7.936.64s6.102.192 9.472.192c2.134 0 4.31-.043 6.528-.128 2.219-.085 4.374-.192 6.464-.32 2.091-.17 3.947-.32 5.568-.448v8.512c-1.493.085-3.306.192-5.44.32-2.09.128-4.288.235-6.592.32-2.261.085-4.416.128-6.464.128-3.328 0-6.421-.064-9.28-.192-2.858-.17-5.589-.341-8.192-.512v-8.512Zm5.376 27.136a52.05 52.05 0 0 0-.768 3.264 16.305 16.305 0 0 0-.32 3.2c0 2.09 1.024 3.797 3.072 5.12 2.091 1.28 5.44 1.92 10.048 1.92 2.902 0 5.696-.107 8.384-.32 2.731-.213 5.291-.49 7.68-.832 2.39-.384 4.523-.832 6.4-1.344l.064 8.96c-1.834.427-3.925.81-6.272 1.152-2.304.341-4.8.597-7.488.768-2.645.213-5.461.32-8.448.32-4.906 0-8.981-.555-12.224-1.664-3.242-1.067-5.696-2.603-7.36-4.608-1.621-2.048-2.432-4.544-2.432-7.488 0-1.835.15-3.52.448-5.056.299-1.579.555-2.965.768-4.16l8.448.768Zm32.256-33.728a28.462 28.462 0 0 1 1.728 2.752 122.64 122.64 0 0 1 1.856 3.2c.598 1.067 1.11 2.005 1.536 2.816l-5.184 2.24a99.326 99.326 0 0 0-2.368-4.544c-.896-1.707-1.77-3.179-2.624-4.416l5.056-2.048Zm7.616-2.88c.555.81 1.152 1.75 1.792 2.816a122.64 122.64 0 0 1 1.856 3.2 33.317 33.317 0 0 1 1.536 2.688l-5.12 2.176a136.894 136.894 0 0 0-2.432-4.48c-.938-1.707-1.856-3.157-2.752-4.352l5.12-2.048Zm32.064 1.024 4.672 4.544a70.423 70.423 0 0 1-6.016 1.408 83.186 83.186 0 0 1-6.656 1.024c-2.261.256-4.437.448-6.528.576-.128-.64-.362-1.408-.704-2.304-.298-.939-.64-1.707-1.024-2.304 1.963-.213 3.926-.448 5.888-.704a91.61 91.61 0 0 0 5.696-1.024c1.835-.384 3.392-.79 4.672-1.216Zm27.712.064 4.672 4.48c-1.92.597-4.053 1.11-6.4 1.536-2.346.384-4.757.704-7.232.96-2.432.256-4.778.47-7.04.64-.128-.683-.362-1.472-.704-2.368a29.486 29.486 0 0 0-.96-2.368c2.091-.17 4.224-.405 6.4-.704a110.86 110.86 0 0 0 6.208-1.024c2.006-.384 3.691-.768 5.056-1.152Zm-46.08 1.344 8.256 2.048c-.042.512-.554.853-1.536 1.024v3.136c0 1.664-.192 3.584-.576 5.76-.384 2.133-1.088 4.288-2.112 6.464-.981 2.133-2.453 4.117-4.416 5.952-.341-.512-.81-1.067-1.408-1.664A24.334 24.334 0 0 0 900.779 42c-.64-.597-1.237-1.045-1.792-1.344 1.622-1.408 2.795-2.901 3.52-4.48.768-1.579 1.28-3.157 1.536-4.736.256-1.621.384-3.136.384-4.544v-5.824Zm26.56.064 8.192 1.856c-.042.597-.554.96-1.536 1.088v3.264c0 1.493-.213 3.2-.64 5.12-.426 1.877-1.237 3.755-2.432 5.632-1.194 1.835-2.922 3.477-5.184 4.928-.256-.512-.661-1.088-1.216-1.728a24.772 24.772 0 0 0-1.728-1.92c-.597-.64-1.173-1.11-1.728-1.408 1.792-1.11 3.115-2.283 3.968-3.52.896-1.237 1.494-2.496 1.792-3.776.342-1.28.512-2.517.512-3.712v-5.824ZM907.435 29.2h21.312v5.568h-21.312V29.2Zm26.368 0h23.936v5.568h-23.936V29.2Zm-17.92 1.856h6.784v10.368h-6.784V31.056Zm26.88 0h6.848v10.432h-6.848V31.056Zm-27.52 23.296v2.816h27.904v-2.816h-27.904Zm0 7.168v2.816h27.904V61.52h-27.904Zm0-14.272V50h27.904v-2.752h-27.904Zm-7.424-4.608h43.072v26.24h-43.072V42.64Zm24.704 29.632 6.4-3.648c2.304.81 4.63 1.685 6.976 2.624A131.15 131.15 0 0 1 952.683 74c2.176.896 4.011 1.707 5.504 2.432l-8.96 3.456c-1.194-.683-2.688-1.472-4.48-2.368a155.008 155.008 0 0 0-5.824-2.752 86.743 86.743 0 0 0-6.4-2.496Zm-14.144-3.904 6.976 3.2c-1.706 1.11-3.712 2.197-6.016 3.264a79.714 79.714 0 0 1-7.104 2.88 85.683 85.683 0 0 1-6.912 2.24 188.54 188.54 0 0 0-1.728-1.856 89.878 89.878 0 0 0-2.048-2.112 26.019 26.019 0 0 0-1.92-1.664c2.262-.427 4.544-.939 6.848-1.536a63.103 63.103 0 0 0 6.592-2.048c2.091-.768 3.862-1.557 5.312-2.368Zm65.216-17.92h21.635v20.224h-21.635V64.4h14.4v-7.616h-14.4v-6.336Zm-3.328 0h7.104V74.32h-7.104V50.448Zm-10.432-19.072h16v5.184h-16v-5.184Zm29.696 0h16.129v5.184h-16.129v-5.184Zm12.929-9.28h7.81v48.448c0 2.133-.26 3.797-.77 4.992-.51 1.195-1.43 2.112-2.75 2.752-1.37.64-3.07 1.045-5.12 1.216-2.05.17-4.57.256-7.55.256-.05-.768-.22-1.621-.52-2.56-.3-.939-.62-1.899-.96-2.88-.34-.939-.72-1.75-1.15-2.432 1.28.085 2.56.15 3.84.192h3.39c1.03-.043 1.75-.064 2.18-.064.6 0 1-.107 1.22-.32.25-.256.38-.683.38-1.28v-48.32Zm-42.049 0h20.288v23.936h-20.288v-5.824h13.056V27.92h-13.056v-5.824Zm46.209 0v5.824h-14.34v12.416h14.34v5.76h-21.633v-24h21.633Zm-50.561 0h7.616V79.76h-7.616V22.096Z"/><defs><clipPath id="a"><path fill="#fff" d="M453 0h106.544v98H453z"/></clipPath></defs></svg>