<svg xmlns="http://www.w3.org/2000/svg" id="_レイヤー_2" data-name="レイヤー 2" viewBox="0 0 1753.53 973.64"><defs><style>.cls-1{fill:#fff}</style></defs><g id="_レイヤー_1-2" data-name="レイヤー 1" style="opacity:.22"><path d="M338.67 856.46c-52.32 10.74-100.9 7.78-145.76-8.88-44.87-16.66-83.27-45.91-115.22-87.74S23.14 664.79 9.88 600.2c-13.15-64.05-13.17-121.06-.07-171.04 13.11-49.96 37.07-91.05 71.91-123.23 34.83-32.18 78.4-53.64 130.72-64.38 52.84-10.85 101.5-8.18 145.99 8 44.48 16.19 82.57 44.52 114.24 85.02 31.68 40.51 54.09 92.78 67.24 156.84 13.26 64.59 13.44 122.4.56 173.44-12.89 51.04-36.54 93.03-70.94 125.95-34.41 32.93-78.03 54.82-130.87 65.66Zm-19.89-96.88c29.35-6.02 53.09-19.79 71.2-41.32 18.11-21.51 29.75-49.5 34.92-83.93 5.16-34.44 3.21-73.8-5.89-118.11-8.65-42.16-21.96-77.12-39.88-104.88-17.94-27.74-39.38-47.54-64.34-59.39-24.96-11.84-52.13-14.75-81.48-8.72-29.36 6.03-53.17 19.4-71.45 40.12-18.27 20.73-30.06 47.34-35.34 79.85-5.29 32.52-3.6 69.86 5.06 112.02 9.1 44.31 22.66 81.29 40.72 110.96 18.05 29.67 39.64 50.83 64.76 63.47 25.13 12.65 52.36 15.95 81.72 9.93Zm242.78 207.16c-42.17 8.66-81.28 9.17-117.33 1.56-36.06-7.62-68.11-21.48-96.15-41.59-28.05-20.11-51.71-44.6-70.98-73.46l117.64-36.66c11.95 17.57 26.52 30.98 43.72 40.25 17.19 9.26 35.98 14.73 56.35 16.39 20.37 1.66 40.42.46 60.17-3.59 12.81-2.63 24.46-6.14 34.97-10.52 10.49-4.38 19.75-8.79 27.74-13.21l39.53 82.84c-9.7 7-22.72 13.97-39.09 20.96-16.38 6.97-35.24 12.66-56.58 17.04ZM864.7 748.48c-41.11 8.44-77.79 7.9-110.05-1.61-32.28-9.5-58.48-25.4-78.63-47.69-20.15-22.28-33.35-48.64-39.59-79.07-6.57-32.03-5.49-60.62 3.25-85.78 8.73-25.16 21.83-48.14 39.24-68.97 17.42-20.81 36.5-40.31 57.25-58.48 20.74-18.16 40.34-35.82 58.8-52.96 18.45-17.14 32.71-34.38 42.78-51.75 10.06-17.36 13.07-35.92 9.02-55.67-1.97-9.61-5.38-18.09-10.23-25.44-4.85-7.35-10.91-12.49-18.19-15.46-7.28-2.95-16-3.39-26.14-1.31-17.61 3.62-30.68 13.12-39.21 28.49-8.52 15.39-10.59 33.75-6.21 55.09 5.04 24.56 17.64 49.36 37.81 74.43 20.16 25.07 44.86 49.2 74.1 72.4 29.23 23.2 60.97 44.37 95.22 63.48 34.24 19.13 68.27 35.22 102.12 48.3 27.72 10.45 54.14 18.51 79.23 24.2 25.08 5.7 47.63 8.45 67.61 8.23l-8.3 101.83c-29.61-.6-60.89-4.61-93.84-12.03-32.96-7.42-66.46-18.2-100.51-32.35-40.92-17.74-80.75-39.04-119.51-63.92-38.77-24.86-74.48-51.88-107.17-81.05-32.69-29.17-59.91-59.46-81.65-90.88-21.75-31.41-35.69-62.06-41.82-91.96-5.7-27.75-4.47-54.28 3.69-79.61 8.15-25.31 22.31-47.13 42.47-65.46 20.15-18.32 45.98-30.71 77.48-37.18 42.16-8.65 78.1-3.65 107.8 15 29.7 18.66 48.55 47.48 56.54 86.44 5.26 25.62 3.83 49.84-4.28 72.64-8.12 22.81-20.22 44.49-36.3 65.03a710.77 710.77 0 0 1-51.72 59.01c-18.4 18.8-35.88 37.27-52.46 55.41-16.59 18.15-29.42 36.22-38.52 54.22-9.11 18.01-11.68 36.61-7.73 55.82 3.4 16.55 10.54 30.38 21.45 41.49 10.9 11.11 24.27 18.67 40.11 22.64 15.84 3.98 33.09 4.05 51.78.22 21.88-4.49 42.35-14.53 61.4-30.13 19.04-15.59 36.47-35.02 52.28-58.29 19.09-28.95 34.34-61 45.76-96.17 11.41-35.16 18.19-73.26 20.34-114.32l108.09-22.19c-4.15 47.58-12.86 93.88-26.15 138.87-13.29 45.01-32.07 88.35-56.33 130.05-20.45 35.91-47.33 66.87-80.64 92.9-33.33 26.03-73.47 43.87-120.44 53.51ZM1233.9 661.01l67.97-632.25L1441.99 0l311.54 554.34-124.9 25.64-147.51-291.8c-15.44-29.09-30.71-59.47-45.83-91.14-15.13-31.65-30.45-62.3-45.99-91.94l-3.2.66c-.91 33.56-2.35 67.8-4.37 102.69-2.01 34.91-4.12 68.72-6.3 101.42L1354 636.35 1233.9 661Zm86.47-176.29-18.9-92.08 281.83-57.85 18.9 92.08-281.84 57.85Z" class="cls-1"/></g></svg>