<svg xmlns="http://www.w3.org/2000/svg" width="606" height="211" fill="none"><g filter="url(#a)"><rect width="590" height="195" x="8" y="4" fill="#2D68A4" rx="93"/><rect width="585" height="190" x="10.5" y="6.5" stroke="#fff" stroke-width="5" rx="90.5"/></g><path fill="#fff" d="M175.584 91.352c-.235.405-.501.939-.8 1.6a71.359 71.359 0 0 0-.704 1.6 63.657 63.657 0 0 1-1.472 3.456 49.685 49.685 0 0 1-1.952 3.808 32.2 32.2 0 0 1-2.432 3.68 46.92 46.92 0 0 1-3.264 3.872c-1.216 1.301-2.624 2.592-4.224 3.872-1.579 1.28-3.424 2.517-5.536 3.712l-4.352-3.936c2.88-1.387 5.365-2.955 7.456-4.704a36.381 36.381 0 0 0 5.696-6.016c1.259-1.643 2.261-3.264 3.008-4.864.747-1.6 1.397-3.21 1.952-4.832.171-.47.331-1.013.48-1.632.149-.64.267-1.184.352-1.632l5.792 2.016Zm-17.984 2.72c.811.49 1.664 1.035 2.56 1.632a103.75 103.75 0 0 1 2.752 1.856 72.777 72.777 0 0 1 2.688 1.856 57.196 57.196 0 0 1 2.368 1.76 81.367 81.367 0 0 1 5.152 4.256 67.78 67.78 0 0 1 4.48 4.32l-4 4.48a57.396 57.396 0 0 0-4.384-4.64 88.981 88.981 0 0 0-4.8-4.256 48.034 48.034 0 0 0-1.952-1.568 68.375 68.375 0 0 0-2.368-1.792 66.626 66.626 0 0 0-2.752-1.952 64.175 64.175 0 0 0-3.072-1.984l3.328-3.968Zm25.152 5.568c.427.021.971.053 1.632.096.683.043 1.376.075 2.08.096a61.49 61.49 0 0 0 1.824.032h16.992c.725 0 1.44-.032 2.144-.096a43.67 43.67 0 0 1 1.792-.128v6.112l-1.792-.096a25.93 25.93 0 0 0-2.144-.096h-16.992c-.917 0-1.909.021-2.976.064a112.77 112.77 0 0 0-2.56.128V99.64Zm44.96 14.624c.085-.341.149-.747.192-1.216.064-.469.096-.949.096-1.44V93.24c0-.79-.053-1.483-.16-2.08l-.128-.896h5.76l-.128.928c-.085.597-.128 1.29-.128 2.08V109.016a12.693 12.693 0 0 0 2.464-1.408 19.658 19.658 0 0 0 2.432-2.08 19.918 19.918 0 0 0 2.208-2.624l2.976 4.288c-.853 1.088-1.909 2.187-3.168 3.296a40.818 40.818 0 0 1-3.872 3.072 34.71 34.71 0 0 1-3.776 2.304 9.182 9.182 0 0 0-.928.576c-.235.192-.437.352-.608.48l-3.232-2.656Zm-14.912-.64c1.451-1.003 2.603-2.197 3.456-3.584.875-1.387 1.515-2.709 1.92-3.968.235-.661.405-1.493.512-2.496a45.56 45.56 0 0 0 .288-3.232c.064-1.173.096-2.347.096-3.52.021-1.173.032-2.261.032-3.264 0-.747-.032-1.376-.096-1.888a11.85 11.85 0 0 0-.256-1.408h5.696l-.064.512c-.043.32-.085.725-.128 1.216-.043.49-.064.992-.064 1.504 0 .981-.011 2.101-.032 3.36a118.407 118.407 0 0 1-.128 3.84 62.663 62.663 0 0 1-.288 3.712c-.107 1.152-.267 2.133-.48 2.944a18.822 18.822 0 0 1-2.208 5.152 19.177 19.177 0 0 1-3.52 4.256l-4.736-3.136Zm33.248-21.056 1.888-.064 1.408-.096c.747-.064 1.6-.139 2.56-.224.981-.085 2.048-.17 3.2-.256 1.173-.107 2.421-.213 3.744-.32 1.323-.107 2.72-.224 4.192-.352 1.067-.085 2.165-.16 3.296-.224 1.152-.085 2.251-.16 3.296-.224a82.924 82.924 0 0 1 2.72-.128l.032 4.992a79.716 79.716 0 0 0-4.16.128c-.725.043-1.387.128-1.984.256a7.213 7.213 0 0 0-2.464 1.088 9.322 9.322 0 0 0-2.048 1.952 8.985 8.985 0 0 0-1.408 2.496 7.763 7.763 0 0 0-.512 2.784c0 .939.16 1.771.48 2.496a5.838 5.838 0 0 0 1.408 1.888 9.094 9.094 0 0 0 2.176 1.312c.832.341 1.739.608 2.72.8 1.003.192 2.059.32 3.168.384l-1.824 5.376a20.171 20.171 0 0 1-4.128-.736 16.47 16.47 0 0 1-3.616-1.472 12.849 12.849 0 0 1-2.912-2.272 10.612 10.612 0 0 1-1.92-3.008c-.448-1.131-.672-2.379-.672-3.744 0-1.472.213-2.816.64-4.032.448-1.216.981-2.272 1.6-3.168.64-.917 1.248-1.632 1.824-2.144l-1.952.224c-.747.085-1.557.181-2.432.288-.875.107-1.771.224-2.688.352-.896.128-1.792.277-2.688.448-.875.15-1.696.31-2.464.48l-.48-5.28Zm21.792 5.792c.277.384.565.843.864 1.376.32.512.619 1.024.896 1.536.299.512.544.971.736 1.376l-2.848 1.248a34.817 34.817 0 0 0-1.152-2.336 19.42 19.42 0 0 0-1.28-2.048l2.784-1.152Zm3.616-1.536c.277.384.576.832.896 1.344.341.49.661.992.96 1.504.32.491.587.928.8 1.312l-2.816 1.344a36.3 36.3 0 0 0-1.248-2.272 27.662 27.662 0 0 0-1.344-1.984l2.752-1.248ZM287.552 103h10.72v10.496h-10.72v-3.776h6.368v-2.944h-6.368V103Zm-1.984 0h4.288v12.256h-4.288V103Zm-4.928-9.568h7.52v3.072h-7.52v-3.072Zm14.912 0h7.52v3.072h-7.52v-3.072Zm5.632-4.64h4.704v23.872c0 1.237-.139 2.197-.416 2.88-.277.704-.789 1.248-1.536 1.632-.747.384-1.664.619-2.752.704-1.067.107-2.357.16-3.872.16a8.247 8.247 0 0 0-.32-1.536 27.762 27.762 0 0 0-.576-1.728 9.561 9.561 0 0 0-.672-1.472c.576.043 1.173.075 1.792.096h2.816c.299 0 .512-.064.64-.192s.192-.331.192-.608V88.792Zm-20.16 0h10.048v12.384h-10.048v-3.488h5.696V92.28h-5.696v-3.488Zm22.688 0v3.456h-6.464v5.504h6.464v3.456h-10.88V88.792h10.88Zm-25.376 0h4.608v29.248h-4.608V88.792Zm38.624 3.04c-.085.448-.16.95-.224 1.504a51.754 51.754 0 0 0-.16 1.6c-.043.512-.064.928-.064 1.248v2.112l.064 2.112c.021.683.064 1.387.128 2.112.128 1.387.299 2.624.512 3.712.213 1.067.501 1.909.864 2.528.384.597.885.896 1.504.896.363 0 .704-.213 1.024-.64.32-.427.608-.971.864-1.632.277-.661.512-1.344.704-2.048.192-.704.352-1.323.48-1.856l3.904 4.8c-.747 1.877-1.483 3.381-2.208 4.512-.725 1.109-1.483 1.909-2.272 2.4a4.81 4.81 0 0 1-2.592.736c-1.259 0-2.432-.384-3.52-1.152-1.067-.789-1.984-2.059-2.752-3.808-.747-1.771-1.269-4.107-1.568-7.008a70.124 70.124 0 0 1-.256-3.168 171.878 171.878 0 0 1-.096-3.104v-2.464c0-.49-.021-1.045-.064-1.664a14.673 14.673 0 0 0-.224-1.792l5.952.064Zm15.648.608c.619.725 1.216 1.632 1.792 2.72a29.62 29.62 0 0 1 1.568 3.52 40.537 40.537 0 0 1 1.28 3.84 38.18 38.18 0 0 1 .864 3.712c.235 1.195.384 2.251.448 3.168l-5.152 1.984a48.16 48.16 0 0 0-.576-4.16 41.242 41.242 0 0 0-1.088-4.768 29.537 29.537 0 0 0-1.696-4.672c-.661-1.472-1.461-2.72-2.4-3.744l4.96-1.6Zm15.456 5.472h16v4.064h-16v-4.064Zm-.288 15.008h16.16v4.064h-16.16v-4.064Zm-2.048-8.224h20.864v13.408h-4.8v-9.344h-11.488v9.344h-4.576v-13.408Zm10.144-12.48c-.875 1.216-1.963 2.453-3.264 3.712a40.683 40.683 0 0 1-4.32 3.616 41.066 41.066 0 0 1-4.96 3.104 10.669 10.669 0 0 0-.8-1.248c-.32-.469-.672-.928-1.056-1.376a11.566 11.566 0 0 0-1.056-1.152 30.286 30.286 0 0 0 5.248-3.2 33.771 33.771 0 0 0 4.448-4c1.323-1.408 2.368-2.741 3.136-4h4.864a34.842 34.842 0 0 0 2.848 3.52 36.798 36.798 0 0 0 3.296 3.04 32.813 32.813 0 0 0 3.616 2.464 29.27 29.27 0 0 0 3.808 1.792 15.62 15.62 0 0 0-1.632 2.016 31.384 31.384 0 0 0-1.408 2.176 44.642 44.642 0 0 1-3.68-2.176 49.423 49.423 0 0 1-3.552-2.624 45.764 45.764 0 0 1-3.136-2.848 24.805 24.805 0 0 1-2.4-2.816Zm32.192 19.392c1.429-.235 2.709-.544 3.84-.928 1.152-.405 2.133-.907 2.944-1.504a6.23 6.23 0 0 0 1.856-2.24c.427-.875.64-1.899.64-3.072 0-.64-.117-1.216-.352-1.728a3.995 3.995 0 0 0-.992-1.376 4.21 4.21 0 0 0-1.504-.864 5.044 5.044 0 0 0-1.824-.32 10.36 10.36 0 0 0-5.6 1.6c-1.685 1.067-3.317 2.443-4.896 4.128l.032-5.472c1.899-1.792 3.819-3.04 5.76-3.744 1.963-.704 3.808-1.056 5.536-1.056 1.728 0 3.275.384 4.64 1.152a8.302 8.302 0 0 1 3.232 3.136c.789 1.344 1.184 2.891 1.184 4.64 0 1.621-.245 3.104-.736 4.448a9.53 9.53 0 0 1-2.208 3.52c-.981 1.024-2.24 1.899-3.776 2.624-1.536.725-3.36 1.301-5.472 1.728l-2.304-4.672Zm-7.296-13.056c-.405.043-.875.096-1.408.16a76.53 76.53 0 0 0-1.696.224c-.576.064-1.152.139-1.728.224-.576.064-1.109.128-1.6.192l-.48-4.928c.512.021 1.003.032 1.472.032.469-.021 1.035-.043 1.696-.064a48.505 48.505 0 0 0 1.92-.192 80.106 80.106 0 0 0 2.24-.288 66.956 66.956 0 0 0 2.112-.384c.661-.128 1.163-.256 1.504-.384l1.472 1.952a40.95 40.95 0 0 0-.672.96c-.256.384-.523.779-.8 1.184-.256.405-.48.747-.672 1.024l-2.368 6.944a67.78 67.78 0 0 0-1.248 1.792c-.491.725-1.003 1.493-1.536 2.304-.533.789-1.056 1.557-1.568 2.304a48.116 48.116 0 0 1-1.312 1.856l-3.008-4.256c.405-.512.864-1.088 1.376-1.728a140.123 140.123 0 0 0 3.232-4.224 71.457 71.457 0 0 0 1.536-2.08c.491-.683.917-1.29 1.28-1.824l.032-.384.224-.416Zm-.416-6.656V90.36c0-.533-.053-1.067-.16-1.6l5.6.16a34.434 34.434 0 0 0-.416 2.24 92.07 92.07 0 0 0-.448 3.136c-.149 1.173-.288 2.4-.416 3.68-.128 1.28-.235 2.56-.32 3.84a73.198 73.198 0 0 0-.096 3.648v2.656c.021.939.043 1.92.064 2.944.043 1.003.096 2.016.16 3.04l.096 1.28c.064.576.117 1.067.16 1.472h-5.312c.043-.427.064-.917.064-1.472.021-.533.032-.928.032-1.184.021-1.045.043-2.037.064-2.976.021-.96.043-1.984.064-3.072.021-1.088.053-2.347.096-3.776.021-.491.053-1.099.096-1.824.043-.725.085-1.515.128-2.368L380 97.56c.064-.875.117-1.696.16-2.464.064-.79.107-1.461.128-2.016a19 19 0 0 0 .064-1.184Zm48.608-2.24c-.021.15-.053.405-.096.768-.021.363-.043.747-.064 1.152-.021.405-.043.768-.064 1.088-.021.747-.043 1.44-.064 2.08 0 .619-.011 1.205-.032 1.76 0 .555-.011 1.11-.032 1.664a160.684 160.684 0 0 1-.096 3.104 97.149 97.149 0 0 1-.16 2.912c-.064.875-.149 1.579-.256 2.112-.192.917-.523 1.525-.992 1.824-.448.299-1.109.448-1.984.448-.363 0-.875-.021-1.536-.064a63.683 63.683 0 0 1-1.984-.224 81.187 81.187 0 0 1-1.632-.224l.096-4.256c.469.085.981.171 1.536.256.576.085 1.003.128 1.28.128.277 0 .48-.043.608-.128.149-.085.235-.267.256-.544.064-.405.107-.885.128-1.44.021-.576.043-1.205.064-1.888l.064-2.08v-5.216c0-.299-.021-.65-.064-1.056a22.152 22.152 0 0 0-.096-1.248 6.815 6.815 0 0 0-.096-.928h5.216Zm-12.576.928a29.995 29.995 0 0 0-.192 1.76 51.751 51.751 0 0 0-.032 1.984c0 .512-.011 1.227-.032 2.144 0 .896-.011 1.888-.032 2.976 0 1.088-.011 2.187-.032 3.296v3.072c0 .917.011 1.664.032 2.24.021.747.075 1.344.16 1.792.107.448.32.789.64 1.024s.8.395 1.44.48c.64.064 1.504.096 2.592.096.981 0 2.048-.032 3.2-.096a80.827 80.827 0 0 0 3.424-.32 72.62 72.62 0 0 0 2.976-.448l-.192 5.312c-.704.085-1.579.16-2.624.224a75.837 75.837 0 0 1-3.264.192 54.597 54.597 0 0 1-3.136.096c-2.197 0-3.957-.128-5.28-.384-1.323-.235-2.325-.64-3.008-1.216-.683-.576-1.141-1.344-1.376-2.304-.235-.981-.373-2.197-.416-3.648 0-.469-.011-1.088-.032-1.856V94.616c0-.768-.032-1.483-.096-2.144a24.87 24.87 0 0 0-.192-1.888h5.472Zm-11.328 6.976c.427 0 1.024-.021 1.792-.064a71.573 71.573 0 0 0 2.592-.192c.619-.064 1.547-.15 2.784-.256a192.97 192.97 0 0 1 4.224-.384 704.05 704.05 0 0 1 4.928-.448c1.707-.17 3.339-.32 4.896-.448 1.579-.128 2.965-.235 4.16-.32.448-.043.992-.085 1.632-.128.64-.043 1.227-.085 1.76-.128v4.704c-.192-.021-.512-.021-.96 0-.427 0-.875.01-1.344.032-.448 0-.821.01-1.12.032-.811.021-1.803.075-2.976.16s-2.432.192-3.776.32c-1.344.107-2.709.235-4.096.384-1.387.128-2.72.267-4 .416a590.505 590.505 0 0 0-5.792.608c-.341.043-.789.107-1.344.192s-1.099.171-1.632.256c-.533.064-.939.117-1.216.16l-.512-4.896Zm37.664-7.392c.491.064 1.024.117 1.6.16.576.021 1.131.032 1.664.032h1.504a69.077 69.077 0 0 1 2.208-.032l2.464-.064a341.63 341.63 0 0 0 2.24-.064c.683-.043 1.216-.075 1.6-.096a32.912 32.912 0 0 0 1.824-.192c.469-.064.811-.128 1.024-.192l2.4 3.424c-.405.256-.821.512-1.248.768-.405.235-.811.501-1.216.8-.448.299-.949.661-1.504 1.088-.555.405-1.12.843-1.696 1.312-.576.448-1.141.885-1.696 1.312a78.16 78.16 0 0 1-1.472 1.152 8.723 8.723 0 0 1 1.152-.16c.341-.021.704-.032 1.088-.032 1.835 0 3.488.363 4.96 1.088 1.493.725 2.677 1.717 3.552 2.976.875 1.237 1.312 2.667 1.312 4.288a9.064 9.064 0 0 1-1.248 4.64c-.832 1.429-2.123 2.571-3.872 3.424-1.749.875-4.011 1.312-6.784 1.312-1.493 0-2.869-.224-4.128-.672-1.259-.448-2.261-1.088-3.008-1.92-.747-.853-1.12-1.867-1.12-3.04 0-.939.256-1.824.768-2.656.533-.832 1.269-1.504 2.208-2.016.939-.512 2.016-.768 3.232-.768 1.493 0 2.763.299 3.808.896 1.045.576 1.845 1.365 2.4 2.368.576 1.003.864 2.112.864 3.328l-4.544.544c0-1.045-.235-1.877-.704-2.496-.448-.64-1.045-.96-1.792-.96-.533 0-.949.139-1.248.416-.277.256-.416.544-.416.864 0 .491.245.896.736 1.216.491.32 1.141.48 1.952.48 1.792 0 3.264-.203 4.416-.608 1.152-.405 1.995-.981 2.528-1.728.555-.768.832-1.664.832-2.688 0-.917-.288-1.707-.864-2.368-.555-.683-1.312-1.205-2.272-1.568-.96-.363-2.027-.544-3.2-.544a10.37 10.37 0 0 0-3.296.512c-1.003.32-1.952.779-2.848 1.376a16.518 16.518 0 0 0-2.592 2.08c-.811.789-1.6 1.653-2.368 2.592l-3.52-3.648c.512-.405 1.109-.885 1.792-1.44a419.87 419.87 0 0 0 2.112-1.728c.725-.619 1.419-1.205 2.08-1.76.661-.555 1.227-1.024 1.696-1.408l1.504-1.216a97.612 97.612 0 0 0 1.728-1.376c.597-.49 1.163-.95 1.696-1.376a66.99 66.99 0 0 0 1.376-1.184c-.32 0-.704.01-1.152.032-.427.021-.885.043-1.376.064-.491 0-.992.01-1.504.032-.491.021-.96.053-1.408.096-.448.021-.843.043-1.184.064-.469.021-.971.064-1.504.128-.533.043-.992.096-1.376.16l-.16-5.024Z"/><g clip-path="url(#b)"><path fill="#fff" d="M529.5 81.717c10.909 0 19.783 8.874 19.783 19.783s-8.874 19.783-19.783 19.783-19.783-8.874-19.783-19.783c0-10.91 8.874-19.783 19.783-19.783Zm0-3.717c-12.978 0-23.5 10.522-23.5 23.5s10.522 23.5 23.5 23.5 23.5-10.522 23.5-23.5S542.478 78 529.5 78Z"/><path stroke="#fff" stroke-linecap="round" stroke-linejoin="round" stroke-width="5" d="m526.375 111.235 9.252-9.249v-.369l-9.252-9.252"/></g><path fill="#fff" d="M50 90.9C50 84.328 55.328 79 61.9 79h33.576c6.573 0 11.9 5.328 11.9 11.9v21.727c0 6.572-5.327 11.9-11.9 11.9H61.9c-6.572 0-11.9-5.328-11.9-11.9V90.9Z"/><path fill="#4B4B4B" d="M107.858 85.203a7.728 7.728 0 0 0-2.091-3.947A7.603 7.603 0 0 0 100.382 79H57.617a7.525 7.525 0 0 0-5.385 2.257 7.64 7.64 0 0 0-2.084 3.95A7.518 7.518 0 0 0 50 86.7v30.358c0 1.056.212 2.084.633 3.062a7.605 7.605 0 0 0 1.599 2.38c.172.173.342.332.524.488a7.588 7.588 0 0 0 4.861 1.769h42.765a7.533 7.533 0 0 0 4.868-1.782 7.665 7.665 0 0 0 2.078-2.748l.049-.12a7.664 7.664 0 0 0 .623-3.049V86.7c0-.501-.048-1.006-.142-1.497Zm-53.913-1.29a3.61 3.61 0 0 1 .42-.5 4.548 4.548 0 0 1 3.252-1.365h42.765a4.512 4.512 0 0 1 3.668 1.855l.327.444-22.826 20.108a3.841 3.841 0 0 1-2.551.967 3.87 3.87 0 0 1-2.55-.966L53.647 84.353l.298-.44Zm-.914 33.413a1.871 1.871 0 0 1-.015-.268v-29.73l17.713 15.619L53.194 118.4l-.163-1.074Zm49.633 3.77a4.53 4.53 0 0 1-2.282.612H57.617a4.528 4.528 0 0 1-2.281-.612l-.717-.42 18.118-15.959 1.985 1.746A6.488 6.488 0 0 0 79 108.084a6.495 6.495 0 0 0 4.285-1.621l1.985-1.747 18.111 15.961-.717.419Zm2.32-4.038c0 .092-.002.183-.014.264l-.157 1.084-17.542-15.45 17.713-15.62v29.722Z"/><defs><clipPath id="b"><path fill="#fff" d="M506 78h47v47h-47z"/></clipPath><filter id="a" width="606" height="211" x="0" y="0" color-interpolation-filters="sRGB" filterUnits="userSpaceOnUse"><feFlood flood-opacity="0" result="BackgroundImageFix"/><feColorMatrix in="SourceAlpha" result="hardAlpha" values="0 0 0 0 0 0 0 0 0 0 0 0 0 0 0 0 0 0 127 0"/><feOffset dy="4"/><feGaussianBlur stdDeviation="4"/><feComposite in2="hardAlpha" operator="out"/><feColorMatrix values="0 0 0 0 0 0 0 0 0 0 0 0 0 0 0 0 0 0 0.15 0"/><feBlend in2="BackgroundImageFix" result="effect1_dropShadow_605_149"/><feColorMatrix in="SourceAlpha" result="hardAlpha" values="0 0 0 0 0 0 0 0 0 0 0 0 0 0 0 0 0 0 127 0"/><feOffset dy="4"/><feGaussianBlur stdDeviation="4"/><feComposite in2="hardAlpha" operator="out"/><feColorMatrix values="0 0 0 0 0 0 0 0 0 0 0 0 0 0 0 0 0 0 0.15 0"/><feBlend in2="effect1_dropShadow_605_149" result="effect2_dropShadow_605_149"/><feBlend in="SourceGraphic" in2="effect2_dropShadow_605_149" result="shape"/></filter></defs></svg>