<svg xmlns="http://www.w3.org/2000/svg" width="606" height="211" fill="none"><g filter="url(#a)"><rect width="590" height="195" x="8" y="4" fill="#fff" rx="93"/><rect width="585" height="190" x="10.5" y="6.5" stroke="#FD8B27" stroke-width="5" rx="90.5"/></g><path fill="#201E1C" d="M145.16 97.672c-2.4 0-4.512-.688-6.336-2.064-1.792-1.408-3.2-3.488-4.224-6.24-.992-2.784-1.488-6.224-1.488-10.32 0-4.064.496-7.44 1.488-10.128 1.024-2.72 2.432-4.752 4.224-6.096 1.824-1.344 3.936-2.016 6.336-2.016 2.432 0 4.544.688 6.336 2.064 1.792 1.344 3.184 3.36 4.176 6.048 1.024 2.688 1.536 6.064 1.536 10.128 0 4.096-.512 7.536-1.536 10.32-.992 2.752-2.384 4.832-4.176 6.24-1.792 1.376-3.904 2.064-6.336 2.064Zm0-5.52c1.056 0 1.984-.4 2.784-1.2.8-.8 1.424-2.144 1.872-4.032.448-1.92.672-4.544.672-7.872 0-3.296-.224-5.872-.672-7.728-.448-1.888-1.072-3.2-1.872-3.936-.8-.768-1.728-1.152-2.784-1.152-.992 0-1.904.384-2.736 1.152-.8.736-1.44 2.048-1.92 3.936-.48 1.856-.72 4.432-.72 7.728 0 3.328.24 5.952.72 7.872.48 1.888 1.12 3.232 1.92 4.032.832.8 1.744 1.2 2.736 1.2Zm28.313 5.52c-2.4 0-4.512-.688-6.336-2.064-1.792-1.408-3.2-3.488-4.224-6.24-.992-2.784-1.488-6.224-1.488-10.32 0-4.064.496-7.44 1.488-10.128 1.024-2.72 2.432-4.752 4.224-6.096 1.824-1.344 3.936-2.016 6.336-2.016 2.432 0 4.544.688 6.336 2.064 1.792 1.344 3.184 3.36 4.175 6.048 1.025 2.688 1.537 6.064 1.537 10.128 0 4.096-.512 7.536-1.537 10.32-.991 2.752-2.383 4.832-4.175 6.24-1.792 1.376-3.904 2.064-6.336 2.064Zm0-5.52c1.056 0 1.984-.4 2.784-1.2.8-.8 1.424-2.144 1.872-4.032.448-1.92.672-4.544.672-7.872 0-3.296-.224-5.872-.672-7.728-.448-1.888-1.072-3.2-1.872-3.936-.8-.768-1.728-1.152-2.784-1.152-.992 0-1.904.384-2.736 1.152-.8.736-1.44 2.048-1.92 3.936-.48 1.856-.72 4.432-.72 7.728 0 3.328.24 5.952.72 7.872.48 1.888 1.12 3.232 1.92 4.032.832.8 1.744 1.2 2.736 1.2Zm28.312 5.52c-2.4 0-4.512-.688-6.336-2.064-1.792-1.408-3.2-3.488-4.224-6.24-.992-2.784-1.488-6.224-1.488-10.32 0-4.064.496-7.44 1.488-10.128 1.024-2.72 2.432-4.752 4.224-6.096 1.824-1.344 3.936-2.016 6.336-2.016 2.432 0 4.544.688 6.336 2.064 1.792 1.344 3.184 3.36 4.176 6.048 1.024 2.688 1.536 6.064 1.536 10.128 0 4.096-.512 7.536-1.536 10.32-.992 2.752-2.384 4.832-4.176 6.24-1.792 1.376-3.904 2.064-6.336 2.064Zm0-5.52c1.056 0 1.984-.4 2.784-1.2.8-.8 1.424-2.144 1.872-4.032.448-1.92.672-4.544.672-7.872 0-3.296-.224-5.872-.672-7.728-.448-1.888-1.072-3.2-1.872-3.936-.8-.768-1.728-1.152-2.784-1.152-.992 0-1.904.384-2.736 1.152-.8.736-1.44 2.048-1.92 3.936-.48 1.856-.72 4.432-.72 7.728 0 3.328.24 5.952.72 7.872.48 1.888 1.12 3.232 1.92 4.032.832.8 1.744 1.2 2.736 1.2Zm16.505-6.336v-5.088h13.104v5.088H218.29Zm29.573 11.856c-2.4 0-4.512-.688-6.336-2.064-1.792-1.408-3.2-3.488-4.224-6.24-.992-2.784-1.488-6.224-1.488-10.32 0-4.064.496-7.44 1.488-10.128 1.024-2.72 2.432-4.752 4.224-6.096 1.824-1.344 3.936-2.016 6.336-2.016 2.432 0 4.544.688 6.336 2.064 1.792 1.344 3.184 3.36 4.176 6.048 1.024 2.688 1.536 6.064 1.536 10.128 0 4.096-.512 7.536-1.536 10.32-.992 2.752-2.384 4.832-4.176 6.24-1.792 1.376-3.904 2.064-6.336 2.064Zm0-5.52c1.056 0 1.984-.4 2.784-1.2.8-.8 1.424-2.144 1.872-4.032.448-1.92.672-4.544.672-7.872 0-3.296-.224-5.872-.672-7.728-.448-1.888-1.072-3.2-1.872-3.936-.8-.768-1.728-1.152-2.784-1.152-.992 0-1.904.384-2.736 1.152-.8.736-1.44 2.048-1.92 3.936-.48 1.856-.72 4.432-.72 7.728 0 3.328.24 5.952.72 7.872.48 1.888 1.12 3.232 1.92 4.032.832.8 1.744 1.2 2.736 1.2Zm28.313 5.52c-2.4 0-4.512-.688-6.336-2.064-1.792-1.408-3.2-3.488-4.224-6.24-.992-2.784-1.488-6.224-1.488-10.32 0-4.064.496-7.44 1.488-10.128 1.024-2.72 2.432-4.752 4.224-6.096 1.824-1.344 3.936-2.016 6.336-2.016 2.432 0 4.544.688 6.336 2.064 1.792 1.344 3.184 3.36 4.176 6.048 1.024 2.688 1.536 6.064 1.536 10.128 0 4.096-.512 7.536-1.536 10.32-.992 2.752-2.384 4.832-4.176 6.24-1.792 1.376-3.904 2.064-6.336 2.064Zm0-5.52c1.056 0 1.984-.4 2.784-1.2.8-.8 1.424-2.144 1.872-4.032.448-1.92.672-4.544.672-7.872 0-3.296-.224-5.872-.672-7.728-.448-1.888-1.072-3.2-1.872-3.936-.8-.768-1.728-1.152-2.784-1.152-.992 0-1.904.384-2.736 1.152-.8.736-1.44 2.048-1.92 3.936-.48 1.856-.72 4.432-.72 7.728 0 3.328.24 5.952.72 7.872.48 1.888 1.12 3.232 1.92 4.032.832.8 1.744 1.2 2.736 1.2Zm28.312 5.52c-2.4 0-4.512-.688-6.336-2.064-1.792-1.408-3.2-3.488-4.224-6.24-.992-2.784-1.488-6.224-1.488-10.32 0-4.064.496-7.44 1.488-10.128 1.024-2.72 2.432-4.752 4.224-6.096 1.824-1.344 3.936-2.016 6.336-2.016 2.432 0 4.544.688 6.336 2.064 1.792 1.344 3.184 3.36 4.176 6.048 1.024 2.688 1.536 6.064 1.536 10.128 0 4.096-.512 7.536-1.536 10.32-.992 2.752-2.384 4.832-4.176 6.24-1.792 1.376-3.904 2.064-6.336 2.064Zm0-5.52c1.056 0 1.984-.4 2.784-1.2.8-.8 1.424-2.144 1.872-4.032.448-1.92.672-4.544.672-7.872 0-3.296-.224-5.872-.672-7.728-.448-1.888-1.072-3.2-1.872-3.936-.8-.768-1.728-1.152-2.784-1.152-.992 0-1.904.384-2.736 1.152-.8.736-1.44 2.048-1.92 3.936-.48 1.856-.72 4.432-.72 7.728 0 3.328.24 5.952.72 7.872.48 1.888 1.12 3.232 1.92 4.032.832.8 1.744 1.2 2.736 1.2Zm28.313 5.52c-2.4 0-4.512-.688-6.336-2.064-1.792-1.408-3.2-3.488-4.224-6.24-.992-2.784-1.488-6.224-1.488-10.32 0-4.064.496-7.44 1.488-10.128 1.024-2.72 2.432-4.752 4.224-6.096 1.824-1.344 3.936-2.016 6.336-2.016 2.432 0 4.544.688 6.336 2.064 1.792 1.344 3.184 3.36 4.176 6.048 1.024 2.688 1.536 6.064 1.536 10.128 0 4.096-.512 7.536-1.536 10.32-.992 2.752-2.384 4.832-4.176 6.24-1.792 1.376-3.904 2.064-6.336 2.064Zm0-5.52c1.056 0 1.984-.4 2.784-1.2.8-.8 1.424-2.144 1.872-4.032.448-1.92.672-4.544.672-7.872 0-3.296-.224-5.872-.672-7.728-.448-1.888-1.072-3.2-1.872-3.936-.8-.768-1.728-1.152-2.784-1.152-.992 0-1.904.384-2.736 1.152-.8.736-1.44 2.048-1.92 3.936-.48 1.856-.72 4.432-.72 7.728 0 3.328.24 5.952.72 7.872.48 1.888 1.12 3.232 1.92 4.032.832.8 1.744 1.2 2.736 1.2Zm16.504-6.336v-5.088h13.104v5.088h-13.104Zm29.574 11.856c-2.4 0-4.512-.688-6.336-2.064-1.792-1.408-3.2-3.488-4.224-6.24-.992-2.784-1.488-6.224-1.488-10.32 0-4.064.496-7.44 1.488-10.128 1.024-2.72 2.432-4.752 4.224-6.096 1.824-1.344 3.936-2.016 6.336-2.016 2.432 0 4.544.688 6.336 2.064 1.792 1.344 3.184 3.36 4.176 6.048 1.024 2.688 1.536 6.064 1.536 10.128 0 4.096-.512 7.536-1.536 10.32-.992 2.752-2.384 4.832-4.176 6.24-1.792 1.376-3.904 2.064-6.336 2.064Zm0-5.52c1.056 0 1.984-.4 2.784-1.2.8-.8 1.424-2.144 1.872-4.032.448-1.92.672-4.544.672-7.872 0-3.296-.224-5.872-.672-7.728-.448-1.888-1.072-3.2-1.872-3.936-.8-.768-1.728-1.152-2.784-1.152-.992 0-1.904.384-2.736 1.152-.8.736-1.44 2.048-1.92 3.936-.48 1.856-.72 4.432-.72 7.728 0 3.328.24 5.952.72 7.872.48 1.888 1.12 3.232 1.92 4.032.832.8 1.744 1.2 2.736 1.2Zm28.312 5.52c-2.4 0-4.512-.688-6.336-2.064-1.792-1.408-3.2-3.488-4.224-6.24-.992-2.784-1.488-6.224-1.488-10.32 0-4.064.496-7.44 1.488-10.128 1.024-2.72 2.432-4.752 4.224-6.096 1.824-1.344 3.936-2.016 6.336-2.016 2.432 0 4.544.688 6.336 2.064 1.792 1.344 3.184 3.36 4.176 6.048 1.024 2.688 1.536 6.064 1.536 10.128 0 4.096-.512 7.536-1.536 10.32-.992 2.752-2.384 4.832-4.176 6.24-1.792 1.376-3.904 2.064-6.336 2.064Zm0-5.52c1.056 0 1.984-.4 2.784-1.2.8-.8 1.424-2.144 1.872-4.032.448-1.92.672-4.544.672-7.872 0-3.296-.224-5.872-.672-7.728-.448-1.888-1.072-3.2-1.872-3.936-.8-.768-1.728-1.152-2.784-1.152-.992 0-1.904.384-2.736 1.152-.8.736-1.44 2.048-1.92 3.936-.48 1.856-.72 4.432-.72 7.728 0 3.328.24 5.952.72 7.872.48 1.888 1.12 3.232 1.92 4.032.832.8 1.744 1.2 2.736 1.2Zm28.313 5.52c-2.4 0-4.512-.688-6.336-2.064-1.792-1.408-3.2-3.488-4.224-6.24-.992-2.784-1.488-6.224-1.488-10.32 0-4.064.496-7.44 1.488-10.128 1.024-2.72 2.432-4.752 4.224-6.096 1.824-1.344 3.936-2.016 6.336-2.016 2.432 0 4.544.688 6.336 2.064 1.792 1.344 3.184 3.36 4.176 6.048 1.024 2.688 1.536 6.064 1.536 10.128 0 4.096-.512 7.536-1.536 10.32-.992 2.752-2.384 4.832-4.176 6.24-1.792 1.376-3.904 2.064-6.336 2.064Zm0-5.52c1.056 0 1.984-.4 2.784-1.2.8-.8 1.424-2.144 1.872-4.032.448-1.92.672-4.544.672-7.872 0-3.296-.224-5.872-.672-7.728-.448-1.888-1.072-3.2-1.872-3.936-.8-.768-1.728-1.152-2.784-1.152-.992 0-1.904.384-2.736 1.152-.8.736-1.44 2.048-1.92 3.936-.48 1.856-.72 4.432-.72 7.728 0 3.328.24 5.952.72 7.872.48 1.888 1.12 3.232 1.92 4.032.832.8 1.744 1.2 2.736 1.2Zm28.312 5.52c-2.4 0-4.512-.688-6.336-2.064-1.792-1.408-3.2-3.488-4.224-6.24-.992-2.784-1.488-6.224-1.488-10.32 0-4.064.496-7.44 1.488-10.128 1.024-2.72 2.432-4.752 4.224-6.096 1.824-1.344 3.936-2.016 6.336-2.016 2.432 0 4.544.688 6.336 2.064 1.792 1.344 3.184 3.36 4.176 6.048 1.024 2.688 1.536 6.064 1.536 10.128 0 4.096-.512 7.536-1.536 10.32-.992 2.752-2.384 4.832-4.176 6.24-1.792 1.376-3.904 2.064-6.336 2.064Zm0-5.52c1.056 0 1.984-.4 2.784-1.2.8-.8 1.424-2.144 1.872-4.032.448-1.92.672-4.544.672-7.872 0-3.296-.224-5.872-.672-7.728-.448-1.888-1.072-3.2-1.872-3.936-.8-.768-1.728-1.152-2.784-1.152-.992 0-1.904.384-2.736 1.152-.8.736-1.44 2.048-1.92 3.936-.48 1.856-.72 4.432-.72 7.728 0 3.328.24 5.952.72 7.872.48 1.888 1.12 3.232 1.92 4.032.832.8 1.744 1.2 2.736 1.2ZM144.526 143v-1.824h3.936v-13.128h-3.144v-1.392a12.94 12.94 0 0 0 2.04-.528 9.94 9.94 0 0 0 1.608-.72h1.68v15.768h3.528V143h-9.648Zm17.873.312c-1.104 0-2.072-.336-2.904-1.008-.816-.672-1.448-1.688-1.896-3.048-.448-1.36-.672-3.064-.672-5.112s.224-3.736.672-5.064c.448-1.344 1.08-2.344 1.896-3 .832-.656 1.8-.984 2.904-.984 1.12 0 2.088.336 2.904 1.008.816.656 1.448 1.648 1.896 2.976.448 1.328.672 3.016.672 5.064s-.224 3.752-.672 5.112c-.448 1.36-1.08 2.376-1.896 3.048-.816.672-1.784 1.008-2.904 1.008Zm0-1.776c.672 0 1.256-.256 1.752-.768.512-.512.904-1.312 1.176-2.4.288-1.104.432-2.512.432-4.224 0-1.712-.144-3.104-.432-4.176-.272-1.088-.664-1.88-1.176-2.376-.496-.512-1.08-.768-1.752-.768-.656 0-1.24.256-1.752.768-.512.496-.912 1.288-1.2 2.376-.272 1.072-.408 2.464-.408 4.176 0 1.712.136 3.12.408 4.224.288 1.088.688 1.888 1.2 2.4s1.096.768 1.752.768Zm9.976-7.896c-.432 0-.808-.152-1.128-.456-.304-.32-.456-.728-.456-1.224s.152-.896.456-1.2c.32-.32.696-.48 1.128-.48.432 0 .8.16 1.104.48.32.304.48.704.48 1.2s-.16.904-.48 1.224a1.504 1.504 0 0 1-1.104.456Zm0 9.672c-.432 0-.808-.152-1.128-.456-.304-.32-.456-.72-.456-1.2 0-.512.152-.92.456-1.224.32-.304.696-.456 1.128-.456.432 0 .8.152 1.104.456.32.304.48.712.48 1.224 0 .48-.16.88-.48 1.2a1.504 1.504 0 0 1-1.104.456Zm10.016 0c-1.104 0-2.072-.336-2.904-1.008-.816-.672-1.448-1.688-1.896-3.048-.448-1.36-.672-3.064-.672-5.112s.224-3.736.672-5.064c.448-1.344 1.08-2.344 1.896-3 .832-.656 1.8-.984 2.904-.984 1.12 0 2.088.336 2.904 1.008.816.656 1.448 1.648 1.896 2.976.448 1.328.672 3.016.672 5.064s-.224 3.752-.672 5.112c-.448 1.36-1.08 2.376-1.896 3.048-.816.672-1.784 1.008-2.904 1.008Zm0-1.776c.672 0 1.256-.256 1.752-.768.512-.512.904-1.312 1.176-2.4.288-1.104.432-2.512.432-4.224 0-1.712-.144-3.104-.432-4.176-.272-1.088-.664-1.88-1.176-2.376-.496-.512-1.08-.768-1.752-.768-.656 0-1.24.256-1.752.768-.512.496-.912 1.288-1.2 2.376-.272 1.072-.408 2.464-.408 4.176 0 1.712.136 3.12.408 4.224.288 1.088.688 1.888 1.2 2.4s1.096.768 1.752.768Zm13.312 1.776c-1.104 0-2.072-.336-2.904-1.008-.816-.672-1.448-1.688-1.896-3.048-.448-1.36-.672-3.064-.672-5.112s.224-3.736.672-5.064c.448-1.344 1.08-2.344 1.896-3 .832-.656 1.8-.984 2.904-.984 1.12 0 2.088.336 2.904 1.008.816.656 1.448 1.648 1.896 2.976.448 1.328.672 3.016.672 5.064s-.224 3.752-.672 5.112c-.448 1.36-1.08 2.376-1.896 3.048-.816.672-1.784 1.008-2.904 1.008Zm0-1.776c.672 0 1.256-.256 1.752-.768.512-.512.904-1.312 1.176-2.4.288-1.104.432-2.512.432-4.224 0-1.712-.144-3.104-.432-4.176-.272-1.088-.664-1.88-1.176-2.376-.496-.512-1.08-.768-1.752-.768-.656 0-1.24.256-1.752.768-.512.496-.912 1.288-1.2 2.376-.272 1.072-.408 2.464-.408 4.176 0 1.712.136 3.12.408 4.224.288 1.088.688 1.888 1.2 2.4s1.096.768 1.752.768Zm15.665-5.424a3.081 3.081 0 0 1-1.44-.336 10.07 10.07 0 0 1-1.176-.792 10.859 10.859 0 0 0-1.08-.792 1.824 1.824 0 0 0-1.08-.36 1.75 1.75 0 0 0-1.08.384c-.336.256-.656.672-.96 1.248l-1.224-.864c.48-.848 1.008-1.464 1.584-1.848.592-.384 1.176-.576 1.752-.576.528 0 1 .12 1.416.36.432.224.824.488 1.176.792.368.288.72.552 1.056.792.352.224.72.336 1.104.336.384 0 .744-.12 1.08-.36.352-.256.68-.68.984-1.272l1.224.888c-.48.832-1.016 1.44-1.608 1.824-.576.384-1.152.576-1.728.576Zm6.4 6.888v-1.824h3.936v-13.128h-3.144v-1.392a12.94 12.94 0 0 0 2.04-.528 9.94 9.94 0 0 0 1.608-.72h1.68v15.768h3.528V143h-9.648Zm17.921.312c-1.088 0-2.056-.2-2.904-.6-.848-.4-1.512-.952-1.992-1.656s-.72-1.512-.72-2.424c0-.784.152-1.488.456-2.112.32-.64.728-1.184 1.224-1.632a7.551 7.551 0 0 1 1.536-1.128v-.096c-.64-.448-1.2-1-1.68-1.656-.464-.672-.696-1.472-.696-2.4 0-.896.208-1.672.624-2.328a4.394 4.394 0 0 1 1.728-1.56c.736-.384 1.56-.576 2.472-.576 1.008 0 1.872.2 2.592.6.72.4 1.272.944 1.656 1.632.384.688.576 1.488.576 2.4 0 .608-.128 1.184-.384 1.728a6.38 6.38 0 0 1-.888 1.464 8.214 8.214 0 0 1-1.056 1.056v.12c.512.288.992.64 1.44 1.056.448.4.808.896 1.08 1.488.288.576.432 1.272.432 2.088 0 .832-.232 1.6-.696 2.304-.448.688-1.088 1.232-1.92 1.632-.816.4-1.776.6-2.88.6Zm1.2-9.864c.592-.528 1.04-1.088 1.344-1.68a4.14 4.14 0 0 0 .456-1.872c0-.592-.12-1.12-.36-1.584a2.582 2.582 0 0 0-1.008-1.104c-.448-.288-.984-.432-1.608-.432-.816 0-1.488.256-2.016.768s-.792 1.2-.792 2.064c0 .688.184 1.272.552 1.752.384.464.88.864 1.488 1.2.608.32 1.256.616 1.944.888Zm-1.176 8.232c.688 0 1.28-.128 1.776-.384a2.802 2.802 0 0 0 1.176-1.056c.288-.448.432-.96.432-1.536 0-.592-.128-1.096-.384-1.512a3.83 3.83 0 0 0-1.032-1.128 7.52 7.52 0 0 0-1.464-.864 31.294 31.294 0 0 0-1.776-.744 5.93 5.93 0 0 0-1.752 1.704c-.448.672-.672 1.432-.672 2.28 0 .608.16 1.16.48 1.656.32.496.76.888 1.32 1.176a4.384 4.384 0 0 0 1.896.408Zm9.904-8.04c-.432 0-.808-.152-1.128-.456-.304-.32-.456-.728-.456-1.224s.152-.896.456-1.2c.32-.32.696-.48 1.128-.48.432 0 .8.16 1.104.48.32.304.48.704.48 1.2s-.16.904-.48 1.224a1.504 1.504 0 0 1-1.104.456Zm0 9.672c-.432 0-.808-.152-1.128-.456-.304-.32-.456-.72-.456-1.2 0-.512.152-.92.456-1.224.32-.304.696-.456 1.128-.456.432 0 .8.152 1.104.456.32.304.48.712.48 1.224 0 .48-.16.88-.48 1.2a1.504 1.504 0 0 1-1.104.456Zm10.016 0c-1.104 0-2.072-.336-2.904-1.008-.816-.672-1.448-1.688-1.896-3.048-.448-1.36-.672-3.064-.672-5.112s.224-3.736.672-5.064c.448-1.344 1.08-2.344 1.896-3 .832-.656 1.8-.984 2.904-.984 1.12 0 2.088.336 2.904 1.008.816.656 1.448 1.648 1.896 2.976.448 1.328.672 3.016.672 5.064s-.224 3.752-.672 5.112c-.448 1.36-1.08 2.376-1.896 3.048-.816.672-1.784 1.008-2.904 1.008Zm0-1.776c.672 0 1.256-.256 1.752-.768.512-.512.904-1.312 1.176-2.4.288-1.104.432-2.512.432-4.224 0-1.712-.144-3.104-.432-4.176-.272-1.088-.664-1.88-1.176-2.376-.496-.512-1.08-.768-1.752-.768-.656 0-1.24.256-1.752.768-.512.496-.912 1.288-1.2 2.376-.272 1.072-.408 2.464-.408 4.176 0 1.712.136 3.12.408 4.224.288 1.088.688 1.888 1.2 2.4s1.096.768 1.752.768Zm13.312 1.776c-1.104 0-2.072-.336-2.904-1.008-.816-.672-1.448-1.688-1.896-3.048-.448-1.36-.672-3.064-.672-5.112s.224-3.736.672-5.064c.448-1.344 1.08-2.344 1.896-3 .832-.656 1.8-.984 2.904-.984 1.12 0 2.088.336 2.904 1.008.816.656 1.448 1.648 1.896 2.976.448 1.328.672 3.016.672 5.064s-.224 3.752-.672 5.112c-.448 1.36-1.08 2.376-1.896 3.048-.816.672-1.784 1.008-2.904 1.008Zm0-1.776c.672 0 1.256-.256 1.752-.768.512-.512.904-1.312 1.176-2.4.288-1.104.432-2.512.432-4.224 0-1.712-.144-3.104-.432-4.176-.272-1.088-.664-1.88-1.176-2.376-.496-.512-1.08-.768-1.752-.768-.656 0-1.24.256-1.752.768-.512.496-.912 1.288-1.2 2.376-.272 1.072-.408 2.464-.408 4.176 0 1.712.136 3.12.408 4.224.288 1.088.688 1.888 1.2 2.4s1.096.768 1.752.768Zm23.321-7.656c0-1.568.192-3.032.576-4.392.4-1.36.96-2.624 1.68-3.792a17.767 17.767 0 0 1 2.52-3.24l1.44.744a17.118 17.118 0 0 0-2.376 3.096 14.704 14.704 0 0 0-1.56 3.552c-.352 1.248-.528 2.592-.528 4.032 0 1.424.176 2.768.528 4.032a14.704 14.704 0 0 0 1.56 3.552 18.31 18.31 0 0 0 2.376 3.096l-1.44.744c-.96-.992-1.8-2.072-2.52-3.24a15.551 15.551 0 0 1-1.68-3.792c-.384-1.376-.576-2.84-.576-4.392Zm10.104-3.312h18.456v1.752H302.37v-1.752Zm-1.536 11.52h21.528v1.752h-21.528v-1.752Zm9.744-19.176h1.92v20.304h-1.92v-20.304Zm17.232 1.56h15.744v20.064h-1.92v-18.264h-11.976v18.384h-1.848v-20.184Zm1.248 8.304h13.392v1.776h-13.392v-1.776Zm-.048 8.52h13.464v1.8H329.01v-1.8Zm35.832-7.848h1.752v8.976c0 .352.04.576.12.672.08.096.256.144.528.144h1.608c.192 0 .328-.08.408-.24.096-.176.168-.512.216-1.008.048-.496.08-1.24.096-2.232.176.144.416.28.72.408.304.128.568.232.792.312-.032 1.12-.12 1.984-.264 2.592-.128.624-.336 1.064-.624 1.32-.272.256-.656.384-1.152.384h-2.088c-.576 0-1.016-.072-1.32-.216-.288-.144-.496-.384-.624-.72-.112-.336-.168-.808-.168-1.416v-8.976Zm-4.752-7.368v6.096h7.824v-6.096h-7.824Zm-1.704-1.632h11.328v9.36h-11.328v-9.36Zm-9.456 2.904h7.488v1.632h-7.488v-1.632Zm3.504 7.152 1.752-2.088v12.504h-1.752v-10.416Zm0-11.664h1.752v5.328h-1.752v-5.328Zm1.752 9.816c.192.144.472.384.84.72.384.336.784.712 1.2 1.128.432.4.824.768 1.176 1.104.368.336.632.584.792.744l-1.104 1.488c-.208-.272-.488-.6-.84-.984a39.066 39.066 0 0 0-2.256-2.352 22.966 22.966 0 0 0-.888-.888l1.08-.96Zm1.608-5.304h.36l.336-.072 1.008.648a21.654 21.654 0 0 1-2.232 4.2 25.131 25.131 0 0 1-3.024 3.672c-1.088 1.088-2.176 2.008-3.264 2.76a4.407 4.407 0 0 0-.264-.576 20.16 20.16 0 0 0-.336-.6 2.246 2.246 0 0 0-.336-.456c1.04-.64 2.064-1.448 3.072-2.424a21.216 21.216 0 0 0 2.76-3.216 16.553 16.553 0 0 0 1.92-3.576v-.36Zm4.968 5.808h1.776a46.448 46.448 0 0 1-.336 3.96c-.144 1.2-.4 2.296-.768 3.288a7.842 7.842 0 0 1-1.536 2.592c-.672.768-1.552 1.424-2.64 1.968-.096-.208-.264-.456-.504-.744a4.114 4.114 0 0 0-.648-.648c.992-.48 1.784-1.048 2.376-1.704a6.726 6.726 0 0 0 1.368-2.304c.32-.864.544-1.824.672-2.88a37.88 37.88 0 0 0 .24-3.528Zm20.4-4.344a42.422 42.422 0 0 0 4.08.192c1.44 0 2.872-.056 4.296-.168a34.45 34.45 0 0 0 3.96-.528v1.848a43.59 43.59 0 0 1-4.056.456 74.79 74.79 0 0 1-4.248.168c-.688 0-1.36-.016-2.016-.048a111.66 111.66 0 0 1-2.016-.12v-1.8Zm8.4-4.296-.096.72-.048.72a57.88 57.88 0 0 0-.048 1.104c-.016.448-.024.928-.024 1.44v1.464c0 .912.016 1.824.048 2.736.032.912.072 1.8.12 2.664.048.864.088 1.68.12 2.448.048.752.072 1.44.072 2.064 0 .48-.072.952-.216 1.416-.128.464-.352.88-.672 1.248-.304.368-.728.656-1.272.864-.528.224-1.192.336-1.992.336-1.616 0-2.856-.304-3.72-.912-.848-.608-1.272-1.448-1.272-2.52 0-.672.192-1.28.576-1.824.4-.56.96-1 1.68-1.32.736-.32 1.632-.48 2.688-.48 1.024 0 1.96.12 2.808.36.864.224 1.656.528 2.376.912a12.6 12.6 0 0 1 2.016 1.248c.608.448 1.168.896 1.68 1.344l-1.056 1.608a20.97 20.97 0 0 0-2.52-2.088 11.324 11.324 0 0 0-2.592-1.392 8.066 8.066 0 0 0-2.856-.504c-.912 0-1.656.184-2.232.552-.56.352-.84.816-.84 1.392 0 .608.272 1.08.816 1.416.544.32 1.248.48 2.112.48.688 0 1.216-.112 1.584-.336.384-.224.648-.528.792-.912.16-.384.24-.84.24-1.368 0-.432-.016-1.016-.048-1.752s-.072-1.536-.12-2.4c-.048-.88-.088-1.776-.12-2.688a73.467 73.467 0 0 1-.048-2.568v-4.008c0-.208-.008-.448-.024-.72a7.837 7.837 0 0 0-.072-.744h2.16Zm-11.856.144a9.178 9.178 0 0 0-.168.504c-.048.192-.096.392-.144.6a8.322 8.322 0 0 1-.096.528c-.096.448-.2.984-.312 1.608l-.312 1.992a77.782 77.782 0 0 0-.312 2.16c-.08.72-.144 1.416-.192 2.088a25.817 25.817 0 0 0-.024 3.48c.048.528.112 1.088.192 1.68.128-.368.272-.76.432-1.176l.48-1.248c.176-.416.328-.784.456-1.104l.984.768c-.192.544-.408 1.16-.648 1.848l-.648 1.944a14.982 14.982 0 0 0-.408 1.512c-.032.16-.064.344-.096.552a2.886 2.886 0 0 0 0 .528v.408c.016.16.032.304.048.432l-1.68.12c-.24-.864-.456-1.936-.648-3.216-.176-1.296-.264-2.752-.264-4.368 0-.896.04-1.824.12-2.784.096-.976.2-1.928.312-2.856.128-.928.248-1.776.36-2.544l.312-1.92c.032-.272.064-.56.096-.864.032-.304.048-.584.048-.84l2.112.168Zm28.824 5.184h9.312v1.536h-9.312v-1.536Zm-1.608 4.536h12.792v1.56h-12.792v-1.56Zm6.144-9.84c-.448.752-1.024 1.536-1.728 2.352-.704.8-1.48 1.576-2.328 2.328a19.502 19.502 0 0 1-2.64 1.968 5.082 5.082 0 0 0-.408-.744 5.227 5.227 0 0 0-.504-.672c.912-.544 1.8-1.192 2.664-1.944a22.326 22.326 0 0 0 2.352-2.424c.704-.864 1.272-1.704 1.704-2.52h1.632c.592.88 1.272 1.744 2.04 2.592a24.098 24.098 0 0 0 2.472 2.328c.88.704 1.744 1.288 2.592 1.752-.16.208-.336.456-.528.744a7.316 7.316 0 0 0-.48.768 26.163 26.163 0 0 1-2.52-1.872 27.366 27.366 0 0 1-2.424-2.28 23.206 23.206 0 0 1-1.896-2.376Zm-.816 6.048h1.728v12.288c0 .464-.064.832-.192 1.104-.112.272-.328.48-.648.624-.304.144-.712.232-1.224.264s-1.144.048-1.896.048a4.091 4.091 0 0 0-.24-.84c-.112-.32-.232-.6-.36-.84.56.016 1.064.024 1.512.024h.936c.16-.016.264-.048.312-.096.048-.048.072-.152.072-.312v-12.264Zm-3.744 6.648 1.584.384a16.675 16.675 0 0 1-1.536 3.192c-.624 1.024-1.28 1.888-1.968 2.592a4.759 4.759 0 0 0-.384-.336 6.299 6.299 0 0 0-.48-.384 3.215 3.215 0 0 0-.432-.336 11.78 11.78 0 0 0 1.848-2.304 15.671 15.671 0 0 0 1.368-2.808Zm7.224.624 1.368-.672c.448.544.888 1.144 1.32 1.8.432.64.832 1.264 1.2 1.872.368.608.656 1.16.864 1.656l-1.488.768a12.446 12.446 0 0 0-.84-1.656 36.29 36.29 0 0 0-1.152-1.944 24.226 24.226 0 0 0-1.272-1.824Zm-16.2-13.992h5.64v1.632h-4.032v19.416h-1.608v-21.048Zm5.112 0h.312l.264-.072 1.176.696c-.24.656-.496 1.36-.768 2.112a61.54 61.54 0 0 1-.816 2.208c-.272.72-.544 1.4-.816 2.04.88.992 1.456 1.92 1.728 2.784.288.848.432 1.648.432 2.4 0 .64-.08 1.2-.24 1.68-.144.48-.384.84-.72 1.08a2.42 2.42 0 0 1-.576.288 4.148 4.148 0 0 1-.672.144c-.496.048-1.032.064-1.608.048a4.417 4.417 0 0 0-.144-.792 2.344 2.344 0 0 0-.312-.792c.272.016.528.024.768.024h.624c.32-.016.576-.088.768-.216.192-.144.32-.36.384-.648.08-.304.12-.632.12-.984 0-.672-.152-1.4-.456-2.184-.288-.8-.864-1.672-1.728-2.616.224-.544.44-1.12.648-1.728.224-.624.432-1.232.624-1.824.208-.608.392-1.184.552-1.728l.456-1.416v-.504Zm33.84 1.416a12.8 12.8 0 0 0-.864.72c-.32.272-.584.488-.792.648-.416.368-.92.8-1.512 1.296-.592.48-1.216.992-1.872 1.536-.656.528-1.288 1.04-1.896 1.536-.608.48-1.136.912-1.584 1.296-.48.416-.8.76-.96 1.032-.16.256-.16.52 0 .792.176.272.52.632 1.032 1.08.448.352.96.768 1.536 1.248a90.1 90.1 0 0 1 1.824 1.512c.656.544 1.32 1.104 1.992 1.68.672.576 1.32 1.144 1.944 1.704.624.56 1.184 1.096 1.68 1.608l-1.704 1.584a27.509 27.509 0 0 0-1.656-1.752 37.763 37.763 0 0 0-1.56-1.512 86.48 86.48 0 0 0-2.016-1.8 70.265 70.265 0 0 0-2.112-1.8c-.688-.592-1.312-1.12-1.872-1.584-.768-.64-1.256-1.2-1.464-1.68-.208-.496-.168-.984.12-1.464.288-.48.792-1.016 1.512-1.608.448-.384.984-.832 1.608-1.344.64-.512 1.304-1.048 1.992-1.608a141.63 141.63 0 0 0 1.944-1.656 24.514 24.514 0 0 0 1.536-1.44c.24-.24.488-.512.744-.816.272-.304.48-.568.624-.792l1.776 1.584Zm14.424 8.592c0 1.552-.2 3.016-.6 4.392a14.905 14.905 0 0 1-1.656 3.792 18.933 18.933 0 0 1-2.52 3.24l-1.44-.744a18.31 18.31 0 0 0 2.376-3.096 14.041 14.041 0 0 0 1.536-3.552c.368-1.264.552-2.608.552-4.032 0-1.44-.184-2.784-.552-4.032a14.041 14.041 0 0 0-1.536-3.552 17.118 17.118 0 0 0-2.376-3.096l1.44-.744c.96.976 1.8 2.056 2.52 3.24a14.905 14.905 0 0 1 1.656 3.792c.4 1.36.6 2.824.6 4.392Z"/><mask id="b" width="64" height="36" x="41" y="86" maskUnits="userSpaceOnUse" style="mask-type:luminance"><path fill="#fff" d="M105 86.945H41v34.9h64v-34.9Z"/></mask><g mask="url(#b)"><path fill="#201E1C" stroke="#201E1C" stroke-miterlimit="10" d="M75.138 144.558c12.783 0 23.146-10.424 23.146-23.283 0-12.859-10.363-23.283-23.147-23.283-12.783 0-23.146 10.424-23.146 23.283 0 12.859 10.363 23.283 23.147 23.283Z"/></g><path fill="#fff" stroke="#fff" stroke-miterlimit="10" d="M75.34 118.322c4.22 0 7.64-3.441 7.64-7.685 0-4.245-3.42-7.686-7.64-7.686s-7.64 3.441-7.64 7.686c0 4.244 3.42 7.685 7.64 7.685Z"/><path fill="#201E1C" stroke="#201E1C" stroke-miterlimit="10" d="M87.71 91.374c.137 0 .256.273.103.442-.749.81-2.185 2.632-1.895 4.369.489 2.932 11.613 4.865 14.085 3.27 1.314-.85 2.426-9.153-4.248-13.63-8.072-5.41-33.843-4.677-41.094-.327-5.944 3.566-5.979 11.47-4.584 13.473 1.753 2.517 12.656-.127 13.844-1.637 1.528-1.945-.45-3.797-1.463-5.756-.114-.223-.065-.454.298-.48l24.957.28-.003-.004Z"/><g clip-path="url(#c)"><path fill="#FD8B27" d="M529.5 81.717c10.909 0 19.783 8.874 19.783 19.783s-8.874 19.783-19.783 19.783-19.783-8.874-19.783-19.783c0-10.91 8.874-19.783 19.783-19.783Zm0-3.717c-12.978 0-23.5 10.522-23.5 23.5s10.522 23.5 23.5 23.5 23.5-10.522 23.5-23.5S542.478 78 529.5 78Z"/><path stroke="#FD8B27" stroke-linecap="round" stroke-linejoin="round" stroke-width="5" d="m526.375 111.235 9.252-9.249v-.369l-9.252-9.252"/></g><defs><clipPath id="c"><path fill="#fff" d="M506 78h47v47h-47z"/></clipPath><filter id="a" width="606" height="211" x="0" y="0" color-interpolation-filters="sRGB" filterUnits="userSpaceOnUse"><feFlood flood-opacity="0" result="BackgroundImageFix"/><feColorMatrix in="SourceAlpha" result="hardAlpha" values="0 0 0 0 0 0 0 0 0 0 0 0 0 0 0 0 0 0 127 0"/><feOffset dy="4"/><feGaussianBlur stdDeviation="4"/><feComposite in2="hardAlpha" operator="out"/><feColorMatrix values="0 0 0 0 0 0 0 0 0 0 0 0 0 0 0 0 0 0 0.15 0"/><feBlend in2="BackgroundImageFix" result="effect1_dropShadow_605_164"/><feBlend in="SourceGraphic" in2="effect1_dropShadow_605_164" result="shape"/></filter></defs></svg>