<svg xmlns="http://www.w3.org/2000/svg" width="102" height="72" fill="none"><g clip-path="url(#a)"><path fill="#000" d="M16.086 9.371 14.231.513h2.326L17.02 3.8c.147 1.031.294 2.205.417 3.115h.023c.13-.998.297-2.06.472-3.144l.52-3.257h2.315l.498 3.414c.149 1.022.252 1.925.365 2.929h.023c.11-.996.259-2.041.405-3.086L22.53.513h2.198l-1.994 8.858h-2.356l-.546-3.47c-.12-.775-.229-1.6-.327-2.651h-.023c-.139 1.045-.243 1.876-.39 2.661l-.612 3.46h-2.395ZM30.73 5.8h-2.905v1.632h3.248v1.94H25.66V.512h5.245v1.94h-3.08V3.88h2.906V5.8ZM32.281.634c.489-.099 1.557-.19 2.556-.19 1.143 0 1.835.088 2.465.434.63.322 1.088.96 1.088 1.823 0 .745-.371 1.472-1.31 1.86v.033c.99.292 1.584 1.097 1.584 2.149 0 .835-.369 1.489-.905 1.932-.608.5-1.613.795-3.347.795-.978 0-1.694-.07-2.13-.145V.634Zm2.145 3.289h.435c.915 0 1.358-.354 1.358-.927 0-.519-.359-.847-1.085-.847a3.49 3.49 0 0 0-.708.053v1.722-.001Zm0 3.783c.159.026.345.026.624.026.72 0 1.334-.315 1.334-1.094 0-.78-.627-1.04-1.439-1.04h-.519v2.108ZM42.857 5.189V6.73h-3.215V5.19h3.215ZM44.108 7.012c.491.269 1.286.549 2.096.549.74 0 1.106-.283 1.106-.73 0-.424-.362-.674-1.277-1.016-1.36-.529-2.27-1.354-2.27-2.672 0-1.567 1.206-2.77 3.248-2.77.966 0 1.655.196 2.185.453l-.452 1.895a3.97 3.97 0 0 0-1.758-.42c-.659 0-1.021.266-1.021.654 0 .45.429.63 1.448 1.048 1.457.584 2.107 1.44 2.107 2.672 0 1.53-1.086 2.832-3.445 2.832-.975 0-1.92-.28-2.378-.54l.41-1.958v.003ZM52.909 1.068v1.837h1.227V4.64H52.91v1.857c0 .768.162 1.087.687 1.087.22 0 .394-.023.514-.05v1.797c-.25.096-.731.178-1.287.178-.636 0-1.166-.246-1.477-.588-.36-.394-.546-1.028-.546-2.014V4.64h-.73V2.905h.73V1.588l2.11-.52h-.001ZM60.956 7.17c0 .91.023 1.652.048 2.201H59.14l-.097-.85h-.042c-.213.348-.731.996-1.79.996-1.316 0-2.09-.93-2.09-2.8V2.905h2.165V6.34c0 .824.245 1.276.755 1.276.405 0 .612-.306.696-.55a.892.892 0 0 0 .054-.35V2.907h2.165V7.17 7.17ZM68.286.039v7.288c0 .803.023 1.618.048 2.044h-1.919l-.087-.873h-.023c-.39.726-1.106 1.019-1.781 1.019-1.377 0-2.514-1.305-2.514-3.335-.009-2.176 1.245-3.42 2.637-3.42.653 0 1.19.207 1.454.624h.023V.04h2.162Zm-2.163 5.659c0-.096 0-.208-.016-.307-.078-.453-.401-.824-.855-.824-.727 0-1.05.71-1.05 1.557 0 .993.443 1.508 1.04 1.508.438 0 .772-.339.846-.772.027-.131.033-.283.033-.434v-.73l.002.002ZM71.806 1.124c.003.628-.426 1.121-1.115 1.121-.69 0-1.09-.493-1.086-1.12C69.602.475 70.035 0 70.706 0c.672 0 1.092.476 1.101 1.124h-.001Zm-2.184 8.247V2.905h2.165v6.466h-2.165ZM79.15 6.072c0 2.35-1.532 3.443-3.184 3.443-1.767 0-3.137-1.23-3.137-3.332 0-2.103 1.238-3.423 3.248-3.423 1.85 0 3.073 1.367 3.073 3.312Zm-4.09.063c0 .97.29 1.709.959 1.709.582 0 .899-.671.899-1.709 0-.894-.265-1.702-.905-1.702-.711 0-.954.858-.954 1.702Z"/><path fill="#FF8A27" d="M.163 27.483c0-2.67-.039-4.264-.124-5.664h4.795l.202 3.028h.124c.818-2.542 2.756-3.403 4.08-3.403.498 0 .725.009 1.121.102v5.775a5.92 5.92 0 0 0-1.432-.17c-1.658 0-2.772.759-3.067 2.115-.055.29-.078.657-.078 1.05v8.29H.164V27.483ZM17.064 32.37c.18 1.332 1.946 2.074 3.924 2.074 1.448 0 2.81-.17 4.204-.648l.71 4.111c-1.845.803-3.847 1.058-5.738 1.058-5.395 0-8.439-3.258-8.439-8.572 0-3.915 2.297-8.948 7.941-8.948 4.952 0 7.07 3.983 7.07 8.59 0 1.023-.11 1.927-.203 2.337h-9.467l-.002-.002Zm4.501-4.162c0-.972-.412-2.746-2.172-2.746-1.658 0-2.305 1.672-2.399 2.746H21.565Z"/><path fill="#000" d="M35.655 15.925c1.526-.273 3.73-.494 6.92-.494 3.021 0 5.186.597 6.657 1.833 1.433 1.16 2.39 3.19 2.39 5.536 0 2.345-.708 4.368-2.038 5.672-1.697 1.664-4.157 2.406-6.991 2.406-.545 0-1.028-.05-1.37-.077v7.805h-5.567v-22.68h-.001Zm5.566 10.151c.303.06.677.085 1.285.085 2.188 0 3.558-1.237 3.558-3.216 0-1.715-1.035-2.874-3.176-2.874-.825 0-1.378.068-1.665.145v5.86h-.002ZM54.19 14.38h5.622v24.226H54.19V14.381ZM78.402 32.891c0 2.363.062 4.291.124 5.715h-4.842l-.248-2.21h-.11c-.551.905-1.898 2.586-4.646 2.586-3.417 0-5.427-2.414-5.427-7.267v-9.896h5.621v8.914c0 2.141.638 3.31 1.961 3.31 1.052 0 1.588-.793 1.806-1.424.109-.247.14-.563.14-.912v-9.886h5.62v11.072-.002ZM82.044 33.445c.88.59 2.865 1.27 4.25 1.27 1.184 0 1.659-.29 1.659-.911 0-.622-.35-.888-1.993-1.458-3.362-1.17-4.515-3.173-4.491-5.127 0-3.345 2.608-5.775 6.625-5.775 1.891 0 3.582.46 4.554.955l-.888 4.18c-.733-.393-2.157-.93-3.395-.93-.958 0-1.526.282-1.526.947 0 .555.482.895 2.305 1.544 3.02 1.084 4.173 2.799 4.196 5.22 0 3.199-2.282 5.605-6.999 5.605-2.132 0-4.032-.503-5.24-1.186l.943-4.334Z"/><path fill="#FF8A27" d="M98.511 16.003v-3.468h-2.858v3.468h-3.489v2.825h3.489v3.485h2.858v-3.485H102v-2.825h-3.489Z"/><path fill="#000" stroke="#000" stroke-miterlimit="10" stroke-width=".5" d="M.039 44.792h6.576c6.877 0 9.984 3.33 9.984 10.046 0 5.368-2.141 10.976-9.924 10.976H.04V44.792Zm4.585 17.243h1.689c4.314 0 5.55-2.729 5.55-6.777 0-5.068-2.231-6.687-5.58-6.687h-1.66v13.464ZM32.89 64.254c-1.327 1.079-2.987 1.89-6.245 1.89-5.369 0-8.114-2.999-8.114-8.848 0-5.487 3.076-8.756 7.994-8.756 4.344 0 6.848 2.73 6.848 6.867 0 .869-.03 1.71-.212 3.029H22.996c.06 2.668 1.268 4.139 4.164 4.139 1.84 0 3.107-.87 3.74-1.53l1.99 3.209Zm-9.805-8.817h6.003v-.45c0-1.979-.844-3.028-2.684-3.028-2.052 0-3.259 1.5-3.32 3.478ZM36.6 53.819c0-2.759 2.383-5.248 6.335-5.248 3.076 0 5.038 1.08 6.154 2.369l-2.925 2.85c-.604-.69-1.78-1.59-3.349-1.59-1.024 0-1.689.54-1.689 1.319 0 2.55 8.024 1.65 8.024 7.316 0 2.25-1.78 5.279-6.727 5.279-3.74 0-6.003-1.56-6.938-2.55l2.716-3.118c.754.869 2.414 2.1 4.463 2.1 1.419 0 1.962-.661 1.962-1.44 0-2.459-8.024-1.65-8.024-7.287H36.6ZM54.548 41.763c1.538 0 2.685 1.14 2.685 2.7 0 1.41-1.146 2.55-2.685 2.55-1.448 0-2.594-1.14-2.594-2.55 0-1.56 1.146-2.7 2.594-2.7Zm-2.202 7.107h4.556v16.942h-4.556V48.87ZM74.85 65.064c0 4.618-3.259 6.897-7.813 6.897-4.193 0-5.882-1.169-6.848-2.308l2.565-3.329c.844 1.169 2.504 1.98 4.283 1.98 2.353 0 3.349-.87 3.349-3.27v-.868h-.122c-.633.57-1.81.96-3.348.96-3.53 0-6.697-1.74-6.697-7.827 0-4.768 2.715-8.637 8.296-8.637 2.986 0 4.826.36 6.334 1.02v15.385-.003Zm-6.366-12.835c-2.383 0-3.74 1.65-3.74 4.888 0 3.479 1.206 4.348 3.226 4.348.996 0 1.81-.3 2.383-.87V52.53a5.426 5.426 0 0 0-1.871-.3h.002ZM93.34 65.814h-4.555V55.048c0-1.74-.815-2.758-2.353-2.758-1.327 0-2.414.779-2.926 2.008v11.516h-4.555V48.87h3.56l.905 1.59h.121c1.025-1.23 2.806-2.009 4.585-2.009 3.318 0 5.218 1.83 5.218 5.637v11.726-.001Z"/></g><defs><clipPath id="a"><path fill="#fff" d="M0 0h102v72H0z"/></clipPath></defs></svg>