<svg xmlns="http://www.w3.org/2000/svg" width="209" height="189" fill="none"><g clip-path="url(#a)"><path fill="#000" d="m37.172 18.873-3.71-17.84h4.653l.924 6.617c.292 2.077.588 4.44.833 6.275h.047c.258-2.012.594-4.148.943-6.334l1.041-6.557h4.629l.995 6.875c.299 2.058.504 3.877.731 5.897h.047c.22-2.005.516-4.11.809-6.215l.949-6.557h4.395L50.47 18.873h-4.712l-1.092-6.988a86.783 86.783 0 0 1-.653-5.34h-.047c-.277 2.105-.486 3.777-.781 5.359l-1.222 6.969h-4.79ZM66.461 11.68h-5.81v3.288h6.495v3.905H56.32V1.033H66.81v3.905h-6.16v2.878h5.811v3.864ZM69.563 1.277c.976-.2 3.113-.383 5.11-.383 2.286 0 3.67.177 4.93.875 1.26.647 2.178 1.933 2.178 3.67 0 1.502-.744 2.965-2.62 3.747v.065c1.979.588 3.167 2.21 3.167 4.328 0 1.682-.737 2.999-1.81 3.892-1.216 1.006-3.226 1.6-6.694 1.6-1.957 0-3.387-.14-4.258-.292V1.277h-.004ZM73.852 7.9h.87c1.83 0 2.716-.713 2.716-1.866 0-1.046-.718-1.706-2.17-1.706-.725 0-1.133.047-1.416.106v3.469V7.9Zm0 7.619c.317.053.69.053 1.247.053 1.44 0 2.67-.635 2.67-2.205 0-1.569-1.254-2.092-2.878-2.092h-1.039v4.244ZM90.714 10.45v3.104h-6.43V10.45h6.43ZM93.215 14.121c.983.542 2.573 1.105 4.193 1.105 1.48 0 2.212-.57 2.212-1.47 0-.852-.725-1.357-2.554-2.045-2.722-1.065-4.538-2.728-4.538-5.38 0-3.158 2.41-5.58 6.495-5.58 1.931 0 3.309.395 4.37.912l-.905 3.817c-.697-.336-1.895-.847-3.515-.847-1.319 0-2.044.536-2.044 1.318 0 .906.859 1.27 2.896 2.11 2.915 1.178 4.215 2.9 4.215 5.381 0 3.083-2.171 5.705-6.89 5.705-1.95 0-3.838-.564-4.756-1.087l.821-3.945v.006ZM110.818 2.152V5.85h2.454v3.494h-2.454v3.74c0 1.547.323 2.188 1.375 2.188.438 0 .787-.046 1.026-.1v3.619c-.497.193-1.462.358-2.572.358-1.272 0-2.333-.495-2.955-1.183-.719-.794-1.092-2.07-1.092-4.057V9.345h-1.459V5.85h1.459V3.198l4.221-1.046h-.003ZM126.912 14.438c0 1.834.047 3.33.096 4.434h-3.729l-.193-1.712h-.084c-.426.7-1.462 2.005-3.58 2.005-2.632 0-4.181-1.871-4.181-5.639V5.851h4.33v6.915c0 1.66.492 2.57 1.512 2.57.809 0 1.222-.617 1.39-1.106.084-.193.109-.436.109-.707v-7.67h4.33v8.588-.003ZM141.572.078v14.678c0 1.616.047 3.257.097 4.116h-3.839l-.174-1.759h-.047c-.78 1.464-2.211 2.052-3.561 2.052-2.753 0-5.027-2.628-5.027-6.716-.019-4.381 2.489-6.888 5.273-6.888 1.306 0 2.379.417 2.908 1.258h.047V.078h4.323Zm-4.327 11.396c0-.193 0-.417-.031-.616-.155-.913-.802-1.66-1.71-1.66-1.453 0-2.1 1.43-2.1 3.136 0 1.999.886 3.036 2.081 3.036.874 0 1.543-.682 1.692-1.554a4.6 4.6 0 0 0 .065-.875v-1.47l.003.003ZM148.611 2.264c.007 1.264-.852 2.257-2.23 2.257-1.378 0-2.177-.993-2.171-2.257C144.204.959 145.069 0 146.412 0c1.344 0 2.184.959 2.203 2.264h-.004Zm-4.367 16.609V5.85h4.33v13.022h-4.33ZM163.3 12.228c0 4.733-3.064 6.934-6.368 6.934-3.533 0-6.274-2.475-6.274-6.71 0-4.235 2.476-6.894 6.495-6.894 3.702 0 6.147 2.753 6.147 6.67Zm-8.181.127c0 1.953.581 3.441 1.919 3.441 1.163 0 1.798-1.351 1.798-3.44 0-1.8-.529-3.429-1.81-3.429-1.422 0-1.907 1.728-1.907 3.428Z"/><path fill="#FF8A27" d="M5.326 55.347c0-5.377-.077-8.587-.248-11.405h9.59l.404 6.096h.249c1.636-5.119 5.512-6.853 8.159-6.853.995 0 1.45.019 2.242.206v11.63a11.756 11.756 0 0 0-2.864-.343c-3.316 0-5.543 1.529-6.134 4.26-.11.585-.156 1.323-.156 2.114v16.696H5.326v-22.4ZM39.129 65.19c.358 2.681 3.891 4.176 7.848 4.176 2.896 0 5.62-.342 8.408-1.305l1.418 8.28c-3.69 1.616-7.692 2.13-11.475 2.13-10.79 0-16.878-6.56-16.878-17.263 0-7.884 4.595-18.02 15.883-18.02 9.904 0 14.137 8.022 14.137 17.298 0 2.06-.218 3.883-.404 4.708H39.132l-.003-.004Zm9.002-8.382c0-1.958-.825-5.53-4.346-5.53-3.316 0-4.61 3.366-4.796 5.53h9.142Z"/><path fill="#000" d="M76.31 32.072c3.051-.551 7.459-.996 13.842-.996 6.04 0 10.37 1.202 13.313 3.693 2.865 2.335 4.781 6.423 4.781 11.147s-1.419 8.797-4.078 11.425c-3.394 3.35-8.315 4.845-13.982 4.845-1.089 0-2.056-.103-2.74-.156v15.718H76.312V32.072h-.003Zm11.132 20.442c.607.122 1.353.171 2.57.171 4.376 0 7.117-2.49 7.117-6.476 0-3.454-2.072-5.789-6.352-5.789-1.652 0-2.756.137-3.332.293v11.801h-.003ZM113.381 28.961h11.242v48.787h-11.242V28.961ZM161.803 66.24c0 4.758.125 8.64.249 11.508h-9.683l-.498-4.45h-.218c-1.104 1.822-3.798 5.207-9.294 5.207-6.834 0-10.853-4.86-10.853-14.635V43.942h11.242v17.95c0 4.313 1.275 6.667 3.922 6.667 2.103 0 3.176-1.597 3.612-2.867.217-.498.28-1.134.28-1.837v-19.91h11.241v22.298-.003ZM169.088 67.354c1.761 1.187 5.73 2.56 8.501 2.56 2.367 0 3.316-.585 3.316-1.837s-.7-1.788-3.984-2.937c-6.726-2.354-9.03-6.39-8.984-10.325 0-6.735 5.217-11.63 13.251-11.63 3.783 0 7.164.928 9.108 1.924l-1.776 8.417c-1.465-.79-4.315-1.871-6.791-1.871-1.916 0-3.051.566-3.051 1.905 0 1.118.964 1.803 4.61 3.11 6.041 2.184 8.345 5.637 8.392 10.513 0 6.442-4.563 11.288-13.997 11.288-4.265 0-8.066-1.012-10.48-2.389l1.885-8.728Z"/><path fill="#FF8A27" d="M202.023 32.228v-6.984h-5.717v6.984h-6.977v5.689h6.977v7.018h5.717v-7.018H209v-5.69h-6.977Z"/><path fill="#000" stroke="#000" stroke-miterlimit="10" stroke-width=".5" d="M5.078 90.207h13.151c13.755 0 19.97 6.704 19.97 20.23 0 10.811-4.283 22.105-19.849 22.105H5.078V90.207Zm9.17 34.725h3.378c8.628 0 11.101-5.496 11.101-13.648 0-10.207-4.463-13.467-11.16-13.467h-3.32v27.115ZM70.779 129.4c-2.654 2.173-5.973 3.805-12.49 3.805-10.737 0-16.227-6.038-16.227-17.817 0-11.051 6.153-17.634 15.988-17.634 8.688 0 13.696 5.496 13.696 13.829 0 1.75-.059 3.444-.423 6.1h-20.33c.12 5.374 2.535 8.335 8.326 8.335 3.68 0 6.215-1.75 7.481-3.079l3.982 6.461h-.003Zm-19.61-17.755h12.008v-.906c0-3.986-1.69-6.1-5.37-6.1-4.102 0-6.516 3.02-6.637 7.006ZM78.201 108.385c0-5.555 4.765-10.569 12.67-10.569 6.152 0 10.074 2.174 12.308 4.771l-5.851 5.738c-1.207-1.388-3.559-3.201-6.697-3.201-2.05 0-3.378 1.087-3.378 2.657 0 5.134 16.047 3.322 16.047 14.734 0 4.531-3.558 10.63-13.453 10.63-7.481 0-12.007-3.141-13.876-5.134l5.43-6.281c1.51 1.75 4.828 4.229 8.928 4.229 2.837 0 3.922-1.33 3.922-2.899 0-4.951-16.047-3.323-16.047-14.675h-.003ZM114.097 84.106c3.076 0 5.368 2.295 5.368 5.437 0 2.84-2.292 5.135-5.368 5.135-2.896 0-5.189-2.295-5.189-5.135 0-3.142 2.293-5.437 5.189-5.437Zm-4.405 14.311h9.111v34.121h-9.111v-34.12ZM154.699 131.031c0 9.301-6.517 13.891-15.625 13.891-8.386 0-11.764-2.354-13.696-4.649l5.13-6.704c1.689 2.354 5.008 3.986 8.566 3.986 4.707 0 6.697-1.75 6.697-6.583v-1.75h-.242c-1.266 1.149-3.621 1.934-6.697 1.934-7.058 0-13.394-3.503-13.394-15.762 0-9.603 5.431-17.394 16.591-17.394 5.973 0 9.652.725 12.67 2.055v30.982-.006Zm-12.732-25.847c-4.765 0-7.481 3.322-7.481 9.842 0 7.006 2.414 8.756 6.455 8.756 1.99 0 3.62-.604 4.765-1.75v-16.244c-1.266-.424-2.293-.604-3.742-.604h.003ZM191.68 132.541h-9.111V110.86c0-3.503-1.629-5.555-4.706-5.555-2.653 0-4.827 1.569-5.851 4.045v23.191h-9.111v-34.12h7.12l1.811 3.2h.242c2.05-2.475 5.612-4.044 9.17-4.044 6.635 0 10.436 3.683 10.436 11.353v23.615-.004Z"/></g><path fill="#000" d="M4.68 183.04c.144-.304.232-.568.264-.792a5.48 5.48 0 0 0 .048-.768V168.472c0-.304-.016-.624-.048-.96a8.86 8.86 0 0 0-.096-.96 7.562 7.562 0 0 0-.12-.816h3.768c-.064.464-.12.92-.168 1.368-.048.448-.072.904-.072 1.368v12.48c.976-.288 2.016-.68 3.12-1.176a31.239 31.239 0 0 0 3.36-1.8 27.501 27.501 0 0 0 3.192-2.304 19.05 19.05 0 0 0 2.664-2.664l1.704 2.712c-1.632 1.968-3.656 3.672-6.072 5.112-2.4 1.424-5.016 2.6-7.848 3.528-.16.064-.368.144-.624.24s-.52.232-.792.408l-2.28-1.968Zm38.616-16.632a1.355 1.355 0 0 0 1.368 1.368c.384 0 .712-.128.984-.384.272-.272.408-.6.408-.984s-.136-.712-.408-.984a1.341 1.341 0 0 0-.984-.408c-.368 0-.688.136-.96.408-.272.272-.408.6-.408.984Zm-1.488 0c0-.528.128-1.008.384-1.44.272-.448.624-.8 1.056-1.056a2.727 2.727 0 0 1 1.416-.384c.528 0 1.008.128 1.44.384.448.256.8.608 1.056 1.056.256.432.384.912.384 1.44 0 .512-.128.984-.384 1.416a3.033 3.033 0 0 1-1.056 1.056 2.772 2.772 0 0 1-1.44.384c-.512 0-.984-.128-1.416-.384a3.328 3.328 0 0 1-1.056-1.056 2.727 2.727 0 0 1-.384-1.416Zm2.904 1.896a4.01 4.01 0 0 0-.288.816c-.08.304-.16.584-.24.84a33.217 33.217 0 0 1-.504 1.992c-.208.72-.456 1.472-.744 2.256-.288.784-.632 1.56-1.032 2.328a14.694 14.694 0 0 1-1.32 2.16c-.72.96-1.56 1.856-2.52 2.688a19.856 19.856 0 0 1-3.216 2.256 21.222 21.222 0 0 1-3.912 1.704l-2.616-2.88c1.6-.384 2.976-.856 4.128-1.416 1.152-.56 2.152-1.2 3-1.92a16.297 16.297 0 0 0 2.28-2.304c.528-.672.976-1.4 1.344-2.184.384-.784.696-1.568.936-2.352.256-.8.432-1.544.528-2.232h-11.16c-.56 0-1.104.008-1.632.024a17.5 17.5 0 0 0-1.224.072v-3.384a23.602 23.602 0 0 0 1.92.168c.368.016.68.024.936.024h11.112c.24 0 .528-.008.864-.024a4.15 4.15 0 0 0 1.008-.168l2.352 1.536Zm8.64-2.712c.336.048.736.08 1.2.096.464.016.896.024 1.296.024h9.24c.368 0 .808-.008 1.32-.024s.936-.048 1.272-.096v3.096c-.32-.032-.736-.048-1.248-.048-.496-.016-.96-.024-1.392-.024h-9.192c-.384 0-.808.008-1.272.024-.448.016-.856.032-1.224.048v-3.096Zm16.344 6.96-.264.528c-.08.192-.144.352-.192.48a26.01 26.01 0 0 1-1.392 3.456 13.369 13.369 0 0 1-2.16 3.192 16.033 16.033 0 0 1-4.032 3.288c-1.488.832-3 1.464-4.536 1.896l-2.376-2.712c1.808-.384 3.416-.944 4.824-1.68s2.568-1.576 3.48-2.52a9.096 9.096 0 0 0 1.536-2.064c.4-.736.712-1.432.936-2.088H53.928c-.288 0-.696.008-1.224.024s-1.048.048-1.56.096v-3.12c.512.032 1.008.064 1.488.096.496.032.928.048 1.296.048h11.88c.384 0 .728-.024 1.032-.072.32-.048.56-.104.72-.168l2.136 1.32Zm21.851-4.824c-.096.144-.24.368-.432.672a5.688 5.688 0 0 0-.408.84 40.246 40.246 0 0 1-1.248 2.52 30.571 30.571 0 0 1-1.656 2.808c-.608.928-1.256 1.8-1.944 2.616a40.341 40.341 0 0 1-2.976 3 32.904 32.904 0 0 1-3.408 2.712c-1.184.816-2.4 1.52-3.648 2.112l-2.472-2.592a22.327 22.327 0 0 0 3.768-1.872 28.143 28.143 0 0 0 3.384-2.448 28.013 28.013 0 0 0 2.688-2.568 20.106 20.106 0 0 0 1.488-1.944c.48-.688.904-1.368 1.272-2.04.368-.688.64-1.32.816-1.896h-8.136c-.336 0-.688.016-1.056.048-.368.016-.72.04-1.056.072-.32.016-.568.032-.744.048v-3.408c.24.016.536.04.888.072a23.397 23.397 0 0 0 1.968.096H87.107c.528 0 1.008-.032 1.44-.096a6.241 6.241 0 0 0 1.032-.216l1.968 1.464Zm-5.376 7.464a33.807 33.807 0 0 1 1.992 1.728c.704.656 1.4 1.336 2.088 2.04.688.704 1.32 1.384 1.896 2.04.592.64 1.088 1.2 1.488 1.68l-2.736 2.376a36.41 36.41 0 0 0-2.04-2.544 51.521 51.521 0 0 0-2.4-2.616 46.573 46.573 0 0 0-2.544-2.496l2.256-2.208Zm19.31-9.312c.384.064.808.112 1.272.144.464.032.896.048 1.296.048h7.848c.416 0 .848-.016 1.296-.048.448-.032.88-.08 1.296-.144v3.096a16.907 16.907 0 0 0-1.296-.048c-.448-.016-.88-.024-1.296-.024h-7.848c-.416 0-.856.008-1.32.024-.464 0-.88.016-1.248.048v-3.096Zm-2.784 6.144c.352.048.728.088 1.128.12.416.016.808.024 1.176.024h15.72c.256 0 .6-.008 1.032-.024a15.23 15.23 0 0 0 1.152-.12v3.12a9.787 9.787 0 0 0-1.056-.048 29.602 29.602 0 0 0-1.128-.024H105.001c-.352 0-.744.008-1.176.024-.416.016-.792.04-1.128.072v-3.144Zm12.288 1.68c0 1.552-.136 2.952-.408 4.2-.272 1.232-.664 2.344-1.176 3.336-.272.544-.656 1.104-1.152 1.68a12.31 12.31 0 0 1-1.656 1.632 10.3 10.3 0 0 1-2.016 1.296l-2.808-2.04a9.08 9.08 0 0 0 2.448-1.416c.784-.64 1.416-1.312 1.896-2.016a8.098 8.098 0 0 0 1.224-3.048c.208-1.12.312-2.328.312-3.624h3.336Zm4.944-9.48c.208.288.424.632.648 1.032.24.4.464.8.672 1.2.224.4.416.752.576 1.056l-1.92.84a52.075 52.075 0 0 0-.912-1.68 16.194 16.194 0 0 0-.984-1.656l1.92-.792Zm2.832-1.08c.208.304.432.664.672 1.08.24.4.472.8.696 1.2.24.384.432.712.576.984l-1.92.84c-.24-.512-.544-1.08-.912-1.704a18.025 18.025 0 0 0-1.008-1.608l1.896-.792Zm21.816 2.184c.16.304.312.656.456 1.056.16.4.312.792.456 1.176.144.384.264.736.36 1.056l-1.656.528c-.112-.336-.24-.696-.384-1.08a33.012 33.012 0 0 0-.408-1.152 8.06 8.06 0 0 0-.432-1.056l1.608-.528Zm2.472-.768c.16.32.32.68.48 1.08.16.384.312.768.456 1.152.16.384.288.728.384 1.032l-1.656.528a29.947 29.947 0 0 0-.576-1.656 13.794 13.794 0 0 0-.72-1.608l1.632-.528Zm-4.536 9.192c0 1.488-.112 2.84-.336 4.056a10.915 10.915 0 0 1-1.104 3.288c-.528.976-1.264 1.864-2.208 2.664-.944.784-2.136 1.496-3.576 2.136l-2.568-2.424c1.152-.416 2.152-.872 3-1.368.848-.496 1.536-1.104 2.064-1.824.544-.72.944-1.592 1.2-2.616.272-1.04.408-2.304.408-3.792v-6.384c0-.48-.016-.912-.048-1.296a19.827 19.827 0 0 0-.096-.936h3.432c-.032.24-.072.552-.12.936-.032.384-.048.816-.048 1.296v6.264Zm-8.664-8.28a16.456 16.456 0 0 0-.144 2.184v8.568c0 .352.008.696.024 1.032.016.32.032.608.048.864s.024.464.024.624h-3.36c.032-.16.056-.36.072-.6.016-.256.032-.552.048-.888.016-.336.024-.68.024-1.032v-8.592c0-.352-.016-.704-.048-1.056a12.846 12.846 0 0 0-.096-1.104h3.408Zm-7.896 4.32c.144.032.344.064.6.096s.552.064.888.096c.336.016.704.024 1.104.024h15.744c.64 0 1.16-.016 1.56-.048.4-.032.76-.072 1.08-.12v3.192a42.801 42.801 0 0 0-2.616-.072h-15.768c-.4 0-.768.008-1.104.024-.32 0-.608.008-.864.024-.24.016-.448.032-.624.048v-3.264Zm24.504 4.872c2.16-.56 4.112-1.208 5.856-1.944 1.76-.752 3.304-1.536 4.632-2.352a26.312 26.312 0 0 0 2.496-1.752c.848-.672 1.64-1.36 2.376-2.064a19.452 19.452 0 0 0 1.896-2.016l2.592 2.472a41.978 41.978 0 0 1-2.424 2.184 39.542 39.542 0 0 1-2.712 2.112 44.442 44.442 0 0 1-2.808 1.848 52.403 52.403 0 0 1-3.072 1.632 47.892 47.892 0 0 1-7.32 2.904l-1.512-3.024Zm9.984-2.76 3.408-.792v10.8c0 .352.008.736.024 1.152.016.416.04.8.072 1.152.032.368.072.648.12.84h-3.792c.032-.192.056-.472.072-.84.032-.352.056-.736.072-1.152.016-.416.024-.8.024-1.152v-10.008Zm18.312-6.144c.416.288.904.64 1.464 1.056.56.416 1.136.872 1.728 1.368.608.48 1.176.952 1.704 1.416.528.464.96.88 1.296 1.248l-2.448 2.496a21.01 21.01 0 0 0-1.2-1.2 52.555 52.555 0 0 0-1.608-1.44 61.294 61.294 0 0 0-1.704-1.416 30.878 30.878 0 0 0-1.488-1.128l2.256-2.4Zm-3 15.984a25.417 25.417 0 0 0 3.528-.744 24.598 24.598 0 0 0 3.072-1.104 27.932 27.932 0 0 0 2.592-1.296 23.21 23.21 0 0 0 3.744-2.784 24.27 24.27 0 0 0 2.976-3.24c.848-1.136 1.52-2.24 2.016-3.312l1.872 3.384a21.84 21.84 0 0 1-2.256 3.216 25.775 25.775 0 0 1-3 3.072 25.641 25.641 0 0 1-3.624 2.592c-.816.496-1.696.968-2.64 1.416-.944.432-1.944.816-3 1.152-1.04.352-2.128.624-3.264.816l-2.016-3.168Z"/><defs><clipPath id="a"><path fill="#fff" d="M5 0h204v145H5z"/></clipPath></defs></svg>