<svg xmlns="http://www.w3.org/2000/svg" width="41" height="41" fill="none"><circle cx="20.5" cy="20.5" r="20.5" fill="#D9D9D9"/><path fill="#201E1C" d="M20.24 28.336c-1.568 0-2.952-.368-4.152-1.104-1.184-.752-2.112-1.824-2.784-3.216-.672-1.392-1.008-3.056-1.008-4.992 0-1.92.336-3.56 1.008-4.92.672-1.36 1.6-2.4 2.784-3.12 1.2-.72 2.584-1.08 4.152-1.08 1.584 0 2.968.368 4.152 1.104 1.184.72 2.112 1.76 2.784 3.12.672 1.344 1.008 2.976 1.008 4.896 0 1.936-.336 3.6-1.008 4.992-.672 1.392-1.6 2.464-2.784 3.216-1.184.736-2.568 1.104-4.152 1.104Zm0-2.904c.88 0 1.64-.256 2.28-.768.656-.512 1.16-1.248 1.512-2.208.352-.96.528-2.104.528-3.432 0-1.264-.176-2.344-.528-3.24-.352-.912-.856-1.608-1.512-2.088-.64-.496-1.4-.744-2.28-.744-.88 0-1.648.248-2.304.744-.64.48-1.136 1.176-1.488 2.088-.336.896-.504 1.976-.504 3.24 0 1.328.168 2.472.504 3.432.352.96.848 1.696 1.488 2.208.656.512 1.424.768 2.304.768ZM26 32.824c-1.264 0-2.392-.216-3.384-.648a7.335 7.335 0 0 1-2.52-1.776 8.16 8.16 0 0 1-1.608-2.52l3.6-.36c.24.576.576 1.048 1.008 1.416.448.368.96.632 1.536.792a5.964 5.964 0 0 0 2.808.168c.336-.064.632-.136.888-.216l.648 2.616c-.32.144-.736.264-1.248.36a8.115 8.115 0 0 1-1.728.168Z"/></svg>