<svg xmlns="http://www.w3.org/2000/svg" width="64" height="64" fill="none"><circle cx="32" cy="32" r="31" fill="#fff" stroke="#FF8A27" stroke-width="2"/><mask id="a" width="39" height="27" x="12" y="20" maskUnits="userSpaceOnUse" style="mask-type:luminance"><path fill="#fff" d="M51 20.613H12v25.489h39V20.613Z"/></mask><g mask="url(#a)"><path fill="#000" stroke="#000" stroke-miterlimit="10" d="M31.559 62.689c9.196 0 16.651-7.614 16.651-17.005 0-9.392-7.455-17.005-16.651-17.005-9.197 0-16.652 7.613-16.652 17.005 0 9.391 7.455 17.005 16.652 17.005Z"/></g><path fill="#fff" stroke="#fff" stroke-miterlimit="10" d="M31.704 43.526c3.036 0 5.497-2.513 5.497-5.613 0-3.1-2.461-5.613-5.497-5.613-3.035 0-5.496 2.513-5.496 5.613 0 3.1 2.46 5.613 5.496 5.613Z"/><path fill="#000" stroke="#000" stroke-miterlimit="10" d="M40.603 23.846c.1 0 .184.2.075.323-.54.592-1.572 1.922-1.364 3.191.352 2.141 8.355 3.553 10.133 2.388.946-.62 1.745-6.685-3.056-9.954-5.807-3.952-24.347-3.416-29.563-.239-4.276 2.605-4.301 8.378-3.298 9.84 1.261 1.838 9.105-.093 9.96-1.196 1.1-1.42-.325-2.773-1.053-4.204-.082-.163-.047-.331.214-.35l17.955.204-.003-.003Z"/></svg>