<?xml version="1.0" encoding="UTF-8"?>
<svg id="_レイヤー_2" data-name="レイヤー 2" xmlns="http://www.w3.org/2000/svg" viewBox="0 0 466.5 468.77">
  <defs>
    <style>
      .cls-1 {
        fill: #929292;
      }

      .cls-2 {
        fill: #fe8927;
      }

      .cls-3 {
        fill: #c9c9c9;
      }

      .cls-4 {
        fill: #fefefe;
      }

      .cls-5 {
        fill: #c8c8c8;
      }
    </style>
  </defs>
  <g id="_レイヤー_2-2" data-name=" レイヤー 2">
    <g id="_レイヤー_1-2" data-name=" レイヤー 1-2">
      <g>
        <path class="cls-4" d="M374.35,47.08l2.09.22c1.57,9.87,2.2,22.26-1.09,31.71,0,.77-.18,1.96-.67,2-10.07.83-30.24,1.1-40.07,0l-1.17-2c1.01.57,1.69,1.39,2.14,2.44.49,1.14-.09,21.72-.37,24.91l-1.77,2.59,4.73,3.15c11.63-.3,23.22-.16,34.8.42l1.4,2.42c.55,10.35.7,20.82.47,31.42.18,1,1.34,2.45,2.12,3.15,2.55,2.28,30.57,4.28,32.35-2.63l-1.76-2.62c-.29-3.9-.6-26.87.39-28.07.39-.47.87-.87,1.38-1.25.32-2.64,1.52-3.05,4.02-3.03l18.58.36,1.36,1.67c29.65,47.08,39.24,106.08,29.63,160.87-7.6,43.35-29.47,88.54-60.57,119.58-90.65,98.01-250.86,97.16-340.34-2C-9.49,318.83-19.25,199.93,33.21,112.64,104.36-5.74,263.92-36.18,374.35,47.08Z"/>
        <path class="cls-2" d="M374.35,47.08c-.16-1.89-.52-5.13,1.64-5.85,6.77-2.27,25.19,1.41,33.3-.14v37.93h40.92c.39,8.58,2.1,19,1.05,27.51-.35,2.84-.72,2.09-2.05,3.43l-4.35,1.05c-10.84.57-21.85.88-33.03.94-.5,1.32-1.34,2.32-2.54,3-.46,10.13,1.12,22.23,0,31.94-.28.87-.62.86-1,0-10,2.63-23,2.65-32.94,0-.89-10.58-.89-21.22,0-31.94-1.17-.53-2.03-1.55-2.59-3.06l-37.58-.89c-1.01-.04-1.38-1.03-1.75-2.04-1.07-9.3.79-20.43,0-29.94h41.92c-.25-9.14.32-18.37.04-27.52-.06-1.98-.96-3.42-1.04-4.42h0Z"/>
        <path class="cls-1" d="M402.3,394.4c-1.82,4.23-6.54,8.32-9.97,11.49-90.69,83.93-227.68,83.76-318.41,0-4.09-3.78-9.48-8.61-11.96-13.49,95.51,98.34,243.5,98.67,340.34,2Z"/>
        <path class="cls-5" d="M449.21,109.95c-4.34,4.36-10.3.64-15.31,1.98-1.05.28-.57,1.95-.65,2.01-2.15,1.41-20-1.76-23.95,1,.08-1.66-.06-3.34,0-5h39.93-.02Z"/>
        <path class="cls-2" d="M411.28,282.62h-124.76c2.39,16.43,23.27,22.86,37.55,24.82,22.82,3.13,47.18-1.07,69.23-6.86l9.06,50.24c-15.28,7-33.67,11.03-50.48,12.63-65.76,6.28-126.01-14.68-135.1-87.44s40.19-136.52,117.13-128.11c67.9,7.42,87.14,76,77.36,134.72h.01Z"/>
        <path class="cls-2" d="M197.7,147.88v71.86c-19.55-3.96-47.01-3.08-56.76,17.59-.63,1.33-3.12,8.03-3.12,8.86v113.28H63.96l-2-207.59h62.88l3.49,37.92c4.15-6.66,6.54-14.19,11.51-20.43,14.33-18.02,35.2-25.03,57.86-21.48h0Z"/>
        <path class="cls-5" d="M333.43,108.95l41.92.99c.06,1.66-.08,3.34,0,5-.28.87-.62.86-1,0-11.03-3.31-26.6,1.04-37.4-1.02-3.2-.61-3.21-2.27-3.52-4.96h0Z"/>
        <path class="cls-3" d="M375.35,146.88c10.05,2.69,22.82,2.55,32.94,0h1c-.31,2.69-.32,4.35-3.52,4.96-3.86.74-21.74.62-25.97.08-3.32-.43-5.06-2.13-5.49-5.49-1.23-9.54,1.01-21.65.05-31.49h1c.48,10.59-.35,21.34,0,31.94h-.01Z"/>
        <path class="cls-5" d="M408.29,146.88c-1.25,1.33-2.64,2.61-4.54,2.95-3.1.55-21.85.63-24.67,0-.23-.05-2.54-2.75-3.72-2.95h32.94,0Z"/>
        <path class="cls-4" d="M345.41,230.72h-59.88c3.02-43.5,59.57-46.29,59.88,0Z"/>
      </g>
    </g>
  </g>
</svg>